<svg width="61" height="53" viewBox="0 0 61 53" fill="none" xmlns="http://www.w3.org/2000/svg">
<path d="M21.3681 30.4678H41.0264M21.3681 30.4678L24.0488 41.1905H38.3457L41.0264 30.4678M21.3681 30.4678C19.581 29.8721 17.079 28.1445 21.3681 26H41.0264C42.5156 26.5957 44.6006 28.3233 41.0264 30.4678" stroke="#435B71"/>
<path d="M24.1475 26C22.1148 20.48 17.2022 17.8733 15 17.26C19.4721 17.26 25.806 22.4267 27.5 23.5C27.5 20.556 19.9126 12.8133 17.0328 10.82C22.318 11.556 27.4754 18.64 29 20.48C29.8131 17.904 25.8415 6.68 24.1475 3C29.4328 5.944 31.3306 17.9733 31.5 21.5C32.7197 17.084 38.2077 9.28667 40.918 8.06C36.8525 11.004 34 20.0867 34 23C36.0328 20.424 43.459 17.26 46 17.26C40.7148 18.364 38.3771 23.5467 37.8689 26H24.1475Z" stroke="#435B71" stroke-linecap="square"/>
</svg>
