<svg width="61" height="53" viewBox="0 0 61 53" fill="none" xmlns="http://www.w3.org/2000/svg">
<path d="M21.7139 31.0297H41.8262M21.7139 31.0297L24.4565 42H39.0836L41.8262 31.0297M21.7139 31.0297C19.8855 30.4202 17.3258 28.6528 21.7139 26.4587H41.8262C43.3498 27.0682 45.4829 28.8356 41.8262 31.0297" stroke="#435B71"/>
<path fill-rule="evenodd" clip-rule="evenodd" d="M24.8001 5.84945L24.7564 5.98445C24.5584 6.60639 24.4269 6.96948 24.298 7.22523C23.9874 7.06211 23.6779 6.89703 23.3694 6.73001C22.8161 6.44219 22.3784 6.25058 21.969 6.13892C21.4689 6.00087 21.0311 5.99104 20.6465 6.16874C20.444 6.2623 20.2708 6.40338 20.1242 6.58305C19.7647 7.02239 19.5721 7.62442 19.3883 8.59147C19.3646 8.71292 19.309 9.02344 19.2761 9.21012L19.2505 9.35276L19.2049 9.58745L19.1791 9.58194C18.8888 9.517 18.5154 9.38578 17.8846 9.1381L17.7621 9.09009C16.8134 8.71465 16.5582 8.61891 16.1902 8.52445C15.8902 8.448 15.6495 8.42117 15.4214 8.46555C15.2107 8.50064 15.0216 8.61515 14.8929 8.78547C14.7642 8.9558 14.7057 9.16897 14.7296 9.38107C14.8219 10.4369 15.0979 11.4686 15.5452 12.4296C17.587 16.843 21.4014 18.7514 25.5753 16.8227C29.7492 14.8939 30.7652 10.7534 28.7234 6.33997C28.2703 5.36055 27.6611 4.48377 26.9267 3.74482C26.7809 3.58898 26.5808 3.49522 26.3677 3.483C26.1546 3.47077 25.945 3.54102 25.7824 3.67917C25.6026 3.82477 25.4718 4.02616 25.344 4.3032C25.1866 4.64189 25.1048 4.8861 24.7995 5.84825L24.8001 5.84945ZM16.7432 11.876C16.4441 11.2295 16.2361 10.5568 16.1229 9.8781C16.3509 9.95294 16.6555 10.0708 17.2769 10.3171L17.4012 10.3657C18.0962 10.639 18.5105 10.7832 18.8893 10.8698C19.6272 11.0346 20.1973 10.9499 20.395 10.2772C20.4484 10.097 20.4925 9.89061 20.5477 9.59188C20.5524 9.57373 20.5631 9.51208 20.5774 9.42989L20.6847 8.83824C20.8281 8.08893 20.9751 7.62715 21.145 7.41928C21.1595 7.39754 21.1779 7.37868 21.1993 7.36369C21.246 7.3421 21.3911 7.34771 21.619 7.40956C21.9177 7.48951 22.283 7.65059 22.7591 7.90003C22.6975 7.86746 23.8163 8.47238 24.0628 8.58083C24.7048 8.8684 25.1382 8.48502 25.4738 7.82126C25.6454 7.48182 25.7931 7.07496 26.0139 6.3829L26.0582 6.24615C26.2427 5.66098 26.3416 5.35946 26.4214 5.14529C26.8573 5.66619 27.2296 6.2542 27.5249 6.89238C29.2852 10.6975 28.4669 14.0332 25.0213 15.6253C21.5758 17.2175 18.503 15.68 16.7432 11.876Z" fill="#435B71"/>
<path fill-rule="evenodd" clip-rule="evenodd" d="M44.3097 11.7395L44.1786 11.7941C43.5771 12.0482 43.2156 12.1844 42.9373 12.2528C42.8594 11.9109 42.7836 11.5685 42.71 11.2257C42.569 10.6184 42.4301 10.1615 42.2488 9.77803C42.0286 9.30853 41.7514 8.96964 41.3662 8.79318C41.1635 8.70028 40.9436 8.66048 40.7117 8.66596C40.1439 8.67865 39.561 8.92383 38.7064 9.41312C38.5986 9.47402 38.3265 9.63373 38.1632 9.73015L38.0381 9.80344L37.83 9.92144L37.8175 9.89825C37.678 9.63557 37.535 9.26677 37.3132 8.62674L37.27 8.50247C36.9385 7.53795 36.8454 7.28197 36.678 6.94114C36.541 6.66362 36.4049 6.4634 36.2228 6.31903C36.0592 6.1819 35.8491 6.11272 35.636 6.12574C35.4228 6.13876 35.2228 6.233 35.077 6.38903C34.3344 7.14567 33.7296 8.02605 33.2899 8.99053C31.2624 13.4105 32.2918 17.5477 36.472 19.463C40.6521 21.3782 44.4603 19.4575 46.4878 15.0375C46.9377 14.0566 47.2081 13.024 47.2923 11.9858C47.316 11.7738 47.2571 11.5609 47.1279 11.3911C46.9986 11.2214 46.8089 11.1079 46.5982 11.0743C46.3706 11.0324 46.1324 11.064 45.8388 11.1472C45.479 11.2478 45.2401 11.3445 44.3102 11.7383L44.3097 11.7395ZM34.4897 9.54026C34.7867 8.89273 35.1629 8.29742 35.6051 7.77013C35.6965 7.99193 35.8049 8.29993 36.0218 8.93186L36.0656 9.05788C36.3098 9.76326 36.4695 10.1716 36.65 10.5156C37.0045 11.183 37.4396 11.5608 38.0796 11.2736C38.2512 11.1969 38.4368 11.0962 38.6998 10.9439C38.7166 10.9357 38.7704 10.9037 38.8422 10.8612L39.3618 10.5579C40.0246 10.1796 40.4712 9.99097 40.7397 9.98485C40.7657 9.9817 40.792 9.98341 40.8173 9.98991C40.8641 10.0113 40.9542 10.1252 41.0553 10.3384C41.1887 10.6172 41.3038 10.9994 41.4237 11.523C41.4084 11.455 41.6761 12.698 41.7539 12.9556C41.9527 13.6301 42.5259 13.7099 43.2488 13.5332C43.6184 13.4428 44.0237 13.2904 44.6933 13.008L44.8261 12.9528C45.3909 12.7123 45.6845 12.5914 45.8991 12.5128C45.7866 13.1824 45.5817 13.8475 45.2885 14.4866C43.5405 18.2974 40.4727 19.8449 37.022 18.2639C33.5714 16.6829 32.7422 13.3499 34.4897 9.54026Z" fill="#435B71"/>
<path d="M24.9182 16.2275C26.4529 18.4442 29.5221 23.6961 29.5221 26.97" stroke="#435B71"/>
<path d="M36.172 18.7854C34.9784 20.6611 32.3866 24.8217 31.5681 26.4586" stroke="#435B71"/>
</svg>
