<svg width="40" height="36" viewBox="0 0 40 36" fill="none" xmlns="http://www.w3.org/2000/svg">
<path d="M36.8998 18C36.8998 26.3643 29.4486 33.5 19.7998 33.5C10.1511 33.5 2.69983 26.3643 2.69983 18C2.69983 9.63574 10.1511 2.5 19.7998 2.5C29.4486 2.5 36.8998 9.63574 36.8998 18Z" fill="#0D0D0E" stroke="white" stroke-width="5"/>
<path fill-rule="evenodd" clip-rule="evenodd" d="M22.5967 14.4101C22.4493 13.0559 21.2504 12 19.7933 12C19.0455 11.997 18.3255 12.2793 17.7943 12.7843C17.3332 13.2228 17.0474 13.7978 16.98 14.4101H16.9795C15.9586 14.4101 15.1008 15.1257 14.8599 16.3683L14.4238 19.5968C14.0526 21.9608 15.211 23 17.4781 23H22.1187C24.2153 23 25.4684 21.8287 25.2111 19.7265L24.7609 16.3899C24.4723 15.1319 23.6366 14.4101 22.6377 14.4101H22.5967ZM21.7563 14.4101C21.6139 13.4968 20.7891 12.7963 19.7916 12.7963C19.2637 12.7942 18.7567 12.9929 18.3827 13.3486C18.079 13.6373 17.8833 14.0102 17.8204 14.4101H21.7563ZM16.9795 15.2062H22.6378C23.2236 15.2062 23.7382 15.6508 23.9403 16.5264L24.3664 19.6984C24.62 21.3861 23.7759 22.2036 22.1187 22.2036H17.4782C15.6838 22.2036 14.9597 21.554 15.2497 19.7066L15.6834 16.4915C15.8491 15.6403 16.3693 15.2062 16.9795 15.2062ZM21.4421 16.6841C21.6724 16.6841 21.859 16.8623 21.859 17.0822C21.859 17.2838 21.7022 17.4503 21.4987 17.4767L21.4421 17.4803H21.4167C21.1864 17.4803 20.9997 17.3021 20.9997 17.0822C20.9997 16.8807 21.1566 16.7141 21.3601 16.6877L21.4167 16.6841H21.4421ZM18.6176 17.0822C18.6176 16.8623 18.431 16.6841 18.2007 16.6841H18.1753L18.1187 16.6877C17.9152 16.7141 17.7583 16.8807 17.7583 17.0822C17.7583 17.3021 17.945 17.4803 18.1753 17.4803H18.2007L18.2573 17.4767C18.4608 17.4503 18.6176 17.2838 18.6176 17.0822Z" fill="white"/>
</svg>
