<svg width="41" height="41" viewBox="0 0 41 41" fill="none" xmlns="http://www.w3.org/2000/svg">
<path d="M20.7502 19.4167C19.6451 19.4167 18.5853 18.9777 17.8039 18.1963C17.0225 17.4149 16.5835 16.3551 16.5835 15.25C16.5835 14.145 17.0225 13.0852 17.8039 12.3038C18.5853 11.5224 19.6451 11.0834 20.7502 11.0834C21.8552 11.0834 22.915 11.5224 23.6964 12.3038C24.4778 13.0852 24.9168 14.145 24.9168 15.25C24.9168 15.7972 24.8091 16.339 24.5997 16.8446C24.3903 17.3501 24.0834 17.8094 23.6964 18.1963C23.3095 18.5832 22.8502 18.8901 22.3447 19.0995C21.8392 19.3089 21.2973 19.4167 20.7502 19.4167ZM20.7502 3.58337C17.656 3.58337 14.6885 4.81254 12.5006 7.00046C10.3127 9.18839 9.0835 12.1558 9.0835 15.25C9.0835 24 20.7502 36.9167 20.7502 36.9167C20.7502 36.9167 32.4168 24 32.4168 15.25C32.4168 12.1558 31.1877 9.18839 28.9997 7.00046C26.8118 4.81254 23.8444 3.58337 20.7502 3.58337Z" fill="black"/>
</svg>
