<svg width="61" height="53" viewBox="0 0 61 53" fill="none" xmlns="http://www.w3.org/2000/svg">
<path d="M22.049 19.4034C22.6447 21.1905 24.5509 24.7647 27.4103 24.7647C30.9845 24.7647 34.5588 23.8712 36.3459 19.4034" stroke="#435B71" stroke-opacity="0.9"/>
<path d="M32.3521 18.5099C32.4355 14.2596 30.6413 9.06872 29.1973 6.00006C26.4389 11.5169 25.553 15.5882 25.6524 18.5099M32.3521 18.5099C32.2979 21.2728 31.4503 23.6383 29.1973 24.7648C27.6659 24.2543 25.7847 22.4026 25.6524 18.5099M32.3521 18.5099C33.6834 18.5099 37.0608 17.4376 39.9202 13.1485C40.06 16.4249 39.541 23.3351 36.3459 24.7648L34.5588 25.6583H23.8361L21.1553 24.7648C17.5577 21.9054 17.8692 15.8292 18.4747 13.1485C21.3341 17.4376 24.4512 18.5099 25.6524 18.5099" stroke="#435B71" stroke-opacity="0.9"/>
<path d="M19.3682 30.1259H39.0265M19.3682 30.1259L22.0489 40.8486H36.3458L39.0265 30.1259M19.3682 30.1259C17.5811 29.5302 15.0791 27.8027 19.3682 25.6581H39.0265C40.5157 26.2538 42.6007 27.9814 39.0265 30.1259" stroke="#435B71" stroke-opacity="0.9"/>
<path d="M29.1971 15.8291V24.7647" stroke="#435B71" stroke-opacity="0.9"/>
</svg>
