<svg width="390" height="356" viewBox="0 0 390 356" fill="none" xmlns="http://www.w3.org/2000/svg">
<path d="M210.091 83.9834C209.716 83.9834 209.379 83.6877 209.3 83.258L207.866 75.43C207.776 74.9385 208.057 74.4586 208.495 74.3573C208.932 74.2555 209.36 74.5723 209.45 75.0638L210.885 82.8918C210.974 83.3833 210.693 83.8632 210.255 83.9645C210.2 83.9773 210.145 83.9834 210.091 83.9834Z" fill="#DEE5DC"/>
<path d="M218.031 80.2959C217.656 80.2959 217.319 80.0003 217.24 79.5705L215.806 71.7425C215.716 71.2514 215.998 70.7711 216.435 70.6701C216.872 70.5684 217.3 70.8856 217.391 71.3767L218.825 79.2047C218.914 79.6958 218.633 80.1761 218.195 80.2771C218.14 80.2898 218.085 80.2959 218.031 80.2959Z" fill="#DEE5DC"/>
<path d="M225.321 78.6125C224.945 78.6125 224.608 78.3168 224.529 77.8871L223.095 70.0591C223.005 69.5676 223.287 69.0877 223.724 68.9863C224.162 68.885 224.59 69.2014 224.68 69.6929L226.114 77.5209C226.204 78.0124 225.922 78.4923 225.485 78.5936C225.43 78.6067 225.375 78.6125 225.321 78.6125Z" fill="#DEE5DC"/>
<path d="M233.501 76.3531C233.125 76.3531 232.788 76.0574 232.709 75.6276L231.275 67.7996C231.186 67.3085 231.467 66.8283 231.905 66.7273C232.342 66.6256 232.77 66.9427 232.86 67.4338L234.294 75.2618C234.384 75.753 234.102 76.2332 233.665 76.3342C233.61 76.3469 233.555 76.3531 233.501 76.3531Z" fill="#DEE5DC"/>
<path d="M240.988 73.8825C240.612 73.8825 240.275 73.5868 240.196 73.1571L238.762 65.3294C238.672 64.8379 238.954 64.3581 239.391 64.2567C239.829 64.155 240.256 64.4718 240.346 64.9633L241.781 72.7909C241.871 73.2824 241.589 73.7623 241.152 73.8636C241.097 73.8763 241.042 73.8825 240.988 73.8825Z" fill="#DEE5DC"/>
<path d="M249.228 71.9797C248.852 71.9797 248.515 71.684 248.436 71.2542L247.002 63.4262C246.913 62.9347 247.195 62.4548 247.632 62.3539C248.07 62.2521 248.497 62.5693 248.587 63.0604L250.021 70.8884C250.111 71.3799 249.829 71.8598 249.392 71.9608C249.337 71.9739 249.282 71.9797 249.228 71.9797Z" fill="#DEE5DC"/>
<path d="M256.517 70.2968C256.141 70.2968 255.805 70.0011 255.726 69.5713L254.292 61.7433C254.202 61.2522 254.483 60.772 254.921 60.671C255.357 60.5689 255.786 60.8864 255.876 61.3775L257.31 69.2055C257.4 69.6967 257.119 70.1769 256.681 70.2779C256.626 70.291 256.571 70.2968 256.517 70.2968Z" fill="#DEE5DC"/>
<path d="M264.817 68.751C264.442 68.751 264.105 68.4553 264.026 68.0256L262.592 60.1976C262.502 59.7064 262.784 59.2262 263.221 59.1252C263.658 59.0231 264.086 59.3406 264.177 59.8318L265.611 67.6598C265.7 68.1509 265.419 68.6311 264.981 68.7321C264.926 68.7448 264.871 68.751 264.817 68.751Z" fill="#DEE5DC"/>
<path d="M272.228 67.7814C271.852 67.7814 271.515 67.4857 271.436 67.056L270.002 59.228C269.912 58.7368 270.194 58.2566 270.631 58.1556C271.069 58.0539 271.497 58.371 271.587 58.8622L273.021 66.6902C273.111 67.1813 272.829 67.6615 272.392 67.7625C272.337 67.7756 272.282 67.7814 272.228 67.7814Z" fill="#DEE5DC"/>
<path d="M280.468 65.8787C280.093 65.8787 279.756 65.583 279.677 65.1533L278.243 57.3252C278.153 56.8341 278.435 56.3539 278.872 56.2529C279.31 56.1508 279.737 56.4683 279.828 56.9594L281.262 64.7874C281.351 65.2786 281.07 65.7588 280.632 65.8598C280.577 65.8725 280.522 65.8787 280.468 65.8787Z" fill="#DEE5DC"/>
<path d="M288.058 65.9804C287.682 65.9804 287.345 65.6847 287.267 65.255L285.833 57.427C285.743 56.9355 286.025 56.4556 286.462 56.3546C286.9 56.2525 287.328 56.57 287.418 57.0612L288.851 64.8892C288.941 65.3807 288.659 65.8605 288.222 65.9615C288.167 65.9742 288.112 65.9804 288.058 65.9804Z" fill="#DEE5DC"/>
<path d="M206.765 80.0368C206.425 80.0368 206.108 79.7941 205.997 79.4116C205.857 78.935 206.089 78.4217 206.513 78.2655C207.045 78.0697 259.764 58.7836 289.941 58.7836C290.076 58.7836 290.209 58.7839 290.343 58.7847C290.79 58.7872 291.15 59.2282 291.148 59.7295C291.145 60.2294 290.784 60.6653 290.339 60.6653C290.338 60.6653 290.336 60.6653 290.335 60.6653C290.204 60.6653 290.07 60.6322 289.938 60.6322C260.02 60.6322 207.546 79.8126 207.017 80.0073C206.934 80.0382 206.849 80.0368 206.765 80.0368Z" fill="#DEE5DC"/>
<path d="M205.718 82.4034C205.718 82.4034 308.171 49.0408 373.906 62.8449V122.784L205.718 82.4034Z" fill="#DEE5DC"/>
<path d="M8.59424 220.449V72.0987C8.59424 72.0987 259.47 67.9153 373.906 122.622V208.864L8.59424 220.449Z" fill="#EAEFE8"/>
<path d="M383.289 127.735C383.184 127.735 383.076 127.712 382.972 127.662C344.237 109.11 276.676 91.9231 210.852 83.8764C210.408 83.8223 210.087 83.374 210.135 82.8753C210.184 82.3769 210.58 82.0169 211.027 82.0706C276.996 90.1351 344.738 107.375 383.608 125.992C384.019 126.188 384.209 126.722 384.034 127.183C383.903 127.529 383.604 127.735 383.289 127.735Z" fill="#161616"/>
<path d="M8.59424 220.328C8.59424 220.328 180.411 155.065 373.906 178.062V304.616L8.59424 300.992V220.328Z" fill="#EAEFE8"/>
<path d="M383.291 178.908C383.254 178.908 383.216 178.905 383.179 178.9C373.783 177.434 364.142 176.164 354.522 175.127C354.078 175.079 353.752 174.635 353.795 174.136C353.837 173.637 354.23 173.268 354.677 173.319C364.32 174.359 373.984 175.631 383.401 177.101C383.844 177.17 384.153 177.628 384.091 178.125C384.035 178.579 383.688 178.908 383.291 178.908Z" fill="#161616"/>
<path d="M342.483 173.942C342.462 173.942 342.44 173.942 342.419 173.939C330.8 172.912 318.87 172.183 306.959 171.772C306.512 171.757 306.161 171.363 306.175 170.862C306.189 170.371 306.548 170.008 306.983 170.008C306.991 170.008 307 170.008 307.008 170.008C318.945 170.371 330.901 171.125 342.546 172.155C342.991 172.194 343.324 172.619 343.289 173.118C343.255 173.594 342.901 173.942 342.483 173.942Z" fill="#161616"/>
<path d="M100.595 192.838C100.219 192.838 99.8822 192.541 99.8039 192.111C99.7145 191.62 99.9967 191.14 100.434 191.039C154.154 178.704 207.625 171.601 259.362 169.928C259.808 169.92 260.181 170.309 260.194 170.81C260.207 171.311 259.855 171.729 259.409 171.744C207.765 173.414 154.387 180.505 100.758 192.819C100.704 192.831 100.649 192.838 100.595 192.838Z" fill="#161616"/>
<path d="M-6.28986 225.141C-6.61861 225.141 -6.92762 224.915 -7.04864 224.548C-7.20363 224.078 -6.98975 223.556 -6.57105 223.381C-6.48433 223.345 2.24401 219.727 17.6227 214.462C31.809 209.606 54.7263 202.312 83.3426 195.141C83.7811 195.034 84.2111 195.341 84.3085 195.83C84.4059 196.32 84.1312 196.805 83.695 196.914C55.1369 204.07 32.2679 211.348 18.1119 216.193C2.77337 221.444 -5.92294 225.048 -6.00933 225.084C-6.10155 225.123 -6.19635 225.141 -6.28986 225.141Z" fill="#161616"/>
<path d="M170.955 172.749L147.449 280.209L167.821 284.417L185.451 209.593C185.451 209.593 193.155 211.543 200.991 209.007L220.971 279.036L240.25 269.506L210.916 170.11" fill="#946D42"/>
<path d="M170.955 173.657C170.726 173.657 170.507 173.548 170.353 173.356C170.189 173.151 170.117 172.872 170.157 172.6L174.728 141.733C174.766 141.474 174.904 141.245 175.104 141.107C175.324 140.956 180.589 137.398 188.914 136.661C197.242 135.924 204.403 139.292 204.704 139.436C204.938 139.548 205.112 139.777 205.173 140.055L210.996 166.668C211.102 167.155 210.837 167.647 210.403 167.767C209.969 167.886 209.531 167.588 209.425 167.101L203.701 140.943C202.15 140.28 195.928 137.862 189.041 138.472C182.233 139.075 177.487 141.711 176.261 142.459L171.919 171.775L210.869 169.203C211.314 169.171 211.698 169.556 211.724 170.056C211.75 170.557 211.41 170.987 210.964 171.017L171.003 173.656C170.987 173.657 170.971 173.657 170.955 173.657Z" fill="#161616"/>
<path d="M152.815 255.678L171.312 269.598L162.011 307.581L145.091 289.137L152.815 255.678Z" fill="#FAFCFA"/>
<path d="M162.011 308.489C161.803 308.489 161.6 308.399 161.447 308.232L144.527 289.789C144.318 289.561 144.235 289.226 144.308 288.91L152.032 255.45C152.097 255.165 152.282 254.933 152.527 254.829C152.772 254.724 153.047 254.759 153.265 254.923L171.762 268.844C172.052 269.061 172.184 269.462 172.092 269.839L162.791 307.821C162.715 308.131 162.499 308.373 162.223 308.457C162.153 308.479 162.081 308.489 162.011 308.489ZM145.992 288.854L161.593 305.859L170.378 269.988L153.312 257.145L145.992 288.854Z" fill="#161616"/>
<path d="M136.216 280.703C136.216 280.703 142.323 276.329 147.441 279.947C152.558 283.566 159.633 291.857 159.633 291.857" fill="#FAFCFA"/>
<path d="M159.633 292.765C159.42 292.765 159.208 292.672 159.048 292.485C158.979 292.403 151.983 284.232 147.01 280.715C145.096 279.362 142.791 279.066 140.159 279.833C138.13 280.425 136.664 281.459 136.65 281.469C136.272 281.738 135.773 281.613 135.534 281.189C135.294 280.766 135.404 280.206 135.781 279.937C135.847 279.889 137.44 278.759 139.703 278.09C142.76 277.184 145.585 277.562 147.872 279.178C153.015 282.815 159.925 290.887 160.217 291.229C160.526 291.591 160.515 292.166 160.192 292.513C160.036 292.681 159.834 292.765 159.633 292.765Z" fill="#161616"/>
<path d="M162.799 306.401C164.098 309.605 151.035 314.096 144.422 306.62C137.777 299.108 129.923 285.096 134.779 281.031C139.634 276.965 157.606 293.595 162.799 306.401Z" fill="#161616"/>
<path d="M136.217 288.58C135.961 288.58 135.709 288.444 135.551 288.19C135.297 287.778 135.387 287.212 135.754 286.926L139.928 283.671C140.295 283.386 140.798 283.488 141.054 283.899C141.308 284.311 141.218 284.877 140.85 285.163L136.677 288.418C136.537 288.527 136.376 288.58 136.217 288.58Z" fill="#EAEFE8"/>
<path d="M137.783 291.805C137.532 291.805 137.285 291.674 137.127 291.428C136.865 291.021 136.948 290.453 137.31 290.16L143.312 285.308C143.674 285.014 144.18 285.107 144.441 285.514C144.702 285.921 144.62 286.488 144.258 286.781L138.256 291.634C138.112 291.75 137.947 291.805 137.783 291.805Z" fill="#EAEFE8"/>
<path d="M139.351 295.031C139.096 295.031 138.845 294.896 138.687 294.644C138.431 294.233 138.52 293.667 138.886 293.379L145.226 288.394C145.593 288.106 146.097 288.206 146.353 288.616C146.609 289.028 146.521 289.594 146.155 289.881L139.814 294.867C139.673 294.978 139.511 295.031 139.351 295.031Z" fill="#EAEFE8"/>
<path d="M146.745 305.384C146.501 305.384 146.261 305.262 146.102 305.028C145.83 304.629 145.898 304.059 146.254 303.755L152.616 298.297C152.971 297.992 153.478 298.068 153.75 298.467C154.021 298.866 153.953 299.436 153.598 299.74L147.236 305.198C147.089 305.324 146.916 305.384 146.745 305.384Z" fill="#EAEFE8"/>
<path d="M149.096 307.73C148.852 307.73 148.612 307.608 148.453 307.374C148.181 306.975 148.249 306.405 148.604 306.101L154.967 300.643C155.322 300.338 155.829 300.414 156.101 300.813C156.372 301.212 156.304 301.782 155.949 302.086L149.587 307.544C149.44 307.67 149.267 307.73 149.096 307.73Z" fill="#EAEFE8"/>
<path d="M235.113 252.266L217.404 267.425L228.747 304.701L244.636 285.137L235.113 252.266Z" fill="#FAFCFA"/>
<path d="M228.747 305.61C228.692 305.61 228.637 305.603 228.582 305.59C228.302 305.525 228.074 305.299 227.981 304.995L216.638 267.719C216.525 267.348 216.636 266.939 216.913 266.702L234.622 251.544C234.831 251.365 235.104 251.311 235.354 251.399C235.604 251.487 235.801 251.705 235.882 251.985L245.405 284.855C245.495 285.166 245.43 285.507 245.234 285.748L229.344 305.314C229.189 305.504 228.972 305.61 228.747 305.61ZM218.357 267.75L229.07 302.955L243.721 284.915L234.696 253.765L218.357 267.75Z" fill="#161616"/>
<path d="M253.037 276.11C253.037 276.11 246.704 272.162 241.791 276.124C236.879 280.085 230.268 288.845 230.268 288.845" fill="#FAFCFA"/>
<path d="M230.267 289.753C230.083 289.753 229.897 289.682 229.745 289.537C229.404 289.213 229.362 288.64 229.651 288.258C229.923 287.897 236.384 279.367 241.319 275.386C243.515 273.616 246.314 273.048 249.414 273.741C251.71 274.255 253.36 275.273 253.43 275.317C253.82 275.56 253.961 276.113 253.744 276.551C253.527 276.989 253.035 277.146 252.645 276.905C252.63 276.896 251.112 275.964 249.054 275.512C246.385 274.927 244.1 275.38 242.264 276.862C237.49 280.712 230.95 289.345 230.885 289.432C230.725 289.644 230.497 289.753 230.267 289.753Z" fill="#161616"/>
<path d="M227.896 303.578C226.773 306.865 240.055 310.455 246.251 302.541C252.476 294.589 259.556 280.067 254.489 276.34C249.422 272.614 232.386 290.441 227.896 303.578Z" fill="#161616"/>
<path d="M253.414 283.975C253.271 283.975 253.126 283.932 252.994 283.843L248.652 280.88C248.271 280.619 248.149 280.06 248.381 279.632C248.614 279.203 249.111 279.068 249.493 279.327L253.835 282.291C254.217 282.551 254.338 283.11 254.106 283.539C253.954 283.82 253.687 283.975 253.414 283.975Z" fill="#EAEFE8"/>
<path d="M252.025 287.302C251.877 287.302 251.728 287.257 251.593 287.162L245.339 282.728C244.962 282.46 244.849 281.899 245.087 281.475C245.326 281.051 245.825 280.924 246.203 281.192L252.457 285.626C252.835 285.893 252.948 286.454 252.709 286.879C252.556 287.152 252.293 287.302 252.025 287.302Z" fill="#EAEFE8"/>
<path d="M250.635 290.629C250.491 290.629 250.345 290.585 250.213 290.495L243.614 285.952C243.233 285.689 243.114 285.13 243.347 284.703C243.581 284.275 244.08 284.141 244.46 284.403L251.059 288.946C251.44 289.209 251.559 289.768 251.325 290.195C251.173 290.475 250.907 290.629 250.635 290.629Z" fill="#EAEFE8"/>
<path d="M243.816 301.468C243.661 301.468 243.504 301.418 243.365 301.314L236.719 296.3C236.348 296.02 236.25 295.456 236.498 295.04C236.748 294.624 237.251 294.513 237.621 294.792L244.268 299.806C244.639 300.086 244.737 300.65 244.488 301.066C244.332 301.327 244.077 301.468 243.816 301.468Z" fill="#EAEFE8"/>
<path d="M241.597 303.97C241.442 303.97 241.284 303.92 241.146 303.815L234.5 298.802C234.129 298.522 234.031 297.958 234.279 297.542C234.529 297.126 235.031 297.015 235.402 297.294L242.048 302.308C242.419 302.588 242.518 303.151 242.269 303.568C242.112 303.829 241.857 303.97 241.597 303.97Z" fill="#EAEFE8"/>
<path d="M185.451 210.794C180.752 210.794 178.715 207.379 178.63 207.233C178.386 206.813 178.492 206.251 178.866 205.976C179.238 205.704 179.738 205.82 179.983 206.238C180.056 206.359 181.669 208.978 185.45 208.978C185.897 208.978 186.259 209.385 186.259 209.886C186.259 210.388 185.898 210.794 185.451 210.794Z" fill="#161616"/>
<path d="M201.477 210.235C201.128 210.235 200.917 210.205 200.88 210.199C200.438 210.131 200.128 209.673 200.189 209.176C200.25 208.681 200.656 208.336 201.097 208.399C201.25 208.422 204.566 208.832 207.985 204.927C208.299 204.57 208.81 204.565 209.129 204.917C209.447 205.268 209.452 205.843 209.138 206.201C205.969 209.82 202.774 210.235 201.477 210.235Z" fill="#161616"/>
<path d="M158.202 231.052L165.465 233.129L168.076 221.4L160.898 218.726L158.202 231.052Z" fill="#B2BCAF"/>
<path d="M169.086 224.498H166.821C166.374 224.498 166.012 224.091 166.012 223.59C166.012 223.088 166.374 222.682 166.821 222.682H169.086C169.532 222.682 169.895 223.088 169.895 223.59C169.895 224.091 169.532 224.498 169.086 224.498Z" fill="#161616"/>
<path d="M167.031 233.451C166.876 233.451 166.721 233.401 166.583 233.298L164.623 231.832C164.252 231.554 164.151 230.99 164.399 230.573C164.647 230.155 165.149 230.042 165.521 230.321L167.48 231.787C167.852 232.065 167.952 232.629 167.704 233.047C167.549 233.309 167.292 233.451 167.031 233.451Z" fill="#161616"/>
<path d="M167.946 228.759C167.881 228.759 167.815 228.75 167.75 228.731L165.66 228.145C165.227 228.023 164.963 227.53 165.072 227.044C165.18 226.557 165.621 226.259 166.053 226.383L168.142 226.97C168.576 227.092 168.839 227.585 168.731 228.071C168.639 228.484 168.309 228.759 167.946 228.759Z" fill="#161616"/>
<path d="M179.304 140.528L178.64 172.829C178.64 172.829 178.981 176.534 181.841 176.339C184.7 176.143 184.617 172.433 184.617 172.433V138.999C184.617 138.999 180.456 140.03 179.304 140.528Z" fill="#946D42"/>
<path d="M181.482 177.255C178.803 177.255 177.888 174.439 177.78 172.901C177.745 172.401 178.078 171.963 178.523 171.924C178.967 171.882 179.357 172.257 179.393 172.755C179.415 173.046 179.682 175.577 181.656 175.433C183.64 175.297 183.604 172.763 183.593 172.475C183.575 171.975 183.92 171.551 184.365 171.528C184.794 171.508 185.187 171.889 185.209 172.388C185.28 173.982 184.649 177.048 181.755 177.246C181.662 177.252 181.571 177.255 181.482 177.255Z" fill="#161616"/>
<path d="M181.535 173.272C181.95 173.272 182.286 172.894 182.286 172.428C182.286 171.963 181.95 171.585 181.535 171.585C181.121 171.585 180.784 171.963 180.784 172.428C180.784 172.894 181.121 173.272 181.535 173.272Z" fill="#161616"/>
<path d="M200.873 139.554L202.844 171.788C202.844 171.788 202.662 175.506 199.798 175.457C196.933 175.409 196.874 171.697 196.874 171.697L195.514 138.299C195.514 138.298 199.702 139.115 200.873 139.554Z" fill="#946D42"/>
<path d="M199.977 176.359C199.953 176.359 199.93 176.359 199.906 176.359C197.008 176.309 196.253 173.257 196.258 171.661C196.26 171.161 196.622 170.734 197.067 170.734C197.068 170.734 197.07 170.734 197.071 170.734C197.517 170.734 197.878 171.166 197.876 171.668C197.877 171.953 197.944 174.498 199.931 174.531C201.963 174.564 202.081 171.865 202.084 171.749C202.098 171.248 202.47 170.86 202.919 170.874C203.365 170.89 203.715 171.312 203.701 171.813C203.654 173.394 202.815 176.359 199.977 176.359Z" fill="#161616"/>
<path d="M199.93 172.379C200.344 172.379 200.681 172.001 200.681 171.536C200.681 171.07 200.344 170.692 199.93 170.692C199.515 170.692 199.179 171.07 199.179 171.536C199.179 172.001 199.515 172.379 199.93 172.379Z" fill="#161616"/>
<path d="M181.846 139.179L184.183 147.015L187.406 137.822C187.406 137.821 183.953 138.381 181.846 139.179Z" fill="#F9FCF7"/>
<path d="M184.183 147.849C184.176 147.849 184.169 147.849 184.162 147.849C183.822 147.849 183.524 147.628 183.416 147.266L181.079 139.449C180.937 138.974 181.164 138.469 181.587 138.309C183.739 137.494 187.146 136.941 187.29 136.918C187.576 136.871 187.861 137.002 188.039 137.256C188.218 137.51 188.263 137.852 188.158 138.153L184.935 147.31C184.813 147.657 184.515 147.849 184.183 147.849ZM182.877 139.775L184.244 144.36L186.131 138.977C185.198 139.164 183.949 139.442 182.877 139.775Z" fill="#161616"/>
<path d="M197.998 138.471L195.94 146.405L192.395 137.362C192.394 137.362 195.865 137.768 197.998 138.471Z" fill="#F9FCF7"/>
<path d="M195.939 147.313C195.62 147.313 195.329 147.101 195.199 146.77L191.654 137.728C191.538 137.432 191.571 137.089 191.741 136.827C191.91 136.566 192.188 136.425 192.478 136.459C192.623 136.476 196.046 136.881 198.226 137.599C198.654 137.741 198.9 138.244 198.775 138.725L196.716 146.658C196.621 147.025 196.332 147.286 195.993 147.31C195.975 147.312 195.957 147.313 195.939 147.313ZM193.709 138.461L195.785 143.755L196.989 139.113C195.906 138.828 194.647 138.606 193.709 138.461Z" fill="#161616"/>
<path d="M191.473 196.035C184.814 196.035 181.449 192.726 179.798 189.951C178.01 186.943 177.818 183.951 177.811 183.826C177.797 183.584 177.87 183.346 178.013 183.164C178.156 182.983 178.358 182.874 178.574 182.86L203.815 181.296C204.225 181.264 204.599 181.606 204.66 182.07C204.688 182.285 205.319 187.386 202.346 191.412C200.24 194.265 196.903 195.813 192.426 196.013C192.102 196.028 191.783 196.035 191.473 196.035ZM179.542 184.62C180.001 187.266 182.196 194.646 192.362 194.198C196.36 194.019 199.3 192.692 201.101 190.253C202.969 187.723 203.146 184.614 203.111 183.159L179.542 184.62Z" fill="#161616"/>
<path d="M189.68 135.656C186.24 135.656 183.382 134.56 181.169 132.389C177.173 128.469 176.775 122.5 176.76 122.248C176.73 121.748 177.067 121.315 177.513 121.281C177.956 121.253 178.343 121.625 178.374 122.125C178.406 122.638 179.291 134.674 190.881 133.793C200.284 133.076 200.392 124.795 200.392 124.442C200.392 123.941 200.754 123.534 201.201 123.534C201.647 123.534 202.01 123.941 202.01 124.442C202.01 128.013 199.707 134.941 190.99 135.605C190.545 135.638 190.108 135.656 189.68 135.656Z" fill="#161616"/>
<path d="M184.404 139.209C184.393 139.209 184.381 139.209 184.37 139.208C183.923 139.188 183.576 138.765 183.595 138.264L183.724 134.71C183.742 134.209 184.12 133.818 184.565 133.84C185.012 133.86 185.359 134.283 185.34 134.784L185.211 138.338C185.193 138.826 184.835 139.209 184.404 139.209Z" fill="#161616"/>
<path d="M194.673 137.726C194.272 137.726 193.924 137.392 193.871 136.933L193.569 134.298C193.512 133.8 193.825 133.345 194.269 133.282C194.707 133.216 195.117 133.569 195.174 134.067L195.476 136.702C195.533 137.199 195.22 137.655 194.777 137.718C194.742 137.723 194.707 137.726 194.673 137.726Z" fill="#161616"/>
<path d="M190.28 169.1C189.833 169.1 189.471 168.693 189.471 168.192V137.314C189.471 136.813 189.833 136.406 190.28 136.406C190.726 136.406 191.089 136.813 191.089 137.314V168.192C191.089 168.693 190.726 169.1 190.28 169.1Z" fill="#161616"/>
<path d="M175.525 142.791C175.384 142.791 175.241 142.749 175.111 142.662L162.35 134.11C162.101 133.944 161.951 133.64 161.956 133.315C161.961 132.99 162.121 132.692 162.374 132.536L175.957 124.129C176.348 123.887 176.84 124.046 177.056 124.486C177.271 124.925 177.129 125.478 176.738 125.72L164.39 133.362L175.94 141.103C176.324 141.36 176.449 141.917 176.22 142.348C176.069 142.633 175.801 142.791 175.525 142.791Z" fill="#161616"/>
<path d="M173.187 158.581C173.025 158.581 172.862 158.527 172.72 158.414L149.238 139.74C149.203 139.712 149.17 139.681 149.139 139.647C148.952 139.441 144.586 134.542 146.719 129.518C148.7 124.849 168.396 115.204 170.635 114.12C171.044 113.921 171.521 114.133 171.698 114.594C171.875 115.054 171.686 115.589 171.275 115.788C171.222 115.814 165.827 118.431 160.274 121.56C150.326 127.166 148.501 129.539 148.179 130.3C146.631 133.945 149.828 137.836 150.231 138.305L173.655 156.932C174.02 157.222 174.106 157.788 173.848 158.198C173.69 158.448 173.44 158.581 173.187 158.581Z" fill="#161616"/>
<path d="M150.614 140.63C150.31 140.63 150.019 140.437 149.881 140.107C149.691 139.653 149.866 139.112 150.27 138.9L162.422 132.508C162.827 132.296 163.308 132.492 163.497 132.945C163.687 133.399 163.512 133.94 163.108 134.153L150.957 140.544C150.846 140.603 150.729 140.63 150.614 140.63Z" fill="#161616"/>
<path d="M157.716 146.278C157.487 146.278 157.259 146.169 157.099 145.957C156.81 145.575 156.852 145.002 157.192 144.677L166.693 135.621C167.033 135.297 167.544 135.343 167.833 135.726C168.122 136.108 168.08 136.681 167.74 137.006L158.239 146.062C158.088 146.207 157.902 146.278 157.716 146.278Z" fill="#161616"/>
<path d="M206.539 141.911C206.264 141.911 205.995 141.753 205.844 141.468C205.615 141.037 205.741 140.48 206.124 140.223L217.675 132.482L205.327 124.84C204.936 124.597 204.794 124.045 205.009 123.606C205.225 123.167 205.717 123.007 206.108 123.249L219.69 131.656C219.944 131.813 220.104 132.11 220.109 132.435C220.114 132.761 219.964 133.064 219.714 133.23L206.953 141.782C206.823 141.869 206.681 141.911 206.539 141.911Z" fill="#161616"/>
<path d="M208.878 157.701C208.625 157.701 208.375 157.568 208.217 157.318C207.959 156.909 208.045 156.342 208.41 156.052L231.833 137.426C232.232 136.958 235.427 133.051 233.886 129.42C233.564 128.66 231.739 126.286 221.791 120.681C216.238 117.551 210.843 114.934 210.789 114.908C210.379 114.709 210.19 114.175 210.367 113.714C210.544 113.254 211.021 113.041 211.43 113.24C213.669 114.324 233.365 123.969 235.347 128.638C237.479 133.661 233.113 138.561 232.927 138.767C232.896 138.801 232.863 138.833 232.827 138.861L209.345 157.534C209.202 157.647 209.04 157.701 208.878 157.701Z" fill="#161616"/>
<path d="M231.45 139.75C231.336 139.75 231.219 139.723 231.108 139.664L218.956 133.273C218.552 133.06 218.377 132.519 218.567 132.065C218.756 131.611 219.237 131.415 219.642 131.628L231.794 138.02C232.198 138.232 232.373 138.773 232.183 139.227C232.046 139.557 231.755 139.75 231.45 139.75Z" fill="#161616"/>
<path d="M224.348 145.398C224.163 145.398 223.978 145.327 223.825 145.182L214.325 136.126C213.984 135.801 213.942 135.228 214.232 134.846C214.521 134.464 215.031 134.417 215.372 134.741L224.872 143.797C225.213 144.122 225.255 144.695 224.965 145.077C224.805 145.289 224.577 145.398 224.348 145.398Z" fill="#161616"/>
<path d="M191.88 126.022C180.922 126.022 172.007 117.622 172.007 107.295C172.007 96.9689 180.922 88.568 191.88 88.568C202.838 88.568 211.753 96.9689 211.753 107.295C211.753 117.622 202.838 126.022 191.88 126.022ZM191.88 90.3843C181.814 90.3843 173.625 97.9708 173.625 107.295C173.625 116.62 181.814 124.206 191.88 124.206C201.946 124.206 210.135 116.62 210.135 107.295C210.135 97.9704 201.947 90.3843 191.88 90.3843Z" fill="#161616"/>
<path d="M192.378 118.124C189.735 118.124 187.135 117.181 185.054 115.467C182.654 113.49 181.141 110.625 180.903 107.608C180.683 104.836 181.532 102.166 183.291 100.09C185.255 97.7728 188.182 96.4432 191.319 96.4432C193.962 96.4432 196.563 97.387 198.643 99.1005C201.043 101.078 202.556 103.942 202.795 106.959C203.014 109.731 202.166 112.401 200.406 114.477C198.442 116.795 195.515 118.124 192.378 118.124ZM191.319 98.2599C188.623 98.2599 186.123 99.3835 184.464 101.342C183.029 103.034 182.337 105.202 182.515 107.448C182.712 109.945 183.987 112.334 186.012 114.002C187.817 115.489 190.077 116.308 192.378 116.308C195.075 116.308 197.574 115.184 199.234 113.225C200.669 111.533 201.361 109.365 201.183 107.119C200.986 104.622 199.711 102.233 197.686 100.565C195.881 99.0787 193.62 98.2599 191.319 98.2599Z" fill="#161616"/>
<path d="M194.911 116.093C192.163 116.093 189.369 115.038 187.043 113.121C184.392 110.937 182.734 107.935 182.493 104.883C182.313 102.612 182.961 100.48 184.318 98.8796C185.862 97.0571 188.179 96.0534 190.839 96.0534C193.587 96.0534 196.381 97.1087 198.707 99.0253C201.357 101.209 203.016 104.211 203.257 107.262C203.437 109.534 202.789 111.666 201.433 113.267C199.887 115.09 197.571 116.093 194.911 116.093ZM190.839 97.8701C188.625 97.8701 186.726 98.6733 185.49 100.132C184.443 101.367 183.964 102.954 184.104 104.723C184.304 107.255 185.724 109.782 188 111.657C190.05 113.347 192.505 114.277 194.911 114.277C197.124 114.277 199.024 113.474 200.261 112.015C201.307 110.781 201.786 109.193 201.646 107.423C201.446 104.892 200.025 102.365 197.75 100.49C195.699 98.8004 193.245 97.8701 190.839 97.8701Z" fill="#161616"/>
<path d="M190.118 130.412H188.319C188.069 130.412 187.832 130.282 187.679 130.06C187.526 129.838 187.473 129.549 187.535 129.277L188.108 126.785C188.22 126.299 188.66 126.007 189.094 126.132C189.527 126.258 189.787 126.753 189.675 127.238L189.363 128.596H190.118C190.565 128.596 190.927 129.002 190.927 129.504C190.927 130.006 190.565 130.412 190.118 130.412Z" fill="#161616"/>
<path d="M192.912 131.827C193.043 132.629 196.419 131.705 196.882 130.256C197.344 128.806 195.081 127.637 194.109 128.077C193.135 128.516 192.59 129.858 192.912 131.827Z" fill="#161616"/>
<path d="M65.4652 222.941C65.8622 224.164 65.2998 225.518 64.21 225.963C63.1196 226.408 61.9143 225.776 61.5176 224.553L27.6416 120.032C27.2439 118.809 27.8063 117.456 28.8961 117.011C29.9862 116.565 31.1921 117.196 31.5882 118.42L65.4652 222.941Z" fill="#DEE5DC"/>
<path d="M63.4919 227.014C62.2733 227.014 61.1741 226.15 60.7573 224.864L26.8814 120.343C26.6154 119.525 26.649 118.638 26.9775 117.847C27.3059 117.056 27.889 116.456 28.6196 116.157C28.9402 116.026 29.2751 115.96 29.6142 115.96C30.8335 115.96 31.932 116.824 32.3484 118.11L66.2251 222.63C66.4907 223.45 66.4564 224.337 66.128 225.128C65.7992 225.918 65.2165 226.518 64.4862 226.816C64.1652 226.947 63.831 227.014 63.4919 227.014ZM29.6142 117.776C29.4641 117.776 29.3156 117.806 29.1726 117.864C28.8484 117.997 28.5895 118.263 28.4439 118.614C28.2986 118.964 28.2834 119.357 28.4015 119.721L62.2775 224.243C62.4626 224.813 62.9508 225.197 63.4919 225.197C63.642 225.197 63.7905 225.168 63.9335 225.109C64.2571 224.977 64.5159 224.711 64.6616 224.36C64.8075 224.009 64.8227 223.616 64.7046 223.252L30.828 118.731C30.6432 118.159 30.1556 117.776 29.6142 117.776Z" fill="#161616"/>
<path d="M32.3406 137.69L37.9545 135.179C37.9545 135.179 33.0634 104.399 25.0877 105.223C17.111 106.046 32.3406 137.69 32.3406 137.69Z" fill="#946D42"/>
<path d="M62.6668 214.882C62.6668 214.882 67.8397 225.808 74.5878 224.651C80.7635 223.591 89.6513 255.036 89.6513 255.036C89.6513 255.036 88.2163 259.804 86.8544 256.178C85.4931 252.552 78.1031 234.199 75.8138 234.606C73.5245 235.012 81.707 258.11 81.707 258.11C81.707 258.11 81.4986 264.365 78.9583 260.55C76.4179 256.735 70.6719 236.707 68.1442 237.53C65.6174 238.353 73.7203 262.856 73.7203 262.856C73.7203 262.856 73.179 267.43 71.2398 264.895C69.3013 262.36 62.7862 238.814 59.7559 240.958C57.4993 242.552 64.4846 265.317 64.4846 265.317C64.4846 265.317 64.8991 273.493 61.6851 266.449C60.1927 263.179 51.4968 243.304 53.1298 234.882C53.9663 230.566 61.7575 229.893 58.8842 216.429L62.6668 214.882Z" fill="white"/>
<path d="M63.7118 270.218C62.8486 270.218 62.0529 269.246 60.9654 266.862C59.8973 264.523 50.5836 243.744 52.3396 234.688C52.6551 233.06 53.731 231.927 54.8699 230.729C57.1382 228.342 59.9607 225.371 58.0975 216.64C58.0018 216.191 58.2215 215.733 58.6075 215.575L62.3901 214.029C62.7686 213.875 63.1915 214.056 63.3808 214.456C63.4255 214.549 67.8959 223.829 73.5821 223.829C73.8765 223.829 74.1736 223.804 74.4654 223.754C74.6068 223.73 74.7521 223.717 74.8967 223.717C79.2782 223.717 83.8302 235.575 85.3261 239.471C88.2272 247.028 90.4003 254.684 90.4217 254.761C90.4738 254.945 90.4722 255.143 90.4168 255.327C90.1347 256.265 89.3306 258.447 87.9645 258.447H87.9642C86.8278 258.447 86.2861 257.005 86.1085 256.532C81.947 245.444 77.7108 237.336 76.1962 235.768C76.204 238.484 79.3002 248.86 82.4583 257.775C82.4997 257.892 82.5191 258.018 82.5149 258.145C82.4796 259.211 82.2208 262.692 80.3839 262.692C79.6946 262.692 79.0359 262.184 78.3101 261.095C77.274 259.538 75.861 255.774 74.2247 251.416C72.656 247.238 69.807 239.649 68.4696 238.533C68.0555 240.901 71.1708 252.538 74.4784 262.54C74.5243 262.679 74.5392 262.829 74.522 262.976C74.4221 263.818 73.9681 266.569 72.3133 266.569C72.313 266.569 72.313 266.569 72.313 266.569C71.7345 266.569 71.1828 266.216 70.6259 265.488C69.9118 264.554 68.9175 261.847 67.2213 257.141C65.9652 253.657 64.5418 249.709 63.1847 246.632C61.2964 242.352 60.4066 241.807 60.2105 241.738C59.617 243.139 61.343 252.29 65.2491 265.021C65.2734 265.1 65.288 265.182 65.2922 265.266C65.3452 266.312 65.3841 268.847 64.603 269.775C64.3622 270.061 64.0454 270.218 63.7118 270.218ZM59.8306 217.008C61.5701 226.167 58.347 229.559 55.9762 232.054C54.9443 233.14 54.1289 233.998 53.9202 235.074C52.2561 243.657 61.9898 265.124 62.4053 266.034C62.945 267.217 63.3206 267.821 63.5504 268.126C63.6652 267.537 63.7238 266.483 63.683 265.49C63.421 264.628 61.8316 259.355 60.4952 253.979C57.4045 241.546 58.6541 240.663 59.3252 240.189C59.5853 240.005 59.8697 239.912 60.17 239.912C62.382 239.912 64.5958 245.016 68.7214 256.459C69.9781 259.946 71.2776 263.551 71.8539 264.304C72.0855 264.606 72.2321 264.707 72.2933 264.739C72.4981 264.546 72.7673 263.731 72.889 262.95C71.0802 257.463 65.7096 240.561 67.1048 237.449C67.3332 236.94 67.6736 236.738 67.9189 236.657C68.0428 236.617 68.171 236.597 68.3007 236.597C70.2088 236.597 72.1147 241.116 75.7163 250.71C77.2452 254.782 78.689 258.628 79.6066 260.006C79.9985 260.595 80.2437 260.788 80.3463 260.849C80.5851 260.537 80.831 259.37 80.8909 258.261C80.5473 257.283 78.9045 252.57 77.4018 247.674C73.8956 236.251 74.5369 234.987 74.8453 234.379C75.0326 234.01 75.3319 233.772 75.6879 233.708C75.7542 233.696 75.8215 233.69 75.8914 233.69C76.9372 233.69 78.4596 234.894 82.4774 243.626C84.8902 248.871 87.0384 254.327 87.6005 255.825C87.7707 256.278 87.9082 256.491 87.9845 256.584C88.2104 256.37 88.5611 255.693 88.7977 255.016C85.5138 243.489 78.9181 225.533 74.898 225.533C74.8349 225.533 74.7718 225.539 74.711 225.549C74.3386 225.613 73.9593 225.646 73.5834 225.646C67.8623 225.646 63.5352 218.327 62.303 215.998L59.8306 217.008Z" fill="#161616"/>
<path d="M31.0579 263.564L34.6223 261.779C34.6223 261.779 37.3652 268.361 38.4615 269.741C39.5584 271.12 50.335 283.124 40.689 285.599C40.689 285.599 37.5814 286.391 35.3284 278.857C33.0753 271.323 31.0579 263.564 31.0579 263.564Z" fill="#161616"/>
<path d="M34.8734 262.374L34.5805 261.726L31.6224 255.19C31.6224 255.19 20.3757 249.086 22.766 240.863C25.1562 232.64 35.7166 225.553 44.7575 231.178C44.7575 231.178 32.8177 216.104 19.7674 232.913C6.85304 249.547 28.4508 260.807 28.4508 260.807C28.4508 260.807 30.3709 260.972 31.0584 263.564L34.8734 262.374Z" fill="#DEE5DC"/>
<path d="M31.0577 264.472C30.7086 264.472 30.3872 264.217 30.2824 263.823C29.7598 261.852 28.4025 261.714 28.3885 261.713C28.2918 261.704 28.1973 261.676 28.1096 261.631C27.6527 261.392 16.8998 255.687 15.0943 246.156C14.2245 241.564 15.5913 236.907 19.1571 232.315C23.4123 226.834 28.0216 224.055 32.8577 224.055C39.7705 224.055 44.6681 229.729 45.2994 230.497C45.467 230.663 45.5725 230.906 45.5725 231.177C45.5725 231.678 45.212 232.084 44.7664 232.085C44.6289 232.09 44.4914 232.05 44.3652 231.972C42.3361 230.709 40.1455 230.07 37.8537 230.07C30.9056 230.07 25.1172 235.7 23.535 241.144C21.3926 248.515 31.8689 254.314 31.9747 254.372C32.1336 254.458 32.2636 254.601 32.3436 254.778L35.5948 261.963C35.7045 262.206 35.7113 262.491 35.6139 262.74C35.5159 262.989 35.324 263.176 35.09 263.249L31.2748 264.438C31.202 264.461 31.1295 264.472 31.0577 264.472ZM28.6895 259.928C29.2085 260.029 30.717 260.486 31.5505 262.468L33.7048 261.796L31.0218 255.867C29.2797 254.861 19.5958 248.842 21.9967 240.581C24.0061 233.668 30.971 228.253 37.8537 228.253C38.7632 228.253 39.6582 228.343 40.5357 228.521C38.5655 227.152 35.907 225.872 32.8577 225.872C28.5102 225.872 24.3112 228.441 20.3769 233.508C17.1648 237.646 15.92 241.772 16.6759 245.773C18.2223 253.953 27.601 259.33 28.6895 259.928Z" fill="#161616"/>
<path d="M247.957 210.161C247.957 210.161 246.931 212.046 249.264 212.432L246.788 230.664C246.788 230.664 245.473 236.7 250.008 236.737C254.543 236.774 276.554 237.31 276.554 237.31L279.652 200.423L249.732 200.918L247.957 210.161Z" fill="#F7F9F7"/>
<path d="M287.13 233.121L281.699 200.549L279.652 200.423L277.511 225.928L277.198 238.448L287.13 233.121Z" fill="#F7F9F7"/>
<path d="M276.555 238.302C276.549 238.302 276.543 238.302 276.537 238.302C276.317 238.302 254.48 237.723 250.002 237.687C248.558 237.676 247.454 237.114 246.723 236.06C245.336 234.062 245.907 230.928 245.993 230.503L248.353 213.121C247.743 212.877 247.321 212.478 247.093 211.933C246.729 211.061 247.039 210.182 247.196 209.834L248.946 201.794C249.052 201.307 249.491 201.008 249.924 201.127C250.358 201.246 250.623 201.738 250.518 202.225L248.743 210.377C248.723 210.468 248.691 210.555 248.647 210.635C248.58 210.766 248.505 211.038 248.559 211.161C248.609 211.278 248.855 211.446 249.381 211.533C249.594 211.569 249.786 211.697 249.914 211.892C250.042 212.086 250.096 212.329 250.064 212.568L247.588 230.801C247.584 230.827 247.58 230.854 247.574 230.879C247.418 231.609 247.189 233.761 248.001 234.926C248.42 235.526 249.078 235.821 250.014 235.829C254.027 235.861 271.916 236.29 275.82 236.384L278.847 200.338C278.888 199.852 279.259 199.481 279.697 199.516L281.743 199.642C282.115 199.664 282.425 199.97 282.494 200.382L287.925 232.953C287.996 233.375 287.793 233.795 287.438 233.96L279.557 237.61C279.145 237.802 278.671 237.581 278.501 237.117C278.33 236.654 278.527 236.123 278.94 235.932L286.214 232.562L281.02 201.417L280.384 201.378L277.359 237.437C277.321 237.905 276.971 238.302 276.555 238.302Z" fill="#161616"/>
<path d="M287.131 234.029C287.051 234.029 286.97 234.016 286.889 233.988L276.957 230.512C276.531 230.362 276.293 229.853 276.426 229.374C276.559 228.895 277.013 228.629 277.439 228.777L287.371 232.254C287.797 232.403 288.036 232.912 287.903 233.391C287.794 233.78 287.475 234.029 287.131 234.029Z" fill="#161616"/>
<path d="M244.871 201.249C244.598 201.249 244.343 201.132 244.193 200.874C244.044 200.617 244.02 200.311 244.131 200.03L248.229 189.612C248.358 189.28 248.666 189.075 248.975 189.075L280.371 189.351C280.611 189.353 280.838 189.477 280.991 189.685C281.143 189.894 281.205 190.168 281.159 190.433L279.422 200.533C279.348 200.959 279.016 201.231 278.629 201.232L244.872 201.249C244.872 201.249 244.871 201.249 244.871 201.249ZM249.494 190.901L246.113 199.505L277.96 199.454L279.386 191.161L249.494 190.901Z" fill="#161616"/>
<path d="M279.76 200.43L281.698 200.549L280.364 190.262L279.76 200.43Z" fill="#161616"/>
<path d="M281.699 201.458C281.684 201.458 281.669 201.457 281.654 201.456L279.716 201.337C279.5 201.324 279.298 201.214 279.155 201.032C279.012 200.851 278.939 200.612 278.953 200.37L279.558 190.201C279.585 189.738 279.92 189.372 280.333 189.354C280.754 189.339 281.106 189.671 281.165 190.131L282.499 200.419C282.534 200.688 282.459 200.961 282.296 201.162C282.142 201.351 281.925 201.458 281.699 201.458ZM280.622 199.574L280.756 199.582L280.664 198.872L280.622 199.574Z" fill="#161616"/>
<path d="M261.189 228.979C261.151 228.979 261.113 228.977 261.074 228.97C260.641 228.901 260.336 228.459 260.384 227.971C260.394 227.871 261.345 217.863 258.21 213.476C257.931 213.085 257.987 212.513 258.335 212.199C258.684 211.885 259.193 211.949 259.473 212.339C261.261 214.843 261.899 218.724 262.085 222.019C263.104 219.625 264.657 217.25 266.941 216.508C267.37 216.368 267.819 216.646 267.943 217.128C268.067 217.609 267.82 218.113 267.391 218.253C265.354 218.915 264.002 221.527 263.227 223.601C262.343 225.969 261.989 228.206 261.985 228.228C261.916 228.667 261.576 228.979 261.189 228.979Z" fill="#946D42"/>
<path d="M253.679 205.208C253.679 205.208 253.779 221.654 260.334 216.447C265.039 212.711 256.736 205.866 253.679 205.208Z" fill="#946D42"/>
<path d="M265.039 218.568C265.009 218.708 270.4 222.15 272.305 214.255C272.305 214.255 266.711 210.708 265.039 218.568Z" fill="#946D42"/>
<path d="M247.39 197.616H246.42C245.973 197.616 245.611 197.21 245.611 196.708C245.611 196.206 245.973 195.8 246.42 195.8H247.39C247.837 195.8 248.199 196.206 248.199 196.708C248.199 197.21 247.837 197.616 247.39 197.616Z" fill="#161616"/>
<path d="M274.894 197.616H272.629C272.182 197.616 271.82 197.21 271.82 196.708C271.82 196.206 272.182 195.8 272.629 195.8H274.894C275.341 195.8 275.703 196.206 275.703 196.708C275.703 197.21 275.341 197.616 274.894 197.616ZM269.393 197.616H267.128C266.681 197.616 266.319 197.21 266.319 196.708C266.319 196.206 266.681 195.8 267.128 195.8H269.393C269.84 195.8 270.202 196.206 270.202 196.708C270.202 197.21 269.84 197.616 269.393 197.616ZM263.892 197.616H261.627C261.18 197.616 260.818 197.21 260.818 196.708C260.818 196.206 261.18 195.8 261.627 195.8H263.892C264.339 195.8 264.701 196.206 264.701 196.708C264.701 197.21 264.339 197.616 263.892 197.616ZM258.392 197.616H256.127C255.68 197.616 255.318 197.21 255.318 196.708C255.318 196.206 255.68 195.8 256.127 195.8H258.392C258.838 195.8 259.2 196.206 259.2 196.708C259.2 197.21 258.838 197.616 258.392 197.616ZM252.891 197.616H250.626C250.179 197.616 249.817 197.21 249.817 196.708C249.817 196.206 250.179 195.8 250.626 195.8H252.891C253.338 195.8 253.7 196.206 253.7 196.708C253.7 197.21 253.338 197.616 252.891 197.616Z" fill="#161616"/>
<path d="M279.424 197.616H278.129C277.683 197.616 277.321 197.21 277.321 196.708C277.321 196.206 277.683 195.8 278.129 195.8H279.424C279.871 195.8 280.233 196.206 280.233 196.708C280.233 197.21 279.871 197.616 279.424 197.616Z" fill="#161616"/>
<path d="M273.002 136.179L265.378 164.557C265.378 164.557 262.34 173.925 269.836 175.574C277.332 177.223 291.131 178.672 300.258 175.035C300.258 175.035 305.241 173.589 303.491 164.339C301.74 155.088 299.109 136.86 299.109 136.86C299.109 136.86 295.927 128.793 285.466 128.389C275.006 127.987 273.002 136.179 273.002 136.179Z" fill="#946D42"/>
<path d="M287.706 139.803C279.872 139.803 273.394 137.02 273.007 136.85C272.591 136.668 272.385 136.141 272.547 135.674C272.71 135.207 273.18 134.977 273.595 135.158C273.726 135.215 286.838 140.837 297.941 135.991C298.358 135.809 298.826 136.041 298.988 136.508C299.149 136.975 298.943 137.502 298.527 137.684C294.93 139.254 291.184 139.803 287.706 139.803Z" fill="#161616"/>
<path d="M291.15 131C291.074 131 290.997 130.988 290.921 130.962C290.492 130.82 290.247 130.315 290.374 129.834C290.379 129.815 290.932 127.594 289.946 125.973C289.311 124.929 288.14 124.312 286.466 124.138C284.658 123.952 283.336 124.317 282.54 125.225C281.508 126.401 281.648 128.186 281.649 128.203C281.697 128.702 281.376 129.15 280.932 129.204C280.488 129.262 280.089 128.897 280.041 128.398C280.031 128.291 279.807 125.751 281.387 123.95C282.541 122.635 284.302 122.089 286.615 122.329C288.799 122.556 290.372 123.442 291.291 124.963C292.703 127.303 291.958 130.225 291.925 130.349C291.822 130.744 291.499 131 291.15 131Z" fill="#161616"/>
<path d="M303.491 165.247C303.268 165.247 303.045 165.144 302.885 164.941C302.589 164.565 302.621 163.991 302.955 163.659L313.309 153.381C313.346 153.344 313.387 153.311 313.43 153.282C313.541 153.206 316.203 151.339 315.558 147.917C314.95 144.692 311.529 145.359 311.384 145.388C311.329 145.4 311.271 145.404 311.219 145.403L300.22 145.117C299.774 145.105 299.42 144.689 299.431 144.188C299.441 143.686 299.807 143.288 300.258 143.301L311.177 143.586C312.969 143.25 316.409 143.655 317.142 147.542C317.839 151.243 315.644 153.872 314.329 154.795L304.028 165.02C303.873 165.172 303.682 165.247 303.491 165.247Z" fill="#161616"/>
<path d="M304.27 159.988C304.044 159.988 303.82 159.883 303.66 159.678C303.366 159.3 303.401 158.726 303.738 158.396L309.512 152.74C309.547 152.706 309.584 152.675 309.623 152.648C309.673 152.613 310.944 151.694 310.641 150.084C310.381 148.709 308.9 148.927 308.731 148.957C308.684 148.966 308.63 148.969 308.583 148.969L302.41 148.808C301.963 148.796 301.609 148.38 301.62 147.879C301.63 147.377 302.006 146.979 302.447 146.992L308.55 147.151C309.665 146.973 311.767 147.287 312.224 149.708C312.72 152.339 310.922 153.858 310.534 154.15L304.802 159.765C304.648 159.915 304.459 159.988 304.27 159.988Z" fill="#161616"/>
<path d="M265.379 165.465C265.07 165.465 264.774 165.264 264.64 164.927L253.587 137.134C253.424 136.724 253.553 136.241 253.891 135.999L256.649 134.022C256.955 133.802 257.353 133.839 257.624 134.11L269.759 146.308C270.091 146.642 270.12 147.216 269.822 147.59C269.524 147.964 269.012 147.995 268.679 147.661L257.002 135.923L255.349 137.108L266.118 164.187C266.3 164.645 266.117 165.182 265.709 165.386C265.602 165.44 265.49 165.465 265.379 165.465Z" fill="#161616"/>
<path d="M246.907 136.562C245.841 136.562 245.317 136.075 245.065 135.666C244.644 134.985 244.457 133.715 245.951 131.529C246.934 130.09 248.449 128.54 250.214 127.167C252.85 125.116 255.553 123.842 257.269 123.842C258.334 123.842 258.859 124.33 259.111 124.738C260.398 126.825 257.344 130.607 253.961 133.238C251.325 135.289 248.622 136.562 246.907 136.562ZM257.268 125.659C256.136 125.659 253.8 126.587 251.136 128.66C249.504 129.929 248.119 131.34 247.234 132.634C246.334 133.951 246.353 134.565 246.394 134.631C246.408 134.654 246.543 134.746 246.907 134.746C248.039 134.746 250.374 133.818 253.04 131.745C256.775 128.838 258.025 126.169 257.781 125.773C257.767 125.75 257.632 125.659 257.268 125.659Z" fill="#161616"/>
<path d="M250.872 138.668C247.673 138.668 245.755 136.207 245.727 136.171C245.438 135.788 245.479 135.216 245.819 134.89C246.159 134.565 246.669 134.611 246.96 134.994C247.085 135.156 250.151 139.002 255.129 135.129C260.166 131.21 257.828 125.893 257.726 125.669C257.522 125.222 257.68 124.675 258.078 124.447C258.478 124.219 258.964 124.396 259.167 124.843C260.253 127.233 261 132.771 256.05 136.622C254.092 138.145 252.346 138.668 250.872 138.668Z" fill="#161616"/>
<path d="M298.233 162.803C297.848 162.803 297.507 162.494 297.438 162.053L294.374 142.576C294.297 142.082 294.59 141.611 295.03 141.524C295.469 141.437 295.89 141.766 295.967 142.26L299.03 161.737C299.108 162.231 298.814 162.702 298.375 162.789C298.327 162.799 298.28 162.803 298.233 162.803Z" fill="#DEE5DC"/>
<path d="M299.7 170.19C299.325 170.19 298.989 169.895 298.909 169.467L298.413 166.803C298.322 166.312 298.602 165.831 299.04 165.728C299.478 165.628 299.906 165.941 299.997 166.432L300.493 169.096C300.584 169.587 300.304 170.068 299.867 170.17C299.811 170.184 299.755 170.19 299.7 170.19Z" fill="#DEE5DC"/>
<path d="M327.224 320.823C326.859 320.823 326.537 320.547 326.443 320.148L309.92 250.186C309.857 249.919 309.905 249.634 310.052 249.412C310.199 249.19 310.428 249.055 310.675 249.045L356.19 247.323C356.564 247.302 356.903 247.589 357 247.999L373.394 317.563C373.456 317.829 373.409 318.113 373.263 318.335C373.118 318.556 372.891 318.692 372.646 318.703L327.258 320.823C327.247 320.823 327.235 320.823 327.224 320.823ZM311.744 250.823L327.84 318.978L371.572 316.936L355.6 249.163L311.744 250.823Z" fill="#161616"/>
<path d="M320.84 335.959C320.473 335.959 320.15 335.68 320.058 335.28L306.257 275.826C306.228 275.704 306.223 275.576 306.241 275.452L309.903 250.038C309.974 249.542 310.389 249.204 310.831 249.286C311.272 249.367 311.571 249.833 311.5 250.328L307.865 275.553L321.459 334.116L365.305 332.321L371.887 317.393C372.085 316.944 372.57 316.759 372.971 316.982C373.371 317.205 373.535 317.749 373.337 318.199L366.542 333.612C366.41 333.91 366.144 334.104 365.847 334.116L320.87 335.958C320.86 335.958 320.85 335.959 320.84 335.959Z" fill="#161616"/>
<path d="M320.84 335.959C320.724 335.959 320.606 335.931 320.494 335.871C320.091 335.657 319.918 335.115 320.11 334.662L326.493 319.527C326.685 319.073 327.167 318.88 327.571 319.095C327.974 319.309 328.147 319.851 327.955 320.304L321.572 335.439C321.433 335.767 321.143 335.959 320.84 335.959Z" fill="#161616"/>
<path d="M327.096 271.021C332.159 271.021 336.264 267.172 336.264 262.424C336.264 257.676 332.159 253.827 327.096 253.827C322.033 253.827 317.928 257.676 317.928 262.424C317.928 267.172 322.033 271.021 327.096 271.021Z" fill="#161616"/>
<path d="M348.128 271.021C353.191 271.021 357.296 267.172 357.296 262.424C357.296 257.676 353.191 253.827 348.128 253.827C343.065 253.827 338.96 257.676 338.96 262.424C338.96 267.172 343.065 271.021 348.128 271.021Z" fill="#161616"/>
<path d="M332.273 291.001C337.336 291.001 341.441 287.152 341.441 282.404C341.441 277.656 337.336 273.807 332.273 273.807C327.21 273.807 323.105 277.656 323.105 282.404C323.105 287.152 327.21 291.001 332.273 291.001Z" fill="#161616"/>
<path d="M353.305 291.001C358.368 291.001 362.473 287.152 362.473 282.404C362.473 277.656 358.368 273.807 353.305 273.807C348.242 273.807 344.137 277.656 344.137 282.404C344.137 287.152 348.242 291.001 353.305 291.001Z" fill="#161616"/>
<path d="M336.156 312.434C341.219 312.434 345.324 308.585 345.324 303.836C345.324 299.088 341.219 295.239 336.156 295.239C331.093 295.239 326.988 299.088 326.988 303.836C326.988 308.585 331.093 312.434 336.156 312.434Z" fill="#161616"/>
<path d="M357.188 312.434C362.251 312.434 366.356 308.584 366.356 303.836C366.356 299.088 362.251 295.239 357.188 295.239C352.125 295.239 348.021 299.088 348.021 303.836C348.021 308.584 352.125 312.434 357.188 312.434Z" fill="#161616"/>
<path d="M323.857 250.182C323.857 250.182 314.693 252.227 309.948 242.419C309.948 242.419 323.097 236.877 323.857 250.182Z" fill="#8DC73F"/>
<path d="M329.038 246.415C329.038 246.415 320.409 241.813 328.93 227.767C328.93 227.767 337.773 240.723 329.038 246.415Z" fill="#8DC73F"/>
<path d="M327.095 263.332C326.698 263.332 326.352 263.004 326.295 262.55C325.693 257.748 323.031 245.375 317.994 245.844C317.548 245.881 317.158 245.513 317.122 245.012C317.086 244.513 317.418 244.074 317.863 244.034C325.447 243.352 327.8 261.524 327.897 262.298C327.959 262.795 327.651 263.254 327.209 263.324C327.171 263.329 327.132 263.332 327.095 263.332Z" fill="#161616"/>
<path d="M329.038 263.367C328.593 263.367 328.231 262.946 328.229 262.446L328.121 234.773C328.119 234.271 328.48 233.943 328.926 233.943H328.93C329.375 233.943 329.737 234.256 329.739 234.756L329.847 262.483C329.849 262.985 329.488 263.367 329.041 263.367C329.041 263.367 329.039 263.367 329.038 263.367Z" fill="#161616"/>
<path d="M327.096 263.367C326.654 263.367 326.294 262.951 326.287 262.454C326.287 262.412 326.235 260.085 325.005 256.059C324.86 255.585 325.085 255.064 325.508 254.901C325.931 254.738 326.391 254.988 326.536 255.463C327.865 259.818 327.904 262.329 327.905 262.433C327.91 262.935 327.552 263.367 327.105 263.367C327.102 263.367 327.099 263.367 327.096 263.367Z" fill="#EAEFE8"/>
<path d="M329.037 263.367C328.598 263.367 328.237 262.954 328.229 262.458L328.121 255.863C328.113 255.362 328.468 255.012 328.915 255.012C328.92 255.012 328.925 255.012 328.93 255.012C329.37 255.012 329.731 255.326 329.739 255.822L329.847 262.467C329.854 262.968 329.499 263.367 329.052 263.367C329.047 263.367 329.043 263.367 329.037 263.367Z" fill="#EAEFE8"/>
<path d="M345.535 250.182C345.535 250.182 336.372 252.227 331.626 242.419C331.626 242.419 344.776 236.877 345.535 250.182Z" fill="#8DC73F"/>
<path d="M350.716 246.415C350.716 246.415 342.087 241.813 350.609 227.767C350.609 227.767 359.452 240.723 350.716 246.415Z" fill="#8DC73F"/>
<path d="M348.774 263.332C348.377 263.332 348.031 263.004 347.974 262.551C347.372 257.748 344.7 245.375 339.673 245.844C339.226 245.881 338.837 245.513 338.801 245.012C338.765 244.513 339.097 244.074 339.542 244.034C339.683 244.021 339.823 244.015 339.959 244.015C347.206 244.015 349.481 261.538 349.576 262.298C349.638 262.795 349.33 263.254 348.888 263.324C348.85 263.329 348.811 263.332 348.774 263.332Z" fill="#161616"/>
<path d="M350.716 263.367C350.271 263.367 349.91 262.946 349.908 262.446L349.8 234.773C349.798 234.271 350.158 233.943 350.605 233.943H350.609C351.054 233.943 351.416 234.256 351.418 234.756L351.525 262.483C351.527 262.985 351.167 263.367 350.72 263.367C350.72 263.367 350.718 263.367 350.716 263.367Z" fill="#161616"/>
<path d="M348.775 263.367C348.333 263.367 347.972 262.951 347.966 262.454C347.965 262.412 347.913 260.085 346.683 256.059C346.539 255.585 346.764 255.064 347.187 254.901C347.61 254.738 348.069 254.988 348.214 255.463C349.544 259.818 349.583 262.329 349.584 262.433C349.589 262.935 349.23 263.367 348.784 263.367C348.781 263.367 348.778 263.367 348.775 263.367Z" fill="#EAEFE8"/>
<path d="M350.716 263.367C350.276 263.367 349.916 262.954 349.907 262.458L349.8 255.863C349.792 255.362 350.147 255.012 350.594 255.012C350.599 255.012 350.604 255.012 350.609 255.012C351.049 255.012 351.409 255.326 351.418 255.822L351.525 262.467C351.533 262.968 351.178 263.367 350.731 263.367C350.726 263.367 350.721 263.367 350.716 263.367Z" fill="#EAEFE8"/>
<path d="M327.739 272.342C327.739 272.342 318.576 274.386 313.83 264.578C313.83 264.578 326.98 259.036 327.739 272.342Z" fill="#8DC73F"/>
<path d="M332.92 268.574C332.92 268.574 324.291 263.973 332.812 249.927C332.812 249.927 341.656 262.883 332.92 268.574Z" fill="#8DC73F"/>
<path d="M330.978 285.492C330.581 285.492 330.234 285.164 330.178 284.71C329.575 279.908 326.903 267.538 321.876 268.004C321.431 268.039 321.041 267.672 321.005 267.172C320.969 266.672 321.3 266.234 321.746 266.193C329.335 265.502 331.683 283.683 331.78 284.458C331.842 284.954 331.534 285.413 331.091 285.483C331.053 285.489 331.015 285.492 330.978 285.492Z" fill="#161616"/>
<path d="M332.92 285.527C332.475 285.527 332.113 285.105 332.111 284.605L332.003 256.932C332.001 256.43 332.362 256.102 332.809 256.102H332.812C333.258 256.102 333.619 256.415 333.621 256.915L333.729 284.642C333.731 285.144 333.371 285.527 332.924 285.527C332.924 285.527 332.921 285.527 332.92 285.527Z" fill="#161616"/>
<path d="M330.978 285.527C330.536 285.527 330.176 285.11 330.17 284.613C330.169 284.571 330.117 282.244 328.887 278.218C328.742 277.744 328.967 277.223 329.39 277.06C329.813 276.898 330.273 277.148 330.418 277.623C331.748 281.977 331.787 284.488 331.788 284.592C331.792 285.094 331.434 285.527 330.987 285.527C330.984 285.527 330.982 285.527 330.978 285.527Z" fill="#EAEFE8"/>
<path d="M332.92 285.527C332.48 285.527 332.119 285.113 332.111 284.617L332.004 278.022C331.996 277.521 332.351 277.172 332.798 277.172C332.803 277.172 332.808 277.172 332.813 277.172C333.253 277.172 333.613 277.485 333.621 277.981L333.729 284.626C333.737 285.127 333.382 285.527 332.935 285.527C332.93 285.527 332.925 285.527 332.92 285.527Z" fill="#EAEFE8"/>
<path d="M349.419 272.342C349.419 272.342 340.255 274.386 335.51 264.578C335.51 264.578 348.659 259.036 349.419 272.342Z" fill="#8DC73F"/>
<path d="M354.599 268.574C354.599 268.574 345.97 263.973 354.492 249.927C354.492 249.927 363.335 262.883 354.599 268.574Z" fill="#8DC73F"/>
<path d="M352.657 285.492C352.26 285.492 351.914 285.164 351.857 284.71C351.255 279.908 348.589 267.538 343.556 268.004C343.11 268.039 342.72 267.672 342.684 267.172C342.648 266.672 342.98 266.234 343.425 266.193C351.009 265.502 353.362 283.683 353.459 284.458C353.521 284.954 353.213 285.413 352.771 285.483C352.732 285.489 352.694 285.492 352.657 285.492Z" fill="#161616"/>
<path d="M354.6 285.527C354.154 285.527 353.793 285.105 353.791 284.605L353.683 256.932C353.681 256.43 354.041 256.102 354.488 256.102H354.492C354.937 256.102 355.299 256.415 355.301 256.915L355.408 284.642C355.41 285.144 355.05 285.527 354.603 285.527C354.603 285.527 354.601 285.527 354.6 285.527Z" fill="#161616"/>
<path d="M352.658 285.527C352.216 285.527 351.855 285.11 351.849 284.613C351.849 284.571 351.796 282.244 350.567 278.218C350.422 277.744 350.647 277.223 351.07 277.06C351.493 276.898 351.952 277.148 352.097 277.623C353.427 281.977 353.466 284.488 353.467 284.592C353.472 285.094 353.113 285.527 352.667 285.527C352.664 285.527 352.661 285.527 352.658 285.527Z" fill="#EAEFE8"/>
<path d="M354.599 285.527C354.159 285.527 353.799 285.113 353.79 284.617L353.683 278.022C353.675 277.521 354.03 277.172 354.477 277.172C354.482 277.172 354.487 277.172 354.492 277.172C354.932 277.172 355.293 277.485 355.301 277.981L355.408 284.626C355.416 285.127 355.061 285.527 354.614 285.527C354.609 285.527 354.604 285.527 354.599 285.527Z" fill="#EAEFE8"/>
<path d="M332.593 293.048C332.593 293.048 323.429 295.092 318.684 285.284C318.684 285.284 331.833 279.742 332.593 293.048Z" fill="#8DC73F"/>
<path d="M337.773 289.28C337.773 289.28 329.144 284.678 337.666 270.632C337.666 270.632 346.509 283.589 337.773 289.28Z" fill="#8DC73F"/>
<path d="M335.831 306.198C335.434 306.198 335.088 305.869 335.031 305.416C334.429 300.614 331.764 288.239 326.73 288.71C326.288 288.746 325.894 288.378 325.858 287.878C325.822 287.378 326.154 286.94 326.599 286.899C326.74 286.886 326.88 286.88 327.017 286.88C334.263 286.88 336.538 304.403 336.633 305.163C336.696 305.66 336.387 306.119 335.945 306.189C335.907 306.195 335.868 306.198 335.831 306.198Z" fill="#161616"/>
<path d="M337.774 306.232C337.328 306.232 336.967 305.811 336.965 305.311L336.857 277.638C336.855 277.136 337.215 276.808 337.662 276.808H337.666C338.111 276.808 338.473 277.121 338.475 277.621L338.583 305.348C338.584 305.85 338.224 306.232 337.777 306.232C337.777 306.232 337.775 306.232 337.774 306.232Z" fill="#161616"/>
<path d="M335.832 306.232C335.39 306.232 335.029 305.816 335.023 305.319C335.023 305.277 334.971 302.95 333.741 298.924C333.596 298.45 333.821 297.929 334.244 297.766C334.667 297.604 335.126 297.854 335.271 298.328C336.601 302.683 336.64 305.194 336.641 305.298C336.646 305.8 336.287 306.232 335.841 306.232C335.838 306.232 335.835 306.232 335.832 306.232Z" fill="#EAEFE8"/>
<path d="M337.773 306.232C337.334 306.232 336.973 305.819 336.965 305.323L336.857 298.728C336.849 298.227 337.205 297.877 337.651 297.877C337.656 297.877 337.661 297.877 337.666 297.877C338.106 297.877 338.467 298.191 338.475 298.687L338.583 305.332C338.59 305.833 338.235 306.232 337.788 306.232C337.783 306.232 337.779 306.232 337.773 306.232Z" fill="#EAEFE8"/>
<path d="M354.272 293.048C354.272 293.048 345.109 295.092 340.363 285.284C340.363 285.284 353.513 279.742 354.272 293.048Z" fill="#8DC73F"/>
<path d="M359.453 289.28C359.453 289.28 350.824 284.678 359.345 270.632C359.345 270.632 368.189 283.589 359.453 289.28Z" fill="#8DC73F"/>
<path d="M357.511 306.197C357.114 306.197 356.767 305.869 356.711 305.416C356.108 300.614 353.433 288.239 348.409 288.71C347.967 288.745 347.573 288.378 347.538 287.878C347.502 287.378 347.833 286.94 348.279 286.899C355.869 286.216 358.216 304.389 358.313 305.163C358.375 305.66 358.067 306.119 357.624 306.189C357.586 306.195 357.548 306.197 357.511 306.197Z" fill="#161616"/>
<path d="M359.453 306.232C359.008 306.232 358.646 305.811 358.644 305.311L358.536 277.547C358.534 277.045 358.895 276.632 359.342 276.631C359.803 276.622 360.152 277.031 360.154 277.533L360.262 305.304C360.264 305.806 359.903 306.232 359.457 306.232C359.457 306.232 359.454 306.232 359.453 306.232Z" fill="#161616"/>
<path d="M357.511 306.232C357.069 306.232 356.709 305.816 356.703 305.319C356.702 305.277 356.65 302.95 355.42 298.924C355.275 298.45 355.5 297.929 355.923 297.766C356.347 297.604 356.806 297.854 356.951 298.328C358.281 302.683 358.32 305.194 358.321 305.298C358.325 305.8 357.967 306.232 357.52 306.232C357.517 306.232 357.515 306.232 357.511 306.232Z" fill="#EAEFE8"/>
<path d="M359.453 306.232C359.013 306.232 358.652 305.819 358.644 305.323L358.537 298.728C358.529 298.227 358.884 297.877 359.331 297.877C359.336 297.877 359.341 297.877 359.346 297.877C359.785 297.877 360.146 298.191 360.154 298.687L360.262 305.332C360.27 305.833 359.915 306.232 359.468 306.232C359.463 306.232 359.458 306.232 359.453 306.232Z" fill="#EAEFE8"/>
<path d="M111.598 231.279L104.586 235.88C104.586 235.88 102.969 238.544 102.538 241.208C102.107 243.872 100.596 251.056 100.596 251.056L106.097 257.918L134.032 255.738C134.032 255.738 141.636 245.463 140.638 238.734L119.148 240.724L111.598 231.279Z" fill="white"/>
<path d="M106.097 258.826C105.869 258.826 105.65 258.718 105.496 258.526L99.9952 251.664C99.8179 251.442 99.7483 251.137 99.8092 250.847C99.8244 250.776 101.32 243.656 101.742 241.045C102.199 238.224 103.848 235.484 103.918 235.369C103.986 235.257 104.075 235.164 104.178 235.096L111.19 230.495C111.522 230.277 111.944 230.351 112.2 230.672L119.482 239.781L140.573 237.829C140.989 237.787 141.368 238.119 141.437 238.585C142.483 245.643 134.975 255.886 134.655 256.319C134.514 256.509 134.309 256.627 134.089 256.644L106.154 258.824C106.134 258.825 106.116 258.826 106.097 258.826ZM101.48 250.802L106.435 256.981L133.623 254.86C134.77 253.234 140.126 245.325 139.916 239.712L119.214 241.628C118.963 241.653 118.714 241.542 118.546 241.33L111.436 232.437L105.159 236.556C104.819 237.156 103.67 239.293 103.334 241.371C102.962 243.665 101.824 249.157 101.48 250.802Z" fill="#161616"/>
<path d="M127.129 165.349L135.111 157.445C135.111 157.445 136.189 152.741 131.12 153.382L123.462 161.862L108.822 232.247C108.822 232.247 107.068 238.14 110.735 238.705C114.402 239.27 113.755 231.279 113.755 231.279L127.129 165.349Z" fill="#DEE5DC"/>
<path d="M111.096 239.642C110.943 239.642 110.784 239.629 110.625 239.605C109.552 239.439 108.713 238.861 108.199 237.932C107.02 235.803 107.886 232.542 108.043 232.002L122.675 161.656C122.71 161.488 122.786 161.336 122.895 161.216L130.552 152.736C130.681 152.593 130.85 152.503 131.03 152.48C133.042 152.225 134.481 152.713 135.31 153.913C136.383 155.467 135.915 157.582 135.895 157.672C135.855 157.847 135.768 158.006 135.646 158.126L127.86 165.836L114.572 231.344C114.637 232.311 114.825 236.602 113.204 238.595C112.646 239.28 111.918 239.642 111.096 239.642ZM124.197 162.324L109.61 232.454C109.604 232.482 109.597 232.509 109.59 232.536C109.351 233.346 108.881 235.726 109.575 236.976C109.834 237.443 110.249 237.714 110.845 237.806C110.932 237.819 111.017 237.826 111.096 237.826H111.097C111.467 237.826 111.756 237.682 112.009 237.371C113.069 236.068 113.042 232.506 112.95 231.361C112.942 231.266 112.948 231.171 112.967 231.078L126.341 165.148C126.378 164.962 126.467 164.794 126.595 164.668L134.367 156.972C134.42 156.542 134.463 155.644 134.027 155.02C133.598 154.405 132.738 154.145 131.484 154.256L124.197 162.324Z" fill="#161616"/>
<path d="M134.033 256.646C134.006 256.646 133.977 256.645 133.949 256.642L111.084 254.004C110.861 253.978 110.657 253.849 110.521 253.648L107.757 249.545C107.644 249.377 107.587 249.171 107.594 248.961L108.005 237.275C108.022 236.774 108.394 236.389 108.845 236.403C109.291 236.423 109.639 236.845 109.621 237.347L109.223 248.708L111.6 252.238L134.115 254.835C134.559 254.886 134.883 255.332 134.837 255.831C134.794 256.298 134.443 256.646 134.033 256.646Z" fill="#161616"/>
<path d="M91.9139 190.169C91.4671 190.169 91.105 189.763 91.105 189.261V184.539C91.105 184.037 91.4671 183.631 91.9139 183.631C92.3608 183.631 92.7228 184.037 92.7228 184.539V189.261C92.7228 189.763 92.3608 190.169 91.9139 190.169Z" fill="#161616"/>
<path d="M89.053 191.405C88.7159 191.405 88.401 191.167 88.2871 190.789L87.1863 187.143C87.043 186.668 87.2695 186.153 87.6924 185.992C88.116 185.83 88.5751 186.085 88.7181 186.56L89.8189 190.205C89.9622 190.68 89.7358 191.196 89.3128 191.357C89.2268 191.39 89.1391 191.405 89.053 191.405Z" fill="#161616"/>
<path d="M85.1328 191.405C84.9415 191.405 84.7493 191.329 84.5953 191.175L82.771 189.352C82.4374 189.019 82.4077 188.445 82.7047 188.07C83.0011 187.696 83.5127 187.662 83.8466 187.996L85.6709 189.819C86.0045 190.152 86.0343 190.726 85.7372 191.101C85.5777 191.302 85.3554 191.405 85.1328 191.405Z" fill="#161616"/>
<path d="M350.109 170.834C350.045 170.834 349.98 170.826 349.915 170.808C349.481 170.688 349.216 170.195 349.323 169.709L350.297 165.277C350.404 164.79 350.842 164.492 351.276 164.613C351.71 164.733 351.975 165.225 351.868 165.712L350.894 170.143C350.803 170.558 350.473 170.834 350.109 170.834Z" fill="#161616"/>
<path d="M347.467 170.304C347.111 170.304 346.785 170.039 346.687 169.634L345.991 166.753C345.874 166.269 346.129 165.77 346.56 165.639C346.99 165.509 347.436 165.793 347.553 166.278L348.248 169.159C348.365 169.643 348.111 170.142 347.679 170.273C347.609 170.294 347.537 170.304 347.467 170.304Z" fill="#161616"/>
<path d="M8.27075 91.614C8.27075 91.614 122.806 74.7109 148.772 76.9032C148.772 76.9032 68.1315 49.9885 8.27075 51.0783V91.614Z" fill="#8DC73F"/>
<path d="M-6.29087 96.5308C-6.6866 96.5308 -7.03217 96.2049 -7.09074 95.7523C-7.15448 95.2557 -6.84774 94.7955 -6.40574 94.7235C-5.11598 94.5143 122.915 73.8231 148.671 75.9976C149.116 76.0353 149.45 76.4713 149.417 76.9715C149.384 77.4717 148.991 77.8426 148.549 77.8092C122.964 75.6441 -4.88592 96.3124 -6.17438 96.5213C-6.21354 96.5275 -6.25237 96.5308 -6.29087 96.5308Z" fill="#161616"/>
<path d="M0.503883 78.2716C0.103625 78.2716 -0.244216 77.9381 -0.297605 77.4804C-0.355201 76.9831 -0.0426288 76.6114 0.40034 76.5471C1.17206 76.4342 77.9326 65.0244 108.386 64.6611C108.391 64.6611 108.397 64.6611 108.402 64.6611C108.841 64.6611 109.202 64.9713 109.211 65.4665C109.22 65.9678 108.865 66.3408 108.419 66.3506C78.0526 67.0419 1.37979 78.1724 0.60872 78.285C0.573774 78.2901 0.538505 78.2716 0.503883 78.2716Z" fill="#161616"/>
<path d="M8.59338 63.4293C8.20219 63.4293 7.85823 63.11 7.79514 62.6621C7.72557 62.1666 8.02713 61.7016 8.46849 61.6239C8.83153 61.5596 44.9622 55.1984 60.9207 54.5943C61.3514 54.5798 61.7416 54.9699 61.7565 55.4712C61.7714 55.9726 61.4216 56.3929 60.9751 56.4096C45.1155 57.0097 9.08231 63.3541 8.72023 63.418C8.67752 63.4257 8.63513 63.4293 8.59338 63.4293Z" fill="#161616"/>
<path d="M106.467 74.8267C106.882 74.8267 107.218 74.4493 107.218 73.9836C107.218 73.518 106.882 73.1405 106.467 73.1405C106.052 73.1405 105.716 73.518 105.716 73.9836C105.716 74.4493 106.052 74.8267 106.467 74.8267Z" fill="#161616"/>
<path d="M110.026 74.8267C110.441 74.8267 110.777 74.4493 110.777 73.9836C110.777 73.518 110.441 73.1405 110.026 73.1405C109.611 73.1405 109.275 73.518 109.275 73.9836C109.275 74.4493 109.611 74.8267 110.026 74.8267Z" fill="#161616"/>
<path d="M108.085 71.1941C108.5 71.1941 108.836 70.8166 108.836 70.3509C108.836 69.8853 108.5 69.5078 108.085 69.5078C107.67 69.5078 107.334 69.8853 107.334 70.3509C107.334 70.8166 107.67 71.1941 108.085 71.1941Z" fill="#161616"/>
<path d="M81.2283 76.6431C81.6431 76.6431 81.9793 76.2656 81.9793 75.8C81.9793 75.3343 81.6431 74.9568 81.2283 74.9568C80.8135 74.9568 80.4773 75.3343 80.4773 75.8C80.4773 76.2656 80.8135 76.6431 81.2283 76.6431Z" fill="#161616"/>
<path d="M84.7876 76.6431C85.2024 76.6431 85.5386 76.2656 85.5386 75.8C85.5386 75.3343 85.2024 74.9568 84.7876 74.9568C84.3729 74.9568 84.0366 75.3343 84.0366 75.8C84.0366 76.2656 84.3729 76.6431 84.7876 76.6431Z" fill="#161616"/>
<path d="M82.8462 73.0105C83.261 73.0105 83.5972 72.633 83.5972 72.1673C83.5972 71.7017 83.261 71.3242 82.8462 71.3242C82.4315 71.3242 82.0952 71.7017 82.0952 72.1673C82.0952 72.633 82.4315 73.0105 82.8462 73.0105Z" fill="#161616"/>
<path d="M51.4598 80.2757C51.8745 80.2757 52.2108 79.8982 52.2108 79.4325C52.2108 78.9669 51.8745 78.5894 51.4598 78.5894C51.045 78.5894 50.7087 78.9669 50.7087 79.4325C50.7087 79.8982 51.045 80.2757 51.4598 80.2757Z" fill="#161616"/>
<path d="M55.0191 80.2757C55.4339 80.2757 55.7701 79.8982 55.7701 79.4325C55.7701 78.9669 55.4339 78.5894 55.0191 78.5894C54.6043 78.5894 54.2681 78.9669 54.2681 79.4325C54.2681 79.8982 54.6043 80.2757 55.0191 80.2757Z" fill="#161616"/>
<path d="M53.0777 76.643C53.4924 76.643 53.8287 76.2655 53.8287 75.7998C53.8287 75.3342 53.4924 74.9567 53.0777 74.9567C52.6629 74.9567 52.3267 75.3342 52.3267 75.7998C52.3267 76.2655 52.6629 76.643 53.0777 76.643Z" fill="#161616"/>
<path d="M16.5139 84.6351C16.9287 84.6351 17.265 84.2576 17.265 83.7919C17.265 83.3263 16.9287 82.9488 16.5139 82.9488C16.0992 82.9488 15.7629 83.3263 15.7629 83.7919C15.7629 84.2576 16.0992 84.6351 16.5139 84.6351Z" fill="#161616"/>
<path d="M20.073 84.6351C20.4878 84.6351 20.824 84.2576 20.824 83.7919C20.824 83.3263 20.4878 82.9488 20.073 82.9488C19.6583 82.9488 19.322 83.3263 19.322 83.7919C19.322 84.2576 19.6583 84.6351 20.073 84.6351Z" fill="#161616"/>
<path d="M18.1319 81.0024C18.5466 81.0024 18.8829 80.625 18.8829 80.1593C18.8829 79.6936 18.5466 79.3162 18.1319 79.3162C17.7171 79.3162 17.3809 79.6936 17.3809 80.1593C17.3809 80.625 17.7171 81.0024 18.1319 81.0024Z" fill="#161616"/>
<path d="M30.4275 67.9249C30.8423 67.9249 31.1785 67.5474 31.1785 67.0817C31.1785 66.6161 30.8423 66.2386 30.4275 66.2386C30.0128 66.2386 29.6765 66.6161 29.6765 67.0817C29.6765 67.5474 30.0128 67.9249 30.4275 67.9249Z" fill="#161616"/>
<path d="M33.9868 67.9249C34.4016 67.9249 34.7379 67.5474 34.7379 67.0817C34.7379 66.6161 34.4016 66.2386 33.9868 66.2386C33.5721 66.2386 33.2358 66.6161 33.2358 67.0817C33.2358 67.5474 33.5721 67.9249 33.9868 67.9249Z" fill="#161616"/>
<path d="M32.0454 64.2922C32.4602 64.2922 32.7965 63.9147 32.7965 63.4491C32.7965 62.9834 32.4602 62.606 32.0454 62.606C31.6307 62.606 31.2944 62.9834 31.2944 63.4491C31.2944 63.9147 31.6307 64.2922 32.0454 64.2922Z" fill="#161616"/>
<path d="M59.2254 65.0187C59.6402 65.0187 59.9764 64.6412 59.9764 64.1755C59.9764 63.7099 59.6402 63.3324 59.2254 63.3324C58.8106 63.3324 58.4744 63.7099 58.4744 64.1755C58.4744 64.6412 58.8106 65.0187 59.2254 65.0187Z" fill="#161616"/>
<path d="M62.7847 65.0187C63.1995 65.0187 63.5357 64.6412 63.5357 64.1755C63.5357 63.7099 63.1995 63.3324 62.7847 63.3324C62.3699 63.3324 62.0337 63.7099 62.0337 64.1755C62.0337 64.6412 62.3699 65.0187 62.7847 65.0187Z" fill="#161616"/>
<path d="M60.8433 61.386C61.2581 61.386 61.5943 61.0085 61.5943 60.5429C61.5943 60.0772 61.2581 59.6997 60.8433 59.6997C60.4285 59.6997 60.0923 60.0772 60.0923 60.5429C60.0923 61.0085 60.4285 61.386 60.8433 61.386Z" fill="#161616"/>
<path d="M13.9253 58.1165C14.3401 58.1165 14.6763 57.7391 14.6763 57.2734C14.6763 56.8078 14.3401 56.4303 13.9253 56.4303C13.5106 56.4303 13.1743 56.8078 13.1743 57.2734C13.1743 57.7391 13.5106 58.1165 13.9253 58.1165Z" fill="#161616"/>
<path d="M17.4847 58.1165C17.8994 58.1165 18.2357 57.7391 18.2357 57.2734C18.2357 56.8078 17.8994 56.4303 17.4847 56.4303C17.0699 56.4303 16.7336 56.8078 16.7336 57.2734C16.7336 57.7391 17.0699 58.1165 17.4847 58.1165Z" fill="#161616"/>
<path d="M15.5432 54.4839C15.958 54.4839 16.2943 54.1064 16.2943 53.6407C16.2943 53.1751 15.958 52.7976 15.5432 52.7976C15.1285 52.7976 14.7922 53.1751 14.7922 53.6407C14.7922 54.1064 15.1285 54.4839 15.5432 54.4839Z" fill="#161616"/>
<path d="M320.961 186.52C320.961 186.52 319.983 180.54 320.754 178.027C320.754 178.027 325.289 183.486 325.525 187.931L320.961 186.52Z" fill="#946D42"/>
<path d="M368.29 203.79C368.29 203.79 382.057 209.022 378.428 217.804C374.798 226.585 347.454 225.227 341.646 226.313C341.646 226.313 346.244 216.322 352.294 216.02C358.343 215.718 360.341 217.204 360.341 217.204L358.827 214.07C358.827 214.07 365.412 213.298 368.29 215.052C371.168 216.805 371.436 210.024 367.551 207.71L368.29 203.79Z" fill="#161616"/>
<path d="M335.395 207.71C335.395 207.71 340.949 209.201 339.016 213.342C337.083 217.484 324.5 218.631 323.29 217.242C322.081 215.854 326.446 208.258 335.395 207.71Z" fill="#161616"/>
<path d="M326.278 218.712C323.439 218.712 322.911 218.106 322.712 217.877C322.421 217.543 322.011 216.753 322.541 215.224C323.587 212.208 327.989 207.254 335.351 206.803C335.429 206.797 335.507 206.806 335.583 206.826C335.928 206.918 338.979 207.799 339.947 210.192C340.255 210.952 340.468 212.189 339.733 213.763C337.987 217.502 329.914 218.712 326.278 218.712ZM323.901 216.612C324.125 216.715 324.82 216.896 326.278 216.896C330.523 216.896 337.15 215.383 338.299 212.921C338.651 212.168 338.708 211.521 338.474 210.944C337.951 209.652 336.114 208.864 335.317 208.625C329.932 208.997 326.201 212.111 324.635 214.68C323.986 215.745 323.891 216.396 323.901 216.612Z" fill="#DEE5DC"/>
<path d="M331.416 191.782C331.416 191.782 349.705 178.198 358.212 180.961C373.152 185.812 367.137 208.878 366.875 212.147H333.529L331.416 191.782Z" fill="#161616"/>
<path d="M366.875 212.873H333.529C333.119 212.873 332.773 212.529 332.726 212.071L330.612 191.796C330.577 191.456 330.714 191.123 330.968 190.934C331.593 190.469 346.357 179.546 355.637 179.546C356.667 179.546 357.609 179.683 358.437 179.952C372.301 184.453 369.037 203.82 367.964 210.184C367.822 211.031 367.709 211.7 367.681 212.046C367.644 212.515 367.294 212.873 366.875 212.873ZM334.249 211.057H366.176C366.228 210.717 366.296 210.315 366.375 209.846C367.486 203.253 370.438 185.739 357.988 181.697C357.305 181.476 356.514 181.363 355.637 181.363C347.671 181.363 334.748 190.37 332.278 192.146L334.249 211.057Z" fill="#DEE5DC"/>
<path d="M314.12 208.291C314.12 208.291 329.909 213.375 334.023 213.393C338.137 213.411 343.581 216.02 343.581 209.336L342.838 206.297C342.838 206.297 334.386 202.504 334.084 197.362C333.781 192.221 328.648 188.252 320.961 186.52C304.737 182.864 304.03 205.274 314.12 208.291Z" fill="#161616"/>
<path d="M339.643 214.817C338.722 214.817 337.726 214.685 336.762 214.556C335.836 214.433 334.878 214.305 334.02 214.301C329.842 214.283 314.546 209.373 313.898 209.164C308.428 207.528 306.136 200.917 306.764 195.529C307.346 190.54 310.49 185.21 317.569 185.21C318.69 185.21 319.885 185.351 321.121 185.629C329.423 187.5 334.571 191.864 334.891 197.302C335.112 201.052 340.919 204.458 343.138 205.453C343.374 205.559 343.551 205.782 343.618 206.056L344.362 209.095C344.381 209.173 344.391 209.254 344.391 209.335C344.391 211.372 343.927 212.806 342.972 213.718C342.188 214.468 341.13 214.817 339.643 214.817ZM317.569 187.026C311.536 187.026 308.861 191.54 308.368 195.765C307.829 200.387 309.735 206.04 314.329 207.413C314.5 207.468 330.07 212.468 334.026 212.485C334.977 212.489 335.982 212.623 336.953 212.752C337.912 212.88 338.818 213.001 339.643 213.001C340.724 213.001 341.448 212.79 341.923 212.336C342.479 211.805 342.757 210.862 342.772 209.455L342.162 206.963C340.442 206.125 333.573 202.468 333.277 197.422C333.008 192.853 328.344 189.11 320.802 187.41C319.671 187.155 318.583 187.026 317.569 187.026Z" fill="#DEE5DC"/>
<path d="M361.252 195.763C361.252 195.763 351.314 194.844 354.452 205.139C354.452 205.139 345.168 207.95 346.476 211.839" fill="#161616"/>
<path d="M346.476 212.747C346.149 212.747 345.841 212.523 345.719 212.16C345.44 211.331 345.491 210.457 345.867 209.633C347.073 206.989 351.531 205.191 353.435 204.527C352.72 201.656 352.951 199.347 354.126 197.654C356.356 194.438 361.117 194.838 361.318 194.858C361.764 194.899 362.095 195.338 362.058 195.838C362.022 196.338 361.628 196.704 361.186 196.669C361.131 196.663 357.085 196.337 355.399 198.774C354.463 200.128 354.402 202.17 355.217 204.845C355.29 205.082 355.271 205.343 355.166 205.565C355.061 205.787 354.879 205.95 354.663 206.016C352.942 206.538 348.267 208.354 347.306 210.461C347.138 210.831 347.114 211.167 347.232 211.518C347.39 211.987 347.179 212.511 346.761 212.688C346.667 212.728 346.571 212.747 346.476 212.747Z" fill="#DEE5DC"/>
<path d="M310.41 206.544C310.41 206.544 304.544 208.119 306.585 212.493C308.627 216.867 321.916 218.078 323.194 216.612C324.471 215.145 319.86 207.124 310.41 206.544Z" fill="#161616"/>
<path d="M320.039 217.959H320.038C316.206 217.959 307.701 216.765 305.868 212.838C305.252 211.517 305.177 210.302 305.644 209.149C306.675 206.601 310.077 205.68 310.221 205.642C310.298 205.622 310.376 205.623 310.454 205.628C318.208 206.104 322.842 211.321 323.942 214.495C324.493 216.083 324.072 216.823 323.772 217.168C323.566 217.405 323.017 217.959 320.039 217.959ZM310.488 207.459C309.643 207.714 307.672 208.562 307.115 209.942C306.863 210.566 306.924 211.263 307.302 212.072C307.847 213.24 309.712 214.293 312.42 215.096C314.759 215.789 317.678 216.143 320.038 216.143H320.039C321.64 216.143 322.375 216.014 322.592 215.904C322.612 215.706 322.544 215.093 321.899 213.988C320.273 211.2 316.314 207.86 310.488 207.459Z" fill="#DEE5DC"/>
<path d="M326.173 201.654C326.173 201.654 327.788 204.591 330.692 201.654H326.173Z" fill="#161616"/>
<path d="M328.236 203.868C328.089 203.868 327.942 203.857 327.795 203.833C326.33 203.598 325.567 202.28 325.485 202.131C325.25 201.703 325.368 201.144 325.748 200.881C326.126 200.619 326.622 200.749 326.858 201.17C326.875 201.199 327.311 201.928 328.038 202.037C328.654 202.127 329.365 201.773 330.15 200.979C330.482 200.643 330.993 200.673 331.293 201.046C331.592 201.419 331.565 201.993 331.233 202.329C330.222 203.352 329.216 203.868 328.236 203.868Z" fill="#DEE5DC"/>
<path d="M338.563 205.346C338.563 205.346 338.217 210.75 342.194 209.237C346.17 207.724 341.931 204.049 338.563 205.346Z" fill="#946D42"/>
<path d="M316.197 203.344C316.197 203.344 315.51 208.732 319.36 209.727L316.197 203.344Z" fill="#161616"/>
<path d="M319.361 210.636C319.301 210.636 319.24 210.628 319.179 210.612C315.56 209.677 315.122 205.365 315.396 203.216C315.459 202.719 315.87 202.371 316.312 202.446C316.753 202.516 317.06 202.975 316.998 203.471C316.975 203.657 316.471 208.049 319.542 208.842C319.977 208.955 320.249 209.442 320.149 209.931C320.062 210.351 319.729 210.635 319.361 210.636Z" fill="#DEE5DC"/>
<path d="M317.288 188.28C317.288 188.28 310.672 180.756 305.893 180.189C301.114 179.622 306.616 191.808 310.412 192.741" fill="#161616"/>
<path d="M310.412 193.649C310.355 193.649 310.297 193.642 310.239 193.628C306.851 192.795 302.77 184.937 303.271 181.458C303.493 179.923 304.507 179.111 305.978 179.286C310.987 179.88 317.585 187.325 317.864 187.641C318.178 187.998 318.174 188.573 317.857 188.926C317.539 189.278 317.026 189.275 316.713 188.918C316.648 188.845 310.243 181.618 305.808 181.092C305.04 181.001 304.928 181.336 304.868 181.749C304.493 184.353 308.077 191.238 310.585 191.854C311.021 191.961 311.298 192.445 311.202 192.935C311.119 193.359 310.784 193.649 310.412 193.649Z" fill="#DEE5DC"/>
<path d="M313.437 192.74C313.437 192.74 307.591 182.864 304.737 181.567C304.737 181.567 305.543 192.889 313.437 192.74Z" fill="#946D42"/>
<path d="M201.928 238.12C201.481 238.12 201.119 237.714 201.119 237.212V232.49C201.119 231.988 201.481 231.582 201.928 231.582C202.375 231.582 202.737 231.988 202.737 232.49V237.212C202.737 237.714 202.375 238.12 201.928 238.12Z" fill="#161616"/>
<path d="M204.921 239.357C204.835 239.357 204.747 239.341 204.661 239.308C204.238 239.147 204.011 238.632 204.155 238.156L205.256 234.511C205.399 234.037 205.858 233.781 206.281 233.943C206.705 234.104 206.931 234.619 206.787 235.094L205.687 238.74C205.573 239.118 205.258 239.357 204.921 239.357Z" fill="#161616"/>
<path d="M208.841 239.356C208.618 239.356 208.396 239.254 208.236 239.052C207.939 238.677 207.969 238.103 208.303 237.77L210.127 235.947C210.46 235.614 210.971 235.647 211.269 236.022C211.566 236.396 211.536 236.97 211.202 237.303L209.378 239.126C209.224 239.28 209.032 239.356 208.841 239.356Z" fill="#161616"/>
<path d="M159.871 157.465C159.558 157.465 159.26 157.261 159.128 156.918L157.456 152.585C157.278 152.125 157.466 151.59 157.876 151.39C158.286 151.191 158.763 151.402 158.94 151.863L160.613 156.196C160.79 156.656 160.602 157.191 160.192 157.39C160.087 157.441 159.978 157.465 159.871 157.465Z" fill="#161616"/>
<path d="M163.053 157.264C162.636 157.264 162.283 156.904 162.248 156.43L161.967 152.593C161.931 152.094 162.262 151.655 162.707 151.614C163.155 151.572 163.543 151.945 163.579 152.445L163.86 156.281C163.897 156.781 163.566 157.22 163.12 157.261C163.098 157.263 163.075 157.264 163.053 157.264Z" fill="#161616"/>
<path d="M166.65 155.514C166.536 155.514 166.42 155.487 166.31 155.429C165.905 155.218 165.729 154.678 165.917 154.223L166.945 151.736C167.133 151.282 167.614 151.084 168.019 151.295C168.425 151.506 168.601 152.046 168.413 152.501L167.384 154.988C167.247 155.319 166.955 155.514 166.65 155.514Z" fill="#161616"/>
<path d="M310.927 218.667C310.877 218.667 310.826 218.662 310.775 218.651C310.336 218.556 310.048 218.081 310.132 217.588L310.921 212.95C311.005 212.457 311.43 212.135 311.867 212.228C312.306 212.322 312.594 212.798 312.51 213.29L311.721 217.929C311.647 218.364 311.308 218.667 310.927 218.667Z" fill="#161616"/>
<path d="M307.78 219.25C307.382 219.25 307.035 218.922 306.979 218.467L306.507 214.655C306.446 214.158 306.755 213.699 307.197 213.63C307.641 213.564 308.049 213.909 308.11 214.405L308.582 218.218C308.643 218.714 308.334 219.173 307.891 219.242C307.854 219.247 307.816 219.25 307.78 219.25Z" fill="#161616"/>
<path d="M303.931 218.424C303.688 218.424 303.448 218.302 303.289 218.069L301.802 215.894C301.529 215.496 301.596 214.926 301.951 214.621C302.305 214.316 302.813 214.389 303.085 214.788L304.572 216.963C304.844 217.361 304.777 217.931 304.423 218.236C304.276 218.363 304.103 218.424 303.931 218.424Z" fill="#161616"/>
<path d="M288.384 81.7344C287.943 81.7344 287.582 81.4227 287.575 80.9257L287.461 72.9775C287.454 72.4762 287.81 72.0842 288.257 72.0762C288.708 72.0617 289.072 72.4787 289.079 72.9804L289.193 80.8912C289.2 81.3929 288.844 81.734 288.397 81.734C288.393 81.7344 288.388 81.7344 288.384 81.7344Z" fill="#161616"/>
<path d="M296.795 79.918C296.355 79.918 295.994 79.5308 295.987 79.0338L295.873 71.0376C295.866 70.5363 296.222 70.1098 296.669 70.1098C296.673 70.1098 296.677 70.1098 296.682 70.1098C297.123 70.1098 297.483 70.5167 297.491 71.0133L297.605 78.9997C297.611 79.501 297.256 79.9176 296.809 79.9176C296.804 79.918 296.8 79.918 296.795 79.918Z" fill="#161616"/>
<path d="M304.237 79.918C303.796 79.918 303.435 79.4636 303.428 78.967L303.314 71.0042C303.307 70.5025 303.663 70.1098 304.11 70.1098C304.115 70.1098 304.119 70.1098 304.123 70.1098C304.564 70.1098 304.925 70.4502 304.932 70.9464L305.046 78.9666C305.053 79.4683 304.697 79.918 304.25 79.918C304.245 79.918 304.241 79.918 304.237 79.918Z" fill="#161616"/>
<path d="M312.649 79.1915C312.208 79.1915 311.847 78.8431 311.84 78.3465L311.726 70.3797C311.719 69.8784 312.075 69.4774 312.522 69.4694C312.973 69.4643 313.336 69.8675 313.344 70.3689L313.458 78.3142C313.465 78.8155 313.109 79.1915 312.662 79.1915C312.657 79.1915 312.653 79.1915 312.649 79.1915Z" fill="#161616"/>
<path d="M320.413 78.465C319.973 78.465 319.612 78.0469 319.605 77.55L319.491 69.5487C319.484 69.0474 319.84 68.6289 320.287 68.6209C320.732 68.6075 321.101 69.01 321.108 69.5116L321.223 77.5224C321.229 78.0237 320.874 78.465 320.427 78.465C320.422 78.465 320.418 78.465 320.413 78.465Z" fill="#161616"/>
<path d="M328.825 78.1017C328.384 78.1017 328.023 77.7893 328.016 77.2928L327.902 69.3441C327.896 68.8425 328.252 68.4509 328.698 68.4429C329.16 68.4382 329.513 68.8457 329.52 69.347L329.634 77.2586C329.641 77.7603 329.285 78.1017 328.838 78.1017C328.834 78.1017 328.829 78.1017 328.825 78.1017Z" fill="#161616"/>
<path d="M336.266 78.1017C335.825 78.1017 335.464 77.7224 335.457 77.2258L335.343 69.2442C335.336 68.7429 335.692 68.3342 336.139 68.3262C336.601 68.3124 336.954 68.72 336.961 69.2217L337.075 77.1961C337.082 77.6974 336.726 78.102 336.279 78.102C336.275 78.1017 336.27 78.1017 336.266 78.1017Z" fill="#161616"/>
<path d="M344.678 78.4649C344.237 78.4649 343.877 78.0101 343.869 77.5136L343.755 69.4937C343.748 68.9924 344.104 68.5649 344.551 68.5565C344.997 68.5449 345.366 68.9412 345.373 69.4429L345.487 77.4878C345.494 77.9891 345.138 78.4646 344.691 78.4646C344.687 78.4649 344.683 78.4649 344.678 78.4649Z" fill="#161616"/>
<path d="M352.119 78.8282C351.679 78.8282 351.318 78.4882 351.311 77.9916L351.196 70.0292C351.19 69.5279 351.546 69.129 351.992 69.121C352.439 69.1058 352.807 69.5199 352.814 70.0216L352.928 77.9593C352.935 78.4606 352.579 78.8286 352.132 78.8286C352.128 78.8282 352.124 78.8282 352.119 78.8282Z" fill="#161616"/>
<path d="M360.531 78.8283C360.09 78.8283 359.729 78.4123 359.722 77.9157L359.608 69.9159C359.601 69.4146 359.957 68.9965 360.404 68.9885C360.866 68.9816 361.219 69.3783 361.226 69.8796L361.34 77.8881C361.347 78.3894 360.991 78.8283 360.544 78.8283C360.54 78.8283 360.535 78.8283 360.531 78.8283Z" fill="#161616"/>
<path d="M367.972 80.6445C367.531 80.6445 367.17 80.1617 367.163 79.6651L367.049 71.6315C367.043 71.1299 367.399 70.6954 367.845 70.6874C368.308 70.6761 368.66 71.0685 368.667 71.5701L368.781 79.6415C368.788 80.1432 368.432 80.6445 367.985 80.6445C367.981 80.6445 367.976 80.6445 367.972 80.6445Z" fill="#161616"/>
<path d="M285.767 77.3336C285.367 77.3336 285.019 77.0005 284.965 76.5431C284.907 76.0458 285.219 75.5899 285.662 75.5249C286.22 75.4435 341.701 67.4161 371.257 73.864C371.695 73.9596 371.982 74.4365 371.896 74.9288C371.811 75.4214 371.389 75.7428 370.948 75.6469C341.648 69.2546 286.427 77.2442 285.872 77.326C285.837 77.3307 285.801 77.3336 285.767 77.3336Z" fill="#161616"/>
<path d="M334.269 39.1253L362.884 40.9888L367.858 49.5623L367.2 64.2436L341.886 63.2548L334.269 39.1253Z" fill="#161616"/>
<path d="M324.4 61.7694V47.2323L334.242 39.1253L342.255 48.4438L341.853 63.2548C341.853 63.2548 330.548 61.4134 324.4 61.7694Z" fill="#161616"/>
<path d="M341.809 64.1629C341.8 64.1629 341.791 64.1629 341.782 64.1626C341.336 64.1466 340.985 63.7267 341 63.2254L341.417 48.7986L333.625 39.7566C333.314 39.3962 333.323 38.8212 333.644 38.4725C333.965 38.1244 334.477 38.1335 334.788 38.4939L342.818 47.8124C342.971 47.9889 343.053 48.2276 343.045 48.4731L342.617 63.2842C342.603 63.7757 342.244 64.1629 341.809 64.1629Z" fill="#DEE5DC"/>
<path d="M336.158 63.0866C336.125 63.0866 336.092 63.0844 336.058 63.0797C335.615 63.0183 335.3 62.5653 335.354 62.0676C335.553 60.2477 335.737 55.0653 334.218 52.9671C333.833 52.4346 333.367 52.1494 332.795 52.0949C332.261 52.043 331.851 52.2111 331.496 52.6195C329.946 54.4002 330.085 59.7729 330.269 61.6931C330.317 62.1919 329.996 62.6394 329.552 62.6935C329.105 62.7473 328.709 62.3862 328.661 61.8878C328.653 61.8101 328.479 59.9596 328.574 57.772C328.709 54.7013 329.302 52.541 330.338 51.3502C331.028 50.5579 331.924 50.1896 332.93 50.2847C333.951 50.3814 334.807 50.899 335.475 51.8232C337.737 54.9513 336.992 61.9913 336.96 62.2896C336.91 62.7495 336.561 63.0866 336.158 63.0866Z" fill="#DEE5DC"/>
<path d="M352.874 41.1926V33.4202H357.728V41.7691L352.874 41.1926Z" fill="#161616"/>
<path d="M124.728 38.9299C124.627 38.9299 124.525 38.9088 124.428 38.8649L121.733 37.6541C121.318 37.4677 121.116 36.9392 121.282 36.4735C121.448 36.0081 121.918 35.7815 122.334 35.9678L124.502 36.9421L125.663 35.4799C125.96 35.1058 126.471 35.072 126.805 35.4066C127.138 35.7404 127.168 36.3144 126.87 36.6889L125.332 38.6262C125.175 38.8234 124.954 38.9299 124.728 38.9299Z" fill="#161616"/>
<path d="M121.492 49.4646C121.391 49.4646 121.29 49.4435 121.192 49.3995L118.497 48.1888C118.082 48.0024 117.881 47.4739 118.046 47.0082C118.213 46.5428 118.683 46.3161 119.098 46.5025L121.266 47.4768L122.427 46.0146C122.725 45.6405 123.236 45.607 123.57 45.9412C123.903 46.2751 123.932 46.849 123.635 47.2236L122.096 49.1609C121.94 49.3581 121.718 49.4646 121.492 49.4646Z" fill="#161616"/>
<path d="M134.759 48.3748C134.658 48.3748 134.556 48.3537 134.458 48.3098L131.764 47.099C131.349 46.9127 131.147 46.3841 131.313 45.9184C131.479 45.4531 131.949 45.226 132.364 45.4127L134.532 46.387L135.694 44.9249C135.991 44.5507 136.502 44.5173 136.836 44.8515C137.169 45.1853 137.199 45.7593 136.901 46.1338L135.362 48.0711C135.206 48.2684 134.985 48.3748 134.759 48.3748Z" fill="#161616"/>
<path d="M134.759 33.4809C134.658 33.4809 134.556 33.4598 134.458 33.4158L131.764 32.2051C131.349 32.0187 131.147 31.4902 131.313 31.0245C131.479 30.5591 131.949 30.3325 132.364 30.5188L134.532 31.4931L135.694 30.0309C135.991 29.6568 136.502 29.623 136.836 29.9576C137.169 30.2914 137.199 30.8654 136.901 31.2399L135.362 33.1772C135.206 33.3744 134.985 33.4809 134.759 33.4809Z" fill="#161616"/>
<path d="M110.167 29.1217C110.066 29.1217 109.964 29.1007 109.867 29.0567L107.172 27.846C106.757 27.6596 106.556 27.131 106.721 26.6653C106.888 26.2004 107.358 25.9733 107.773 26.1597L109.941 27.134L111.102 25.6718C111.399 25.2973 111.91 25.2639 112.244 25.5984C112.578 25.9323 112.607 26.5062 112.31 26.8808L110.771 28.8181C110.615 29.0153 110.393 29.1217 110.167 29.1217Z" fill="#161616"/>
<path d="M96.1205 282.439C95.6736 282.439 95.3115 282.032 95.3115 281.531V276.808C95.3115 276.306 95.6736 275.9 96.1205 275.9C96.5673 275.9 96.9294 276.306 96.9294 276.808V281.531C96.9294 282.032 96.5673 282.439 96.1205 282.439Z" fill="#161616"/>
<path d="M99.113 283.675C99.027 283.675 98.9393 283.659 98.8532 283.626C98.43 283.465 98.2035 282.95 98.3471 282.475L99.4479 278.829C99.5909 278.355 100.051 278.099 100.474 278.261C100.897 278.422 101.123 278.938 100.98 279.413L99.8789 283.058C99.765 283.436 99.4502 283.675 99.113 283.675Z" fill="#161616"/>
<path d="M103.033 283.674C102.81 283.674 102.588 283.572 102.429 283.37C102.132 282.996 102.161 282.422 102.495 282.088L104.319 280.265C104.653 279.932 105.164 279.965 105.461 280.34C105.758 280.714 105.728 281.288 105.395 281.622L103.57 283.445C103.416 283.599 103.224 283.674 103.033 283.674Z" fill="#161616"/>
<path d="M135.92 209.059C135.473 209.059 135.111 208.653 135.111 208.151V203.428C135.111 202.927 135.473 202.52 135.92 202.52C136.366 202.52 136.728 202.927 136.728 203.428V208.151C136.728 208.653 136.366 209.059 135.92 209.059Z" fill="#161616"/>
<path d="M138.912 210.295C138.826 210.295 138.738 210.28 138.652 210.247C138.229 210.086 138.002 209.57 138.146 209.095L139.247 205.45C139.39 204.975 139.85 204.719 140.272 204.882C140.696 205.043 140.922 205.558 140.779 206.033L139.678 209.679C139.564 210.057 139.249 210.295 138.912 210.295Z" fill="#161616"/>
<path d="M142.832 210.295C142.609 210.295 142.387 210.192 142.227 209.991C141.93 209.616 141.96 209.042 142.294 208.709L144.118 206.886C144.452 206.552 144.963 206.586 145.26 206.96C145.557 207.335 145.527 207.909 145.194 208.242L143.369 210.065C143.215 210.219 143.023 210.295 142.832 210.295Z" fill="#161616"/>
<path d="M277.32 269.724C276.873 269.724 276.511 269.318 276.511 268.816V264.094C276.511 263.592 276.873 263.186 277.32 263.186C277.767 263.186 278.129 263.592 278.129 264.094V268.816C278.129 269.318 277.767 269.724 277.32 269.724Z" fill="#161616"/>
<path d="M280.312 270.96C280.226 270.96 280.139 270.945 280.053 270.912C279.629 270.751 279.403 270.235 279.547 269.76L280.647 266.115C280.79 265.64 281.25 265.384 281.673 265.547C282.096 265.708 282.323 266.223 282.179 266.698L281.078 270.344C280.964 270.722 280.65 270.96 280.312 270.96Z" fill="#161616"/>
<path d="M284.232 270.96C284.01 270.96 283.788 270.857 283.628 270.656C283.331 270.281 283.361 269.707 283.694 269.374L285.519 267.551C285.852 267.217 286.363 267.251 286.661 267.625C286.958 268 286.928 268.574 286.594 268.907L284.77 270.73C284.616 270.884 284.424 270.96 284.232 270.96Z" fill="#161616"/>
<path d="M228.461 189.079C228.014 189.079 227.652 188.673 227.652 188.171V183.449C227.652 182.947 228.014 182.541 228.461 182.541C228.908 182.541 229.27 182.947 229.27 183.449V188.171C229.27 188.673 228.908 189.079 228.461 189.079Z" fill="#161616"/>
<path d="M231.454 190.316C231.368 190.316 231.28 190.3 231.194 190.267C230.771 190.106 230.544 189.591 230.688 189.115L231.789 185.47C231.932 184.995 232.391 184.739 232.814 184.902C233.237 185.063 233.464 185.578 233.32 186.053L232.22 189.699C232.106 190.077 231.791 190.316 231.454 190.316Z" fill="#161616"/>
<path d="M235.374 190.315C235.151 190.315 234.929 190.212 234.769 190.011C234.472 189.636 234.502 189.062 234.835 188.729L236.66 186.906C236.993 186.573 237.504 186.606 237.802 186.981C238.099 187.355 238.069 187.929 237.735 188.262L235.911 190.085C235.757 190.239 235.565 190.315 235.374 190.315Z" fill="#161616"/>
<path d="M66.6754 146.578C66.2285 146.578 65.8665 146.171 65.8665 145.669V140.947C65.8665 140.445 66.2285 140.039 66.6754 140.039C67.1222 140.039 67.4843 140.445 67.4843 140.947V145.669C67.4843 146.171 67.1222 146.578 66.6754 146.578Z" fill="#161616"/>
<path d="M69.668 147.814C69.5819 147.814 69.4942 147.798 69.4081 147.765C68.9849 147.604 68.7584 147.089 68.9021 146.614L70.0029 142.968C70.1459 142.494 70.6057 142.238 71.0286 142.4C71.4518 142.561 71.6783 143.077 71.5346 143.551L70.4338 147.197C70.32 147.575 70.0051 147.814 69.668 147.814Z" fill="#161616"/>
<path d="M73.5879 147.813C73.3653 147.813 73.1433 147.71 72.9835 147.509C72.6865 147.134 72.7162 146.56 73.0498 146.226L74.8741 144.404C75.2077 144.07 75.7187 144.103 76.016 144.478C76.3131 144.853 76.2833 145.427 75.9497 145.761L74.1254 147.584C73.9714 147.738 73.7792 147.813 73.5879 147.813Z" fill="#161616"/>
<path d="M120.388 116.063C119.941 116.063 119.579 115.657 119.579 115.155V110.433C119.579 109.931 119.941 109.524 120.388 109.524C120.835 109.524 121.197 109.931 121.197 110.433V115.155C121.197 115.657 120.835 116.063 120.388 116.063Z" fill="#161616"/>
<path d="M123.38 117.3C123.294 117.3 123.207 117.284 123.121 117.251C122.697 117.09 122.471 116.574 122.614 116.1L123.715 112.454C123.858 111.979 124.318 111.724 124.741 111.886C125.164 112.047 125.391 112.563 125.247 113.037L124.146 116.683C124.032 117.061 123.718 117.3 123.38 117.3Z" fill="#161616"/>
<path d="M127.3 117.299C127.078 117.299 126.856 117.196 126.696 116.995C126.399 116.62 126.429 116.046 126.762 115.712L128.587 113.89C128.92 113.556 129.431 113.589 129.728 113.964C130.025 114.339 129.996 114.913 129.662 115.247L127.838 117.07C127.684 117.224 127.492 117.299 127.3 117.299Z" fill="#161616"/>
<path d="M257.259 110.977C256.812 110.977 256.45 110.571 256.45 110.069V105.347C256.45 104.845 256.812 104.439 257.259 104.439C257.706 104.439 258.068 104.845 258.068 105.347V110.069C258.068 110.571 257.706 110.977 257.259 110.977Z" fill="#161616"/>
<path d="M260.251 112.214C260.165 112.214 260.078 112.198 259.992 112.165C259.568 112.004 259.342 111.488 259.486 111.014L260.586 107.368C260.729 106.894 261.189 106.638 261.612 106.8C262.035 106.961 262.262 107.477 262.118 107.951L261.017 111.597C260.903 111.975 260.589 112.214 260.251 112.214Z" fill="#161616"/>
<path d="M264.171 112.213C263.949 112.213 263.727 112.11 263.567 111.909C263.27 111.534 263.3 110.96 263.633 110.626L265.458 108.804C265.791 108.47 266.302 108.504 266.6 108.878C266.897 109.253 266.867 109.827 266.533 110.161L264.709 111.984C264.555 112.138 264.363 112.213 264.171 112.213Z" fill="#161616"/>
</svg>
