<svg width="390" height="335" viewBox="0 0 390 335" fill="none" xmlns="http://www.w3.org/2000/svg">
<path d="M71.8799 88.7484C77.0412 88.7484 81.2253 84.0917 81.2253 78.3474C81.2253 72.603 77.0412 67.9463 71.8799 67.9463C66.7185 67.9463 62.5344 72.603 62.5344 78.3474C62.5344 84.0917 66.7185 88.7484 71.8799 88.7484Z" fill="#DEE5DC"/>
<path d="M71.5264 71.3325C75.2793 71.3325 78.3217 67.9466 78.3217 63.7697C78.3217 59.5929 75.2793 56.2069 71.5264 56.2069C67.7735 56.2069 64.7312 59.5929 64.7312 63.7697C64.7312 67.9466 67.7735 71.3325 71.5264 71.3325Z" fill="#DEE5DC"/>
<path d="M71.6244 102.893C71.2011 102.893 70.8574 102.582 70.8565 102.111L70.7585 60.6915C70.7576 60.2195 71.1004 59.8212 71.5246 59.8212C71.5252 59.8212 71.5258 59.8212 71.5264 59.8212C71.9496 59.8212 72.2933 60.2513 72.2943 60.722L72.3922 102.082C72.3932 102.554 72.0504 102.893 71.6262 102.893C71.6259 102.893 71.625 102.893 71.6244 102.893Z" fill="#161616"/>
<path d="M71.625 81.4588C71.351 81.4588 71.0859 81.295 70.9474 81.0072C70.7475 80.5912 70.8881 80.0733 71.2619 79.8504L76.3113 76.8419C76.6848 76.619 77.1505 76.7759 77.3507 77.192C77.5507 77.608 77.41 78.1259 77.0362 78.3487L71.9868 81.3572C71.8713 81.426 71.7475 81.4588 71.625 81.4588Z" fill="#161616"/>
<path d="M71.5267 68.8012C71.3071 68.8012 71.089 68.697 70.9373 68.495L66.965 63.2071C66.6929 62.8447 66.7362 62.306 67.0614 62.0035C67.387 61.6999 67.8708 61.7488 68.1429 62.1108L72.1152 67.3987C72.3873 67.761 72.344 68.2998 72.0187 68.6023C71.8753 68.736 71.7005 68.8012 71.5267 68.8012Z" fill="#161616"/>
<path d="M20.3787 157.245V95.7142C20.3787 95.7142 256.309 79.344 323.31 153.914L20.3787 157.245Z" fill="#DEE5DC"/>
<path d="M20.3787 157.296C20.3787 157.296 183.164 124.708 366.529 149.137V283.571L20.3787 279.722V157.296Z" fill="#EAEFE8"/>
<path d="M7.40321 159.89C7.0374 159.89 6.71306 159.598 6.64795 159.183C6.57454 158.718 6.85373 158.275 7.27145 158.193C7.74414 158.101 55.3488 148.893 125.419 143.357C166.572 140.105 207.313 138.735 246.505 139.289C295.503 139.98 342.211 143.691 385.332 150.322C385.753 150.386 386.046 150.818 385.988 151.285C385.93 151.753 385.542 152.077 385.123 152.015C342.064 145.394 295.42 141.687 246.486 140.998C207.334 140.446 166.638 141.813 125.528 145.062C55.5356 150.592 8.00859 159.785 7.53682 159.877C7.49198 159.886 7.44713 159.89 7.40321 159.89Z" fill="#161616"/>
<path d="M269.031 90.2074L237.599 81.4253C237.599 81.4253 235.341 76.5401 238.994 74.8661L267.516 81.6581C267.516 81.6581 271.132 85.7311 269.031 90.2074Z" fill="white"/>
<path d="M269.031 91.0621C268.969 91.0621 268.906 91.0539 268.844 91.0365L237.412 82.2547C237.197 82.1948 237.017 82.0352 236.916 81.8168C236.862 81.7012 235.619 78.9638 236.399 76.6044C236.78 75.4528 237.554 74.6023 238.701 74.0762C238.844 74.0106 239.002 73.9945 239.154 74.0308L267.676 80.8227C267.823 80.8576 267.956 80.9393 268.062 81.0579C268.102 81.104 269.07 82.2044 269.76 83.902C270.701 86.2145 270.683 88.5318 269.711 90.6033C269.577 90.8901 269.311 91.0621 269.031 91.0621ZM238.147 80.6976L268.596 89.2049C269.682 86.045 267.683 83.1667 267.114 82.4362L239.078 75.7601C238.454 76.0961 238.048 76.5672 237.841 77.1941C237.426 78.4466 237.899 80.0194 238.147 80.6976Z" fill="#161616"/>
<path d="M225.55 93.0557V148.088L320.15 173.358V114.834L225.55 93.0557Z" fill="#EAEFE8"/>
<path d="M320.304 174.213C320.244 174.213 320.184 174.205 320.125 174.189L225.525 148.919C225.179 148.826 224.936 148.483 224.936 148.088V93.0557C224.936 92.7986 225.04 92.5552 225.219 92.3932C225.398 92.2308 225.632 92.1659 225.859 92.2189L320.459 113.997C320.816 114.079 321.072 114.429 321.072 114.834V173.358C321.072 173.62 320.964 173.867 320.779 174.029C320.642 174.149 320.474 174.213 320.304 174.213ZM226.472 147.414L319.536 172.274V115.53L226.472 94.1051V147.414Z" fill="#161616"/>
<path d="M320.15 114.834L353.174 98.8125L353.275 154.356L320.15 173.358V114.834Z" fill="#EAEFE8"/>
<path d="M320.304 174.212C320.165 174.212 320.027 174.171 319.904 174.088C319.675 173.933 319.536 173.656 319.536 173.358V114.834C319.536 114.494 319.717 114.187 319.996 114.051L352.943 98.0297C353.18 97.9148 353.453 97.9391 353.67 98.097C353.887 98.2543 354.018 98.5223 354.019 98.8105L354.159 154.354C354.159 154.674 353.999 154.969 353.743 155.116L320.656 174.117C320.545 174.181 320.424 174.212 320.304 174.212ZM321.072 115.393V171.955L352.622 153.836L352.486 100.117L321.072 115.393Z" fill="#161616"/>
<path d="M225.822 93.0555L267.223 79.1075L353.262 98.8124L320.327 114.834L225.822 93.0555Z" fill="#EAEFE8"/>
<path d="M320.327 115.688C320.275 115.688 320.223 115.682 320.171 115.67L225.666 93.8924C225.322 93.8131 225.071 93.4846 225.055 93.0938C225.039 92.7031 225.264 92.3507 225.6 92.2375L267 78.2896C267.123 78.2486 267.253 78.2414 267.378 78.2704L353.417 97.9753C353.744 98.0505 353.991 98.353 354.026 98.7232C354.06 99.0934 353.876 99.4462 353.57 99.5956L320.635 115.616C320.537 115.664 320.432 115.688 320.327 115.688ZM228.934 92.9L320.243 113.942L350.739 99.1074L267.259 79.9882L228.934 92.9Z" fill="#161616"/>
<path d="M320.304 135.538C320.244 135.538 320.184 135.531 320.125 135.515L225.644 110.39C225.231 110.28 224.977 109.819 225.075 109.36C225.174 108.901 225.589 108.618 226.001 108.727L320.22 133.782L351.921 117.157C352.305 116.956 352.762 117.139 352.943 117.566C353.124 117.993 352.959 118.502 352.576 118.704L320.631 135.456C320.528 135.511 320.416 135.538 320.304 135.538Z" fill="#161616"/>
<path d="M320.304 156.059C320.246 156.059 320.19 156.052 320.133 156.038L225.533 132.118C225.12 132.014 224.861 131.556 224.955 131.096C225.048 130.635 225.459 130.345 225.873 130.452L320.208 154.304L352.923 136.383C353.303 136.174 353.763 136.35 353.951 136.773C354.138 137.196 353.982 137.709 353.601 137.917L320.642 155.971C320.536 156.029 320.42 156.059 320.304 156.059Z" fill="#161616"/>
<path d="M310.936 124.54C309.496 124.54 308.325 123.237 308.325 121.634C308.325 120.032 309.496 118.729 310.936 118.729C312.375 118.729 313.547 120.032 313.547 121.634C313.547 123.237 312.375 124.54 310.936 124.54ZM310.936 120.438C310.343 120.438 309.861 120.975 309.861 121.634C309.861 122.294 310.343 122.831 310.936 122.831C311.529 122.831 312.011 122.294 312.011 121.634C312.011 120.975 311.529 120.438 310.936 120.438Z" fill="#161616"/>
<path d="M309.093 147.101C307.653 147.101 306.482 145.798 306.482 144.196C306.482 142.594 307.653 141.29 309.093 141.29C310.532 141.29 311.704 142.594 311.704 144.196C311.704 145.798 310.532 147.101 309.093 147.101ZM309.093 142.999C308.5 142.999 308.018 143.536 308.018 144.196C308.018 144.855 308.5 145.392 309.093 145.392C309.686 145.392 310.168 144.855 310.168 144.196C310.168 143.536 309.686 142.999 309.093 142.999Z" fill="#161616"/>
<path d="M233.536 126.591C232.096 126.591 230.925 125.288 230.925 123.686C230.925 122.083 232.096 120.78 233.536 120.78C234.975 120.78 236.146 122.083 236.146 123.686C236.146 125.288 234.975 126.591 233.536 126.591ZM233.536 122.489C232.943 122.489 232.461 123.026 232.461 123.686C232.461 124.345 232.943 124.882 233.536 124.882C234.129 124.882 234.611 124.345 234.611 123.686C234.611 123.026 234.129 122.489 233.536 122.489Z" fill="#161616"/>
<path d="M233.536 144.367C232.096 144.367 230.925 143.063 230.925 141.461C230.925 139.859 232.096 138.555 233.536 138.555C234.975 138.555 236.146 139.859 236.146 141.461C236.146 143.063 234.975 144.367 233.536 144.367ZM233.536 140.265C232.943 140.265 232.461 140.801 232.461 141.461C232.461 142.121 232.943 142.657 233.536 142.657C234.129 142.657 234.611 142.121 234.611 141.461C234.611 140.801 234.129 140.265 233.536 140.265Z" fill="#161616"/>
<path d="M236.262 106.815L204.829 98.0332C204.829 98.0332 202.572 93.148 206.224 91.4737L234.746 98.266C234.746 98.2656 238.362 102.339 236.262 106.815Z" fill="white"/>
<path d="M236.261 107.67C236.2 107.67 236.137 107.661 236.075 107.644L204.642 98.8622C204.428 98.8023 204.247 98.6427 204.146 98.4243C204.093 98.3087 202.85 95.5713 203.63 93.2119C204.01 92.0599 204.785 91.2094 205.932 90.6837C206.075 90.6181 206.233 90.602 206.385 90.6382L234.907 97.4305C235.053 97.4654 235.187 97.5471 235.292 97.6657C235.333 97.7119 236.301 98.8122 236.991 100.51C237.931 102.822 237.914 105.14 236.942 107.211C236.807 107.498 236.542 107.67 236.261 107.67ZM205.378 97.3051L235.827 105.812C236.912 102.652 234.913 99.7742 234.345 99.0437L206.308 92.3673C205.684 92.7036 205.278 93.1747 205.071 93.8016C204.657 95.0541 205.129 96.6269 205.378 97.3051Z" fill="#161616"/>
<path d="M245.514 96.6289C245.514 96.6289 251.759 67.4538 258.465 66.3722C265.172 65.2907 272.968 75.8876 272.968 75.8876L284.801 45.3893C284.801 45.3893 290.885 35.8934 302.139 39.3114C313.393 42.7294 323.31 72.1346 323.31 72.1346C323.31 72.1346 335.957 73.4616 338.036 81.1697C340.114 88.8777 342.56 102.986 342.56 102.986L320.327 113.808L245.514 96.6289Z" fill="#8DC73F"/>
<path d="M294.037 79.9626C293.7 79.9626 293.391 79.7134 293.297 79.3343L291.613 72.525C291.576 72.3735 291.577 72.2129 291.616 72.0618C291.63 72.0074 291.644 71.9531 291.658 71.898C291.654 71.9055 291.651 71.9131 291.648 71.9206C291.446 72.3359 290.979 72.4908 290.607 72.2669C289.852 71.8136 286.058 69.4484 285.557 67.4186C285.436 66.927 285.488 66.4529 285.706 66.0471C285.954 65.5867 286.353 65.3002 286.829 65.2408C287.792 65.1215 289.027 66.0024 290.018 66.9038C289.991 65.5457 290.139 63.9531 290.85 63.0762C291.252 62.5796 291.79 62.3392 292.405 62.3868C292.909 62.424 293.333 62.6941 293.632 63.1682C294.837 65.0801 293.557 70.6838 293.151 72.3014L294.778 78.8807C294.89 79.3357 294.65 79.8061 294.241 79.9312C294.173 79.9527 294.104 79.9626 294.037 79.9626ZM287.029 66.9342C287.043 67.381 288.498 69.0577 291.336 70.7628C291.611 70.9275 291.758 71.252 291.738 71.577C292.471 68.5607 292.91 64.9998 292.375 64.15C292.34 64.0953 292.331 64.0946 292.303 64.0922C292.136 64.0819 292.062 64.1325 291.99 64.2207C291.428 64.9133 291.502 67.4265 291.728 68.907C291.785 69.2768 291.618 69.6446 291.317 69.8135C291.015 69.982 290.651 69.9133 290.417 69.6426C289.167 68.1949 287.593 66.9322 287.061 66.9322C287.05 66.9325 287.04 66.9328 287.029 66.9342Z" fill="#161616"/>
<path d="M263.937 91.2433C263.6 91.2433 263.291 90.9941 263.197 90.615L261.513 83.8056C261.476 83.6542 261.477 83.4935 261.516 83.3424C261.53 83.2881 261.544 83.2337 261.558 83.1787C261.554 83.1862 261.551 83.1937 261.547 83.2013C261.346 83.6163 260.879 83.7714 260.507 83.5475C259.752 83.0943 255.958 80.7291 255.457 78.6993C255.336 78.2077 255.387 77.7336 255.606 77.3278C255.854 76.8674 256.253 76.5809 256.729 76.5214C257.693 76.4014 258.927 77.2827 259.918 78.1845C259.891 76.8263 260.039 75.2337 260.75 74.3569C261.152 73.8599 261.691 73.6209 262.305 73.6674C262.809 73.7047 263.233 73.9747 263.532 74.4489C264.737 76.3608 263.457 81.9645 263.051 83.5821L264.678 90.1614C264.79 90.6164 264.55 91.0868 264.141 91.2119C264.073 91.2334 264.004 91.2433 263.937 91.2433ZM256.929 78.2149C256.943 78.6617 258.398 80.3384 261.236 82.0435C261.511 82.2082 261.658 82.5326 261.637 82.8577C262.371 79.8413 262.81 76.2804 262.274 75.4306C262.24 75.3759 262.231 75.3753 262.203 75.3729C262.036 75.3623 261.962 75.4132 261.89 75.5014C261.328 76.1939 261.402 78.7071 261.628 80.1876C261.685 80.5575 261.518 80.9253 261.217 81.0942C260.916 81.263 260.551 81.194 260.317 80.9233C259.04 79.4445 257.419 78.1503 256.929 78.2149Z" fill="#161616"/>
<path d="M289.904 91.3893C289.743 91.3893 289.581 91.3336 289.443 91.2177L284.372 86.9721C284.259 86.8774 284.172 86.7499 284.12 86.6032C284.101 86.5509 284.082 86.4983 284.063 86.4456C284.065 86.4538 284.066 86.462 284.067 86.4702C284.136 86.9362 283.852 87.3754 283.434 87.452C282.586 87.6072 278.285 88.3141 276.774 87.0476C276.409 86.741 276.189 86.3304 276.14 85.8604C276.083 85.3275 276.242 84.8294 276.586 84.4582C277.279 83.7106 278.744 83.5657 280.023 83.6067C279.256 82.5501 278.499 81.1885 278.58 80.0109C278.626 79.3443 278.921 78.7899 279.433 78.4077C279.853 78.0946 280.338 78.0197 280.834 78.1916C282.837 78.8856 284.9 84.1929 285.467 85.749L290.366 89.851C290.705 90.1347 290.773 90.6704 290.518 91.0478C290.368 91.2717 290.137 91.3893 289.904 91.3893ZM283.311 85.7541C283.572 85.7541 283.811 85.9025 283.95 86.137C282.875 83.2501 281.268 80.1323 280.377 79.8239C280.32 79.8031 280.312 79.8099 280.289 79.8273C280.153 79.9292 280.12 80.0232 280.112 80.1422C280.048 81.0757 281.485 83.0133 282.477 84.0288C282.726 84.2828 282.795 84.6876 282.65 85.0263C282.504 85.3647 282.179 85.5589 281.844 85.5032C280.021 85.201 278.038 85.282 277.674 85.6632C278.025 86.1677 280.684 86.2224 283.185 85.7657C283.227 85.7579 283.269 85.7541 283.311 85.7541Z" fill="#161616"/>
<path d="M304.297 59.2012C303.887 59.2012 303.547 58.8406 303.531 58.3808L303.278 51.3239C303.272 51.1667 303.306 51.0105 303.375 50.8734C303.399 50.8242 303.424 50.7753 303.448 50.7257C303.444 50.7319 303.439 50.7377 303.434 50.7435C303.154 51.097 302.668 51.1311 302.351 50.8187C301.707 50.1863 298.494 46.9252 298.42 44.8219C298.402 44.3129 298.549 43.8637 298.844 43.5239C299.18 43.1387 299.624 42.9609 300.103 43.0221C301.061 43.1469 302.088 44.318 302.869 45.4467C303.12 44.1173 303.589 42.6033 304.459 41.9286C304.952 41.5467 305.525 41.4503 306.115 41.65C306.598 41.8137 306.956 42.1839 307.151 42.7206C307.935 44.8872 305.546 50.0219 304.821 51.4949L305.065 58.3128C305.082 58.7845 304.752 59.1821 304.329 59.2009C304.318 59.2009 304.308 59.2012 304.297 59.2012ZM299.952 44.721C299.823 45.3425 301.466 47.669 303.367 49.5372C303.601 49.7669 303.679 50.119 303.592 50.43C304.921 47.6772 306.074 44.3211 305.726 43.3585C305.703 43.2966 305.694 43.2939 305.667 43.2843C305.509 43.2313 305.424 43.2624 305.337 43.3308C304.646 43.8657 304.206 46.3307 304.127 47.828C304.107 48.2026 303.87 48.5188 303.542 48.6077C303.214 48.6959 302.873 48.5366 302.701 48.2146C301.758 46.4528 300.448 44.7935 299.952 44.721Z" fill="#161616"/>
<path d="M312.752 86.8264C312.748 86.8264 312.743 86.8264 312.738 86.8264C312.314 86.8264 311.977 86.3513 311.984 85.8795L312.096 78.7796C312.099 78.622 312.14 78.4494 312.216 78.3167C312.243 78.2692 312.271 78.2114 312.298 78.1632C312.293 78.1697 312.287 78.1708 312.282 78.1769C311.983 78.5119 311.497 78.5116 311.196 78.18C310.586 77.5076 307.547 74.0458 307.581 71.9415C307.589 71.4318 307.759 70.9925 308.072 70.6719C308.426 70.3089 308.882 70.1595 309.354 70.2508C310.305 70.4367 311.269 71.6707 311.991 72.848C312.31 71.5367 312.856 70.0549 313.76 69.4368C314.272 69.0868 314.849 69.0273 315.427 69.2642C315.901 69.4584 316.24 69.8511 316.406 70.3991C317.077 72.6125 314.427 77.5859 313.628 79.01L313.52 85.9096C313.512 86.3766 313.17 86.8264 312.752 86.8264ZM309.116 71.9374C308.955 72.5493 310.476 74.977 312.277 76.9631C312.499 77.2078 312.558 77.5654 312.455 77.8706C313.924 75.207 315.249 71.9288 314.951 70.9457C314.932 70.8821 314.922 70.8787 314.896 70.8674C314.741 70.8038 314.654 70.8309 314.563 70.8927C313.846 71.3829 313.28 73.8158 313.124 75.3052C313.085 75.6781 312.832 75.9789 312.5 76.0466C312.168 76.1139 311.836 75.9328 311.68 75.5998C310.83 73.7809 309.608 72.0406 309.116 71.9374Z" fill="#161616"/>
<path d="M296.654 81.528C296.229 81.528 295.886 81.1455 295.886 80.6734V77.255C295.886 76.783 296.229 76.4005 296.654 76.4005C297.078 76.4005 297.421 76.783 297.421 77.255V80.6734C297.421 81.1455 297.078 81.528 296.654 81.528Z" fill="#161616"/>
<path d="M315.755 89.3905C315.672 89.3905 315.588 89.3755 315.505 89.3437C315.104 89.1902 314.891 88.7041 315.028 88.2577L316.199 84.4681C316.337 84.0213 316.773 83.7841 317.175 83.9376C317.576 84.091 317.789 84.5771 317.652 85.0236L316.481 88.8132C316.371 89.168 316.074 89.3905 315.755 89.3905Z" fill="#161616"/>
<path d="M309.093 103.919C308.799 103.919 308.518 103.729 308.391 103.409L306.701 99.1582C306.53 98.7265 306.705 98.2223 307.093 98.0312C307.479 97.8401 307.934 98.0353 308.106 98.467L309.795 102.718C309.967 103.15 309.791 103.654 309.403 103.845C309.303 103.895 309.197 103.919 309.093 103.919Z" fill="#161616"/>
<path d="M311.704 103.064C311.382 103.064 311.083 102.837 310.975 102.479L310.054 99.4028C309.92 98.9547 310.137 98.4707 310.539 98.3216C310.943 98.1729 311.377 98.4146 311.511 98.8621L312.432 101.939C312.567 102.387 312.349 102.871 311.947 103.02C311.866 103.05 311.784 103.064 311.704 103.064Z" fill="#161616"/>
<path d="M261.179 92.3282C260.881 92.3282 260.597 92.1341 260.472 91.8093L259.343 88.8716C259.176 88.4375 259.357 87.9356 259.747 87.7497C260.137 87.5651 260.588 87.7654 260.755 88.1992L261.884 91.1369C262.051 91.5711 261.87 92.0729 261.481 92.2588C261.382 92.3057 261.28 92.3282 261.179 92.3282Z" fill="#161616"/>
<path d="M287.899 93.9103C287.762 93.9103 287.622 93.8693 287.496 93.7828L285.193 92.2004C284.832 91.9526 284.72 91.4262 284.943 91.0245C285.166 90.6228 285.639 90.4981 286 90.7466L288.303 92.3289C288.664 92.5768 288.776 93.1032 288.553 93.5049C288.408 93.7664 288.157 93.9103 287.899 93.9103Z" fill="#161616"/>
<path d="M327.982 86.3137C327.558 86.3137 327.214 85.9311 327.214 85.4591V81.6989C327.214 81.2268 327.558 80.8443 327.982 80.8443C328.406 80.8443 328.75 81.2268 328.75 81.6989V85.4591C328.75 85.9311 328.406 86.3137 327.982 86.3137Z" fill="#161616"/>
<path d="M330.287 86.3137C330.241 86.3137 330.195 86.3093 330.149 86.3001C329.731 86.2156 329.454 85.7705 329.53 85.3063L330.145 81.5461C330.22 81.0819 330.62 80.7743 331.037 80.858C331.455 80.9424 331.732 81.3875 331.656 81.8517L331.041 85.6119C330.974 86.0245 330.651 86.3137 330.287 86.3137Z" fill="#161616"/>
<path d="M306.483 59.3085C306.46 59.3085 306.437 59.3075 306.413 59.3048C305.991 59.2621 305.679 58.8464 305.718 58.3764L306.025 54.6162C306.063 54.1461 306.44 53.7971 306.859 53.8426C307.281 53.8853 307.593 54.301 307.554 54.771L307.247 58.5312C307.211 58.9749 306.876 59.3085 306.483 59.3085Z" fill="#161616"/>
<path d="M29.1431 196.302L120.077 168.895C120.077 168.895 135.746 172.013 132.131 202.411L41.1309 238.54" fill="#161616"/>
<path d="M41.1308 239.395C40.8154 239.395 40.5196 239.177 40.4078 238.827C40.2653 238.382 40.4735 237.894 40.8731 237.735L131.43 201.782C132.38 193.335 132.308 181.988 126.873 174.804C124.004 171.014 120.827 169.971 120.097 169.774L29.3436 197.127C28.9342 197.251 28.5128 196.981 28.4019 196.525C28.291 196.069 28.533 195.6 28.9425 195.477L119.877 168.07C119.986 168.037 120.101 168.031 120.212 168.054C120.383 168.088 124.444 168.942 128.047 173.703C133.956 181.511 133.943 193.685 132.892 202.523C132.854 202.841 132.66 203.109 132.389 203.216L41.3888 239.345C41.3037 239.379 41.2165 239.395 41.1308 239.395Z" fill="#161616"/>
<path d="M31.8699 241.052C42.9731 241.052 51.9739 231.034 51.9739 218.677C51.9739 206.319 42.9731 196.302 31.8699 196.302C20.7668 196.302 11.7659 206.319 11.7659 218.677C11.7659 231.034 20.7668 241.052 31.8699 241.052Z" fill="#DEE5DC"/>
<path d="M31.8699 241.906C20.361 241.906 10.998 231.486 10.998 218.677C10.998 205.868 20.361 195.447 31.8699 195.447C43.3789 195.447 52.7418 205.868 52.7418 218.677C52.7418 231.486 43.3789 241.906 31.8699 241.906ZM31.8699 197.156C21.2081 197.156 12.5338 206.81 12.5338 218.677C12.5338 230.543 21.2081 240.197 31.8699 240.197C42.5318 240.197 51.2061 230.543 51.2061 218.677C51.2061 206.81 42.5318 197.156 31.8699 197.156Z" fill="#161616"/>
<path d="M31.8699 225.044C35.0298 225.044 37.5914 222.193 37.5914 218.677C37.5914 215.16 35.0298 212.309 31.8699 212.309C28.71 212.309 26.1484 215.16 26.1484 218.677C26.1484 222.193 28.71 225.044 31.8699 225.044Z" fill="#EAEFE8"/>
<path d="M31.8699 225.899C28.2917 225.899 25.3806 222.659 25.3806 218.677C25.3806 214.694 28.2917 211.454 31.8699 211.454C35.4481 211.454 38.3592 214.694 38.3592 218.677C38.3592 222.659 35.4481 225.899 31.8699 225.899ZM31.8699 213.163C29.1385 213.163 26.9163 215.637 26.9163 218.677C26.9163 221.717 29.1385 224.19 31.8699 224.19C34.6014 224.19 36.8235 221.717 36.8235 218.677C36.8235 215.637 34.6014 213.163 31.8699 213.163Z" fill="#161616"/>
<path d="M68.2402 210.309L159.174 182.902C159.174 182.902 174.843 186.021 171.228 216.419L80.2283 252.548" fill="#161616"/>
<path d="M80.2284 253.402C79.9129 253.402 79.6172 253.184 79.5054 252.835C79.3628 252.39 79.5711 251.901 79.9707 251.743L170.527 215.79C171.477 207.343 171.406 195.996 165.97 188.812C163.102 185.021 159.924 183.979 159.194 183.782L68.4411 211.134C68.032 211.258 67.61 210.988 67.4994 210.533C67.3889 210.077 67.6306 209.608 68.04 209.485L158.974 182.078C159.084 182.045 159.198 182.039 159.31 182.061C159.481 182.096 163.542 182.95 167.145 187.711C173.053 195.519 173.04 207.693 171.99 216.531C171.952 216.849 171.758 217.116 171.486 217.224L80.4864 253.352C80.401 253.386 80.3141 253.402 80.2284 253.402Z" fill="#161616"/>
<path d="M70.9671 255.059C82.0702 255.059 91.0711 245.041 91.0711 232.684C91.0711 220.327 82.0702 210.309 70.9671 210.309C59.8639 210.309 50.863 220.327 50.863 232.684C50.863 245.041 59.8639 255.059 70.9671 255.059Z" fill="#DEE5DC"/>
<path d="M70.9671 255.914C59.4582 255.914 50.0952 245.493 50.0952 232.684C50.0952 219.875 59.4582 209.455 70.9671 209.455C82.4761 209.455 91.839 219.875 91.839 232.684C91.839 245.493 82.4761 255.914 70.9671 255.914ZM70.9671 211.164C60.3053 211.164 51.6309 220.817 51.6309 232.684C51.6309 244.551 60.3053 254.204 70.9671 254.204C81.629 254.204 90.3033 244.551 90.3033 232.684C90.3033 220.817 81.629 211.164 70.9671 211.164Z" fill="#161616"/>
<path d="M70.9671 239.052C74.1269 239.052 76.6885 236.201 76.6885 232.684C76.6885 229.167 74.1269 226.316 70.9671 226.316C67.8072 226.316 65.2456 229.167 65.2456 232.684C65.2456 236.201 67.8072 239.052 70.9671 239.052Z" fill="#EAEFE8"/>
<path d="M70.9671 239.906C67.3889 239.906 64.4778 236.666 64.4778 232.684C64.4778 228.702 67.3889 225.462 70.9671 225.462C74.5453 225.462 77.4564 228.702 77.4564 232.684C77.4564 236.666 74.5453 239.906 70.9671 239.906ZM70.9671 227.171C68.2357 227.171 66.0135 229.644 66.0135 232.684C66.0135 235.724 68.2357 238.197 70.9671 238.197C73.6985 238.197 75.9207 235.724 75.9207 232.684C75.9207 229.644 73.6985 227.171 70.9671 227.171Z" fill="#161616"/>
<path d="M108.141 215.972L199.075 188.565C199.075 188.565 214.744 191.683 211.129 222.082L120.129 258.21" fill="#161616"/>
<path d="M120.129 259.065C119.814 259.065 119.518 258.847 119.406 258.497C119.264 258.052 119.472 257.564 119.871 257.405L210.428 221.453C211.765 209.584 210.216 200.295 205.941 194.569C203.074 190.728 199.832 189.649 199.093 189.445L108.342 216.797C107.932 216.922 107.511 216.651 107.4 216.196C107.29 215.74 107.532 215.271 107.941 215.147L198.875 187.741C198.985 187.708 199.099 187.702 199.211 187.724C199.382 187.758 203.443 188.613 207.046 193.374C212.954 201.182 212.942 213.356 211.891 222.194C211.853 222.512 211.659 222.779 211.387 222.887L120.387 259.015C120.302 259.049 120.214 259.065 120.129 259.065Z" fill="#161616"/>
<path d="M110.868 260.722C121.971 260.722 130.972 250.704 130.972 238.347C130.972 225.989 121.971 215.972 110.868 215.972C99.7646 215.972 90.7637 225.989 90.7637 238.347C90.7637 250.704 99.7646 260.722 110.868 260.722Z" fill="#DEE5DC"/>
<path d="M110.868 261.576C99.3588 261.576 89.9958 251.156 89.9958 238.347C89.9958 225.538 99.3588 215.117 110.868 215.117C122.377 215.117 131.74 225.538 131.74 238.347C131.74 251.156 122.376 261.576 110.868 261.576ZM110.868 216.827C100.206 216.827 91.5316 226.48 91.5316 238.347C91.5316 250.213 100.206 259.867 110.868 259.867C121.53 259.867 130.204 250.213 130.204 238.347C130.204 226.48 121.53 216.827 110.868 216.827Z" fill="#161616"/>
<path d="M110.868 244.715C114.028 244.715 116.589 241.864 116.589 238.347C116.589 234.83 114.028 231.979 110.868 231.979C107.708 231.979 105.146 234.83 105.146 238.347C105.146 241.864 107.708 244.715 110.868 244.715Z" fill="#EAEFE8"/>
<path d="M110.868 245.569C107.29 245.569 104.378 242.329 104.378 238.347C104.378 234.364 107.29 231.124 110.868 231.124C114.446 231.124 117.357 234.364 117.357 238.347C117.357 242.329 114.446 245.569 110.868 245.569ZM110.868 232.834C108.136 232.834 105.914 235.307 105.914 238.347C105.914 241.387 108.136 243.86 110.868 243.86C113.599 243.86 115.821 241.387 115.821 238.347C115.821 235.307 113.599 232.834 110.868 232.834Z" fill="#161616"/>
<path d="M61.2986 161.533L154.006 142.886C154.006 142.886 169.377 147.485 163.439 177.428L69.9953 204.758" fill="#161616"/>
<path d="M69.9952 205.613C69.6546 205.613 69.3434 205.359 69.2528 204.976C69.145 204.519 69.3901 204.052 69.8005 203.932L162.789 176.734C165.033 165.037 164.204 155.634 160.385 149.521C157.824 145.422 154.677 144.038 153.956 143.765L61.4354 162.374C61.0189 162.459 60.6187 162.15 60.5432 161.685C60.4676 161.221 60.745 160.776 61.1621 160.692L153.869 142.045C153.982 142.023 154.096 142.028 154.205 142.061C154.373 142.111 158.353 143.35 161.577 148.436C166.864 156.778 165.915 168.906 164.189 177.612C164.127 177.925 163.913 178.173 163.634 178.254L70.1908 205.585C70.1254 205.604 70.0597 205.613 69.9952 205.613Z" fill="#161616"/>
<path d="M62.2957 206.461C73.3988 206.461 82.3997 196.443 82.3997 184.086C82.3997 171.729 73.3988 161.711 62.2957 161.711C51.1925 161.711 42.1917 171.729 42.1917 184.086C42.1917 196.443 51.1925 206.461 62.2957 206.461Z" fill="#DEE5DC"/>
<path d="M62.3186 207.317C61.719 207.317 61.1106 207.288 60.5101 207.23C49.0436 206.134 40.516 194.86 41.5004 182.098C41.9504 176.266 44.3357 170.882 48.217 166.936C52.0757 163.014 57.0674 160.854 62.2731 160.854C62.8727 160.854 63.4811 160.884 64.0816 160.941C75.5481 162.037 84.076 173.311 83.0913 186.073C82.6413 191.906 80.256 197.289 76.3744 201.235C72.516 205.157 67.524 207.317 62.3186 207.317ZM62.2731 162.564C57.4519 162.564 52.8279 164.565 49.2527 168.199C45.657 171.853 43.4474 176.842 43.0303 182.245C42.1181 194.068 50.0184 204.512 60.6413 205.527C61.1981 205.581 61.7623 205.608 62.3183 205.608C67.1395 205.608 71.7635 203.607 75.3387 199.973C78.9344 196.319 81.144 191.33 81.5611 185.927C82.4733 174.104 74.5733 163.66 63.9501 162.645C63.3933 162.591 62.8291 162.564 62.2731 162.564Z" fill="#161616"/>
<path d="M62.2959 190.454C65.4558 190.454 68.0174 187.603 68.0174 184.086C68.0174 180.569 65.4558 177.718 62.2959 177.718C59.1361 177.718 56.5745 180.569 56.5745 184.086C56.5745 187.603 59.1361 190.454 62.2959 190.454Z" fill="#EAEFE8"/>
<path d="M62.3027 191.308C62.1162 191.308 61.927 191.299 61.7406 191.282C60.0135 191.117 58.4477 190.213 57.3316 188.737C56.2154 187.262 55.6819 185.39 55.8302 183.468C56.1159 179.765 58.953 176.864 62.2891 176.864C62.4756 176.864 62.6648 176.873 62.8512 176.89C64.5783 177.055 66.1438 177.959 67.2603 179.435C68.3767 180.91 68.9099 182.782 68.7616 184.704C68.4756 188.407 65.6385 191.308 62.3027 191.308ZM62.2891 178.573C59.7435 178.573 57.5785 180.788 57.3604 183.615C57.2474 185.082 57.6544 186.51 58.5064 187.637C59.3587 188.763 60.5541 189.453 61.872 189.579C62.0152 189.593 62.1602 189.6 62.3027 189.6C64.8483 189.6 67.013 187.385 67.2314 184.558C67.3444 183.091 66.9374 181.663 66.0854 180.536C65.2331 179.409 64.038 178.72 62.7198 178.594C62.5766 178.58 62.4317 178.573 62.2891 178.573Z" fill="#161616"/>
<path d="M89.7144 131.086L183.315 119.181C183.315 119.181 198.385 124.882 190.712 154.331L95.8701 174.848" fill="#161616"/>
<path d="M95.8688 175.703C95.5088 175.703 95.1873 175.419 95.116 175.011C95.0352 174.548 95.307 174.1 95.7232 174.009L190.103 153.592C193.025 142.081 192.747 132.639 189.293 126.263C186.976 121.987 183.917 120.379 183.214 120.054L89.8015 131.935C89.381 131.993 88.9996 131.652 88.9513 131.183C88.9031 130.714 89.2056 130.291 89.627 130.237L183.228 118.332C183.34 118.318 183.455 118.331 183.562 118.372C183.726 118.435 187.626 119.958 190.545 125.267C195.334 133.973 193.68 146.007 191.449 154.569C191.368 154.877 191.141 155.109 190.858 155.17L96.0159 175.687C95.9668 175.698 95.9173 175.703 95.8688 175.703Z" fill="#161616"/>
<path d="M89.3926 176.038C100.496 176.038 109.497 166.021 109.497 153.663C109.497 141.306 100.496 131.288 89.3926 131.288C78.2895 131.288 69.2886 141.306 69.2886 153.663C69.2886 166.021 78.2895 176.038 89.3926 176.038Z" fill="#DEE5DC"/>
<path d="M89.4174 176.896C88.3678 176.896 87.3051 176.806 86.2596 176.63C80.7479 175.698 75.8917 172.434 72.5856 167.438C69.2795 162.441 67.9201 156.311 68.7571 150.177C69.5111 144.65 72.0291 139.612 75.8472 135.99C79.6266 132.405 84.4284 130.43 89.3679 130.43C90.4174 130.43 91.4798 130.52 92.5253 130.696C103.904 132.619 111.755 144.486 110.028 157.15C109.274 162.676 106.756 167.714 102.938 171.336C99.1584 174.921 94.3568 176.896 89.4174 176.896ZM89.3679 132.14C84.793 132.14 80.3453 133.969 76.8432 137.291C73.3062 140.646 70.9737 145.313 70.2753 150.433C69.5 156.116 70.7596 161.795 73.8222 166.424C76.8847 171.053 81.3837 174.077 86.49 174.94C87.4596 175.103 88.4443 175.187 89.4174 175.187C93.9919 175.187 98.44 173.357 101.942 170.036C105.478 166.681 107.811 162.013 108.509 156.894C110.11 145.162 102.836 134.168 92.2947 132.387C91.3253 132.223 90.3406 132.14 89.3679 132.14Z" fill="#161616"/>
<path d="M89.3927 160.031C92.5527 160.031 95.1144 157.18 95.1144 153.663C95.1144 150.146 92.5527 147.295 89.3927 147.295C86.2326 147.295 83.6709 150.146 83.6709 153.663C83.6709 157.18 86.2326 160.031 89.3927 160.031Z" fill="#EAEFE8"/>
<path d="M89.4005 160.886C89.074 160.886 88.7435 160.858 88.4183 160.803C84.8809 160.206 82.4397 156.516 82.9766 152.579C83.4545 149.079 86.2099 146.44 89.3861 146.44C89.7123 146.44 90.0421 146.468 90.3665 146.523C93.9041 147.121 96.3453 150.81 95.8084 154.748C95.3311 158.247 92.5761 160.886 89.4005 160.886ZM89.3861 148.15C86.9624 148.15 84.8597 150.165 84.4948 152.836C84.0851 155.841 85.9485 158.657 88.6486 159.114C88.898 159.156 89.1505 159.177 89.4002 159.177C91.8236 159.177 93.9256 157.163 94.2899 154.492C94.6996 151.486 92.8362 148.67 90.1358 148.213C89.8876 148.171 89.6352 148.15 89.3861 148.15Z" fill="#161616"/>
<path d="M100.128 172.561L192.836 153.914C192.836 153.914 208.207 158.513 202.269 188.455L108.826 215.786" fill="#161616"/>
<path d="M108.825 216.641C108.484 216.641 108.173 216.387 108.083 216.003C107.975 215.547 108.22 215.079 108.63 214.959L201.618 187.762C203.214 179.436 204.016 168.124 199.152 160.449C196.585 156.399 193.5 155.058 192.787 154.792L100.265 173.402C99.848 173.487 99.4478 173.177 99.3723 172.713C99.2967 172.248 99.5741 171.804 99.9915 171.72L192.699 153.073C192.81 153.051 192.925 153.056 193.035 153.089C193.203 153.139 197.183 154.377 200.407 159.463C205.693 167.805 204.745 179.934 203.019 188.639C202.957 188.952 202.742 189.2 202.464 189.282L109.02 216.613C108.955 216.632 108.889 216.641 108.825 216.641Z" fill="#161616"/>
<path d="M101.125 217.488C112.228 217.488 121.229 207.471 121.229 195.113C121.229 182.756 112.228 172.738 101.125 172.738C90.0221 172.738 81.0212 182.756 81.0212 195.113C81.0212 207.471 90.0221 217.488 101.125 217.488Z" fill="#DEE5DC"/>
<path d="M101.148 218.344C100.548 218.344 99.9399 218.315 99.3391 218.258C93.7844 217.727 88.7482 214.82 85.1577 210.074C81.5672 205.327 79.8527 199.308 80.3297 193.126C80.7797 187.294 83.165 181.91 87.0463 177.964C90.9047 174.042 95.8967 171.883 101.102 171.883C101.702 171.883 102.31 171.912 102.911 171.969C108.465 172.5 113.502 175.407 117.092 180.153C120.682 184.9 122.397 190.919 121.92 197.101C121.47 202.933 119.085 208.317 115.204 212.263C111.346 216.185 106.354 218.344 101.148 218.344ZM101.102 173.592C96.2809 173.592 91.6572 175.593 88.082 179.226C84.4863 182.881 82.2767 187.869 81.8599 193.272C81.4179 198.999 83.0065 204.575 86.3325 208.973C89.6586 213.371 94.3247 216.063 99.4706 216.555C100.028 216.608 100.592 216.635 101.148 216.635C105.969 216.635 110.593 214.634 114.168 211.001C117.764 207.346 119.973 202.358 120.39 196.955C120.832 191.227 119.244 185.652 115.918 181.254C112.592 176.856 107.926 174.164 102.78 173.672C102.223 173.619 101.658 173.592 101.102 173.592Z" fill="#161616"/>
<path d="M101.125 201.481C104.285 201.481 106.847 198.63 106.847 195.113C106.847 191.597 104.285 188.746 101.125 188.746C97.9654 188.746 95.4038 191.597 95.4038 195.113C95.4038 198.63 97.9654 201.481 101.125 201.481Z" fill="#EAEFE8"/>
<path d="M101.132 202.336C100.946 202.336 100.756 202.327 100.57 202.309C98.8429 202.144 97.2771 201.241 96.1609 199.765C95.0447 198.289 94.5112 196.418 94.6596 194.496C94.9455 190.792 97.7823 187.891 101.118 187.891C101.305 187.891 101.494 187.9 101.681 187.918C105.246 188.259 107.897 191.764 107.591 195.732C107.305 199.435 104.468 202.336 101.132 202.336ZM101.118 189.6C98.5729 189.6 96.4078 191.815 96.1898 194.642C96.0767 196.109 96.4837 197.537 97.3357 198.664C98.1881 199.79 99.3834 200.48 100.701 200.606C100.845 200.62 100.989 200.627 101.132 200.627C103.678 200.627 105.842 198.412 106.061 195.586C106.294 192.557 104.27 189.881 101.549 189.621C101.406 189.607 101.261 189.6 101.118 189.6Z" fill="#161616"/>
<path d="M125.791 220.044C125.522 220.044 125.275 219.847 125.199 219.544C125.108 219.181 125.299 218.804 125.625 218.702L203.468 194.455C203.795 194.353 204.133 194.565 204.225 194.929C204.316 195.292 204.126 195.67 203.799 195.771L125.957 220.019C125.901 220.036 125.845 220.044 125.791 220.044Z" fill="#AFB7AC"/>
<path d="M129.783 226.197C129.515 226.197 129.268 226 129.192 225.698C129.101 225.334 129.291 224.957 129.618 224.855L207.46 200.608C207.788 200.506 208.126 200.718 208.218 201.082C208.309 201.445 208.118 201.823 207.792 201.925L129.949 226.172C129.894 226.189 129.838 226.197 129.783 226.197Z" fill="#AFB7AC"/>
<path d="M133.776 234.743C133.512 234.743 133.267 234.551 133.188 234.254C133.091 233.892 133.277 233.511 133.602 233.404L208.987 208.473C209.311 208.365 209.654 208.572 209.751 208.934C209.847 209.296 209.662 209.676 209.337 209.784L133.952 234.715C133.893 234.734 133.835 234.743 133.776 234.743Z" fill="#AFB7AC"/>
<path d="M132.855 244.657C132.598 244.657 132.358 244.475 132.273 244.188C132.165 243.83 132.34 243.443 132.662 243.324L209.275 214.975C209.597 214.855 209.945 215.05 210.052 215.408C210.159 215.766 209.985 216.154 209.663 216.272L133.049 244.621C132.985 244.645 132.919 244.657 132.855 244.657Z" fill="#AFB7AC"/>
<path d="M118.164 176.197C117.876 176.197 117.619 175.97 117.562 175.643C117.497 175.272 117.715 174.914 118.048 174.842L194.403 158.364C194.737 158.293 195.059 158.534 195.124 158.905C195.188 159.276 194.97 159.634 194.637 159.706L118.282 176.184C118.242 176.193 118.203 176.197 118.164 176.197Z" fill="#AFB7AC"/>
<path d="M121.561 182.445C121.273 182.445 121.016 182.219 120.959 181.892C120.894 181.521 121.112 181.163 121.445 181.09L197.8 164.612C198.134 164.541 198.456 164.782 198.52 165.153C198.585 165.524 198.367 165.883 198.034 165.955L121.679 182.433C121.639 182.441 121.6 182.445 121.561 182.445Z" fill="#AFB7AC"/>
<path d="M124.79 190.988C124.505 190.988 124.25 190.767 124.189 190.445C124.119 190.076 124.332 189.713 124.664 189.636L198.71 172.288C199.041 172.21 199.368 172.447 199.438 172.816C199.508 173.186 199.295 173.548 198.963 173.626L124.917 190.974C124.874 190.983 124.832 190.988 124.79 190.988Z" fill="#AFB7AC"/>
<path d="M123.21 200.415C122.933 200.415 122.682 200.206 122.613 199.894C122.533 199.527 122.735 199.157 123.064 199.067L198.529 178.549C198.859 178.459 199.191 178.684 199.272 179.051C199.352 179.418 199.15 179.787 198.821 179.877L123.356 200.396C123.307 200.409 123.258 200.415 123.21 200.415Z" fill="#AFB7AC"/>
<path d="M111.711 137.72C111.404 137.72 111.139 137.465 111.102 137.117C111.062 136.742 111.302 136.402 111.639 136.357L183.022 126.893C183.357 126.852 183.664 127.116 183.704 127.492C183.744 127.867 183.504 128.207 183.167 128.251L111.784 137.715C111.76 137.718 111.735 137.72 111.711 137.72Z" fill="#AFB7AC"/>
<path d="M138.227 141.414C137.924 141.414 137.661 141.164 137.619 140.821C137.574 140.447 137.809 140.103 138.146 140.052L185.765 132.91C186.101 132.862 186.411 133.122 186.456 133.496C186.501 133.87 186.266 134.215 185.929 134.265L138.31 141.408C138.282 141.412 138.254 141.414 138.227 141.414Z" fill="#AFB7AC"/>
<path d="M116.923 151.852C116.62 151.852 116.356 151.603 116.315 151.26C116.269 150.886 116.505 150.541 116.841 150.491L186.149 140.053C186.484 140.001 186.794 140.264 186.84 140.638C186.885 141.013 186.65 141.357 186.313 141.408L117.006 151.846C116.978 151.85 116.95 151.852 116.923 151.852Z" fill="#AFB7AC"/>
<path d="M114.895 160.423C114.601 160.423 114.341 160.187 114.29 159.853C114.234 159.48 114.46 159.128 114.794 159.065L185.601 145.81C185.934 145.747 186.253 145.998 186.309 146.371C186.365 146.743 186.14 147.096 185.805 147.159L114.998 160.414C114.964 160.42 114.929 160.423 114.895 160.423Z" fill="#AFB7AC"/>
<path d="M179.045 117.476C178.25 117.476 177.394 117.33 176.502 117.041C176.448 117.024 176.396 117 176.348 116.97L162.643 108.617C162.186 108.358 150.981 101.721 150.881 77.3804C150.88 77.0566 151.043 76.7599 151.303 76.6136C151.563 76.4676 151.874 76.4974 152.108 76.6909L169.957 91.4715V61.8784C169.957 61.5239 170.154 61.206 170.452 61.0799C170.75 60.9537 171.086 61.045 171.298 61.3099C173.557 64.1291 180.219 71.4457 183.879 71.4457C184.444 71.4457 184.893 71.2646 185.249 70.892C185.472 70.6581 185.799 70.5949 186.08 70.7306C186.361 70.866 186.543 71.174 186.543 71.5148V105.69C186.478 109.777 184.828 117.476 179.045 117.476ZM177.01 115.425C177.734 115.652 178.418 115.767 179.045 115.767C184.78 115.767 185.007 105.775 185.007 105.675V72.9758C184.7 73.0951 184.281 73.1549 183.879 73.1549C179.944 73.1549 174.108 67.0282 171.493 64.0371V93.1722C171.493 93.4952 171.329 93.7909 171.07 93.9359C170.81 94.0804 170.5 94.0504 170.267 93.8576L152.444 79.1001C152.631 85.6552 153.799 94.2575 157.937 101.071C160.625 105.496 163.336 107.091 163.363 107.106L177.01 115.425Z" fill="#161616"/>
<path d="M173.489 65.4616C173.065 65.4616 172.721 65.0791 172.721 64.607V51.9467C172.037 50.4013 168.809 42.6829 171.241 39.6782C173.651 36.7022 177.209 35.7519 177.359 35.7125C177.618 35.6455 177.889 35.732 178.077 35.9409C178.264 36.1498 178.342 36.4519 178.281 36.7398C178.261 36.8345 177.867 38.6681 176.935 40.248C177.866 40.7909 179.007 42.0509 179.279 44.9743C179.323 45.4436 179.016 45.8637 178.594 45.9119C178.171 45.9618 177.795 45.6197 177.752 45.15C177.424 41.6226 175.646 41.546 175.628 41.5457C175.321 41.5392 175.047 41.3306 174.931 41.0144C174.815 40.6982 174.879 40.3359 175.094 40.0922C175.617 39.4998 176.026 38.6571 176.314 37.9006C175.186 38.4093 173.592 39.3285 172.382 40.8227C170.983 42.551 172.739 48.2026 174.175 51.3588C174.229 51.4787 174.258 51.6107 174.258 51.745V64.607C174.257 65.0791 173.914 65.4616 173.489 65.4616Z" fill="#161616"/>
<path d="M183.011 69.9054C182.587 69.9054 182.243 69.5229 182.243 69.0508V56.2152C182.243 55.9923 182.321 55.7783 182.461 55.6187L187.281 50.1151C187.577 49.7771 188.063 49.7706 188.367 50.0997C188.671 50.4293 188.677 50.9704 188.381 51.3081L183.779 56.5629V69.0508C183.779 69.5229 183.435 69.9054 183.011 69.9054Z" fill="#161616"/>
<path d="M203.077 54.784C198.928 54.784 193.816 51.8814 193.365 51.6203L178.122 44.0311C177.735 43.8383 177.561 43.3328 177.735 42.9021C177.908 42.4713 178.362 42.2782 178.749 42.4707L194.013 50.0704C194.028 50.0776 194.042 50.0854 194.056 50.0936C194.126 50.134 201.084 54.1505 204.809 52.8112C205.619 52.52 206.184 51.9976 206.536 51.2135C206.709 50.8279 206.714 50.377 206.55 49.8352C205.149 45.1965 193.074 37.7157 188.54 35.2251C181.183 30.8591 169.981 25.8721 168.041 28.4143C167.501 29.1233 167.285 29.8907 167.382 30.7607C167.715 33.7319 171.433 36.7128 171.47 36.7425C171.816 37.0163 171.896 37.5499 171.65 37.9341C171.404 38.3187 170.926 38.4083 170.58 38.1355C170.405 37.9967 166.277 34.6928 165.859 30.9754C165.706 29.6217 166.047 28.388 166.87 27.3078C168.461 25.2229 172.643 25.7053 179.654 28.7849C184.592 30.9538 189.194 33.6772 189.24 33.7043C189.908 34.0704 206.115 43.034 208.005 49.2903C208.302 50.2717 208.269 51.1759 207.909 51.9778C207.37 53.1773 206.485 54.0049 205.279 54.438C204.604 54.6811 203.858 54.7836 203.077 54.784Z" fill="#161616"/>
<path d="M207.439 50.3647C207.148 50.3647 206.87 50.1801 206.741 49.8674C202.549 39.7391 195.079 32.9318 184.54 29.6341C176.627 27.1581 169.86 27.7054 169.792 27.7109C169.365 27.7468 169 27.3957 168.967 26.9253C168.935 26.455 169.25 26.0437 169.673 26.0068C169.958 25.9822 176.738 25.4284 184.906 27.9731C192.481 30.3331 202.659 35.9232 208.135 49.1522C208.313 49.5809 208.144 50.0885 207.759 50.2858C207.655 50.3394 207.546 50.3647 207.439 50.3647Z" fill="#161616"/>
<path d="M202.598 41.7562C202.45 41.7562 202.3 41.7087 202.169 41.6095C201.817 41.3453 201.725 40.8137 201.963 40.4227C201.986 40.3837 204.381 36.3429 203.463 31.9086C202.871 29.0546 201.04 26.6162 198.017 24.6609C193.565 21.7799 189.405 21.3978 185.653 23.525C182.848 25.1152 181.343 27.5512 181.327 27.5758C181.09 27.9665 180.612 28.068 180.261 27.8034C179.91 27.5385 179.818 27.007 180.057 26.6162C180.125 26.5048 186.99 15.5496 198.789 23.1835C202.199 25.3894 204.276 28.2024 204.963 31.5428C206.024 36.709 203.349 41.1922 203.235 41.3802C203.086 41.6249 202.844 41.7562 202.598 41.7562Z" fill="#161616"/>
<path d="M204.037 38.0845C203.781 38.0845 203.531 37.9426 203.385 37.6835C197.741 27.653 182.778 25.5634 182.628 25.5432C182.207 25.4875 181.906 25.0626 181.956 24.5939C182.006 24.1256 182.389 23.7913 182.809 23.846C182.969 23.8672 186.799 24.3857 191.419 26.2176C197.589 28.6648 202.178 32.316 204.687 36.776C204.912 37.1759 204.804 37.7034 204.444 37.9539C204.317 38.0425 204.176 38.0845 204.037 38.0845Z" fill="#161616"/>
<path d="M185.666 72.3694C185.466 72.3694 185.266 72.2826 185.115 72.11C184.82 71.7716 184.827 71.2304 185.131 70.9016C185.633 70.3598 185.85 69.7848 185.796 69.1439C185.643 67.3185 183.412 65.3013 182.565 64.6781C182.212 64.4176 182.114 63.8878 182.348 63.494C182.581 63.1005 183.057 62.9922 183.411 63.2509C183.785 63.5254 187.074 66.0174 187.325 68.9818C187.423 70.1393 187.035 71.227 186.201 72.1281C186.052 72.2894 185.859 72.3694 185.666 72.3694Z" fill="#161616"/>
<path d="M139.564 59.839C138.561 59.839 137.732 59.2524 137.623 59.1724C137.269 58.9116 137.173 58.3814 137.407 57.988C137.641 57.5955 138.115 57.4879 138.468 57.7456C138.675 57.894 139.325 58.2447 139.849 58.0909C140.148 58.0034 140.391 57.7521 140.593 57.3231C140.789 56.9047 141.253 56.7433 141.629 56.9614C142.005 57.1802 142.15 57.6964 141.954 58.1148C141.444 59.2018 140.733 59.6028 140.227 59.7474C140.002 59.8123 139.779 59.839 139.564 59.839Z" fill="#161616"/>
<path d="M150.812 57.7525C149.809 57.7525 148.979 57.1659 148.87 57.0859C148.517 56.8251 148.42 56.2949 148.654 55.9015C148.888 55.509 149.362 55.4013 149.716 55.6591C149.923 55.8081 150.572 56.1585 151.097 56.0043C151.395 55.9168 151.639 55.6656 151.84 55.2366C152.037 54.8182 152.5 54.6565 152.876 54.8749C153.252 55.0937 153.398 55.6099 153.201 56.0283C152.691 57.1153 151.98 57.5163 151.474 57.6612C151.249 57.7258 151.026 57.7525 150.812 57.7525Z" fill="#161616"/>
<path d="M144.706 74.4424C142.962 74.4424 141.052 74.2085 138.985 73.7413C135.339 72.9164 132.599 71.6619 132.483 71.6089C132.092 71.4281 131.906 70.9283 132.068 70.4921C132.23 70.0566 132.68 69.8488 133.071 70.0296C133.178 70.0788 143.824 74.9097 150.396 71.5183C155.55 68.8595 151.868 55.9832 150.015 51.2457C149.846 50.8129 150.024 50.3094 150.413 50.121C150.801 49.9316 151.254 50.1303 151.423 50.5634C151.719 51.3212 158.598 69.1706 151.042 73.0692C149.27 73.9846 147.15 74.4424 144.706 74.4424Z" fill="#161616"/>
<path d="M129.295 75.8466C128.918 75.8466 128.589 75.5372 128.536 75.1092L127.292 65.1149C125.624 65.0996 124.146 64.4535 123.247 63.3193C122.594 62.4972 121.915 61.0071 122.387 58.577C122.673 57.1023 123.443 56.4193 124.038 56.1065C126.157 54.9931 129.297 56.7273 129.648 56.929C130.025 57.1454 130.173 57.6605 129.979 58.0799C129.785 58.499 129.322 58.6631 128.945 58.4484C128.176 58.0092 125.912 57.01 124.693 57.6526C124.427 57.7925 124.055 58.0779 123.888 58.9373C123.618 60.3279 123.79 61.4217 124.398 62.1874C125.106 63.0803 126.413 63.5254 127.89 63.3787C128.296 63.335 128.662 63.6611 128.718 64.1127L130.057 74.8744C130.115 75.3417 129.822 75.7734 129.402 75.838C129.366 75.8438 129.33 75.8466 129.295 75.8466Z" fill="#161616"/>
<path d="M132.778 61.5305H134.116L132.778 50.9547L120.727 40.6788C120.727 40.6788 114.568 46.9669 117.782 56.9618C120.995 66.9575 128.232 66.4393 128.232 66.4393C128.232 66.4393 129.676 64.3489 127.957 64.2286C126.201 64.1066 122.997 63.4923 123.137 58.8101C123.27 54.3919 130.903 56.7448 132.778 61.5305Z" fill="#161616"/>
<path d="M121.798 39.5254L134.116 50.9051C134.116 50.9051 147.372 50.7017 151.656 48.4664L153.129 52.6392C153.129 52.6392 159.422 41.6116 151.656 34.3096C143.891 27.008 129.832 22.6861 121.798 39.5254Z" fill="#161616"/>
<path d="M113.497 148.19C113.308 148.19 113.125 148.113 112.982 147.97C112.806 147.793 112.714 147.536 112.731 147.273L116.291 93.1299C116.312 92.3194 116.896 76.5381 129.262 75.9262C129.369 75.9204 129.471 75.9403 129.564 75.9786C129.767 75.8948 129.998 75.9081 130.198 76.0285L140.361 82.1545L147.805 74.9435C148.025 74.7308 148.333 74.6744 148.602 74.7978L151.2 75.9895C151.225 76.0011 151.25 76.0141 151.274 76.0285C151.632 76.2448 160.04 81.4579 160.591 93.1275C161.122 104.353 160.597 137.854 160.592 138.191C160.585 138.599 160.32 138.946 159.959 139.017L113.631 148.177C113.586 148.185 113.542 148.19 113.497 148.19ZM129.373 77.6303C129.359 77.632 129.345 77.633 129.33 77.6337C124.667 77.8648 121.319 80.5089 119.381 85.4929C117.894 89.3163 117.827 93.1463 117.826 93.1846C117.826 93.2013 117.825 93.2184 117.824 93.2348L114.335 146.302L159.067 137.458C159.14 132.557 159.543 103.48 159.057 93.2174C158.568 82.8686 151.12 77.901 150.571 77.55L148.456 76.5795L148.396 76.6369C148.564 76.8325 148.646 77.1131 148.593 77.3979L146.384 89.4688C146.329 89.77 146.133 90.0147 145.871 90.1104C145.609 90.2061 145.32 90.1378 145.116 89.9313L140.613 85.3866L137.238 91.1082C137.09 91.3595 136.83 91.5014 136.564 91.4932C136.294 91.4805 136.05 91.3113 135.921 91.047L129.373 77.6303ZM131.742 78.903L136.658 88.9762L139.752 83.7311L131.742 78.903ZM141.168 83.6391L145.148 87.6567L146.9 78.0867L141.168 83.6391Z" fill="#161616"/>
<path d="M132.486 141.862H126.343V77.2549H130.123L132.486 82.2676V141.862Z" fill="#946D42"/>
<path d="M141.879 122.44C141.47 122.44 141.13 122.081 141.112 121.621L139.696 84.1176C139.678 83.6462 140.008 83.248 140.431 83.2278C140.85 83.222 141.213 83.5744 141.231 84.0462L142.647 121.549C142.665 122.021 142.336 122.419 141.912 122.439C141.901 122.44 141.89 122.44 141.879 122.44Z" fill="#161616"/>
<path d="M154.293 141.862H147.843V77.3763L149.241 75.5881L154.293 79.7606V141.862Z" fill="#946D42"/>
<path d="M113.443 147.415V165.596C113.443 165.596 115.492 177.815 125.627 174.835C135.763 171.854 147.86 166.192 147.86 166.192C147.86 166.192 155.014 162.615 157.96 154.866C160.905 147.117 159.869 138.176 159.869 138.176L113.443 147.415Z" fill="#946D42"/>
<path d="M117.913 87.5087L106.668 132.215C106.668 132.215 105.597 139.964 110.819 141.752C116.041 143.54 117.915 142.348 118.719 141.752C119.522 141.156 152.728 119.15 152.728 119.15L145.632 104.051L122.2 116.866" fill="#DEE5DC"/>
<path d="M115.55 143.551C114.3 143.551 112.692 143.288 110.593 142.569C105.961 140.983 105.504 135.018 105.909 132.085C105.914 132.051 105.92 132.018 105.929 131.985L117.173 87.2783C117.288 86.8236 117.713 86.5587 118.12 86.6859C118.528 86.813 118.767 87.2848 118.652 87.7391L107.421 132.392C107.338 133.058 106.67 139.438 111.044 140.935C116.101 142.667 117.75 141.443 118.293 141.041C119.051 140.479 147.006 121.948 151.71 118.83L145.298 105.185L122.538 117.633C122.157 117.841 121.697 117.667 121.511 117.243C121.324 116.819 121.481 116.307 121.861 116.099L145.293 103.283C145.667 103.079 146.119 103.244 146.312 103.654L153.408 118.754C153.597 119.156 153.471 119.652 153.121 119.885C141.648 127.487 119.784 141.991 119.144 142.463C118.432 142.992 117.371 143.551 115.55 143.551Z" fill="#161616"/>
<path d="M149.247 62.5559H146.307C145.883 62.5559 145.539 62.1734 145.539 61.7013C145.539 61.2292 145.883 60.8467 146.307 60.8467H147.962L146.699 58.2317C146.498 57.816 146.638 57.2981 147.011 57.0742C147.385 56.851 147.85 57.0062 148.051 57.4226L149.923 61.2969C150.051 61.5615 150.044 61.8818 149.906 62.1399C149.767 62.398 149.517 62.5559 149.247 62.5559Z" fill="#161616"/>
<path d="M149.24 135.752L165.781 112.267C165.781 112.267 174.226 105.938 178.537 110.17C183.698 115.237 183.472 124.466 183.472 124.466V172.152C183.472 172.152 190.126 179.305 190.126 184.968C190.126 184.968 186.826 187.65 178.598 184.968C170.37 182.286 163.2 171.854 163.2 171.854V150.098L149.241 165.305" fill="#946D42"/>
<path d="M122.858 147.334L139.468 123.869C139.468 123.869 148.016 117.551 152.327 121.783C157.488 126.85 157.364 136.09 157.364 136.09V183.776C157.364 183.776 163.95 190.929 163.95 196.591C163.95 196.591 160.53 199.274 152.302 196.591C144.075 193.909 136.786 183.478 136.786 183.478V147.331" fill="#946D42"/>
<path d="M136.939 157.757C136.515 157.757 136.172 157.375 136.172 156.903V147.331C136.172 146.859 136.515 146.477 136.939 146.477C137.364 146.477 137.707 146.859 137.707 147.331V156.903C137.707 157.375 137.364 157.757 136.939 157.757Z" fill="#161616"/>
<path d="M157.211 157.758C156.787 157.758 156.443 157.375 156.443 156.903V136.089C156.445 135.984 156.544 127.184 151.718 122.447C149.771 120.536 146.698 121.192 144.464 122.079C142.24 122.961 140.39 124.236 139.948 124.551L120.407 152.682C120.148 153.055 119.666 153.124 119.33 152.835C118.995 152.547 118.933 152.01 119.192 151.636L138.813 123.392C138.863 123.319 138.924 123.256 138.992 123.205C139.359 122.93 148.032 116.55 152.734 121.165C158.101 126.434 157.979 135.716 157.979 136.108V156.903C157.979 157.375 157.635 157.758 157.211 157.758Z" fill="#161616"/>
<path d="M157.364 183.776V156.903H136.786V183.478C136.786 183.478 144.121 193.909 152.349 196.591C160.577 199.274 163.914 196.591 163.914 196.591C163.915 190.929 157.364 183.776 157.364 183.776Z" fill="#FBFCFA"/>
<path d="M159.091 198.638C157.021 198.638 154.706 198.225 152.21 197.412C148.682 196.261 144.935 193.651 141.074 189.655C138.218 186.698 136.408 184.11 136.333 184.001C136.228 183.851 136.172 183.667 136.172 183.478V156.732C136.172 156.26 136.516 155.877 136.94 155.877H157.518C157.942 155.877 158.286 156.26 158.286 156.732V183.425C159.483 184.798 164.798 191.195 164.798 196.592C164.798 196.868 164.678 197.126 164.476 197.287C164.406 197.342 162.733 198.638 159.091 198.638ZM137.707 183.178C138.81 184.692 145.409 193.413 152.641 195.771C154.998 196.539 157.168 196.929 159.091 196.929C161.327 196.929 162.665 196.399 163.244 196.098C162.881 190.925 157.039 184.451 156.979 184.384C156.832 184.223 156.75 184.004 156.75 183.776V157.587H137.707V183.178Z" fill="#161616"/>
<path d="M157.548 184.63C157.335 184.63 157.122 184.532 156.97 184.338C155.212 182.102 149.951 183.332 148.073 183.994C147.668 184.138 147.237 183.888 147.109 183.438C146.981 182.988 147.205 182.508 147.609 182.365C147.686 182.338 149.517 181.698 151.687 181.448C154.76 181.093 156.926 181.687 158.126 183.212C158.405 183.568 158.373 184.107 158.054 184.418C157.908 184.561 157.728 184.63 157.548 184.63Z" fill="#161616"/>
<path d="M163.2 150.098V171.854C163.2 171.854 170.45 182.286 178.678 184.968C186.906 187.65 190.133 184.968 190.133 184.968C190.133 179.305 183.472 172.152 183.472 172.152V144.939H163.038L163.2 150.098Z" fill="#FBFCFA"/>
<path d="M185.391 187.015C183.34 187.015 181.035 186.602 178.538 185.788C175.01 184.638 171.277 182.027 167.443 178.029C164.608 175.072 162.818 172.482 162.744 172.374C162.641 172.224 162.586 172.042 162.586 171.854V150.126L162.271 144.824C162.258 144.588 162.332 144.356 162.477 144.184C162.622 144.011 162.825 143.913 163.038 143.913H183.625C184.049 143.913 184.393 144.296 184.393 144.768V171.797C185.612 173.172 191.016 179.569 191.016 184.968C191.016 185.239 190.9 185.494 190.704 185.656C190.636 185.711 189.008 187.015 185.391 187.015ZM164.122 171.557C165.21 173.068 171.739 181.79 178.97 184.148C181.327 184.916 183.487 185.305 185.391 185.305C187.584 185.305 188.893 184.78 189.462 184.479C189.096 179.309 183.152 172.832 183.09 172.765C182.941 172.604 182.857 172.383 182.857 172.152V145.622H163.858L164.12 150.042C164.121 150.06 164.121 150.079 164.121 150.098V171.557H164.122Z" fill="#161616"/>
<path d="M163.354 145.793C162.929 145.793 162.586 145.411 162.586 144.939V132.291C162.586 131.819 162.929 131.436 163.354 131.436C163.778 131.436 164.121 131.819 164.121 132.291V144.939C164.121 145.411 163.778 145.793 163.354 145.793Z" fill="#161616"/>
<path d="M173.75 173.922C173.446 173.922 173.158 173.72 173.037 173.387C172.879 172.949 173.069 172.452 173.462 172.275C173.69 172.172 179.119 169.777 184.003 171.33C184.41 171.46 184.646 171.933 184.53 172.387C184.414 172.841 183.989 173.104 183.58 172.974C179.211 171.584 174.087 173.837 174.036 173.86C173.942 173.902 173.845 173.922 173.75 173.922Z" fill="#161616"/>
<path d="M118.664 40.3366H116.207C115.783 40.3366 115.439 39.9541 115.439 39.482C115.439 39.01 115.783 38.6274 116.207 38.6274H118.664C119.089 38.6274 119.432 39.01 119.432 39.482C119.432 39.9541 119.089 40.3366 118.664 40.3366Z" fill="#161616"/>
<path d="M118.585 37.3995C118.384 37.3995 118.183 37.312 118.032 37.138L116.827 35.7474C116.533 35.4076 116.542 34.8668 116.847 34.539C117.152 34.2115 117.638 34.2214 117.933 34.5609L119.138 35.9515C119.432 36.2913 119.423 36.8321 119.118 37.1599C118.969 37.3202 118.777 37.3995 118.585 37.3995Z" fill="#161616"/>
<path d="M144.426 78.2309C144.029 78.2309 143.692 77.8901 143.661 77.4416L143.393 73.5669C143.361 73.0965 143.677 72.6856 144.1 72.6494C144.524 72.607 144.892 72.9652 144.925 73.4359L145.192 77.3107C145.225 77.781 144.909 78.1919 144.486 78.2282C144.465 78.2305 144.445 78.2309 144.426 78.2309Z" fill="#161616"/>
<path d="M147.612 107.126L159.289 99.5804C159.289 99.5804 163.841 97.3448 166.519 99.5804C169.197 101.816 172.41 107.126 172.41 107.126C172.41 107.126 170.048 107.667 169.154 107.126L167.858 104.2C167.858 104.2 170.851 110.75 169.689 111.945C168.527 113.141 165.18 108.67 165.18 108.67C165.18 108.67 168.661 115.334 167.322 116.622C165.983 117.91 163.038 111.462 163.038 111.462C163.038 111.462 160.36 115.997 156.611 114.482L152.46 116.792" fill="#DEE5DC"/>
<path d="M152.461 117.647C152.179 117.647 151.908 117.473 151.773 117.174C151.584 116.752 151.737 116.239 152.117 116.028L156.267 113.718C156.456 113.613 156.675 113.599 156.873 113.679C159.998 114.94 162.301 111.153 162.397 110.991C162.548 110.738 162.807 110.591 163.082 110.61C163.354 110.627 163.599 110.804 163.722 111.074C164.797 113.426 166.241 115.647 166.85 115.913C167.114 115.188 166.04 112.016 164.516 109.1C164.316 108.716 164.413 108.225 164.74 107.97C165.067 107.716 165.515 107.782 165.77 108.123C167.023 109.794 168.637 111.296 169.167 111.297C169.387 110.64 168.625 107.948 167.49 105.3L167.169 104.578C166.983 104.156 167.137 103.646 167.514 103.436C167.892 103.226 168.351 103.393 168.543 103.812C168.68 104.112 168.824 104.438 168.971 104.781L169.71 106.448C170.014 106.525 170.518 106.528 171.059 106.477C169.979 104.824 167.867 101.774 166.058 100.264C163.888 98.4516 160.041 100.157 159.633 100.346L147.998 107.864C147.631 108.102 147.161 107.963 146.948 107.554C146.735 107.147 146.86 106.623 147.227 106.386L158.903 98.841C158.928 98.8253 158.953 98.8109 158.979 98.7983C159.182 98.6991 163.977 96.3893 166.98 98.8964C169.73 101.192 172.913 106.426 173.047 106.648C173.19 106.884 173.218 107.185 173.121 107.448C173.025 107.712 172.816 107.905 172.565 107.963C172.279 108.028 171.226 108.25 170.23 108.216C170.763 110.066 170.961 111.8 170.211 112.573C169.909 112.883 169.518 113.029 169.081 112.999C168.643 112.967 168.158 112.734 167.671 112.396C168.595 114.971 168.639 116.485 167.825 117.268C167.494 117.587 167.07 117.71 166.632 117.615C165.305 117.324 163.787 114.727 162.914 113.009C161.6 114.588 159.315 116.271 156.672 115.404L152.804 117.556C152.693 117.617 152.576 117.647 152.461 117.647Z" fill="#161616"/>
<path d="M174.15 96.7089C173.99 96.7089 173.828 96.6532 173.69 96.538L170.477 93.856C170.138 93.5729 170.069 93.0369 170.323 92.6595C170.578 92.2821 171.059 92.2063 171.398 92.4886L174.612 95.1707C174.951 95.4537 175.02 95.9897 174.765 96.3671C174.614 96.591 174.384 96.7089 174.15 96.7089Z" fill="#161616"/>
<path d="M178.436 29.9884C178.436 29.9884 173.66 29.0617 172.544 31.1144C171.429 33.1675 186.979 42.2077 186.979 42.2077C186.979 42.2077 202.136 50.702 204.036 48.6889C205.654 46.9756 201.778 43.0459 201.778 43.0459C201.778 43.0459 182.324 30.0612 178.436 29.9884Z" fill="#161616"/>
<path d="M138.239 64.3973C138.012 65.7356 141.34 69.7375 145.31 68.0738C147.452 67.1768 146.163 64.9576 143.671 64.9576C142.278 64.9573 138.921 60.3609 138.239 64.3973Z" fill="#161616"/>
<path d="M266.981 187.682C266.796 187.682 266.615 187.607 266.473 187.468L262.512 183.579C262.194 183.266 262.164 182.726 262.444 182.372C262.725 182.019 263.21 181.985 263.528 182.297L266.565 185.279L269.22 174.48C269.332 174.026 269.752 173.758 270.164 173.882C270.572 174.006 270.813 174.476 270.701 174.932L267.721 187.053C267.651 187.337 267.455 187.561 267.201 187.646C267.128 187.67 267.054 187.682 266.981 187.682Z" fill="#161616"/>
<path d="M266.981 187.682C266.929 187.682 266.875 187.675 266.822 187.663L262.167 186.568C261.751 186.47 261.486 186.017 261.574 185.555C261.662 185.093 262.072 184.8 262.484 184.896L267.139 185.99C267.554 186.088 267.819 186.541 267.732 187.003C267.655 187.406 267.336 187.682 266.981 187.682Z" fill="#161616"/>
<path d="M253.446 149.841C253.446 149.841 260.887 164.014 261.937 167.151C262.987 170.287 274.932 188.351 288.651 178.661C288.651 178.661 296.106 175.424 296.313 163.669L270.841 150.902C270.841 150.901 259.866 137.164 253.446 149.841Z" fill="#EAEFE8"/>
<path d="M280.413 182.199C280.412 182.199 280.412 182.199 280.411 182.199C269.903 182.199 262.097 170.005 261.217 167.377C260.202 164.345 252.857 150.377 252.783 150.235C252.646 149.973 252.643 149.668 252.777 149.403C254.729 145.55 257.293 143.605 260.4 143.605C265.601 143.605 270.482 149.204 271.301 150.19L296.628 162.888C296.908 163.028 297.087 163.343 297.081 163.685C296.875 175.377 289.858 178.949 289.004 179.35C286.24 181.288 283.349 182.199 280.413 182.199ZM254.335 149.841C255.613 152.285 261.687 163.885 262.656 166.78C263.439 169.118 270.848 180.49 280.411 180.49C280.412 180.49 280.413 180.49 280.413 180.49C283.074 180.49 285.707 179.655 288.239 177.867C288.281 177.837 288.326 177.848 288.372 177.828C288.65 177.705 295.123 174.741 295.53 164.196L270.526 151.672C270.428 151.622 270.34 151.555 270.268 151.465C270.219 151.404 265.29 145.321 260.401 145.321C257.998 145.321 255.96 146.843 254.335 149.841Z" fill="#161616"/>
<path d="M296.313 163.669L312.052 152.606C312.052 152.606 306.874 172.658 296.313 163.669Z" fill="#161616"/>
<path d="M296.015 164.449L314.594 163.175C314.594 163.175 301.389 177.983 296.015 164.449Z" fill="#161616"/>
<path d="M296.326 166.036L314.216 171.759C314.216 171.759 297.318 180.792 296.326 166.036Z" fill="#161616"/>
<path d="M258.059 144.933C258.059 144.933 255.216 137.164 258.059 137.394C260.901 137.624 262.326 140.16 262.326 140.16C262.326 140.16 265.453 136.911 266.491 138.19C267.529 139.469 264.653 145.672 264.653 145.672" fill="#946D42"/>
<path d="M285.13 190.745H279.914C279.49 190.745 279.146 190.362 279.146 189.89C279.146 189.418 279.49 189.036 279.914 189.036H283.902L279.502 178.982C279.316 178.557 279.475 178.046 279.856 177.839C280.237 177.632 280.697 177.809 280.882 178.233L285.82 189.516C285.936 189.781 285.922 190.093 285.781 190.343C285.641 190.593 285.395 190.745 285.13 190.745Z" fill="#161616"/>
<path d="M280.989 193.578C280.722 193.578 280.462 193.422 280.32 193.144C280.112 192.733 280.241 192.212 280.611 191.98L284.752 189.372C285.121 189.141 285.59 189.284 285.798 189.695C286.007 190.106 285.877 190.628 285.508 190.86L281.367 193.467C281.247 193.542 281.117 193.578 280.989 193.578Z" fill="#161616"/>
<path d="M263.284 159.915C263.284 159.915 266.421 161.176 268.022 159.173C269.621 157.171 268.198 153.685 268.198 153.685C268.198 153.685 271.608 154.438 273.572 152.271L270.841 150.902C270.841 150.902 259.866 137.164 253.446 149.84C253.446 149.84 258.377 159.233 260.776 164.418C261.727 163.954 263.57 162.685 263.284 159.915Z" fill="#EAEFE8"/>
<path d="M260.777 165.273C260.497 165.273 260.229 165.102 260.094 164.809C257.73 159.703 252.832 150.365 252.783 150.272C252.645 150.01 252.643 149.686 252.777 149.421C254.728 145.568 257.293 143.615 260.399 143.615C265.601 143.615 270.481 149.209 271.301 150.196L273.887 151.492C274.117 151.607 274.282 151.842 274.327 152.119C274.372 152.396 274.292 152.68 274.112 152.878C272.675 154.464 270.629 154.706 269.303 154.662C269.622 156.039 269.829 158.196 268.595 159.741C267.852 160.67 266.747 161.161 265.398 161.161C264.906 161.161 264.444 161.097 264.059 161.017C263.831 163.566 261.964 164.771 261.085 165.201C260.985 165.25 260.88 165.273 260.777 165.273ZM254.335 149.841C255.276 151.644 258.94 158.686 261.101 163.263C261.946 162.665 262.692 161.665 262.521 160.012C262.49 159.718 262.599 159.428 262.807 159.244C263.016 159.061 263.295 159.011 263.545 159.111C263.551 159.114 264.417 159.452 265.398 159.452C266.309 159.452 266.998 159.167 267.447 158.605C268.681 157.061 267.511 154.068 267.499 154.038C267.38 153.746 267.417 153.405 267.596 153.154C267.775 152.903 268.064 152.783 268.347 152.846C268.354 152.848 270.397 153.268 272.023 152.432L270.526 151.681C270.427 151.632 270.339 151.56 270.267 151.47C270.218 151.408 265.289 145.324 260.4 145.324C257.998 145.324 255.959 146.843 254.335 149.841Z" fill="#161616"/>
<path d="M273.572 152.27C273.572 152.27 272.083 166.951 279.849 170.265C287.615 173.579 290.515 160.922 290.515 160.922L273.572 152.27Z" fill="#EAEFE8"/>
<path d="M282.354 171.602H282.353C281.457 171.602 280.522 171.432 279.574 171.028C276.129 169.557 273.87 165.806 273.04 160.145C272.432 155.992 272.793 152.32 272.809 152.165C272.837 151.893 272.98 151.657 273.194 151.522C273.409 151.386 273.668 151.377 273.892 151.491L290.835 160.144C291.172 160.316 291.35 160.732 291.259 161.132C291.235 161.238 290.65 163.718 289.307 166.267C287.456 169.781 285.052 171.602 282.354 171.602ZM274.261 153.563C274.119 157.024 274.245 166.958 280.124 169.468C280.896 169.797 281.646 169.964 282.354 169.964C286.735 169.965 288.968 163.525 289.589 161.389L274.261 153.563Z" fill="#161616"/>
<path d="M253.446 149.841C253.446 149.841 250.754 150.98 250.133 154.444L255.086 152.997L253.446 149.841Z" fill="#161616"/>
<path d="M260.61 149.93C261.243 149.93 261.756 149.359 261.756 148.655C261.756 147.951 261.243 147.38 260.61 147.38C259.977 147.38 259.464 147.951 259.464 148.655C259.464 149.359 259.977 149.93 260.61 149.93Z" fill="#161616"/>
<path d="M237.54 189.072C237.54 189.072 243.391 196.046 248.658 192.776C253.924 189.506 253.924 180.082 248.658 179.693C243.391 179.303 247.292 191.894 237.54 189.072Z" fill="#8DC73F"/>
<path d="M246.282 197.752C245.858 197.752 245.514 197.37 245.514 196.898V193.821C245.514 193.349 245.858 192.967 246.282 192.967C246.706 192.967 247.05 193.349 247.05 193.821V196.898C247.05 197.37 246.706 197.752 246.282 197.752Z" fill="#161616"/>
<path d="M248.739 196.385C248.315 196.385 247.971 196.003 247.971 195.531V192.796C247.971 192.324 248.315 191.941 248.739 191.941C249.163 191.941 249.507 192.324 249.507 192.796V195.531C249.507 196.003 249.163 196.385 248.739 196.385Z" fill="#161616"/>
<path d="M251.925 182.194C251.925 182.194 255.573 183.527 255.768 186.191L252.217 185.622L251.925 182.194Z" fill="#161616"/>
<path d="M248.744 184.26C249.34 184.26 249.823 183.722 249.823 183.058C249.823 182.395 249.34 181.857 248.744 181.857C248.148 181.857 247.664 182.395 247.664 183.058C247.664 183.722 248.148 184.26 248.744 184.26Z" fill="#161616"/>
<path d="M224.958 167.906C224.958 167.906 230.81 174.88 236.077 171.61C241.343 168.34 241.343 158.916 236.077 158.527C230.81 158.137 234.711 170.728 224.958 167.906Z" fill="#8DC73F"/>
<path d="M233.689 176.559C233.265 176.559 232.921 176.176 232.921 175.704V172.627C232.921 172.155 233.265 171.773 233.689 171.773C234.113 171.773 234.457 172.155 234.457 172.627V175.704C234.457 176.176 234.113 176.559 233.689 176.559Z" fill="#161616"/>
<path d="M236.147 175.533C235.722 175.533 235.379 175.151 235.379 174.678V171.602C235.379 171.13 235.722 170.747 236.147 170.747C236.571 170.747 236.914 171.13 236.914 171.602V174.678C236.914 175.151 236.571 175.533 236.147 175.533Z" fill="#161616"/>
<path d="M239.344 161.028C239.344 161.028 242.991 162.36 243.187 165.024L239.636 164.455L239.344 161.028Z" fill="#161616"/>
<path d="M236.151 163.407C236.747 163.407 237.23 162.87 237.23 162.206C237.23 161.543 236.747 161.005 236.151 161.005C235.555 161.005 235.071 161.543 235.071 162.206C235.071 162.87 235.555 163.407 236.151 163.407Z" fill="#161616"/>
<path d="M355.078 139.302C355.237 140.367 354.59 141.373 353.634 141.55C352.677 141.726 351.773 141.006 351.615 139.942L338.06 49.0308C337.901 47.9664 338.547 46.96 339.504 46.7836C340.46 46.6069 341.365 47.3268 341.523 48.3913L355.078 139.302Z" fill="#DEE5DC"/>
<path d="M353.344 142.431C352.106 142.431 351.06 141.443 350.857 140.082L337.302 49.1707C337.192 48.431 337.347 47.6872 337.739 47.077C338.131 46.4668 338.713 46.0631 339.378 45.9407C339.515 45.9154 339.655 45.9024 339.793 45.9024C341.031 45.9024 342.078 46.8907 342.281 48.2515L355.835 139.163C356.063 140.69 355.132 142.139 353.759 142.393C353.622 142.418 353.482 142.431 353.344 142.431ZM339.793 47.6113C339.739 47.6113 339.684 47.6164 339.63 47.6263C339.369 47.6745 339.142 47.8328 338.988 48.0714C338.835 48.31 338.774 48.6012 338.817 48.8904L352.372 139.802C352.46 140.395 352.97 140.807 353.508 140.706C354.045 140.607 354.41 140.04 354.321 139.442L340.766 48.5308C340.686 47.9982 340.277 47.6113 339.793 47.6113Z" fill="#161616"/>
<path d="M339.509 64.214L344.464 63.1273C344.464 63.1273 344.65 37.2236 337.985 36.5324C331.319 35.8415 339.509 64.214 339.509 64.214Z" fill="#946D42"/>
<path d="M353.88 132.262C353.88 132.262 356.637 142.043 362.339 142.253C367.558 142.444 370.564 169.571 370.564 169.571C370.564 169.571 368.734 173.21 368.111 170.025C367.488 166.839 363.924 150.63 361.987 150.57C360.051 150.51 363.618 170.72 363.618 170.72C363.618 170.72 362.593 175.778 361.026 172.237C359.46 168.696 357.475 151.403 355.286 151.642C353.098 151.882 356.408 173.221 356.408 173.221C356.408 173.221 355.338 176.855 354.091 174.459C352.844 172.063 350.709 151.774 347.926 153.001C345.855 153.915 348.484 173.649 348.484 173.649C348.484 173.649 347.708 180.379 346.029 174.093C345.25 171.175 340.82 153.503 343.312 146.922C344.589 143.55 351.082 144.331 350.56 132.875L353.88 132.262Z" fill="white"/>
<path d="M347.362 177.631C346.375 177.631 345.821 176.314 345.293 174.337C344.735 172.245 339.914 153.696 342.605 146.59C343.098 145.288 344.148 144.542 345.26 143.751C347.543 142.128 350.13 140.288 349.794 132.918C349.774 132.484 350.05 132.103 350.435 132.032L353.755 131.419C354.132 131.348 354.498 131.599 354.613 132.005C354.639 132.098 357.277 141.212 362.365 141.398C365.818 141.525 367.896 149.674 369.158 155.792C370.554 162.563 371.32 169.398 371.327 169.467C371.347 169.647 371.315 169.88 371.235 170.038C370.902 170.699 370.013 172.286 368.931 172.286C368.931 172.286 368.931 172.286 368.931 172.286C368.391 172.286 367.681 171.893 367.361 170.256C365.541 160.951 363.275 153.768 362.201 151.882C361.948 154.438 363.048 163.068 364.371 170.567C364.392 170.684 364.441 170.798 364.417 170.914C364.208 171.949 363.457 174.352 362.228 174.353V174.351C361 174.352 360.578 173.045 360.388 172.616C359.744 171.16 359.071 167.846 358.321 164.01C357.634 160.497 356.389 154.196 355.465 152.734C354.916 154.972 355.867 164.664 357.171 173.076C357.193 173.213 357.18 173.354 357.141 173.487C356.958 174.107 356.261 176.131 354.974 176.131C354.378 176.131 353.858 175.712 353.428 174.887C352.961 173.991 352.512 171.608 351.759 167.474C351.214 164.483 350.596 161.093 349.917 158.384C349.054 154.941 348.449 154.077 348.224 153.863C347.617 155.211 347.822 162.852 349.243 173.524C349.253 173.601 349.254 173.68 349.245 173.758C348.949 176.328 348.315 177.631 347.362 177.631ZM351.353 133.595C351.507 141.337 348.385 143.557 346.086 145.191C345.104 145.89 344.327 146.442 344.02 147.254C343.04 149.84 343.103 154.847 344.2 161.732C345.165 167.786 346.604 173.247 346.765 173.85C346.991 174.698 347.181 175.218 347.319 175.532C347.469 175.062 347.622 174.343 347.709 173.654C347.606 172.864 347.025 168.324 346.664 163.743C345.882 153.842 346.76 152.597 347.644 152.207C347.815 152.132 347.991 152.094 348.17 152.094C350.196 152.094 351.331 156.528 353.264 167.135C353.819 170.182 354.393 173.333 354.756 174.031C354.855 174.221 354.933 174.325 354.982 174.38C355.165 174.2 355.439 173.668 355.617 173.146C354.875 168.331 352.779 153.662 354.37 151.338C354.647 150.932 354.98 150.817 355.211 150.792C355.251 150.787 355.291 150.785 355.331 150.785C356.998 150.785 357.908 153.996 359.796 163.646C360.463 167.06 361.154 170.591 361.715 171.86C361.898 172.273 362.039 172.478 362.122 172.575C362.345 172.292 362.653 171.484 362.832 170.7C362.675 169.798 361.978 165.72 361.417 161.516C360.093 151.587 360.8 150.629 361.14 150.17C361.357 149.877 361.654 149.715 361.978 149.715C362.876 149.742 363.994 150.475 366.277 158.878C367.559 163.599 368.599 168.499 368.861 169.843C368.916 170.121 368.972 170.294 369.016 170.398C369.22 170.222 369.528 169.81 369.769 169.387C369.609 168.025 368.876 162.066 367.658 156.164C365.176 144.139 362.94 143.129 362.314 143.107C357.019 142.913 354.152 135.577 353.367 133.223L351.353 133.595Z" fill="#161616"/>
<path d="M36.158 83.15C43.4922 83.15 49.4377 76.533 49.4377 68.3704C49.4377 60.2078 43.4922 53.5907 36.158 53.5907C28.8239 53.5907 22.8784 60.2078 22.8784 68.3704C22.8784 76.533 28.8239 83.15 36.158 83.15Z" fill="#DEE5DC"/>
<path d="M36.6601 58.4017C41.9929 58.4017 46.3161 53.5903 46.3161 47.655C46.3161 41.7198 41.9929 36.9084 36.6601 36.9084C31.3273 36.9084 27.0042 41.7198 27.0042 47.655C27.0042 53.5903 31.3273 58.4017 36.6601 58.4017Z" fill="#DEE5DC"/>
<path d="M36.5208 103.235C36.5202 103.235 36.5196 103.235 36.5189 103.235C36.0948 103.235 35.752 102.777 35.7529 102.305L35.8924 43.3537C35.8933 42.8827 36.237 42.3877 36.6602 42.3877C36.6608 42.3877 36.6615 42.3877 36.6621 42.3877C37.0862 42.3877 37.429 42.8499 37.4281 43.3216L37.2886 102.27C37.2877 102.742 36.944 103.235 36.5208 103.235Z" fill="#161616"/>
<path d="M36.5201 72.4314C36.3979 72.4314 36.2738 72.3986 36.1583 72.3298L28.9829 68.0545C28.6091 67.832 28.4684 67.3137 28.6683 66.8977C28.8689 66.4814 29.3339 66.3251 29.7077 66.5477L36.8832 70.823C37.257 71.0456 37.3977 71.5638 37.1977 71.9798C37.0595 72.2673 36.7941 72.4314 36.5201 72.4314Z" fill="#161616"/>
<path d="M36.6595 54.4446C36.486 54.4446 36.3112 54.3797 36.1675 54.2457C35.8419 53.9428 35.7989 53.4041 36.071 53.0421L41.7157 45.5285C41.9878 45.1662 42.4719 45.1176 42.7972 45.4212C43.1227 45.724 43.1657 46.2628 42.8936 46.6248L37.2489 54.1383C37.0972 54.3407 36.8791 54.4446 36.6595 54.4446Z" fill="#161616"/>
<path d="M105.706 307.971C105.646 307.971 105.585 307.963 105.525 307.947C105.112 307.836 104.859 307.374 104.959 306.915C105.014 306.659 106.365 300.557 110.159 292.795C113.662 285.625 119.995 275.676 130.27 268.993C130.636 268.754 131.106 268.892 131.32 269.299C131.534 269.707 131.411 270.231 131.045 270.469C111.953 282.886 106.504 307.074 106.451 307.317C106.366 307.708 106.052 307.971 105.706 307.971Z" fill="#161616"/>
<path d="M94.1707 304.792C94.1461 304.792 94.1212 304.791 94.0963 304.788C93.674 304.743 93.365 304.325 93.4053 303.855C93.4526 303.309 97.9716 249.013 84.7027 232.705C84.418 232.355 84.4419 231.815 84.7564 231.498C85.071 231.181 85.5562 231.208 85.841 231.558C91.6278 238.67 94.914 253.049 95.6078 274.295C96.1216 290.024 94.9459 303.881 94.9339 304.019C94.8961 304.461 94.5617 304.792 94.1707 304.792Z" fill="#161616"/>
<path d="M130.733 267.134C130.733 267.134 136.739 255.576 131.574 252.775C127.377 250.499 125.975 264.223 130.733 267.134Z" fill="#8DC73F"/>
<path d="M130.526 268C130.104 268 129.76 267.614 129.758 267.143L129.708 255.556C129.706 255.085 130.048 254.668 130.472 254.668C130.474 254.668 130.475 254.668 130.476 254.668C130.899 254.668 131.242 255.075 131.244 255.545L131.294 267.122C131.296 267.594 130.954 268 130.53 268C130.529 268 130.527 268 130.526 268Z" fill="#161616"/>
<path d="M118.628 278.909C118.628 278.909 122.66 266.335 117.125 264.617C112.628 263.223 113.476 277.003 118.628 278.909Z" fill="#8DC73F"/>
<path d="M118.424 279.805C118.062 279.805 117.739 279.52 117.67 279.109L115.745 267.751C115.667 267.288 115.941 266.841 116.358 266.753C116.774 266.667 117.176 266.971 117.254 267.435L119.179 278.792C119.258 279.256 118.984 279.703 118.567 279.791C118.519 279.801 118.471 279.805 118.424 279.805Z" fill="#161616"/>
<path d="M108.586 294.673C108.586 294.673 111.885 281.837 106.262 280.518C101.694 279.448 103.335 293.139 108.586 294.673Z" fill="#8DC73F"/>
<path d="M108.384 295.584C108.042 295.584 107.73 295.327 107.641 294.941L105.066 283.744C104.961 283.287 105.209 282.822 105.62 282.704C106.03 282.586 106.449 282.863 106.554 283.32L109.129 294.517C109.234 294.974 108.986 295.44 108.575 295.557C108.512 295.575 108.448 295.584 108.384 295.584Z" fill="#161616"/>
<path d="M134.951 267.888C134.951 267.888 146.888 269.216 147.052 262.823C147.186 257.629 135.373 261.863 134.951 267.888Z" fill="#8DC73F"/>
<path d="M134.866 268.533C134.575 268.533 134.297 268.347 134.168 268.034C133.991 267.605 134.161 267.097 134.546 266.901L143.987 262.088C144.372 261.89 144.828 262.08 145.005 262.509C145.181 262.938 145.012 263.445 144.626 263.641L135.186 268.454C135.082 268.507 134.973 268.533 134.866 268.533Z" fill="#161616"/>
<path d="M125.333 275.599C125.333 275.599 134.386 284.358 137.839 279.246C140.644 275.093 128.804 270.953 125.333 275.599Z" fill="#8DC73F"/>
<path d="M135.577 278.369C135.53 278.369 135.482 278.365 135.434 278.355L125.23 276.213C124.813 276.125 124.539 275.678 124.618 275.215C124.696 274.751 125.098 274.447 125.515 274.533L135.719 276.675C136.136 276.762 136.41 277.209 136.331 277.673C136.261 278.083 135.939 278.369 135.577 278.369Z" fill="#161616"/>
<path d="M113.546 291.709C113.546 291.709 124.43 297.323 126.47 291.344C128.128 286.488 115.72 286.172 113.546 291.709Z" fill="#8DC73F"/>
<path d="M113.527 292.334C113.136 292.334 112.801 292.003 112.763 291.561C112.723 291.091 113.032 290.674 113.454 290.629L123.792 289.53C124.215 289.487 124.589 289.83 124.629 290.3C124.669 290.769 124.36 291.187 123.938 291.232L113.601 292.33C113.576 292.333 113.551 292.334 113.527 292.334Z" fill="#161616"/>
<path d="M85.9753 227.907C85.9753 227.907 96.1475 214.075 89.8634 209.134C84.7581 205.123 80.2501 222.922 85.9753 227.907Z" fill="#8DC73F"/>
<path d="M85.7027 228.712C85.663 228.712 85.6225 228.708 85.582 228.702C85.163 228.628 84.8771 228.19 84.9434 227.724L87.1134 212.44C87.1794 211.974 87.5704 211.658 87.9915 211.729C88.4104 211.803 88.6964 212.241 88.63 212.707L86.4601 227.991C86.4005 228.412 86.074 228.712 85.7027 228.712Z" fill="#161616"/>
<path d="M94.8856 251.441C94.8856 251.441 108.632 245.128 105.455 238.033C102.874 232.268 92.1825 244.58 94.8856 251.441Z" fill="#8DC73F"/>
<path d="M94.6815 252.12C94.5193 252.12 94.3559 252.064 94.2171 251.946C93.8795 251.66 93.8141 251.124 94.0709 250.748L101.865 239.347C102.121 238.971 102.603 238.898 102.941 239.184C103.278 239.47 103.344 240.006 103.087 240.381L95.293 251.783C95.1422 252.004 94.913 252.12 94.6815 252.12Z" fill="#161616"/>
<path d="M97.1762 282.878C97.1762 282.878 110.922 276.566 107.746 269.47C105.165 263.706 94.473 276.018 97.1762 282.878Z" fill="#8DC73F"/>
<path d="M96.972 283.558C96.8098 283.558 96.6464 283.501 96.5076 283.384C96.17 283.098 96.1046 282.562 96.3614 282.186L104.155 270.784C104.412 270.408 104.894 270.336 105.231 270.622C105.569 270.908 105.634 271.444 105.377 271.819L97.5835 283.221C97.4327 283.442 97.2036 283.558 96.972 283.558Z" fill="#161616"/>
<path d="M83.2432 230.279C83.2432 230.279 68.4687 228.405 69.7743 220.612C70.8361 214.281 84.152 222.857 83.2432 230.279Z" fill="#8DC73F"/>
<path d="M83.3957 230.903C83.2357 230.903 83.0741 230.848 82.9362 230.733L72.6312 222.148C72.2919 221.865 72.2224 221.33 72.4768 220.952C72.7311 220.574 73.2124 220.497 73.5518 220.78L83.8567 229.365C84.1961 229.648 84.2655 230.183 84.0112 230.561C83.8601 230.785 83.6294 230.903 83.3957 230.903Z" fill="#161616"/>
<path d="M89.0366 245.186C89.0366 245.186 74.3733 247.937 73.6899 240.045C73.1352 233.635 88.0635 237.773 89.0366 245.186Z" fill="#8DC73F"/>
<path d="M89.1256 245.772C89.0353 245.772 88.9435 245.754 88.8538 245.716L76.8163 240.642C76.4198 240.474 76.2201 239.981 76.3703 239.539C76.5205 239.098 76.9634 238.876 77.3605 239.043L89.3981 244.118C89.7946 244.285 89.9942 244.779 89.844 245.22C89.7276 245.561 89.4355 245.772 89.1256 245.772Z" fill="#161616"/>
<path d="M92.8535 266.427C92.8535 266.427 78.1902 269.178 77.5068 261.287C76.9521 254.876 91.8804 259.015 92.8535 266.427Z" fill="#8DC73F"/>
<path d="M92.943 267.014C92.8527 267.014 92.7605 266.995 92.6711 266.958L80.6339 261.883C80.2374 261.716 80.0377 261.222 80.1879 260.781C80.3381 260.34 80.7819 260.118 81.1782 260.284L93.2154 265.359C93.6119 265.527 93.8116 266.02 93.6614 266.461C93.545 266.803 93.2529 267.014 92.943 267.014Z" fill="#161616"/>
<path d="M92.0477 290.336C92.0477 290.336 82.1445 292.194 81.6825 286.864C81.3081 282.535 91.3904 285.329 92.0477 290.336Z" fill="#8DC73F"/>
<path d="M92.1078 291.009C92.0175 291.009 91.9253 290.991 91.8359 290.954L83.7062 287.526C83.3097 287.359 83.11 286.865 83.2602 286.424C83.4107 285.983 83.8542 285.761 84.2504 285.928L92.3802 289.355C92.7767 289.522 92.9764 290.016 92.8262 290.457C92.7095 290.799 92.4177 291.009 92.1078 291.009Z" fill="#161616"/>
<path d="M318.246 213.377L358.623 214.029L361.713 256.694C361.713 256.694 362.152 263.858 356.885 263.858C351.619 263.858 318.246 264.021 318.246 264.021C318.246 264.021 311.683 261.578 312.561 256.206C313.439 250.834 318.246 213.377 318.246 213.377Z" fill="#EAEFE8"/>
<path d="M318.246 264.923C318.163 264.923 318.081 264.885 318.003 264.855C317.931 264.829 316.225 264.173 314.613 262.823C312.362 260.938 311.391 258.596 311.805 256.06C312.67 250.764 317.438 213.684 317.486 213.309C317.54 212.888 317.864 212.622 318.246 212.622C318.25 212.622 318.254 212.622 318.257 212.622L358.634 213.224C359.03 213.23 359.357 213.546 359.388 213.985L362.478 256.638C362.489 256.812 362.7 260.653 360.738 262.992C359.775 264.138 358.479 264.74 356.885 264.74C351.681 264.74 318.583 264.923 318.25 264.923C318.248 264.923 318.247 264.923 318.246 264.923ZM318.91 214.243C318.228 219.548 314.118 251.453 313.316 256.359C312.624 260.596 317.565 262.829 318.378 263.166C320.705 263.154 351.848 263.004 356.885 263.004C358.051 263.004 358.942 262.617 359.611 261.823C361.119 260.033 360.949 256.784 360.947 256.751L357.914 214.872L318.91 214.243Z" fill="#161616"/>
<path d="M312.561 256.206C311.683 261.579 318.246 264.021 318.246 264.021C318.246 264.021 351.619 263.858 356.885 263.858C362.152 263.858 361.713 256.694 361.713 256.694C337.03 238.63 312.561 256.206 312.561 256.206Z" fill="#B2BCAF"/>
<path d="M318.246 264.923C318.163 264.923 318.081 264.885 318.003 264.855C317.931 264.829 316.225 264.173 314.613 262.823C312.362 260.938 311.391 258.596 311.805 256.06C311.881 255.595 312.281 255.283 312.698 255.369C313.115 255.453 313.392 255.897 313.316 256.361C312.627 260.583 317.566 262.828 318.379 263.167C320.713 263.155 351.848 263.004 356.885 263.004C358.05 263.004 358.942 262.618 359.611 261.824C361.119 260.033 360.948 256.784 360.947 256.751C360.919 256.281 361.239 255.874 361.662 255.843C362.088 255.813 362.45 256.166 362.479 256.637C362.489 256.799 362.7 260.646 360.737 262.985C359.775 264.132 358.479 264.737 356.885 264.737C351.681 264.737 318.583 264.923 318.249 264.923C318.248 264.923 318.247 264.923 318.246 264.923Z" fill="#161616"/>
<path d="M373.545 250.566H361.256C360.858 250.566 360.525 250.227 360.491 249.785L360.013 243.632C359.995 243.394 360.067 243.157 360.213 242.981C360.358 242.804 360.563 242.704 360.778 242.704H367.211L359.322 232.291C359.219 232.155 359.157 231.987 359.143 231.809L358.423 221.942C358.396 221.569 358.59 221.22 358.902 221.08C359.214 220.94 359.572 221.043 359.784 221.333L374.134 240.935C374.153 240.961 374.171 240.989 374.187 241.017C374.28 241.18 376.436 245.021 375.726 247.971C375.46 249.076 374.846 249.917 373.902 250.469C373.791 250.532 373.669 250.566 373.545 250.566ZM361.96 248.857H373.343C373.809 248.538 374.104 248.103 374.242 247.53C374.682 245.711 373.454 242.944 372.913 241.972L360.154 224.545L360.655 231.398L369.451 243.008C369.643 243.262 369.686 243.617 369.56 243.919C369.434 244.22 369.162 244.413 368.863 244.413H361.616L361.96 248.857Z" fill="#161616"/>
<path d="M343.99 240.718C343.754 240.718 343.522 240.598 343.371 240.37C343.119 239.99 343.192 239.455 343.534 239.176C351.38 232.743 354.053 217.103 352.378 209.581C352.072 208.203 351.333 205.855 349.829 205.603C344.241 204.671 338.73 213.759 338.675 213.851C338.439 214.243 337.962 214.35 337.61 214.088C337.257 213.827 337.161 213.297 337.396 212.904C337.643 212.491 343.507 202.821 350.057 203.913C351.309 204.122 352.987 205.204 353.869 209.169C355.685 217.326 352.916 233.606 344.444 240.551C344.307 240.664 344.148 240.718 343.99 240.718Z" fill="#161616"/>
<path d="M295.796 225.057C293.83 225.057 291.518 224.462 288.718 223.051C288.332 222.857 288.161 222.35 288.335 221.92C288.51 221.49 288.966 221.3 289.352 221.494C298.306 226.005 301.408 221.515 305.333 215.832C307.135 213.224 308.997 210.527 311.602 208.435C313.938 206.559 316.409 205.846 318.948 206.315C324.123 207.271 327.693 212.794 327.842 213.028C328.088 213.413 328.006 213.947 327.66 214.219C327.314 214.492 326.835 214.402 326.59 214.017C326.557 213.966 323.229 208.834 318.689 208C316.571 207.612 314.489 208.224 312.501 209.821C310.078 211.767 308.285 214.363 306.551 216.874C303.667 221.049 300.898 225.057 295.796 225.057Z" fill="#161616"/>
<path d="M347.571 234.14C347.571 234.14 337.831 241.702 342.071 253.877C342.071 253.877 353.248 249.863 347.571 234.14Z" fill="#8DC73F"/>
<path d="M286.521 211.176C286.521 211.176 293.125 222.162 304.145 217.681C304.145 217.681 300.757 205.166 286.521 211.176Z" fill="#8DC73F"/>
<path d="M310.165 211.428C310.165 211.428 300.848 219.625 305.735 231.496C305.735 231.496 316.676 226.745 310.165 211.428Z" fill="#8DC73F"/>
<path d="M333.181 225.35C333.181 225.35 343.167 232.506 351.675 223.516C351.675 223.516 344.094 213.533 333.181 225.35Z" fill="#8DC73F"/>
<path d="M352.943 217.729C352.943 217.729 348.112 229.804 357.393 237.791C357.393 237.792 365.101 227.929 352.943 217.729Z" fill="#8DC73F"/>
<path d="M319.504 206.912C319.504 206.912 315.2 197.663 306.217 200.093C306.217 200.093 307.882 210.226 319.504 206.912Z" fill="#8DC73F"/>
<path d="M360.741 210.551C360.741 210.551 358.072 203.523 351.388 204.728C351.388 204.728 352.084 212.232 360.741 210.551Z" fill="#8DC73F"/>
<path d="M339.296 211.068C341.926 211.068 344.058 208.695 344.058 205.769C344.058 202.842 341.926 200.47 339.296 200.47C336.667 200.47 334.535 202.842 334.535 205.769C334.535 208.695 336.667 211.068 339.296 211.068Z" fill="#946D42"/>
<path d="M349.125 200.531C351.784 200.531 353.94 198.132 353.94 195.172C353.94 192.212 351.784 189.813 349.125 189.813C346.466 189.813 344.31 192.212 344.31 195.172C344.31 198.132 346.466 200.531 349.125 200.531Z" fill="#946D42"/>
</svg>
