<svg width="361" height="183" viewBox="0 0 361 183" fill="none" xmlns="http://www.w3.org/2000/svg">
<path d="M324.291 113.455H237.291C235.736 113.455 234.47 112.493 234.47 111.309V14.9514C234.47 13.7684 235.736 12.806 237.291 12.806H324.291C325.846 12.806 327.112 13.7684 327.112 14.9514V111.309C327.112 112.493 325.846 113.455 324.291 113.455ZM237.291 12.8975C235.802 12.8975 234.59 13.8189 234.59 14.9514V111.309C234.59 112.442 235.802 113.364 237.291 113.364H324.291C325.78 113.364 326.992 112.442 326.992 111.309V14.9514C326.992 13.8189 325.78 12.8975 324.291 12.8975H237.291Z" fill="#E0E0E0"/>
<path d="M223.967 113.455H136.968C135.412 113.455 134.146 112.493 134.146 111.309V14.9514C134.146 13.7684 135.412 12.806 136.968 12.806H223.967C225.523 12.806 226.789 13.7684 226.789 14.9514V111.309C226.789 112.493 225.523 113.455 223.967 113.455ZM136.968 12.8975C135.479 12.8975 134.267 13.8189 134.267 14.9514V111.309C134.267 112.442 135.479 113.364 136.968 113.364H223.967C225.457 113.364 226.669 112.442 226.669 111.309V14.9514C226.669 13.8189 225.457 12.8975 223.967 12.8975H136.968Z" fill="#E0E0E0"/>
<path d="M123.708 113.455H36.7092C35.1533 113.455 33.8877 112.493 33.8877 111.309V14.9514C33.8877 13.7684 35.1533 12.806 36.7092 12.806H123.708C125.264 12.806 126.53 13.7684 126.53 14.9514V111.309C126.53 112.493 125.264 113.455 123.708 113.455ZM36.7092 12.8975C35.2198 12.8975 34.008 13.8189 34.008 14.9514V111.309C34.008 112.442 35.2198 113.364 36.7092 113.364H123.708C125.198 113.364 126.41 112.442 126.41 111.309V14.9514C126.41 13.8189 125.198 12.8975 123.708 12.8975H36.7092Z" fill="#E0E0E0"/>
<path d="M361 135.806H0V135.851H361V135.806Z" fill="#E0E0E0"/>
<path d="M341.436 146.558H314.612V146.712H341.436V146.558Z" fill="#EBEBEB"/>
<path d="M245.321 148.229H238.281V148.383H245.321V148.229Z" fill="#EBEBEB"/>
<path d="M54.5441 141.874H19.5635V142.028H54.5441V141.874Z" fill="#EBEBEB"/>
<path d="M66.8835 141.874H61.7546V142.028H66.8835V141.874Z" fill="#EBEBEB"/>
<path d="M159.417 144.474H83.5525V144.628H159.417V144.474Z" fill="#EBEBEB"/>
<path d="M233.256 133.392C233.545 133.254 233.855 133.145 234.181 133.066C234.461 133.006 234.76 133.021 235.027 133.109C234.855 133.883 234.753 134.666 234.722 135.45H348.073V134.55C348.694 134.859 349.291 135.176 349.889 135.528C349.309 134.983 348.691 134.462 348.039 133.967C347.954 132.698 347.682 131.441 347.227 130.219C347.665 130.378 348.05 130.61 348.355 130.897C348.962 131.531 349.35 132.271 349.483 133.049C349.538 132.225 349.313 131.404 348.829 130.665C348.402 130.058 347.707 129.584 346.866 129.327C346.697 128.958 346.506 128.598 346.302 128.247C346.555 128.133 346.786 127.995 346.99 127.835C347.527 127.418 347.802 126.847 347.746 126.265C347.555 126.983 346.825 127.548 345.885 127.706C344.878 126.161 343.519 124.765 341.87 123.581L342.445 123.753C343.103 123.95 343.716 124.225 344.261 124.567C344.809 124.918 345.203 125.388 345.389 125.914C345.294 125.353 344.97 124.828 344.464 124.413C343.953 123.999 343.359 123.649 342.705 123.375C342.062 123.092 341.441 122.826 340.753 122.586C340.51 122.507 340.262 122.439 340.009 122.38C339 121.803 337.933 121.286 336.817 120.837C337.177 120.707 337.555 120.609 337.945 120.545C338.446 120.452 338.973 120.476 339.456 120.614C339.96 120.764 340.321 121.107 340.404 121.514C340.406 121.067 340.097 120.653 339.592 120.425C339.074 120.194 338.476 120.09 337.877 120.125C337.198 120.146 336.53 120.259 335.903 120.459C333.949 119.719 331.891 119.149 329.768 118.761C329.858 118.727 329.926 118.641 330.016 118.641C331.09 118.266 332.326 118.266 333.4 118.641C332.858 118.417 332.277 118.252 331.674 118.152C331.04 118.064 330.386 118.105 329.779 118.272C329.436 118.369 329.107 118.493 328.798 118.641H328.482C328.043 117.805 327.511 116.999 326.892 116.231C327.398 115.917 327.685 115.442 327.67 114.945C327.541 115.373 327.157 115.731 326.632 115.914C325.398 114.475 323.786 113.245 321.895 112.303C322.226 112.254 322.563 112.233 322.899 112.243C323.453 112.263 323.96 112.483 324.264 112.835C324.021 112.422 323.529 112.124 322.944 112.038C322.377 111.947 321.795 111.924 321.219 111.969C319.465 111.211 317.56 110.678 315.579 110.391C316.268 110.094 316.993 109.85 317.745 109.662C316.608 109.735 315.492 109.931 314.429 110.245C313.283 110.115 312.125 110.054 310.966 110.065V109.662C310.91 109.223 310.797 108.789 310.628 108.367C310.69 108.8 310.69 109.237 310.628 109.671C310.549 109.799 310.549 109.936 310.549 110.065C309.463 110.076 308.38 110.157 307.312 110.305C306.561 109.097 305.654 107.948 304.605 106.875C305.486 107.296 306.138 107.945 306.444 108.701C306.215 107.4 305.093 106.29 303.5 105.786C302.545 104.898 301.501 104.07 300.376 103.307C301.447 103.148 302.555 103.216 303.579 103.504C302.375 102.913 300.946 102.644 299.518 102.741C298.641 102.198 297.718 101.699 296.755 101.249C298.021 100.827 299.378 100.586 300.759 100.537C299.1 100.37 297.413 100.469 295.808 100.828C294.751 100.385 293.65 100.006 292.514 99.6964C292.774 99.307 293.162 98.9758 293.642 98.7359C293.008 98.8877 292.439 99.1661 291.995 99.5421C290.735 99.23 289.44 99.0061 288.127 98.8731C287.897 98.3474 287.511 97.8691 286.999 97.4752C287.312 97.8903 287.501 98.353 287.552 98.8302C285.798 98.6764 284.027 98.6764 282.273 98.8302C282.084 98.002 281.964 97.1656 281.912 96.3259C281.775 97.1797 281.707 98.0388 281.709 98.8989C280.237 99.0497 278.781 99.2849 277.356 99.6021C277.182 99.2338 276.914 98.8956 276.566 98.6072C276.803 98.9387 276.949 99.3035 276.995 99.6793C275.364 100.06 273.785 100.56 272.28 101.172L269.855 101.326L271.423 101.54C270.304 102.043 269.244 102.616 268.254 103.256C267.933 103.228 267.632 103.123 267.396 102.955C266.944 102.549 266.565 102.099 266.269 101.617C266.407 102.176 266.65 102.716 266.99 103.221C267.16 103.41 267.374 103.573 267.622 103.702C266.403 104.543 265.299 105.477 264.329 106.489C263.614 106.053 262.932 105.586 262.287 105.091C262.833 105.677 263.429 106.235 264.069 106.763C263.605 107.266 263.176 107.787 262.783 108.324L258.881 108.744L262.265 108.993C261.652 109.902 261.149 110.853 260.765 111.832C260.321 111.841 259.899 111.684 259.637 111.411C259.671 111.756 259.877 112.078 260.212 112.312C259.052 112.518 257.919 112.806 256.828 113.17C256.043 112.975 255.207 112.928 254.392 113.032C255.022 113.064 255.638 113.186 256.208 113.393C255.052 113.816 253.952 114.325 252.926 114.911C251.749 114.938 250.643 115.343 249.881 116.025C250.499 115.662 251.254 115.458 252.035 115.442C251.241 115.938 250.487 116.471 249.779 117.037C249.48 117.044 249.182 117.067 248.888 117.106C248.348 117.165 247.845 117.348 247.444 117.629C247.119 117.917 246.853 118.241 246.655 118.59L246.023 119.559L246.892 118.701C247.146 118.417 247.454 118.163 247.805 117.947C248.146 117.794 248.538 117.72 248.933 117.732C247.736 118.803 246.665 119.95 245.73 121.163C245.179 121.115 244.623 121.115 244.072 121.163C243.785 121.182 243.502 121.223 243.227 121.287C242.986 121.342 242.792 121.486 242.704 121.665C242.489 122.102 242.688 122.535 242.346 122.878C242.741 122.612 242.775 122.175 242.933 121.84C243.091 121.506 243.565 121.591 244.061 121.591C244.47 121.617 244.874 121.675 245.268 121.763C244.733 122.485 244.262 123.232 243.858 124.001C243.007 124.15 242.187 124.386 241.422 124.705C240.884 124.527 240.282 124.496 239.718 124.619C239.096 124.792 238.573 125.126 238.241 125.562C237.931 125.967 237.689 126.399 237.519 126.849C237.777 126.434 238.095 126.043 238.467 125.682C238.821 125.35 239.315 125.12 239.865 125.031C240.119 125 240.378 125.018 240.621 125.082C238.666 126.181 237.18 127.694 236.346 129.43L236.278 129.37C235.864 128.979 235.515 128.55 235.241 128.092C235.343 128.608 235.529 129.112 235.794 129.593C235.875 129.728 235.965 129.86 236.064 129.988C235.654 130.873 235.337 131.782 235.117 132.706C234.757 132.675 234.393 132.732 234.079 132.869C233.776 133.015 233.499 133.191 233.256 133.392Z" fill="#E6E6E6"/>
<path d="M19.9639 133.997C20.1708 133.899 20.3936 133.82 20.6266 133.764C20.8273 133.721 21.0414 133.732 21.2329 133.795C21.1096 134.349 21.0368 134.91 21.0145 135.472H102.244V134.827C102.689 135.048 103.117 135.276 103.545 135.528C103.129 135.138 102.687 134.764 102.22 134.409C102.159 133.5 101.964 132.599 101.638 131.723C101.951 131.838 102.228 132.003 102.446 132.209C102.881 132.664 103.159 133.194 103.254 133.752C103.294 133.161 103.132 132.573 102.786 132.043C102.479 131.608 101.982 131.268 101.379 131.084C101.258 130.82 101.121 130.562 100.975 130.31C101.156 130.229 101.322 130.129 101.468 130.015C101.852 129.716 102.05 129.307 102.01 128.89C101.873 129.405 101.35 129.809 100.676 129.923C99.9544 128.816 98.9802 127.815 97.7987 126.967L98.2109 127.09C98.6821 127.231 99.1212 127.428 99.5122 127.673C99.9048 127.925 100.187 128.261 100.32 128.638C100.252 128.236 100.02 127.86 99.6577 127.563C99.2914 127.266 98.8659 127.015 98.3968 126.819C97.9361 126.616 97.4915 126.426 96.9985 126.254C96.8244 126.197 96.6463 126.148 96.4651 126.106C95.7423 125.692 94.9774 125.322 94.1778 125C94.4356 124.907 94.7068 124.837 94.986 124.791C95.3452 124.724 95.7227 124.741 96.069 124.84C96.4301 124.948 96.6886 125.194 96.7479 125.485C96.7496 125.165 96.5282 124.868 96.166 124.705C95.7949 124.54 95.3662 124.465 94.9374 124.49C94.4509 124.505 93.9719 124.586 93.523 124.73C92.1227 124.199 90.6475 123.79 89.1261 123.513C89.1908 123.488 89.2393 123.427 89.3039 123.427C90.0734 123.158 90.9592 123.158 91.7287 123.427C91.3406 123.266 90.9241 123.148 90.4921 123.076C90.0375 123.013 89.5688 123.042 89.1342 123.162C88.8885 123.232 88.6527 123.32 88.4311 123.427H88.2047C87.8903 122.827 87.509 122.249 87.0651 121.7C87.428 121.474 87.6337 121.134 87.6228 120.778C87.5301 121.084 87.2554 121.341 86.8792 121.472C85.9948 120.441 84.839 119.56 83.4845 118.885C83.7213 118.849 83.9627 118.835 84.2038 118.842C84.6005 118.856 84.9643 119.013 85.1818 119.266C85.0079 118.97 84.6551 118.756 84.2362 118.694C83.8298 118.63 83.4126 118.613 82.9996 118.645C81.7431 118.102 80.3778 117.72 78.9583 117.514C79.4517 117.302 79.9715 117.127 80.5101 116.992C79.6958 117.044 78.8955 117.185 78.1339 117.41C77.3126 117.316 76.4829 117.273 75.6525 117.281V116.992C75.6123 116.677 75.5311 116.366 75.4101 116.064C75.4546 116.374 75.4546 116.688 75.4101 116.998C75.3534 117.09 75.3534 117.189 75.3534 117.281C74.5753 117.289 73.7994 117.346 73.0338 117.453C72.4953 116.587 71.8456 115.763 71.094 114.994C71.7253 115.297 72.1928 115.761 72.4114 116.304C72.2474 115.371 71.4441 114.575 70.3019 114.214C69.6179 113.578 68.8693 112.984 68.0631 112.438C68.8308 112.324 69.6249 112.373 70.3584 112.579C69.4958 112.155 68.4716 111.963 67.4487 112.032C66.8204 111.643 66.1588 111.286 65.4685 110.963C66.3757 110.661 67.3483 110.488 68.3378 110.453C67.1488 110.333 65.9401 110.404 64.7896 110.662C64.0327 110.344 63.2435 110.072 62.4294 109.85C62.6153 109.571 62.8939 109.334 63.2377 109.162C62.7834 109.271 62.3758 109.47 62.0577 109.74C61.1546 109.516 60.2267 109.356 59.2853 109.26C59.1208 108.884 58.8442 108.541 58.4771 108.259C58.7018 108.556 58.837 108.888 58.8731 109.23C57.6164 109.119 56.3472 109.119 55.0905 109.23C54.9551 108.636 54.8687 108.037 54.8318 107.435C54.7336 108.047 54.685 108.663 54.6864 109.279C53.6312 109.387 52.5883 109.555 51.5665 109.783C51.4421 109.519 51.2498 109.277 51.0008 109.07C51.1707 109.307 51.2751 109.569 51.3079 109.838C50.1391 110.111 49.0077 110.469 47.9294 110.907L46.1917 111.018L47.3151 111.172C46.5135 111.532 45.7537 111.943 45.0439 112.401C44.8141 112.381 44.5986 112.306 44.4297 112.186C44.1055 111.895 43.8337 111.572 43.6214 111.227C43.7206 111.627 43.8947 112.014 44.1387 112.376C44.2599 112.512 44.4134 112.628 44.5913 112.721C43.7175 113.324 42.9267 113.993 42.2312 114.718C41.7188 114.405 41.2303 114.071 40.7682 113.716C41.1597 114.136 41.5862 114.536 42.0453 114.915C41.7126 115.275 41.4051 115.648 41.1239 116.033L38.3274 116.334L40.7521 116.513C40.3128 117.164 39.9529 117.845 39.6771 118.547C39.359 118.553 39.057 118.441 38.8689 118.246C38.8937 118.493 39.041 118.723 39.2811 118.891C38.4497 119.039 37.638 119.245 36.8564 119.506C36.2933 119.366 35.6943 119.333 35.1105 119.407C35.5619 119.43 36.0035 119.517 36.4118 119.665C35.583 119.969 34.7953 120.333 34.0597 120.753C33.2164 120.773 32.4235 121.063 31.8775 121.552C32.3208 121.292 32.8614 121.146 33.4212 121.134C32.852 121.49 32.3121 121.871 31.8047 122.277C31.5906 122.282 31.3771 122.298 31.1662 122.326C30.7795 122.369 30.4187 122.5 30.1316 122.701C29.8987 122.908 29.7079 123.14 29.5658 123.39L29.1132 124.084L29.7356 123.47C29.9178 123.266 30.1384 123.084 30.3903 122.929C30.6346 122.819 30.9153 122.766 31.1985 122.775C30.3408 123.542 29.5727 124.365 28.9031 125.233C28.5083 125.2 28.1098 125.2 27.715 125.233C27.5095 125.247 27.3065 125.277 27.1091 125.322C26.9365 125.362 26.7976 125.465 26.7344 125.594C26.5805 125.907 26.7228 126.217 26.4783 126.463C26.7613 126.272 26.7855 125.959 26.8987 125.719C27.0117 125.479 27.3513 125.541 27.7069 125.541C27.9999 125.559 28.2897 125.6 28.5717 125.664C28.1887 126.181 27.8512 126.717 27.5614 127.268C26.9518 127.374 26.3643 127.544 25.8156 127.772C25.4305 127.644 24.999 127.622 24.5951 127.71C24.149 127.834 23.7742 128.074 23.5363 128.386C23.3143 128.676 23.1405 128.986 23.0191 129.308C23.2039 129.011 23.4316 128.731 23.698 128.472C23.9519 128.234 24.3056 128.069 24.7002 128.005C24.8819 127.984 25.0679 127.996 25.2418 128.042C23.8412 128.83 22.776 129.914 22.1784 131.158L22.13 131.115C21.8326 130.835 21.5828 130.527 21.3864 130.199C21.4596 130.569 21.5926 130.93 21.7824 131.275C21.8408 131.372 21.9056 131.466 21.9764 131.558C21.6823 132.192 21.4552 132.844 21.2974 133.506C21.0396 133.484 20.7791 133.525 20.5539 133.623C20.3365 133.727 20.1381 133.853 19.9639 133.997Z" fill="#E6E6E6"/>
<path d="M107.92 21.2702H83.864V27.4212H107.92V21.2702Z" fill="#F0F0F0"/>
<path d="M102.501 27.4211H78.4443V33.5721H102.501V27.4211Z" fill="#E6E6E6"/>
<path d="M290.804 25.8677H266.748V32.0187H290.804V25.8677Z" fill="#F0F0F0"/>
<path d="M285.385 32.0187H261.328V38.1696H285.385V32.0187Z" fill="#E6E6E6"/>
<path d="M224.129 91.1353H200.073V97.2863H224.129V91.1353Z" fill="#F0F0F0"/>
<path d="M218.709 97.2863H194.653V103.437H218.709V97.2863Z" fill="#E6E6E6"/>
<path d="M48.768 66.6261H24.7117V72.7771H48.768V66.6261Z" fill="#F0F0F0"/>
<path d="M43.3484 72.777H19.292V78.928H43.3484V72.777Z" fill="#E6E6E6"/>
<path d="M195.071 34.9969H171.014V41.1479H195.071V34.9969Z" fill="#F0F0F0"/>
<path d="M144.282 71.9108H120.225V78.0618H144.282V71.9108Z" fill="#F0F0F0"/>
<path d="M255.698 66.2919H231.642V72.4428H255.698V66.2919Z" fill="#F0F0F0"/>
<path d="M341.583 71.9306H317.526V78.0816H341.583V71.9306Z" fill="#F0F0F0"/>
<path d="M337.475 163.517C337.475 168.157 267.195 171.919 180.5 171.919C93.8051 171.919 23.5249 168.157 23.5249 163.517C23.5249 158.877 93.8051 155.116 180.5 155.116C267.195 155.116 337.475 158.877 337.475 163.517Z" fill="#F5F5F5"/>
<path d="M190.685 51.1612H183.043V67.5347H190.685V51.1612Z" fill="#263238"/>
<path opacity="0.6" d="M190.685 51.1612H183.043V67.5347H190.685V51.1612Z" fill="white"/>
<path d="M160.487 78.3114L181.166 65.4039H192.336C192.336 65.4039 212.794 78.7739 212.351 78.7739C211.909 78.7739 160.487 78.3114 160.487 78.3114Z" fill="#263238"/>
<path opacity="0.6" d="M160.487 78.3114L181.166 65.4039H192.336C192.336 65.4039 212.794 78.7739 212.351 78.7739C211.909 78.7739 160.487 78.3114 160.487 78.3114Z" fill="white"/>
<path d="M215.175 76.6717H157.671V79.9511H215.175V76.6717Z" fill="#263238"/>
<path opacity="0.6" d="M215.175 76.6717H157.671V79.9511H215.175V76.6717Z" fill="white"/>
<path opacity="0.3" d="M190.685 64.1658H183.043V65.4039H190.685V64.1658Z" fill="black"/>
<path opacity="0.3" d="M163.114 76.6717H209.391L207.968 75.7151L164.582 75.7458L163.114 76.6717Z" fill="black"/>
<path d="M159.743 76.6717L161.189 74.7082L164.474 74.0088L166.585 74.5053L167.168 75.3402L169.139 75.7425L170.715 75.3402H173.409L174.526 75.7387L175.84 76.1933H177.483L178.731 76.4567L180.308 76.6717H159.743Z" fill="#B97964"/>
<path d="M194.798 76.6717C194.798 76.6717 195.212 77.0555 196.683 76.04L198.154 75.0246L200.867 74.5002L202.89 74.8149C202.89 74.8149 204.361 75.4092 204.499 75.3043C204.637 75.1994 205.995 74.3988 205.979 74.388C205.963 74.3772 206.568 73.744 206.568 73.744L208.591 73.4164L210.982 73.9758L211.672 74.9197L212.637 76.6717H194.798Z" fill="#B97964"/>
<path opacity="0.3" d="M190.685 51.1612H183.043V51.7032H190.685V51.1612Z" fill="black"/>
<path d="M74.959 51.1612H67.3167V67.5347H74.959V51.1612Z" fill="#263238"/>
<path opacity="0.6" d="M74.959 51.1612H67.3167V67.5347H74.959V51.1612Z" fill="white"/>
<path d="M44.761 78.3114L65.4404 65.4039H76.6095C76.6095 65.4039 97.0678 78.7739 96.6254 78.7739C96.1831 78.7739 44.761 78.3114 44.761 78.3114Z" fill="#263238"/>
<path opacity="0.6" d="M44.761 78.3114L65.4404 65.4039H76.6095C76.6095 65.4039 97.0678 78.7739 96.6254 78.7739C96.1831 78.7739 44.761 78.3114 44.761 78.3114Z" fill="white"/>
<path d="M99.4489 76.6717H41.9446V79.9511H99.4489V76.6717Z" fill="#263238"/>
<path opacity="0.6" d="M99.4489 76.6717H41.9446V79.9511H99.4489V76.6717Z" fill="white"/>
<path opacity="0.3" d="M74.959 64.1658H67.3167V65.4039H74.959V64.1658Z" fill="black"/>
<path opacity="0.3" d="M47.3879 76.6717H93.665L92.2419 75.7151L48.8554 75.7458L47.3879 76.6717Z" fill="black"/>
<path d="M44.0173 76.6717L45.4627 74.7082L48.7478 74.0088L50.8587 74.5053L51.4415 75.3402L53.4124 75.7425L54.9893 75.3402H57.6831L58.7999 75.7387L60.114 76.1933H61.7565L63.0048 76.4567L64.5816 76.6717H44.0173Z" fill="#B97964"/>
<path d="M79.072 76.6717C79.072 76.6717 79.4858 77.0555 80.9571 76.04L82.4283 75.0246L85.141 74.5002L87.164 74.8149C87.164 74.8149 88.6352 75.4092 88.7731 75.3043C88.911 75.1994 90.269 74.3988 90.2528 74.388C90.2366 74.3772 90.8421 73.744 90.8421 73.744L92.8651 73.4164L95.2559 73.9758L95.9455 74.9197L96.911 76.6717H79.072Z" fill="#B97964"/>
<path opacity="0.3" d="M74.959 51.1612H67.3167V51.7032H74.959V51.1612Z" fill="black"/>
<path d="M296.726 51.1612H289.083V67.5347H296.726V51.1612Z" fill="#263238"/>
<path opacity="0.6" d="M296.726 51.1612H289.083V67.5347H296.726V51.1612Z" fill="white"/>
<path d="M266.528 78.3114L287.207 65.4039H298.376C298.376 65.4039 318.835 78.7739 318.392 78.7739C317.95 78.7739 266.528 78.3114 266.528 78.3114Z" fill="#263238"/>
<path opacity="0.6" d="M266.528 78.3114L287.207 65.4039H298.376C298.376 65.4039 318.835 78.7739 318.392 78.7739C317.95 78.7739 266.528 78.3114 266.528 78.3114Z" fill="white"/>
<path d="M321.216 76.6717H263.711V79.9511H321.216V76.6717Z" fill="#263238"/>
<path opacity="0.6" d="M321.216 76.6717H263.711V79.9511H321.216V76.6717Z" fill="white"/>
<path opacity="0.3" d="M296.726 64.1658H289.083V65.4039H296.726V64.1658Z" fill="black"/>
<path opacity="0.3" d="M269.155 76.6717H315.432L314.009 75.7151L270.622 75.7458L269.155 76.6717Z" fill="black"/>
<path d="M265.784 76.6717L267.23 74.7082L270.515 74.0088L272.626 74.5053L273.208 75.3402L275.179 75.7425L276.756 75.3402H279.45L280.567 75.7387L281.881 76.1933H283.523L284.772 76.4567L286.349 76.6717H265.784Z" fill="#B97964"/>
<path d="M300.839 76.6717C300.839 76.6717 301.253 77.0555 302.724 76.04L304.195 75.0246L306.908 74.5002L308.931 74.8149C308.931 74.8149 310.402 75.4092 310.54 75.3043C310.678 75.1994 312.036 74.3988 312.02 74.388C312.003 74.3772 312.609 73.744 312.609 73.744L314.632 73.4164L317.023 73.9758L317.712 74.9197L318.678 76.6717H300.839Z" fill="#B97964"/>
<path opacity="0.3" d="M296.726 51.1612H289.083V51.7032H296.726V51.1612Z" fill="black"/>
<path d="M356.079 47.9001H2.95801V51.1612H356.079V47.9001Z" fill="#263238"/>
<path opacity="0.6" d="M356.079 47.9001H2.95801V51.1612H356.079V47.9001Z" fill="white"/>
<path opacity="0.3" d="M133.605 47.9001H133.075V51.1612H133.605V47.9001Z" fill="black"/>
<path opacity="0.3" d="M132.254 48.36C132.254 48.4548 132.153 48.5316 132.028 48.5316C131.903 48.5316 131.802 48.4548 131.802 48.36C131.802 48.2652 131.903 48.1884 132.028 48.1884C132.153 48.1884 132.254 48.2652 132.254 48.36Z" fill="black"/>
<path opacity="0.3" d="M132.215 49.408C132.215 49.5028 132.113 49.5796 131.989 49.5796C131.864 49.5796 131.763 49.5028 131.763 49.408C131.763 49.3133 131.864 49.2365 131.989 49.2365C132.113 49.2365 132.215 49.3133 132.215 49.408Z" fill="black"/>
<path opacity="0.3" d="M132.215 50.5463C132.215 50.6411 132.113 50.7179 131.989 50.7179C131.864 50.7179 131.763 50.6411 131.763 50.5463C131.763 50.4515 131.864 50.3747 131.989 50.3747C132.113 50.3747 132.215 50.4515 132.215 50.5463Z" fill="black"/>
<path opacity="0.3" d="M70.6967 47.9001H70.1667V51.1612H70.6967V47.9001Z" fill="black"/>
<path opacity="0.3" d="M69.3451 48.36C69.3451 48.4548 69.2441 48.5316 69.1194 48.5316C68.9948 48.5316 68.8938 48.4548 68.8938 48.36C68.8938 48.2652 68.9948 48.1884 69.1194 48.1884C69.2441 48.1884 69.3451 48.2652 69.3451 48.36Z" fill="black"/>
<path opacity="0.3" d="M69.3061 49.408C69.3061 49.5028 69.2051 49.5796 69.0804 49.5796C68.9558 49.5796 68.8547 49.5028 68.8547 49.408C68.8547 49.3133 68.9558 49.2365 69.0804 49.2365C69.2051 49.2365 69.3061 49.3133 69.3061 49.408Z" fill="black"/>
<path opacity="0.3" d="M69.3061 50.5463C69.3061 50.6411 69.2051 50.7179 69.0804 50.7179C68.9558 50.7179 68.8547 50.6411 68.8547 50.5463C68.8547 50.4515 68.9558 50.3747 69.0804 50.3747C69.2051 50.3747 69.3061 50.4515 69.3061 50.5463Z" fill="black"/>
<path opacity="0.3" d="M204.768 47.9001H204.238V51.1612H204.768V47.9001Z" fill="black"/>
<path opacity="0.3" d="M203.417 48.36C203.417 48.4548 203.316 48.5316 203.191 48.5316C203.066 48.5316 202.965 48.4548 202.965 48.36C202.965 48.2652 203.066 48.1884 203.191 48.1884C203.316 48.1884 203.417 48.2652 203.417 48.36Z" fill="black"/>
<path opacity="0.3" d="M203.378 49.408C203.378 49.5028 203.277 49.5796 203.152 49.5796C203.027 49.5796 202.926 49.5028 202.926 49.408C202.926 49.3133 203.027 49.2365 203.152 49.2365C203.277 49.2365 203.378 49.3133 203.378 49.408Z" fill="black"/>
<path opacity="0.3" d="M203.378 50.5463C203.378 50.6411 203.277 50.7179 203.152 50.7179C203.027 50.7179 202.926 50.6411 202.926 50.5463C202.926 50.4515 203.027 50.3747 203.152 50.3747C203.277 50.3747 203.378 50.4515 203.378 50.5463Z" fill="black"/>
<path opacity="0.3" d="M272.461 47.9001H271.931V51.1612H272.461V47.9001Z" fill="black"/>
<path opacity="0.3" d="M271.109 48.36C271.109 48.4548 271.008 48.5316 270.883 48.5316C270.759 48.5316 270.657 48.4548 270.657 48.36C270.657 48.2652 270.759 48.1884 270.883 48.1884C271.008 48.1884 271.109 48.2652 271.109 48.36Z" fill="black"/>
<path opacity="0.3" d="M271.07 49.408C271.07 49.5028 270.969 49.5796 270.844 49.5796C270.72 49.5796 270.619 49.5028 270.619 49.408C270.619 49.3133 270.72 49.2365 270.844 49.2365C270.969 49.2365 271.07 49.3133 271.07 49.408Z" fill="black"/>
<path opacity="0.3" d="M271.07 50.5463C271.07 50.6411 270.969 50.7179 270.844 50.7179C270.72 50.7179 270.619 50.6411 270.619 50.5463C270.619 50.4515 270.72 50.3747 270.844 50.3747C270.969 50.3747 271.07 50.4515 271.07 50.5463Z" fill="black"/>
<path d="M321.932 150.335C321.474 150.474 317.75 159.244 317.475 160.08C317.201 160.915 315.746 163.651 314.282 164.208C312.817 164.765 308.902 166.359 308.802 165.859C308.754 165.621 310.06 165.022 310.884 164.535L311.708 164.047C311.708 164.047 304.724 164.18 303.942 164.172C300.243 164.136 303.35 163.149 305.181 162.94C307.012 162.731 311.39 161.998 311.39 161.998C311.39 161.998 303.771 161.454 303.132 161.31C302.709 161.214 301.667 160.688 303.132 160.549C304.597 160.41 314.68 160.891 314.68 160.891L318.299 151.518L321.932 150.335Z" fill="#263238"/>
<path d="M315.777 146.785C315.319 146.924 309.792 155.763 309.277 156.53C308.566 157.589 307.548 160.101 306.084 160.658C304.619 161.215 300.704 162.809 300.604 162.31C300.556 162.071 301.862 161.472 302.686 160.985L303.51 160.497C303.51 160.497 296.526 160.63 295.744 160.622C292.045 160.586 295.152 159.599 296.983 159.39C298.814 159.181 303.192 158.448 303.192 158.448C303.192 158.448 295.573 157.904 294.934 157.76C294.511 157.664 293.469 157.138 294.934 156.999C296.399 156.86 306.753 157.364 306.753 157.364L312.614 147.137L315.777 146.785Z" fill="#263238"/>
<path d="M253.508 142.451C253.448 142.742 253.539 143.037 253.603 143.327C253.668 143.617 253.704 143.928 253.544 144.196C253.384 144.464 252.966 144.663 252.604 144.558C252.358 144.487 252.199 144.299 251.957 144.219C251.603 144.102 251.169 144.265 250.97 144.517C250.77 144.769 250.757 145.081 250.8 145.374C250.885 145.963 251.175 146.535 251.633 147.015C251.915 147.312 252.261 147.576 252.484 147.9C252.707 148.225 252.785 148.642 252.516 148.945C252.046 149.477 250.849 149.363 250.375 149.892C250.029 150.279 250.25 150.802 250.492 151.233C250.69 151.585 250.907 151.946 251.285 152.2C251.656 152.45 252.144 152.57 252.581 152.748C253.018 152.927 253.441 153.211 253.488 153.586C253.572 154.251 252.498 154.66 252.238 155.297C252.021 155.83 252.451 156.423 253.078 156.713C253.763 157.03 254.631 157.051 255.41 156.905C256.189 156.758 256.901 156.459 257.603 156.163C258.359 155.844 259.116 155.526 259.873 155.207L257.246 151.496C256.388 150.421 256.498 149.057 256.862 147.831C257.227 146.605 257.82 145.401 257.842 144.145C257.853 143.522 257.714 142.881 257.286 142.35C256.858 141.82 256.106 141.415 255.287 141.402C254.468 141.389 253.635 141.836 253.508 142.451Z" fill="#263238"/>
<path d="M322.11 83.5644C321.256 83.9541 307.59 107.724 307.59 107.724C307.59 107.724 283.504 118.895 279.063 129.936C279.063 129.936 266.217 137.635 261.434 141.402C256.651 145.169 253.367 149.197 256.002 152.926C258.999 157.169 263.689 155.005 272.23 154.485C280.771 153.966 281.689 155.654 288.746 153.576C295.803 151.498 297.429 150.755 305.116 149.846C312.803 148.937 312.606 150.878 315.414 151.474C321.358 152.734 323.477 151.887 326.039 149.809C328.601 147.731 335.947 136.3 339.876 134.482C343.805 132.663 346.538 129.676 342.096 127.857C342.096 127.857 345.342 127.775 343.292 125.218C341.242 122.662 339.192 124.48 339.192 124.48C339.192 124.48 346.879 118.116 345.171 114.479C343.463 110.842 341.584 111.361 341.584 111.361C341.584 111.361 343.634 108.633 342.267 107.205C340.901 105.776 339.192 106.555 339.192 106.555C339.192 106.555 344.659 101.1 341.926 97.8525C339.192 94.6052 336.63 96.6834 336.63 96.6834C336.63 96.6834 341.926 90.059 336.972 87.5911C332.018 85.1231 331.847 87.0715 331.847 87.0715C331.847 87.0715 332.872 84.084 329.285 82.2655C325.697 80.447 322.11 83.5644 322.11 83.5644Z" fill="#92E3A9"/>
<path d="M266.483 152.434C267.26 153.322 267.453 154.491 266.988 155.498C266.677 156.172 266.08 156.866 266.585 157.549C266.686 157.686 266.724 157.85 266.664 158C266.51 158.388 265.887 158.299 265.478 158.136C264.445 157.726 263.568 157.103 262.933 156.36C261.96 155.225 262.401 153.7 263.901 152.968C265.137 152.365 264.334 151.605 265.69 151.479C266.631 151.391 266.483 152.434 266.483 152.434Z" fill="#263238"/>
<path d="M261.994 150.521C262.877 150.438 263.639 150.659 263.695 151.013C263.752 151.367 263.083 151.721 262.201 151.803C261.318 151.885 260.556 151.665 260.499 151.31C260.443 150.956 261.112 150.603 261.994 150.521Z" fill="#263238"/>
<g opacity="0.3">
<path d="M266.404 157.108C266.253 155.341 266.01 153.675 264.995 152.082C264.872 153.812 265.363 155.566 266.404 157.108Z" fill="black"/>
</g>
<path d="M271.44 150.463C270.904 150.712 270.514 151.102 270.069 151.439C269.623 151.776 267.016 152.254 266.388 152.243L267.067 155.273C267.584 154.866 268.567 154.903 269.21 155.188C269.853 155.473 270.413 155.892 271.133 156.034C271.881 156.182 272.729 155.979 273.232 155.533C273.735 155.087 273.868 154.419 273.561 153.879C274.442 153.647 275.114 153.012 275.224 152.308C275.334 151.605 274.877 150.867 274.092 150.485C273.308 150.102 272.235 150.093 271.44 150.463Z" fill="#263238"/>
<path opacity="0.3" d="M267.089 155.256C267.089 155.256 267.397 154.746 267.13 153.475C266.862 152.204 267.189 152.505 267.189 152.505C267.189 152.505 267.9 153.47 267.867 154.239C267.847 154.718 267.578 154.923 267.357 155.064C267.223 155.149 267.089 155.256 267.089 155.256Z" fill="black"/>
<path opacity="0.3" d="M273.968 153.718C273.294 154.712 271.02 154.53 270.637 153.449C271.705 153.601 272.882 153.698 273.968 153.718Z" fill="black"/>
<path d="M282.041 133.729C281.564 136.344 282.813 139.719 286.717 140.199C290.304 140.543 293.865 139.613 297.247 138.788C299.523 138.195 301.755 137.507 303.97 136.791C306.184 136.072 308.373 135.306 310.544 134.512C314.89 132.897 317.558 129.56 319.444 126.289C320.273 124.826 320.944 123.3 321.527 121.77C321.62 121.551 321.695 121.284 321.836 121.07C321.966 120.612 322.232 119.486 321.765 118.881C321.307 118.131 320.096 118.18 319.169 118.189L318.725 118.187C319.999 117.001 322.536 114.569 321.114 113.059C319.23 111.489 316.415 112.858 315.118 114.264L314.873 114.508L314.867 114.204C314.802 111.793 313.449 110.228 310.668 112.435C308.878 113.795 307.392 115.379 305.983 116.975C307.355 115.352 308.797 113.749 310.562 112.354C312.201 110.988 314.14 110.561 314.887 112.748C315.046 113.226 315.125 113.71 315.142 114.204L314.892 114.145C315.651 113.369 316.59 112.681 317.779 112.303C318.986 111.909 320.501 112.116 321.389 112.886C322.955 114.486 320.648 116.848 319.327 118.134L319.169 117.871L319.961 117.868C322.584 117.769 322.849 119.919 322.149 121.377C322.105 121.473 321.998 121.763 321.957 121.865C321.375 123.411 320.707 124.95 319.877 126.43C317.972 129.78 315.2 133.164 310.733 134.813C308.554 135.603 306.356 136.364 304.132 137.08C301.908 137.797 299.651 138.456 297.357 139.037C293.928 139.838 290.313 140.762 286.678 140.359C282.715 139.811 281.478 136.39 282.041 133.729Z" fill="#263238"/>
<g opacity="0.3">
<path d="M320.036 118.03H319.168C319.168 118.03 321.978 115.564 321.712 113.812C321.956 113.875 322.202 113.963 322.45 114.085C324.513 115.1 322.926 117.341 321.786 118.596C321.454 118.261 320.91 118.03 320.036 118.03Z" fill="black"/>
<path d="M315.005 114.204C315.005 114.204 315.004 113.479 314.757 112.752C315.319 112.76 315.722 113.001 316.009 113.343C315.383 113.791 315.005 114.204 315.005 114.204Z" fill="black"/>
<path d="M310.667 134.652C318.995 131.618 321.673 121.559 322.02 121.164C322.02 121.164 322.35 120.328 322.227 119.52C324.853 119.816 323.74 122.627 323.74 122.627C323.393 123.023 320.715 133.081 312.388 136.116C304.06 139.15 292.089 142.976 287.405 141.524C286.064 141.109 285.193 140.412 284.632 139.63C284.947 139.794 285.294 139.94 285.684 140.061C290.369 141.512 302.34 137.686 310.667 134.652Z" fill="black"/>
</g>
<g opacity="0.3">
<path d="M317.714 104.553C317.04 105.092 319.45 103.723 320.333 104.044C321.215 104.365 321.713 105.197 321.453 105.914C322.395 105.243 323.363 104.558 324.55 104.172C325.737 103.787 327.208 103.754 328.24 104.343C329.292 104.943 329.653 106.055 329.468 107.045C329.284 108.035 328.647 108.939 328.021 109.818C329.071 108.953 330.92 108.727 332.274 109.298C333.628 109.869 334.355 111.182 333.946 112.317C333.946 112.317 333.952 112.305 333.964 112.281C334.981 110.218 332.647 108.097 329.791 108.477L329.707 108.488C329.707 108.488 331.456 105.895 329.545 104.438C327.634 102.98 324.819 103.044 322.241 104.815C322.241 104.815 320.346 102.447 317.714 104.553Z" fill="black"/>
</g>
<g opacity="0.3">
<path d="M302.326 122.807C301.713 123.041 303.733 122.571 304.216 122.942C304.699 123.313 304.77 123.953 304.374 124.38C305.206 124.106 306.06 123.828 306.965 123.787C307.87 123.745 308.852 123.989 309.351 124.564C309.86 125.151 309.752 125.951 309.322 126.572C308.891 127.194 308.188 127.676 307.5 128.145C308.464 127.762 309.757 127.946 310.475 128.567C311.192 129.189 311.263 130.188 310.639 130.865C310.639 130.865 310.647 130.858 310.662 130.845C311.978 129.663 311.095 127.84 309.089 127.577L309.03 127.57C309.03 127.57 310.994 126.17 310.185 124.862C309.375 123.554 307.494 123.089 305.237 123.796C305.237 123.796 304.723 121.889 302.326 122.807Z" fill="black"/>
</g>
<path d="M232.805 111.51C232.432 111.429 232.036 111.462 231.649 111.476C231.262 111.489 230.853 111.479 230.522 111.325C230.192 111.172 229.982 110.832 230.163 110.572C230.286 110.395 230.551 110.297 230.684 110.125C230.88 109.871 230.72 109.524 230.415 109.343C230.11 109.162 229.704 109.115 229.317 109.111C228.538 109.104 227.756 109.253 227.074 109.54C226.652 109.718 226.266 109.947 225.815 110.076C225.365 110.205 224.81 110.213 224.447 109.973C223.81 109.554 224.105 108.664 223.471 108.242C223.007 107.934 222.298 108.037 221.707 108.168C221.223 108.275 220.725 108.394 220.348 108.648C219.977 108.899 219.761 109.252 219.475 109.56C219.188 109.868 218.767 110.154 218.271 110.144C217.393 110.126 216.99 109.266 216.189 108.992C215.52 108.764 214.694 109.017 214.239 109.454C213.742 109.933 213.609 110.585 213.706 111.191C213.803 111.797 214.106 112.37 214.407 112.936C214.732 113.546 215.056 114.156 215.38 114.765L220.544 113.234C222.05 112.716 223.818 112.965 225.374 113.389C226.93 113.812 228.43 114.406 230.067 114.576C230.879 114.66 231.732 114.632 232.477 114.373C233.222 114.115 233.841 113.597 233.957 112.98C234.074 112.364 233.592 111.681 232.805 111.51Z" fill="#92E3A9"/>
<path d="M235.605 132.905C236.453 128.034 234.945 124.452 234.945 124.452L235.066 124.491C235.871 124.753 236.687 124.142 236.356 123.526C235.424 121.787 233.547 119.524 232.212 118.01C231.141 116.526 229.743 115.187 227.964 114.181C225.39 112.726 221.952 112.046 218.88 112.747C217.296 113.109 215.801 113.872 215.091 115.007C214.34 116.207 214.561 117.608 214.71 118.933C214.955 121.106 214.96 123.295 214.726 125.47L214.501 125.598C214.501 125.598 214.406 128.894 210.167 129.968C205.927 131.043 202.347 131.114 195.752 129.395C190.406 128.001 187.536 122.088 186.641 119.899C186.355 119.199 185.519 118.694 184.556 118.687C183.071 118.675 183.127 119.867 183.127 119.867C183.127 119.867 182.185 117.073 179.359 117.073C176.532 117.073 178.04 120.44 178.04 120.44C178.04 120.44 177.192 118.936 175.025 119.365C172.858 119.795 174.365 123.521 174.365 123.521C174.365 123.521 173.141 122.016 171.068 123.162C169.16 124.218 170.524 126.121 170.753 126.417C170.646 126.322 170.204 126.147 168.524 126.959C166.451 127.962 168.524 131.473 168.524 131.473C166.828 131.473 165.98 131.831 166.357 134.983C166.734 138.135 171.256 141.502 171.256 141.502C168.807 141.359 168.713 142.075 168.713 142.075C166.075 146.66 176.061 151.317 176.061 151.317C176.061 151.317 174.554 151.747 174.648 153.108C174.742 154.469 182.374 155.543 182.374 155.543C182.374 155.543 181.149 156.761 185.2 157.764C189.251 158.767 204.043 159.842 219.4 158.481C234.757 157.119 238.62 144.511 239.185 141.001C239.75 137.49 235.605 132.905 235.605 132.905Z" fill="#92E3A9"/>
<g opacity="0.7">
<path d="M235.605 132.905C236.453 128.034 234.945 124.452 234.945 124.452L235.066 124.491C235.871 124.753 236.687 124.142 236.356 123.526C235.424 121.787 233.547 119.524 232.212 118.01C231.141 116.526 229.743 115.187 227.964 114.181C225.39 112.726 221.952 112.046 218.88 112.747C217.296 113.109 215.801 113.872 215.091 115.007C214.34 116.207 214.561 117.608 214.71 118.933C214.955 121.106 214.96 123.295 214.726 125.47L214.501 125.598C214.501 125.598 214.406 128.894 210.167 129.968C205.927 131.043 202.347 131.114 195.752 129.395C190.406 128.001 187.536 122.088 186.641 119.899C186.355 119.199 185.519 118.694 184.556 118.687C183.071 118.675 183.127 119.867 183.127 119.867C183.127 119.867 182.185 117.073 179.359 117.073C176.532 117.073 178.04 120.44 178.04 120.44C178.04 120.44 177.192 118.936 175.025 119.365C172.858 119.795 174.365 123.521 174.365 123.521C174.365 123.521 173.141 122.016 171.068 123.162C169.16 124.218 170.524 126.121 170.753 126.417C170.646 126.322 170.204 126.147 168.524 126.959C166.451 127.962 168.524 131.473 168.524 131.473C166.828 131.473 165.98 131.831 166.357 134.983C166.734 138.135 171.256 141.502 171.256 141.502C168.807 141.359 168.713 142.075 168.713 142.075C166.075 146.66 176.061 151.317 176.061 151.317C176.061 151.317 174.554 151.747 174.648 153.108C174.742 154.469 182.374 155.543 182.374 155.543C182.374 155.543 181.149 156.761 185.2 157.764C189.251 158.767 204.043 159.842 219.4 158.481C234.757 157.119 238.62 144.511 239.185 141.001C239.75 137.49 235.605 132.905 235.605 132.905Z" fill="white"/>
</g>
<path d="M218.198 120.091C216.944 120.57 215.395 120.574 214.137 120.101C213.294 119.784 212.461 119.249 211.509 119.547C211.318 119.607 211.099 119.616 210.91 119.552C210.422 119.389 210.614 118.93 210.876 118.641C211.537 117.911 212.457 117.325 213.503 116.935C215.104 116.339 217.041 116.857 217.814 118.078C218.451 119.084 219.541 118.57 219.541 119.609C219.541 120.33 218.198 120.091 218.198 120.091Z" fill="#92E3A9"/>
<path d="M221.24 116.936C221.24 117.612 220.86 118.16 220.391 118.16C219.921 118.16 219.541 117.612 219.541 116.936C219.541 116.26 219.921 115.712 220.391 115.712C220.86 115.712 221.24 116.26 221.24 116.936Z" fill="#263238"/>
<g opacity="0.3">
<path d="M212.106 119.464C214.43 119.565 216.635 119.583 218.838 119.011C216.594 118.708 214.245 118.866 212.106 119.464Z" fill="black"/>
</g>
<path d="M220.169 124.072C219.909 123.637 219.447 123.296 219.062 122.919C218.676 122.542 218.368 120.516 218.459 120.043L214.421 120.187C214.89 120.627 214.721 121.364 214.272 121.815C213.822 122.266 213.207 122.638 212.934 123.164C212.65 123.711 212.811 124.375 213.333 124.809C213.854 125.243 214.711 125.424 215.452 125.258C215.648 125.951 216.396 126.536 217.301 126.704C218.206 126.873 219.224 126.617 219.819 126.071C220.413 125.525 220.555 124.717 220.169 124.072Z" fill="#92E3A9"/>
<path opacity="0.3" d="M214.44 120.206C214.44 120.206 215.069 120.501 216.76 120.453C218.452 120.405 218.019 120.616 218.019 120.616C218.019 120.616 216.674 121.035 215.674 120.917C215.051 120.844 214.815 120.616 214.659 120.432C214.564 120.321 214.44 120.206 214.44 120.206Z" fill="black"/>
<path opacity="0.3" d="M215.613 125.585C214.398 124.956 214.91 123.261 216.369 123.103C216.041 123.891 215.77 124.767 215.613 125.585Z" fill="black"/>
<path opacity="0.3" d="M220.464 134.795L211.716 132.753C208.08 133.604 204.184 133.75 200.397 133.428C196.265 133.076 192.243 132.182 188.334 131.106C187.31 130.823 186.265 130.525 185.176 130.517C184.087 130.509 182.922 130.855 182.399 131.582C181.926 132.239 182.074 133.073 182.531 133.737C182.989 134.4 185.186 135.152 185.186 135.152C185.186 135.152 182.919 134.934 182.166 135.145C181.413 135.356 180.832 135.888 180.699 136.49C180.469 137.525 181.501 138.495 182.678 139.042C183.856 139.59 186.266 139.978 186.266 139.978C185.242 140.171 183.542 141.091 183.569 142.163C183.597 143.236 184.499 143.98 185.816 144.364C187.133 144.749 188.846 144.881 190.256 144.85C189.684 145.332 189.888 146.143 190.479 146.612C191.07 147.081 192.265 147.604 193.093 147.761C198.455 148.78 203.766 148.223 209.22 147.546C212.873 147.092 216.695 146.359 219.3 144.359C222.511 141.895 223.116 137.618 220.464 134.795Z" fill="black"/>
<path d="M221.819 133.428L213.071 131.386C209.435 132.237 205.539 132.383 201.752 132.06C197.62 131.709 193.598 130.815 189.689 129.738C188.664 129.456 187.62 129.158 186.531 129.15C185.442 129.142 184.277 129.488 183.754 130.215C183.281 130.872 183.429 131.706 183.886 132.37C184.344 133.033 186.541 133.785 186.541 133.785C186.541 133.785 184.274 133.567 183.521 133.778C182.768 133.989 182.187 134.521 182.054 135.123C181.824 136.158 182.856 137.128 184.033 137.675C185.211 138.223 187.621 138.611 187.621 138.611C186.597 138.803 184.897 139.724 184.924 140.796C184.952 141.869 185.854 142.613 187.171 142.997C188.488 143.381 190.2 143.514 191.611 143.483C191.039 143.965 191.243 144.776 191.834 145.245C192.425 145.714 193.62 146.237 194.448 146.394C199.81 147.413 205.121 146.856 210.575 146.179C214.228 145.725 218.05 144.992 220.655 142.992C223.866 140.528 224.47 136.251 221.819 133.428Z" fill="#92E3A9"/>
<path opacity="0.7" d="M221.819 133.428L213.071 131.386C209.435 132.237 205.539 132.383 201.752 132.06C197.62 131.709 193.598 130.815 189.689 129.738C188.664 129.456 187.62 129.158 186.531 129.15C185.442 129.142 184.277 129.488 183.754 130.215C183.281 130.872 183.429 131.706 183.886 132.37C184.344 133.033 186.541 133.785 186.541 133.785C186.541 133.785 184.274 133.567 183.521 133.778C182.768 133.989 182.187 134.521 182.054 135.123C181.824 136.158 182.856 137.128 184.033 137.675C185.211 138.223 187.621 138.611 187.621 138.611C186.597 138.803 184.897 139.724 184.924 140.796C184.952 141.869 185.854 142.613 187.171 142.997C188.488 143.381 190.2 143.514 191.611 143.483C191.039 143.965 191.243 144.776 191.834 145.245C192.425 145.714 193.62 146.237 194.448 146.394C199.81 147.413 205.121 146.856 210.575 146.179C214.228 145.725 218.05 144.992 220.655 142.992C223.866 140.528 224.47 136.251 221.819 133.428Z" fill="white"/>
<path d="M221.819 133.428C225.373 137.241 223.179 142.854 217.609 144.753C215.853 145.421 213.949 145.817 212.04 146.108C206.333 146.887 200.372 147.646 194.623 146.595C192.869 146.304 189.96 144.938 191.441 143.367L191.617 143.656C190.014 143.679 188.378 143.564 186.876 143.098C185.305 142.652 184.103 141.171 184.973 139.954C185.546 139.205 186.478 138.684 187.565 138.438L187.573 138.784C185.42 138.408 182.821 137.862 181.962 136.113C181.518 135.238 182.03 134.164 183.139 133.729C184.207 133.351 185.439 133.569 186.567 133.625L186.453 133.932C185.438 133.526 184.197 133.142 183.629 132.33C183.102 131.504 183.072 130.403 183.999 129.719C185.912 128.347 188.594 129.3 190.675 129.872C192.112 130.261 193.562 130.62 195.029 130.934C200.865 132.19 207.173 132.72 213.071 131.386C207.195 132.795 200.822 132.372 194.953 131.143C193.475 130.838 192.013 130.488 190.566 130.109C188.546 129.589 186.063 128.662 184.28 129.932C183.5 130.515 183.54 131.481 184.004 132.195C184.531 132.914 185.694 133.265 186.627 133.638C186.848 133.711 186.742 133.969 186.514 133.945C185.504 133.895 184.263 133.698 183.344 134.019C181.125 135.039 182.655 137.062 184.541 137.686C185.518 138.03 186.602 138.253 187.669 138.437C187.907 138.471 187.905 138.743 187.677 138.783C187.217 138.875 186.764 139.067 186.368 139.295C185.04 139.99 184.75 141.209 185.858 142.135C187.29 143.22 189.664 143.296 191.604 143.31C191.73 143.307 191.835 143.382 191.838 143.478C191.84 143.524 191.817 143.567 191.78 143.599C191.207 144.105 191.58 144.924 192.248 145.306C192.964 145.749 193.814 146.123 194.725 146.271C196.595 146.616 198.52 146.771 200.448 146.793C204.309 146.816 208.163 146.352 211.977 145.861C215.697 145.336 219.679 144.289 221.812 141.759C223.893 139.302 224.054 135.865 221.819 133.428Z" fill="#263238"/>
<g opacity="0.3">
<path d="M188.302 125.183C188.887 125.798 186.695 124.166 185.747 124.4C184.798 124.633 184.146 125.423 184.281 126.174C183.449 125.398 182.593 124.607 181.462 124.095C180.331 123.583 178.851 123.398 177.702 123.887C176.532 124.385 175.97 125.471 175.979 126.491C175.989 127.511 176.472 128.49 176.948 129.443C176.041 128.461 174.212 128.041 172.742 128.479C171.273 128.916 170.304 130.168 170.515 131.357C170.515 131.357 170.51 131.344 170.503 131.32C169.842 129.129 172.58 127.226 175.398 127.905L175.481 127.925C175.481 127.925 174.176 125.124 176.367 123.848C178.558 122.572 181.391 122.927 183.681 124.983C183.681 124.983 186.017 122.785 188.302 125.183Z" fill="black"/>
</g>
<g opacity="0.3">
<path d="M224.029 127.512C223.881 127.15 224.575 128.19 225.074 128.195C225.573 128.199 226.048 127.905 226.142 127.533C226.373 128.002 226.611 128.481 227.039 128.861C227.467 129.242 228.129 129.509 228.776 129.418C229.435 129.324 229.93 128.879 230.141 128.394C230.351 127.91 230.329 127.388 230.304 126.878C230.527 127.454 231.305 127.875 232.093 127.847C232.881 127.819 233.604 127.345 233.755 126.756L233.752 126.775C233.603 127.893 231.906 128.46 230.714 127.796L230.679 127.776C230.679 127.776 230.707 129.261 229.4 129.599C228.093 129.936 226.826 129.423 226.175 128.17C226.175 128.17 224.605 128.926 224.029 127.512Z" fill="black"/>
</g>
<g opacity="0.3">
<path d="M194.823 134.594C195.338 134.31 193.971 135.374 194.167 135.834C194.363 136.294 195.026 136.61 195.656 136.544C195.006 136.948 194.342 137.363 193.913 137.912C193.484 138.46 193.329 139.178 193.74 139.735C194.158 140.302 195.07 140.574 195.925 140.569C196.78 140.564 197.601 140.33 198.4 140.098C197.577 140.539 197.226 141.426 197.593 142.138C197.961 142.851 199.011 143.32 200.009 143.217C200.009 143.217 199.998 143.219 199.977 143.223C198.14 143.544 196.543 142.217 197.111 140.851L197.128 140.81C197.128 140.81 194.78 141.445 193.708 140.382C192.637 139.32 192.933 137.947 194.657 136.835C194.657 136.835 192.813 135.703 194.823 134.594Z" fill="black"/>
</g>
<g opacity="0.3">
<path d="M235.764 133.09L235.605 132.905C235.66 133.979 235.516 135.348 235.277 136.573C235.035 137.81 234.698 139.195 234.188 140.309C234.188 140.309 235.333 138.998 235.851 136.947C236.369 134.896 235.764 133.09 235.764 133.09Z" fill="black"/>
</g>
<path d="M231.628 115.422C231.33 115.422 231.032 115.393 230.744 115.334C230.615 115.308 230.539 115.207 230.574 115.11C230.608 115.012 230.74 114.955 230.869 114.981C231.692 115.148 232.604 115.032 233.31 114.67C234.017 114.307 234.499 113.707 234.602 113.064C234.618 112.964 234.742 112.891 234.87 112.904C235.001 112.916 235.095 113.008 235.079 113.108C234.961 113.854 234.4 114.552 233.58 114.973C233.007 115.267 232.317 115.422 231.628 115.422Z" fill="#92E3A9"/>
<path d="M234.896 112.904L234.884 112.903C234.751 112.898 234.649 112.812 234.656 112.712C234.661 112.641 234.666 112.608 234.67 112.576C234.674 112.548 234.678 112.521 234.682 112.46C234.689 112.36 234.788 112.277 234.934 112.287C235.067 112.291 235.169 112.377 235.163 112.478C235.158 112.551 235.153 112.584 235.149 112.616C235.144 112.644 235.141 112.671 235.136 112.73C235.13 112.828 235.024 112.904 234.896 112.904Z" fill="#92E3A9"/>
<path d="M133.141 146.554C133.621 146.638 135.791 154.765 136.062 155.601C137.259 159.304 138.495 158.927 140.055 159.305C141.615 159.683 145.807 160.799 145.804 160.294C145.803 160.053 143.892 159.247 142.979 158.863L142.066 158.478C142.066 158.478 148.622 157.664 149.394 157.565C153.041 157.095 150.55 156.65 148.699 156.659C146.848 156.667 142.038 156.827 142.038 156.827C142.038 156.827 147.181 155.718 147.783 155.5C148.181 155.356 149.104 154.714 147.629 154.749C146.153 154.783 138.725 156.129 138.725 156.129L136.337 146.531L133.141 146.554Z" fill="#263238"/>
<path d="M142.203 142.623C141.848 143.163 137.761 149.49 133.319 149.366C128.877 149.243 124.257 144.981 124.257 144.981L142.203 142.623Z" fill="#92E3A9"/>
<path opacity="0.7" d="M142.203 142.623C141.848 143.163 137.761 149.49 133.319 149.366C128.877 149.243 124.257 144.981 124.257 144.981L142.203 142.623Z" fill="white"/>
<path opacity="0.3" d="M142.203 142.623C141.848 143.163 137.761 149.49 133.319 149.366C128.877 149.243 124.257 144.981 124.257 144.981L142.203 142.623Z" fill="black"/>
<path d="M130.042 97.5426C130.415 97.4619 130.811 97.4947 131.198 97.5082C131.585 97.5218 131.994 97.5111 132.325 97.3579C132.655 97.2046 132.865 96.8646 132.684 96.6044C132.561 96.4277 132.296 96.3298 132.163 96.1575C131.967 95.904 132.127 95.5571 132.432 95.376C132.736 95.1949 133.143 95.1472 133.529 95.1436C134.309 95.1364 135.091 95.2859 135.773 95.573C136.195 95.7501 136.581 95.9794 137.032 96.1084C137.482 96.2373 138.036 96.2457 138.4 96.0058C139.036 95.5862 138.742 94.6969 139.376 94.275C139.839 93.9665 140.549 94.07 141.14 94.2005C141.624 94.3073 142.122 94.4271 142.499 94.6811C142.87 94.9311 143.086 95.2848 143.372 95.5928C143.658 95.9009 144.08 96.1861 144.576 96.1761C145.454 96.1584 145.857 95.2986 146.658 95.0249C147.327 94.7961 148.153 95.0492 148.608 95.4869C149.105 95.9658 149.238 96.6176 149.141 97.2234C149.044 97.8292 148.74 98.4031 148.44 98.9688C148.115 99.5785 147.791 100.188 147.467 100.798L142.303 99.2662C140.797 98.7489 139.029 98.9972 137.473 99.4211C135.917 99.845 134.417 100.439 132.78 100.608C131.968 100.692 131.115 100.665 130.37 100.406C129.625 100.147 129.006 99.6292 128.89 99.0127C128.773 98.3963 129.255 97.7132 130.042 97.5426Z" fill="#92E3A9"/>
<path d="M148.997 120.313C149.105 119.696 149.174 119.099 149.214 118.528L149.253 118.538C149.398 115.635 149.373 112.952 148.792 110.995C148.558 108.82 147.892 107.139 148.137 104.965C148.286 103.641 148.507 102.24 147.756 101.04C147.046 99.9045 145.551 99.1413 143.967 98.7799C140.895 98.0786 137.457 98.7582 134.883 100.214C133.104 101.22 131.706 102.559 130.635 104.042C129.3 105.556 128.006 110.377 127.893 113.006C127.893 113.006 127.799 116.302 123.559 117.376C119.32 118.451 115.739 118.522 109.144 116.803C103.798 115.409 100.929 109.496 100.033 107.307C99.7475 106.607 98.9114 106.102 97.9483 106.095C96.4637 106.083 96.5197 107.275 96.5197 107.275C96.5197 107.275 95.5775 104.481 92.7511 104.481C89.9247 104.481 91.4321 107.848 91.4321 107.848C91.4321 107.848 90.5842 106.344 88.4172 106.773C86.2503 107.203 87.7577 110.929 87.7577 110.929C87.7577 110.929 86.5329 109.424 84.4602 110.57C82.5521 111.626 83.9167 113.529 84.1456 113.825C84.0382 113.73 83.596 113.555 81.9165 114.367C79.8438 115.37 81.9165 118.881 81.9165 118.881C80.2206 118.881 79.3727 119.239 79.7495 122.391C80.1264 125.543 84.6487 128.91 84.6487 128.91C82.1991 128.767 82.1049 129.483 82.1049 129.483C79.4669 134.068 89.4536 138.725 89.4536 138.725C89.4536 138.725 87.9462 139.154 88.0404 140.516C88.1346 141.877 95.766 142.951 95.766 142.951C95.766 142.951 94.5412 144.169 98.5924 145.172C102.644 146.175 117.435 147.25 132.792 145.889C148.149 144.527 152.012 131.919 152.577 128.409C153.142 124.898 148.997 120.313 148.997 120.313Z" fill="#92E3A9"/>
<g opacity="0.7">
<path d="M148.997 120.313C149.105 119.696 149.174 119.099 149.214 118.528L149.253 118.538C149.398 115.635 149.373 112.952 148.792 110.995C148.558 108.82 147.892 107.139 148.137 104.965C148.286 103.641 148.507 102.24 147.756 101.04C147.046 99.9045 145.551 99.1413 143.967 98.7799C140.895 98.0786 137.457 98.7582 134.883 100.214C133.104 101.22 131.706 102.559 130.635 104.042C129.3 105.556 128.006 110.377 127.893 113.006C127.893 113.006 127.799 116.302 123.559 117.376C119.32 118.451 115.739 118.522 109.144 116.803C103.798 115.409 100.929 109.496 100.033 107.307C99.7475 106.607 98.9114 106.102 97.9483 106.095C96.4637 106.083 96.5197 107.275 96.5197 107.275C96.5197 107.275 95.5775 104.481 92.7511 104.481C89.9247 104.481 91.4321 107.848 91.4321 107.848C91.4321 107.848 90.5842 106.344 88.4172 106.773C86.2503 107.203 87.7577 110.929 87.7577 110.929C87.7577 110.929 86.5329 109.424 84.4602 110.57C82.5521 111.626 83.9167 113.529 84.1456 113.825C84.0382 113.73 83.596 113.555 81.9165 114.367C79.8438 115.37 81.9165 118.881 81.9165 118.881C80.2206 118.881 79.3727 119.239 79.7495 122.391C80.1264 125.543 84.6487 128.91 84.6487 128.91C82.1991 128.767 82.1049 129.483 82.1049 129.483C79.4669 134.068 89.4536 138.725 89.4536 138.725C89.4536 138.725 87.9462 139.154 88.0404 140.516C88.1346 141.877 95.766 142.951 95.766 142.951C95.766 142.951 94.5412 144.169 98.5924 145.172C102.644 146.175 117.435 147.25 132.792 145.889C148.149 144.527 152.012 131.919 152.577 128.409C153.142 124.898 148.997 120.313 148.997 120.313Z" fill="white"/>
</g>
<path opacity="0.3" d="M133.856 122.203L125.109 120.161C121.472 121.012 117.577 121.158 113.789 120.835C109.657 120.484 105.635 119.59 101.726 118.513C100.702 118.231 99.6577 117.933 98.5684 117.925C97.4792 117.917 96.3144 118.263 95.7914 118.99C95.3182 119.647 95.466 120.481 95.9237 121.145C96.3813 121.808 98.578 122.56 98.578 122.56C98.578 122.56 96.3117 122.342 95.5586 122.553C94.8055 122.764 94.2246 123.296 94.0911 123.898C93.8614 124.933 94.8935 125.903 96.0707 126.45C97.2479 126.998 99.6587 127.386 99.6587 127.386C98.6342 127.578 96.9341 128.499 96.9616 129.571C96.989 130.644 97.8911 131.388 99.2083 131.772C100.526 132.156 102.238 132.289 103.648 132.258C103.076 132.74 103.281 133.551 103.871 134.02C104.462 134.489 105.657 135.012 106.486 135.169C111.847 136.188 117.158 135.631 122.612 134.954C126.265 134.5 130.087 133.767 132.692 131.767C135.904 129.303 136.508 125.026 133.856 122.203Z" fill="black"/>
<path d="M135.211 120.835L126.464 118.794C122.827 119.645 118.932 119.791 115.144 119.468C111.012 119.117 106.99 118.223 103.081 117.146C102.057 116.864 101.013 116.566 99.9234 116.558C98.8342 116.55 97.6693 116.896 97.1463 117.623C96.6732 118.28 96.821 119.114 97.2786 119.778C97.7363 120.441 99.933 121.193 99.933 121.193C99.933 121.193 97.6666 120.975 96.9136 121.186C96.1605 121.397 95.5796 121.929 95.4461 122.531C95.2164 123.566 96.2484 124.535 97.4257 125.083C98.6029 125.631 101.014 126.018 101.014 126.018C99.9892 126.211 98.2891 127.132 98.3165 128.204C98.3439 129.277 99.246 130.021 100.563 130.405C101.881 130.789 103.593 130.922 105.003 130.891C104.431 131.373 104.636 132.184 105.226 132.653C105.817 133.122 107.012 133.645 107.841 133.802C113.202 134.821 118.513 134.264 123.967 133.586C127.62 133.133 131.442 132.4 134.047 130.4C137.259 127.936 137.863 123.659 135.211 120.835Z" fill="#92E3A9"/>
<path d="M135.211 120.835C138.751 124.642 136.564 130.27 130.999 132.161C129.243 132.829 127.339 133.224 125.431 133.516C119.724 134.294 113.763 135.054 108.015 134.002C106.261 133.711 103.353 132.345 104.834 130.775L105.01 131.064C102.918 131.053 100.477 130.977 98.8999 129.788C97.5954 128.715 97.9228 127.224 99.4763 126.418C99.9173 126.166 100.401 125.961 100.957 125.846L100.965 126.192C98.8117 125.816 96.2122 125.271 95.3537 123.521C94.9089 122.646 95.4212 121.572 96.5305 121.137C97.5994 120.758 98.8316 120.977 99.9596 121.033L99.8458 121.34C98.8301 120.934 97.5894 120.55 97.0223 119.738C96.4941 118.912 96.4654 117.811 97.3917 117.128C99.3051 115.756 101.986 116.709 104.067 117.281C105.504 117.669 106.954 118.028 108.421 118.343C114.258 119.599 120.565 120.129 126.464 118.794C119.068 120.571 111.111 119.423 103.959 117.516C102.513 117.159 101.088 116.629 99.6113 116.708C98.1462 116.753 96.8039 117.646 97.0853 118.819C97.1909 119.361 97.452 119.869 98.0831 120.193C98.9639 120.708 100.192 121.105 101.205 121.468C100.31 121.396 99.1549 121.267 98.2614 121.26C97.7157 121.261 97.1576 121.24 96.737 121.428C94.5188 122.447 96.0485 124.469 97.9334 125.093C99.1676 125.532 100.594 125.767 101.934 125.995C100.71 126.215 99.4123 126.655 98.7863 127.533C98.3231 128.182 98.6166 129.018 99.2503 129.544C99.9093 130.1 100.918 130.353 101.916 130.517C103.093 130.707 104.322 130.745 105.526 130.708L105.172 131.007C104.905 131.232 104.831 131.575 104.936 131.893C105.141 132.581 106.045 132.977 106.81 133.305C108.985 134.06 111.478 134.121 113.84 134.201C117.7 134.224 121.554 133.761 125.368 133.269C127.264 132.995 129.147 132.618 130.878 131.975C136.391 130.129 138.627 124.658 135.211 120.835Z" fill="#263238"/>
<g opacity="0.3">
<path d="M101.694 112.591C102.279 113.206 100.088 111.574 99.139 111.808C98.1903 112.041 97.5384 112.831 97.6734 113.582C96.8412 112.806 95.985 112.015 94.8541 111.503C93.7232 110.991 92.243 110.806 91.0945 111.295C89.9244 111.793 89.362 112.879 89.3716 113.899C89.3813 114.919 89.864 115.897 90.3403 116.851C89.4334 115.869 87.6044 115.449 86.1347 115.887C84.665 116.324 83.6962 117.576 83.9071 118.765C83.9071 118.765 83.9027 118.752 83.8953 118.728C83.2346 116.537 85.9723 114.634 88.7899 115.313L88.8734 115.333C88.8734 115.333 87.568 112.532 89.7592 111.256C91.9504 109.98 94.7832 110.335 97.0732 112.391C97.0732 112.391 99.4097 110.193 101.694 112.591Z" fill="black"/>
</g>
<path opacity="0.7" d="M135.211 120.835L126.464 118.794C122.827 119.645 118.932 119.791 115.144 119.468C111.012 119.117 106.99 118.223 103.081 117.146C102.057 116.864 101.013 116.566 99.9234 116.558C98.8342 116.55 97.6693 116.896 97.1463 117.623C96.6732 118.28 96.821 119.114 97.2786 119.778C97.7363 120.441 99.933 121.193 99.933 121.193C99.933 121.193 97.6666 120.975 96.9136 121.186C96.1605 121.397 95.5796 121.929 95.4461 122.531C95.2164 123.566 96.2484 124.535 97.4257 125.083C98.6029 125.631 101.014 126.018 101.014 126.018C99.9892 126.211 98.2891 127.132 98.3165 128.204C98.3439 129.277 99.246 130.021 100.563 130.405C101.881 130.789 103.593 130.922 105.003 130.891C104.431 131.373 104.636 132.184 105.226 132.653C105.817 133.122 107.012 133.645 107.841 133.802C113.202 134.821 118.513 134.264 123.967 133.586C127.62 133.133 131.442 132.4 134.047 130.4C137.259 127.936 137.863 123.659 135.211 120.835Z" fill="white"/>
<g opacity="0.3">
<path d="M108.216 122.002C108.731 121.718 107.363 122.782 107.559 123.242C107.756 123.702 108.418 124.017 109.048 123.952C108.398 124.356 107.734 124.771 107.305 125.32C106.876 125.868 106.722 126.586 107.132 127.143C107.551 127.71 108.462 127.982 109.317 127.977C110.173 127.972 110.993 127.738 111.793 127.506C110.969 127.947 110.618 128.834 110.986 129.546C111.353 130.259 112.404 130.728 113.401 130.625C113.401 130.625 113.39 130.627 113.369 130.631C111.532 130.952 109.935 129.625 110.503 128.259L110.52 128.218C110.52 128.218 108.172 128.852 107.101 127.79C106.029 126.728 106.326 125.355 108.049 124.243C108.049 124.243 106.205 123.111 108.216 122.002Z" fill="black"/>
</g>
<g opacity="0.3">
<path d="M149.156 120.497L148.997 120.313C149.052 121.387 148.909 122.756 148.669 123.981C148.427 125.217 148.091 126.603 147.58 127.717C147.58 127.717 148.726 126.406 149.244 124.355C149.762 122.304 149.156 120.497 149.156 120.497Z" fill="black"/>
</g>
<path d="M144.649 106.124C145.903 106.603 147.452 106.606 148.71 106.133C149.553 105.816 150.386 105.282 151.338 105.58C151.529 105.64 151.748 105.648 151.937 105.585C152.425 105.422 152.233 104.962 151.971 104.673C151.31 103.943 150.39 103.357 149.344 102.968C147.743 102.372 145.806 102.889 145.033 104.11C144.395 105.116 143.306 104.603 143.306 105.641C143.306 106.362 144.649 106.124 144.649 106.124Z" fill="#92E3A9"/>
<path d="M141.607 102.968C141.607 103.644 141.987 104.192 142.456 104.192C142.926 104.192 143.306 103.644 143.306 102.968C143.306 102.292 142.926 101.744 142.456 101.744C141.987 101.744 141.607 102.292 141.607 102.968Z" fill="#263238"/>
<g opacity="0.3">
<path d="M150.741 105.497C148.417 105.597 146.212 105.616 144.009 105.044C146.253 104.741 148.602 104.899 150.741 105.497Z" fill="black"/>
</g>
<path d="M142.678 110.105C142.938 109.67 143.4 109.328 143.786 108.951C144.171 108.574 144.479 106.548 144.388 106.076L148.426 106.22C147.957 106.66 148.126 107.397 148.576 107.848C149.025 108.299 149.64 108.67 149.914 109.197C150.197 109.743 150.036 110.408 149.514 110.842C148.993 111.275 148.136 111.457 147.395 111.291C147.199 111.984 146.451 112.568 145.546 112.737C144.641 112.905 143.623 112.649 143.028 112.104C142.434 111.558 142.292 110.75 142.678 110.105Z" fill="#92E3A9"/>
<path opacity="0.3" d="M148.407 106.238C148.407 106.238 147.778 106.533 146.087 106.486C144.395 106.438 144.828 106.648 144.828 106.648C144.828 106.648 146.173 107.068 147.173 106.95C147.797 106.876 148.032 106.648 148.189 106.464C148.283 106.353 148.407 106.238 148.407 106.238Z" fill="black"/>
<path opacity="0.3" d="M147.234 111.618C147.077 110.8 146.806 109.924 146.478 109.136C147.937 109.294 148.449 110.988 147.234 111.618Z" fill="black"/>
<path d="M110.002 146.773C110.002 146.773 105.731 154.414 105.283 155.205C103.697 158.005 104.529 158.759 105.599 159.702C106.669 160.644 109.311 163.153 109.821 162.829C110.405 162.458 109.304 161.744 108.57 160.997C107.945 160.361 108.317 159.99 108.317 159.99C108.317 159.99 114.436 162.471 115.161 162.693C118.594 163.742 116.225 161.922 114.641 161.194C113.057 160.465 109.272 158.927 109.272 158.927C109.272 158.927 116.695 160.235 117.357 160.288C117.796 160.324 119.024 160.143 117.742 159.586C116.461 159.029 107.592 157.166 107.592 157.166L112.515 148.057L110.002 146.773Z" fill="#263238"/>
<path d="M122.907 145.325C122.907 145.325 114.378 150.864 109.581 148.973C104.784 147.081 103.895 140.596 103.895 140.596L122.907 145.325Z" fill="#92E3A9"/>
<path opacity="0.7" d="M122.907 145.325C122.907 145.325 114.378 150.864 109.581 148.973C104.784 147.081 103.895 140.596 103.895 140.596L122.907 145.325Z" fill="white"/>
<path opacity="0.3" d="M121.122 146.5L110.578 146.394C110.578 146.394 114.126 148.144 121.122 146.5Z" fill="black"/>
<path d="M68.1962 118.648C68.5686 118.567 68.9645 118.6 69.3514 118.614C69.7383 118.627 70.1477 118.617 70.4784 118.463C70.8092 118.31 71.0188 117.97 70.8375 117.71C70.7144 117.533 70.4501 117.435 70.3166 117.263C70.1204 117.009 70.2806 116.663 70.5854 116.481C70.8902 116.3 71.2964 116.253 71.6832 116.249C72.4631 116.242 73.2446 116.391 73.9271 116.678C74.3483 116.856 74.735 117.085 75.1856 117.214C75.6361 117.343 76.1902 117.351 76.5539 117.111C77.1903 116.692 76.8962 115.802 77.5299 115.38C77.9932 115.072 78.7026 115.175 79.294 115.306C79.7779 115.413 80.2756 115.532 80.6528 115.786C81.0242 116.037 81.2397 116.39 81.526 116.698C81.8122 117.006 82.2341 117.292 82.7299 117.282C83.6074 117.264 84.0111 116.404 84.8116 116.13C85.4806 115.902 86.307 116.155 86.7617 116.592C87.2591 117.071 87.3918 117.723 87.2949 118.329C87.198 118.935 86.8942 119.508 86.5933 120.074C86.269 120.684 85.9447 121.294 85.6204 121.903L80.4571 120.372C78.9506 119.854 77.1829 120.103 75.6269 120.527C74.0709 120.95 72.5711 121.544 70.9334 121.714C70.1219 121.798 69.2688 121.77 68.5238 121.511C67.7788 121.253 67.1599 120.735 67.0434 120.118C66.9269 119.502 67.4085 118.819 68.1962 118.648Z" fill="#263238"/>
<path d="M87.1508 141.419C87.2583 140.801 87.3277 140.205 87.3673 139.633L87.4073 139.644C87.5517 136.74 87.5265 134.058 86.9456 132.1C86.7118 129.926 86.0461 128.244 86.2906 126.071C86.4396 124.746 86.6604 123.345 85.9099 122.145C85.2001 121.01 83.7044 120.247 82.1211 119.885C79.049 119.184 75.6105 119.864 73.0367 121.319C71.2579 122.325 69.8595 123.664 68.7883 125.148C67.4535 126.662 66.1602 131.482 66.0468 134.112C66.0468 134.112 65.9526 137.407 61.713 138.482C57.4733 139.556 53.8932 139.628 47.2982 137.908C41.9521 136.515 39.0824 130.602 38.1872 128.412C37.9013 127.713 37.0652 127.207 36.1022 127.2C34.6175 127.188 34.6735 128.38 34.6735 128.38C34.6735 128.38 33.7313 125.586 30.9049 125.586C28.0785 125.586 29.5859 128.953 29.5859 128.953C29.5859 128.953 28.7379 127.449 26.571 127.879C24.4041 128.309 25.9116 132.034 25.9116 132.034C25.9116 132.034 24.6868 130.53 22.614 131.676C20.7059 132.731 22.0705 134.635 22.2994 134.931C22.1921 134.835 21.7499 134.66 20.0702 135.473C17.9976 136.476 20.0702 139.986 20.0702 139.986C18.3744 139.986 17.5265 140.344 17.9033 143.496C18.2802 146.648 22.8025 150.015 22.8025 150.015C20.3529 149.872 20.2587 150.589 20.2587 150.589C17.6207 155.174 27.6074 159.83 27.6074 159.83C27.6074 159.83 26.0999 160.26 26.1942 161.621C26.2884 162.982 33.9197 164.057 33.9197 164.057C33.9197 164.057 32.695 165.275 36.7462 166.278C40.7974 167.281 55.589 168.355 70.946 166.994C86.3029 165.633 90.1657 153.024 90.731 149.514C91.2963 146.004 87.1508 141.419 87.1508 141.419Z" fill="#92E3A9"/>
<path opacity="0.3" d="M72.0099 143.308L63.2625 141.267C59.6261 142.118 55.7305 142.263 51.943 141.941C47.8112 141.589 43.789 140.696 39.8798 139.619C38.8556 139.337 37.8115 139.038 36.7223 139.03C35.633 139.022 34.4682 139.369 33.9452 140.095C33.4721 140.752 33.6198 141.587 34.0774 142.25C34.535 142.914 36.7318 143.666 36.7318 143.666C36.7318 143.666 34.4655 143.448 33.7124 143.658C32.9593 143.869 32.3784 144.402 32.2449 145.003C32.0152 146.038 33.0473 147.008 34.2245 147.556C35.4017 148.104 37.8125 148.491 37.8125 148.491C36.788 148.684 35.0879 149.604 35.1154 150.677C35.1428 151.749 36.0448 152.493 37.3621 152.878C38.6794 153.262 40.3917 153.394 41.8019 153.363C41.2298 153.845 41.4344 154.656 42.0253 155.125C42.6161 155.594 43.8109 156.117 44.6394 156.275C50.0008 157.293 55.3119 156.737 60.7659 156.059C64.4192 155.605 68.2407 154.872 70.846 152.873C74.0575 150.408 74.6616 146.131 72.0099 143.308Z" fill="black"/>
<path d="M73.3649 141.941L64.6175 139.9C60.9812 140.75 57.0855 140.896 53.298 140.574C49.1662 140.222 45.144 139.328 41.2348 138.252C40.2106 137.97 39.1665 137.671 38.0772 137.663C36.988 137.655 35.8232 138.002 35.3002 138.728C34.8271 139.385 34.9748 140.22 35.4325 140.883C35.8901 141.547 38.0868 142.299 38.0868 142.299C38.0868 142.299 35.8205 142.08 35.0674 142.291C34.3143 142.502 33.7334 143.035 33.5999 143.636C33.3702 144.671 34.4023 145.641 35.5795 146.189C36.7567 146.737 39.1675 147.124 39.1675 147.124C38.143 147.317 36.443 148.237 36.4704 149.31C36.4978 150.382 37.3999 151.126 38.7171 151.511C40.0344 151.895 41.7467 152.027 43.1569 151.996C42.5848 152.478 42.7894 153.289 43.3803 153.758C43.9712 154.227 45.1659 154.75 45.9944 154.907C51.3558 155.926 56.667 155.369 62.1209 154.692C65.7742 154.238 69.5957 153.505 72.201 151.506C75.4125 149.041 76.0166 144.764 73.3649 141.941Z" fill="#92E3A9"/>
<path d="M73.3648 141.941C76.905 145.747 74.718 151.376 69.1531 153.266C67.3971 153.935 65.4929 154.33 63.5849 154.621C57.8777 155.399 51.9172 156.159 46.1688 155.108C44.415 154.817 41.507 153.451 42.9878 151.88L43.1634 152.169C41.072 152.159 38.6308 152.082 37.0537 150.893C35.7493 149.821 36.0767 148.329 37.6302 147.524C38.0712 147.272 38.5545 147.066 39.1112 146.952L39.1191 147.298C36.9655 146.922 34.3661 146.376 33.5076 144.627C33.0627 143.751 33.575 142.677 34.6844 142.242C35.7533 141.864 36.9854 142.082 38.1134 142.139L37.9996 142.446C36.9839 142.04 35.7432 141.655 35.1761 140.844C34.6479 140.017 34.6193 138.917 35.5455 138.233C37.459 136.861 40.1399 137.814 42.2212 138.386C43.6578 138.775 45.1082 139.134 46.5751 139.448C52.4114 140.704 58.7189 141.234 64.6175 139.9C57.2214 141.677 49.2649 140.528 42.1129 138.621C40.6671 138.264 39.2423 137.734 37.7652 137.813C36.3001 137.859 34.9578 138.751 35.2392 139.925C35.3448 140.466 35.6059 140.975 36.2369 141.299C37.1177 141.813 38.3459 142.211 39.3585 142.573C38.464 142.502 37.3087 142.373 36.4152 142.366C35.8695 142.367 35.3114 142.346 34.8908 142.533C32.6726 143.552 34.2024 145.574 36.0872 146.199C37.3215 146.638 38.748 146.872 40.0883 147.101C38.8637 147.321 37.5661 147.761 36.9401 148.639C36.4769 149.287 36.7704 150.123 37.4041 150.649C38.0631 151.205 39.0718 151.459 40.0697 151.623C41.2466 151.813 42.4757 151.85 43.68 151.814L43.3258 152.112C43.0589 152.337 42.985 152.68 43.0903 152.998C43.2945 153.687 44.1992 154.083 44.9637 154.411C47.1387 155.165 49.6316 155.226 51.9936 155.306C55.8542 155.33 59.7078 154.867 63.5219 154.375C65.4177 154.1 67.3009 153.723 69.0315 153.08C74.5451 151.234 76.7805 145.764 73.3648 141.941Z" fill="#263238"/>
<g opacity="0.3">
<path d="M39.8482 133.697C40.4332 134.311 38.2415 132.679 37.2929 132.913C36.3442 133.147 35.6922 133.936 35.8272 134.687C34.995 133.912 34.1388 133.12 33.0079 132.608C31.877 132.096 30.3968 131.911 29.2484 132.4C28.0781 132.898 27.5158 133.985 27.5254 135.004C27.5351 136.024 28.0179 137.003 28.4942 137.956C27.5873 136.974 25.7583 136.555 24.2886 136.992C22.8189 137.43 21.85 138.682 22.0609 139.871C22.0609 139.871 22.0565 139.858 22.0491 139.833C21.3885 137.643 24.1261 135.74 26.9437 136.418L27.0272 136.438C27.0272 136.438 25.7218 133.638 27.913 132.362C30.1042 131.085 32.937 131.44 35.227 133.496C35.227 133.496 37.5636 131.298 39.8482 133.697Z" fill="black"/>
</g>
<g opacity="0.3">
<path d="M46.3698 143.108C46.8847 142.824 45.5171 143.887 45.7134 144.347C45.9098 144.807 46.572 145.123 47.2021 145.057C46.552 145.461 45.8885 145.877 45.4594 146.425C45.0303 146.974 44.8759 147.692 45.2865 148.248C45.7049 148.816 46.6161 149.088 47.4714 149.083C48.3267 149.078 49.1473 148.843 49.9467 148.612C49.1232 149.052 48.7724 149.939 49.1398 150.652C49.5072 151.364 50.5576 151.833 51.5549 151.731C51.5549 151.731 51.544 151.733 51.5233 151.736C49.6864 152.058 48.0895 150.731 48.6574 149.364L48.6742 149.324C48.6742 149.324 46.3259 149.958 45.2547 148.896C44.1835 147.834 44.4797 146.46 46.2032 145.349C46.2032 145.349 44.359 144.216 46.3698 143.108Z" fill="black"/>
</g>
<g opacity="0.3">
<path d="M87.3101 141.603L87.151 141.419C87.2063 142.493 87.0629 143.862 86.8231 145.087C86.5811 146.323 86.2445 147.708 85.7341 148.823C85.7341 148.823 86.8795 147.511 87.3977 145.46C87.9159 143.41 87.3101 141.603 87.3101 141.603Z" fill="black"/>
</g>
<path d="M82.8026 127.229C84.0565 127.708 85.6059 127.712 86.8636 127.239C87.7066 126.922 88.5401 126.387 89.4921 126.685C89.6832 126.745 89.9017 126.754 90.0908 126.69C90.5789 126.527 90.3866 126.068 90.125 125.779C89.4641 125.048 88.5437 124.463 87.4974 124.073C85.8971 123.477 83.96 123.995 83.1866 125.216C82.5493 126.222 81.4597 125.708 81.4597 126.747C81.4597 127.468 82.8026 127.229 82.8026 127.229Z" fill="#263238"/>
<path d="M79.7605 124.074C79.7605 124.75 80.1409 125.298 80.6102 125.298C81.0794 125.298 81.4598 124.75 81.4598 124.074C81.4598 123.398 81.0794 122.85 80.6102 122.85C80.1409 122.85 79.7605 123.398 79.7605 124.074Z" fill="#263238"/>
<g opacity="0.3">
<path d="M88.8947 126.602C86.5703 126.703 84.3659 126.721 82.1628 126.149C84.4069 125.846 86.7556 126.004 88.8947 126.602Z" fill="black"/>
</g>
<path d="M80.8317 131.21C81.0918 130.775 81.5539 130.434 81.9394 130.057C82.3249 129.68 82.6333 127.654 82.5423 127.181L86.58 127.325C86.1113 127.765 86.2795 128.502 86.7294 128.953C87.1792 129.404 87.7942 129.776 88.0673 130.302C88.3509 130.849 88.1896 131.513 87.668 131.947C87.1465 132.381 86.2903 132.562 85.5489 132.396C85.3529 133.089 84.6053 133.674 83.7001 133.842C82.7949 134.011 81.7767 133.755 81.1821 133.209C80.5875 132.663 80.4458 131.855 80.8317 131.21Z" fill="#263238"/>
<path opacity="0.3" d="M86.5607 127.344C86.5607 127.344 85.932 127.639 84.2406 127.591C82.5493 127.543 82.9819 127.754 82.9819 127.754C82.9819 127.754 84.3268 128.173 85.3269 128.055C85.9504 127.982 86.1855 127.754 86.3424 127.57C86.4371 127.459 86.5607 127.344 86.5607 127.344Z" fill="black"/>
<path opacity="0.3" d="M85.3875 132.723C85.2305 131.905 84.9597 131.029 84.6321 130.241C86.0906 130.399 86.6032 132.094 85.3875 132.723Z" fill="black"/>
</svg>
