<svg width="341" height="240" viewBox="0 0 341 240" fill="none" xmlns="http://www.w3.org/2000/svg">
<path d="M113.342 37.4016C113.342 37.4016 61.6664 55.9296 35.8936 84.48C10.1208 113.03 12.16 149.76 43.4774 177.024C74.7949 204.288 134.654 200.707 184.774 217.978C234.894 235.248 290.191 231.691 313.89 195.101C337.59 158.51 301.853 144.835 295.715 102.49C289.577 60.144 235.338 -1.86241 113.342 37.4016Z" fill="#92E3A9"/>
<path opacity="0.8" d="M113.342 37.4016C113.342 37.4016 61.6664 55.9296 35.8936 84.48C10.1208 113.03 12.16 149.76 43.4774 177.024C74.7949 204.288 134.654 200.707 184.774 217.978C234.894 235.248 290.191 231.691 313.89 195.101C337.59 158.51 301.853 144.835 295.715 102.49C289.577 60.144 235.338 -1.86241 113.342 37.4016Z" fill="white"/>
<path d="M269.001 36.48C265.81 35.2512 264.357 36.2736 263.191 35.2512C262.024 34.2288 266.389 31.5696 257.673 28.9152C257.673 28.9152 257.094 23.1888 245.179 22.9824C233.265 22.776 236.463 28.7232 233.244 30.1536C230.025 31.584 229.152 29.3376 225.981 30.768C222.809 32.1984 224.235 35.088 221.623 35.472C219.011 35.856 215.519 33.6288 212.327 35.064C209.135 36.4992 209.129 37.7184 207.676 37.7184C206.223 37.7184 203.318 36.9024 201.579 37.7184C199.84 38.5344 197.801 39.5616 197.801 39.5616H271.327C271.327 39.5616 272.2 37.7184 269.001 36.48Z" stroke="#263238" stroke-linecap="round" stroke-linejoin="round"/>
<path d="M225.524 35.6544C225.106 35.8186 224.673 35.963 224.228 36.0864" stroke="#263238" stroke-linecap="round" stroke-linejoin="round"/>
<path d="M241.251 26.1024C240.529 26.3293 239.896 26.6742 239.402 27.1083C238.909 27.5425 238.57 28.0534 238.413 28.5984C237.882 30.4704 236.64 31.7184 235.222 31.8432C233.803 31.968 228.484 31.5936 227.597 32.9664C227.361 33.3685 227.193 33.7891 227.099 34.2192" stroke="#263238" stroke-linecap="round" stroke-linejoin="round"/>
<path d="M231.737 51.192C230.059 50.5488 229.302 51.0864 228.688 50.5488C228.074 50.0112 230.366 48.6288 225.797 47.2272C225.797 47.2272 225.49 44.2224 219.249 44.1168C213.009 44.0112 214.68 47.1168 213.002 47.8704C211.325 48.624 210.868 47.4384 209.197 48.192C207.526 48.9456 208.283 50.4432 206.912 50.6544C205.541 50.8656 203.707 49.6944 202.036 50.4432C200.365 51.192 200.358 51.8352 199.594 51.8352C198.83 51.8352 197.309 51.408 196.396 51.8352C195.482 52.2624 194.418 52.7952 194.418 52.7952H232.958C232.958 52.7952 233.414 51.84 231.737 51.192Z" stroke="#263238" stroke-linecap="round" stroke-linejoin="round"/>
<path d="M208.938 50.7504C208.72 50.8389 208.491 50.9143 208.256 50.976" stroke="#263238" stroke-linecap="round" stroke-linejoin="round"/>
<path d="M217.183 45.744C216.807 45.8618 216.476 46.0407 216.218 46.266C215.959 46.4913 215.78 46.7566 215.696 47.04C215.416 48 214.769 48.6768 214.025 48.744C213.282 48.8112 210.492 48.6144 210.029 49.3344C209.904 49.5439 209.814 49.763 209.763 49.9872" stroke="#263238" stroke-linecap="round" stroke-linejoin="round"/>
<path d="M38.5875 96.72C38.5875 96.72 69.2775 98.856 84.8067 112.238C84.8067 112.238 101.229 96.7344 130.733 97.056C137.938 90.9358 142.526 83.501 143.961 75.6171C145.396 67.7333 143.619 59.7247 138.839 52.5238C134.058 45.3228 126.469 39.2258 116.956 34.9424C107.443 30.6591 96.3968 28.3657 85.1037 28.3292C73.8107 28.2928 62.7351 30.5147 53.1666 34.7364C43.5981 38.9581 35.9303 45.0059 31.0558 52.1757C26.1813 59.3454 24.3006 67.3422 25.6328 75.235C26.965 83.1278 31.4552 90.5919 38.5807 96.7584L38.5875 96.72Z" fill="#92E3A9"/>
<path opacity="0.5" d="M38.5875 96.72C38.5875 96.72 69.2775 98.856 84.8067 112.238C84.8067 112.238 101.229 96.7344 130.733 97.056C137.938 90.9358 142.526 83.501 143.961 75.6171C145.396 67.7333 143.619 59.7247 138.839 52.5238C134.058 45.3228 126.469 39.2258 116.956 34.9424C107.443 30.6591 96.3968 28.3657 85.1037 28.3292C73.8107 28.2928 62.7351 30.5147 53.1666 34.7364C43.5981 38.9581 35.9303 45.0059 31.0558 52.1757C26.1813 59.3454 24.3006 67.3422 25.6328 75.235C26.965 83.1278 31.4552 90.5919 38.5807 96.7584L38.5875 96.72Z" fill="white"/>
<path d="M83.7905 31.2768L82.7539 196.32H87.9371L83.7905 31.2768Z" fill="#263238"/>
<path d="M85.3455 108.158C85.3455 108.158 95.6982 95.0448 114.337 91.0368C114.337 91.0368 94.6616 94.3152 84.8271 105.61L85.3455 108.158Z" fill="#263238"/>
<path d="M85.3455 70.9968C85.3455 70.9968 95.6982 57.8784 114.337 53.8704C114.337 53.8704 94.6616 57.1488 84.8271 68.4432L85.3455 70.9968Z" fill="#263238"/>
<path d="M85.3455 89.5776C85.3455 89.5776 95.6982 76.4592 114.337 72.4512C114.337 72.4512 94.6616 75.7296 84.8271 87.0288L85.3455 89.5776Z" fill="#263238"/>
<path d="M83.8109 80.4672C83.8109 80.4672 73.8196 67.3488 55.8489 63.3408C55.8489 63.3408 74.8358 66.624 84.3224 77.9184L83.8109 80.4672Z" fill="#263238"/>
<path d="M83.8109 98.688C83.8109 98.688 73.8196 85.5696 55.8489 81.5616C55.8489 81.5616 74.8358 84.84 84.3224 96.1344L83.8109 98.688Z" fill="#263238"/>
<path d="M235.836 110.846C235.836 110.846 262.161 112.68 275.501 124.166C275.501 124.166 289.591 110.861 314.907 111.134C321.088 105.883 325.022 99.5036 326.252 92.7393C327.482 85.9751 325.957 79.1041 321.855 72.9262C317.752 66.7482 311.241 61.5175 303.078 57.8428C294.916 54.1682 285.439 52.2007 275.75 52.1696C266.061 52.1384 256.558 54.0448 248.349 57.6668C240.139 61.2888 233.56 66.4774 229.377 72.6287C225.195 78.78 223.58 85.6409 224.723 92.4127C225.865 99.1846 229.716 105.589 235.829 110.88L235.836 110.846Z" fill="#92E3A9"/>
<path opacity="0.5" d="M235.836 110.846C235.836 110.846 262.161 112.68 275.501 124.166C275.501 124.166 289.591 110.861 314.907 111.134C321.088 105.883 325.022 99.5036 326.252 92.7393C327.482 85.9751 325.957 79.1041 321.855 72.9262C317.752 66.7482 311.241 61.5175 303.078 57.8428C294.916 54.1682 285.439 52.2007 275.75 52.1696C266.061 52.1384 256.558 54.0448 248.349 57.6668C240.139 61.2888 233.56 66.4774 229.377 72.6287C225.195 78.78 223.58 85.6409 224.723 92.4127C225.865 99.1846 229.716 105.589 235.829 110.88L235.836 110.846Z" fill="white"/>
<path d="M274.628 54.6864L273.741 196.32H278.181L274.628 54.6864Z" fill="#263238"/>
<path d="M275.958 120.662C275.958 120.662 284.824 109.406 300.837 105.97C300.837 105.97 283.958 108.782 275.514 118.45L275.958 120.662Z" fill="#263238"/>
<path d="M275.958 88.7712C275.958 88.7712 284.824 77.5152 300.837 74.0736C300.837 74.0736 283.958 76.8864 275.514 86.5824L275.958 88.7712Z" fill="#263238"/>
<path d="M275.958 104.717C275.958 104.717 284.824 93.4608 300.837 90.0192C300.837 90.0192 283.958 92.8368 275.514 102.528L275.958 104.717Z" fill="#263238"/>
<path d="M274.641 96.9024C274.641 96.9024 266.069 85.6416 250.635 82.2048C250.635 82.2048 266.928 85.0176 275.071 94.7136L274.641 96.9024Z" fill="#263238"/>
<path d="M274.641 112.536C274.641 112.536 266.069 101.28 250.635 97.8384C250.635 97.8384 266.928 100.651 275.071 110.347L274.641 112.536Z" fill="#263238"/>
<path d="M174.346 196.91C174.442 195.408 174.156 192.562 171.837 188.27C168.202 181.55 161.839 194.99 161.839 194.99C161.839 194.99 161.839 193.392 155.019 188.27C148.199 183.149 142.286 192.11 142.286 192.11C142.286 192.11 145.471 170.674 137.737 172.272C130.003 173.87 130.917 192.11 130.917 192.11C130.917 192.11 125.461 178.67 118.191 178.67C110.92 178.67 109.093 188.27 109.093 188.27C109.093 188.27 107.279 171.312 100.002 170.99C92.7247 170.669 84.568 185.074 84.568 185.074C84.568 185.074 86.8459 165.874 79.5689 164.914C72.292 163.954 69.564 171.95 69.564 171.95C69.564 171.95 63.2009 145.392 50.9249 148.594C38.6489 151.795 49.104 181.234 49.104 181.234C49.104 181.234 36.828 160.752 26.8026 165.552C17.732 169.92 29.2783 192.787 31.4607 196.91H174.346Z" fill="#92E3A9"/>
<path d="M27.7096 197.554C27.7096 197.554 22.2536 185.39 24.9816 183.47C27.7096 181.55 39.556 189.874 39.556 189.874C39.556 189.874 30.9218 169.392 44.5618 166.834C58.2018 164.275 60.4456 186.672 60.4456 186.672C60.4456 186.672 70.4505 176.434 72.7216 180.274C74.103 182.611 74.8812 185.103 75.02 187.632C75.02 187.632 80.0258 159.792 91.388 161.074C102.75 162.355 92.3018 189.874 92.3018 189.874C92.3018 189.874 98.6649 180.274 105.942 181.234C113.219 182.194 115.94 188.27 115.94 188.27C115.94 188.27 119.125 182.832 121.396 182.832C123.667 182.832 126.402 192.432 126.402 192.432C126.402 192.432 129.13 177.71 134.129 178.354C139.128 178.997 149.563 191.472 149.563 191.472C149.563 191.472 147.742 184.43 153.198 184.114C158.654 183.797 161.839 194.99 161.839 194.99C161.839 194.99 169.109 184.43 173.658 186.35C178.207 188.27 175.956 198.514 175.956 198.514" stroke="#263238" stroke-linecap="round" stroke-linejoin="round"/>
<path d="M52.7186 197.554L48.1697 183.154" stroke="#263238" stroke-linecap="round" stroke-linejoin="round"/>
<path d="M80.4487 196.91L82.7266 187.954" stroke="#263238" stroke-linecap="round" stroke-linejoin="round"/>
<path d="M139.101 197.554L135.009 189.552" stroke="#263238" stroke-linecap="round" stroke-linejoin="round"/>
<path d="M102.73 197.232L107.729 190.834" stroke="#263238" stroke-linecap="round" stroke-linejoin="round"/>
<path d="M51.3545 191.472L54.9895 186.35" stroke="#263238" stroke-linecap="round" stroke-linejoin="round"/>
<path d="M80.4486 194.03L77.2705 189.552" stroke="#263238" stroke-linecap="round" stroke-linejoin="round"/>
<path d="M105.001 193.714L102.73 190.834" stroke="#263238" stroke-linecap="round" stroke-linejoin="round"/>
<path d="M137.287 193.392L138.651 190.19" stroke="#263238" stroke-linecap="round" stroke-linejoin="round"/>
<path d="M313.87 196.91C313.965 195.408 313.679 192.562 311.36 188.27C307.725 181.55 301.362 194.99 301.362 194.99C301.362 194.99 301.362 193.392 294.542 188.27C287.722 183.149 281.809 192.11 281.809 192.11C281.809 192.11 284.994 170.674 277.26 172.272C269.526 173.87 270.44 192.11 270.44 192.11C270.44 192.11 264.984 178.67 257.714 178.67C250.444 178.67 248.616 188.27 248.616 188.27C248.616 188.27 246.802 171.312 239.525 170.99C232.248 170.669 224.064 185.074 224.064 185.074C224.064 185.074 226.342 165.874 219.065 164.914C211.788 163.954 209.06 171.95 209.06 171.95C209.06 171.95 202.697 145.392 190.421 148.594C178.145 151.795 188.6 181.234 188.6 181.234C188.6 181.234 176.324 160.752 166.326 165.552C157.228 169.915 168.802 192.787 170.984 196.91H313.87Z" fill="#92E3A9"/>
<path d="M167.233 197.554C167.233 197.554 161.777 185.39 164.505 183.47C167.233 181.55 179.052 189.874 179.052 189.874C179.052 189.874 170.418 169.392 184.058 166.834C197.698 164.275 199.969 186.672 199.969 186.672C199.969 186.672 209.974 176.434 212.245 180.274C213.617 182.612 214.386 185.104 214.516 187.632C214.516 187.632 219.522 159.792 230.884 161.074C242.246 162.355 231.798 189.874 231.798 189.874C231.798 189.874 238.161 180.274 245.438 181.234C252.715 182.194 255.436 188.27 255.436 188.27C255.436 188.27 258.621 182.832 260.892 182.832C263.163 182.832 265.898 192.432 265.898 192.432C265.898 192.432 268.626 177.71 273.625 178.354C278.624 178.997 289.086 191.472 289.086 191.472C289.086 191.472 287.265 184.43 292.721 184.114C298.177 183.797 301.362 194.99 301.362 194.99C301.362 194.99 308.632 184.43 313.181 186.35C317.73 188.27 315.452 198.514 315.452 198.514" stroke="#263238" stroke-linecap="round" stroke-linejoin="round"/>
<path d="M192.242 197.554L187.693 183.154" stroke="#263238" stroke-linecap="round" stroke-linejoin="round"/>
<path d="M219.972 196.91L222.25 187.954" stroke="#263238" stroke-linecap="round" stroke-linejoin="round"/>
<path d="M278.624 197.554L274.532 189.552" stroke="#263238" stroke-linecap="round" stroke-linejoin="round"/>
<path d="M242.253 197.232L247.252 190.834" stroke="#263238" stroke-linecap="round" stroke-linejoin="round"/>
<path d="M190.878 191.472L194.513 186.35" stroke="#263238" stroke-linecap="round" stroke-linejoin="round"/>
<path d="M219.972 194.03L216.794 189.552" stroke="#263238" stroke-linecap="round" stroke-linejoin="round"/>
<path d="M244.524 193.714L242.253 190.834" stroke="#263238" stroke-linecap="round" stroke-linejoin="round"/>
<path d="M276.81 193.392L278.174 190.19" stroke="#263238" stroke-linecap="round" stroke-linejoin="round"/>
<path d="M165.31 161.194H157.733V198.514H165.31V161.194Z" fill="#CCCCCC" stroke="#263238" stroke-linecap="round" stroke-linejoin="round"/>
<path d="M171.803 161.194H164.226V198.514H171.803V161.194Z" fill="white" stroke="#263238" stroke-linecap="round" stroke-linejoin="round"/>
<path d="M246.468 161.194H238.891V198.514H246.468V161.194Z" fill="#CCCCCC" stroke="#263238" stroke-linecap="round" stroke-linejoin="round"/>
<path d="M252.961 161.194H245.384V198.514H252.961V161.194Z" fill="white" stroke="#263238" stroke-linecap="round" stroke-linejoin="round"/>
<path d="M293.001 161.194H285.424V198.514H293.001V161.194Z" fill="#CCCCCC" stroke="#263238" stroke-linecap="round" stroke-linejoin="round"/>
<path d="M299.493 161.194H291.916V198.514H299.493V161.194Z" fill="white" stroke="#263238" stroke-linecap="round" stroke-linejoin="round"/>
<path d="M283.262 161.194H275.685V198.514H283.262V161.194Z" fill="#CCCCCC" stroke="#263238" stroke-linecap="round" stroke-linejoin="round"/>
<path d="M289.754 161.194H282.177V198.514H289.754V161.194Z" fill="white" stroke="#263238" stroke-linecap="round" stroke-linejoin="round"/>
<path d="M316.264 161.194H308.687V198.514H316.264V161.194Z" fill="#CCCCCC" stroke="#263238" stroke-linecap="round" stroke-linejoin="round"/>
<path d="M322.756 161.194H315.179V198.514H322.756V161.194Z" fill="white" stroke="#263238" stroke-linecap="round" stroke-linejoin="round"/>
<path d="M252.66 78.7536C252.074 78.4307 251.347 78.2593 250.602 78.268C249.858 78.2768 249.14 78.4651 248.568 78.8016L202.813 105.638V111.586L250.71 83.4912L301.826 111.523V105.734L252.66 78.7536Z" fill="#B2B2B2" stroke="#263238" stroke-linecap="round" stroke-linejoin="round"/>
<path d="M299.364 163.315H205.439V107.002L250.662 80.5584L299.364 107.002V163.315Z" fill="white" stroke="#263238" stroke-linecap="round" stroke-linejoin="round"/>
<path d="M256.207 163.315H287.047V142.157L256.207 127.306V163.315Z" fill="#CCCCCC" stroke="#263238" stroke-linecap="round" stroke-linejoin="round"/>
<path d="M251.358 163.315H157.433V107.002L202.656 80.5584L251.358 107.002V163.315Z" fill="#CCCCCC" stroke="#263238" stroke-linecap="round" stroke-linejoin="round"/>
<path d="M176.433 95.6976H228.736" stroke="#263238" stroke-linecap="round" stroke-linejoin="round"/>
<path d="M157.194 109.027H298.47" stroke="#263238" stroke-linecap="round" stroke-linejoin="round"/>
<path d="M157.194 122.352H298.907" stroke="#263238" stroke-linecap="round" stroke-linejoin="round"/>
<path d="M157.194 135.682H256.207" stroke="#263238" stroke-linecap="round" stroke-linejoin="round"/>
<path d="M157.194 149.011H256.541" stroke="#263238" stroke-linecap="round" stroke-linejoin="round"/>
<path d="M203.113 80.0784H251.119L300.96 107.093H252.954L203.113 80.0784Z" fill="white" stroke="#263238" stroke-linecap="round" stroke-linejoin="round"/>
<path d="M217.476 86.9088H263.47" stroke="#263238" stroke-linecap="round" stroke-linejoin="round"/>
<path d="M230.332 93.7824H276.012" stroke="#263238" stroke-linecap="round" stroke-linejoin="round"/>
<path d="M243.181 100.651H288.718" stroke="#263238" stroke-linecap="round" stroke-linejoin="round"/>
<path d="M252.899 105.216L204.654 78.7536C204.068 78.4307 203.341 78.2593 202.596 78.268C201.852 78.2768 201.134 78.4651 200.562 78.8016L154.984 105.533V111.48L202.724 83.4912L252.899 111.01V105.216Z" fill="#B2B2B2" stroke="#263238" stroke-linecap="round" stroke-linejoin="round"/>
<path d="M327.039 144.84L291.957 129.058V120.83L327.039 136.613V144.84Z" fill="#B2B2B2" stroke="#263238" stroke-linecap="round" stroke-linejoin="round"/>
<path d="M285.424 163.315H324.918V142.157L285.424 127.306V163.315Z" fill="white" stroke="#263238" stroke-linecap="round" stroke-linejoin="round"/>
<path d="M289.782 142.176H326.569L294.078 127.306H256.207L289.782 142.176Z" fill="white" stroke="#263238" stroke-linecap="round" stroke-linejoin="round"/>
<path d="M289.434 144.84L254.359 129.058V120.83L289.434 136.613V144.84Z" fill="#B2B2B2" stroke="#263238" stroke-linecap="round" stroke-linejoin="round"/>
<path d="M218.335 132.47H186.411V163.315H218.335V132.47Z" fill="#263238" stroke="#263238" stroke-linecap="round" stroke-linejoin="round"/>
<path d="M218.335 102.384H186.411V133.229H218.335V102.384Z" fill="#CCCCCC" stroke="#263238" stroke-linecap="round" stroke-linejoin="round"/>
<path d="M218.335 106.656H186.411V110.928H218.335V106.656Z" fill="#B2B2B2" stroke="#263238" stroke-linecap="round" stroke-linejoin="round"/>
<path d="M186.377 163.315H218.84L196.184 198.514H163.721L186.377 163.315Z" fill="white" stroke="#263238" stroke-linecap="round" stroke-linejoin="round"/>
<path d="M183.083 168.427H215.546L213.589 171.475H181.125L183.083 168.427Z" fill="#CCCCCC" stroke="#263238" stroke-linecap="round" stroke-linejoin="round"/>
<path d="M176.467 178.709H208.931L206.966 181.757H174.503L176.467 178.709Z" fill="#CCCCCC" stroke="#263238" stroke-linecap="round" stroke-linejoin="round"/>
<path d="M169.845 188.99H202.308L200.351 192.038H167.888L169.845 188.99Z" fill="#CCCCCC" stroke="#263238" stroke-linecap="round" stroke-linejoin="round"/>
<path d="M134.354 225.6C192.736 225.6 240.064 221.087 240.064 215.52C240.064 209.953 192.736 205.44 134.354 205.44C75.972 205.44 28.644 209.953 28.644 215.52C28.644 221.087 75.972 225.6 134.354 225.6Z" fill="#92E3A9"/>
<path opacity="0.5" d="M134.354 225.6C192.736 225.6 240.064 221.087 240.064 215.52C240.064 209.953 192.736 205.44 134.354 205.44C75.972 205.44 28.644 209.953 28.644 215.52C28.644 221.087 75.972 225.6 134.354 225.6Z" fill="white"/>
<path d="M173.228 128.16C173.228 128.16 180.593 130.258 186.186 130.627C191.778 130.997 200.385 128.16 201.79 122.976C203.195 117.792 198.455 108.048 196.88 105.95C195.304 103.853 185.831 89.0448 180.573 85.8384C175.315 82.632 166.722 80.7744 164.969 80.2848C163.216 79.7952 164.444 84.48 164.096 87.4416C163.748 90.4032 163.741 105.456 163.741 105.456L162.514 125.198C162.514 125.198 168.986 126.917 173.228 128.16Z" fill="white"/>
<mask id="mask0_79_3711" style="mask-type:luminance" maskUnits="userSpaceOnUse" x="162" y="80" width="41" height="51">
<path d="M173.228 128.16C173.228 128.16 180.593 130.258 186.186 130.627C191.778 130.997 200.385 128.16 201.79 122.976C203.195 117.792 198.455 108.048 196.88 105.95C195.304 103.853 185.831 89.0448 180.573 85.8384C175.315 82.632 166.722 80.7744 164.969 80.2848C163.216 79.7952 164.444 84.48 164.096 87.4416C163.748 90.4032 163.741 105.456 163.741 105.456L162.514 125.198C162.514 125.198 168.986 126.917 173.228 128.16Z" fill="white"/>
</mask>
<g mask="url(#mask0_79_3711)">
<path d="M198.155 108.091C197.28 108.01 196.398 107.972 195.516 107.976C194.404 105.926 193.129 103.79 191.778 101.736C192.29 101.429 192.808 101.136 193.333 100.848L192.713 99.96C192.194 100.238 191.683 100.526 191.171 100.824C189.374 98.1015 187.323 95.4654 185.033 92.9328C185.374 92.2608 185.715 91.6416 185.974 91.0848C185.668 90.7248 185.367 90.3696 185.067 90.0288C184.781 90.5856 184.447 91.2288 184.085 91.9488C183.292 91.1162 182.378 90.344 181.357 89.6448C180.207 88.9095 178.985 88.2311 177.702 87.6144C178.111 86.5872 178.486 85.6768 178.827 84.8832C178.445 84.6912 178.05 84.504 177.647 84.3216C177.306 85.104 176.924 86.0208 176.508 87.0528C172.885 85.4395 168.99 84.1496 164.914 83.2128L164.512 84.1296C168.593 85.0885 172.488 86.4026 176.106 88.0416C175.574 89.4336 175.001 90.9936 174.449 92.6784C172.093 91.8194 169.562 91.2234 166.947 90.912L166.763 91.872C169.338 92.1708 171.831 92.754 174.149 93.6C173.562 95.4336 173.01 97.3968 172.525 99.4272C170.831 98.4494 169.062 97.5377 167.226 96.696L166.497 97.5072C168.505 98.4355 170.434 99.4469 172.273 100.536C171.83 102.528 171.468 104.568 171.236 106.613C169.595 105.722 167.86 104.92 166.046 104.213L165.405 105.058C167.415 105.857 169.326 106.772 171.12 107.794C170.998 109.205 170.93 110.616 170.957 111.998H172.321C172.321 110.875 172.321 109.733 172.423 108.581C173.589 109.306 174.67 110.095 175.656 110.942C175.424 111.624 175.226 112.272 175.056 112.862L175.894 112.978C174.53 114.346 173.692 115.277 173.562 115.421L174.715 115.93L175.24 115.363L175.281 115.387C175.281 115.387 175.581 115.2 176.065 114.907V115.013C177.593 115.288 179.066 115.696 180.45 116.227L179.086 116.669C166.885 120.571 163.782 121.114 163.755 121.118L164.062 122.054C164.185 122.054 167.226 121.517 179.645 117.542C180.414 117.299 181.137 117.059 181.814 116.822C184.097 117.848 185.874 119.345 186.902 121.109H186.813C185.509 121.241 184.226 121.46 182.98 121.762C179.025 122.846 166.919 123.643 166.797 123.653L166.926 124.613C167.431 124.579 179.345 123.797 183.478 122.664C184.64 122.385 185.837 122.182 187.052 122.059L187.338 122.021C187.634 122.815 187.781 123.633 187.775 124.454C187.776 125.003 187.738 125.551 187.659 126.096C187.195 126.187 186.738 126.269 186.295 126.331C183.274 126.73 176.004 127.195 170.984 127.488L173.228 128.16L173.801 128.318C178.472 128.03 183.969 127.651 186.561 127.31C186.868 127.267 187.182 127.219 187.488 127.166C187.206 128.377 186.602 129.54 185.708 130.594L186.206 130.627C186.546 130.651 186.888 130.662 187.229 130.661C188.111 129.476 188.688 128.19 188.934 126.864C192.358 126.092 195.329 124.555 197.398 122.486C197.473 122.654 197.548 122.827 197.603 123C198.276 124.751 198.034 126.615 196.921 128.251C197.687 127.843 198.395 127.384 199.035 126.878C199.466 125.526 199.438 124.122 198.953 122.779C198.79 122.302 198.58 121.834 198.325 121.378C198.81 120.677 199.163 119.935 199.376 119.17C199.853 117.403 198.421 113.448 196.088 108.965C196.973 108.969 197.856 109.024 198.728 109.128C198.496 108.754 198.319 108.413 198.155 108.091ZM194.097 108.024C192.917 108.093 191.748 108.228 190.598 108.427C189.841 107.342 188.832 105.931 187.693 104.414C188.668 103.714 189.678 103.032 190.708 102.379C191.928 104.251 193.081 106.171 194.097 108.024ZM186.936 113.659C185.197 113.075 183.393 112.594 181.541 112.219C182.408 111.85 183.342 111.485 184.331 111.134C184.363 111.179 184.391 111.226 184.413 111.274C184.399 111.218 184.399 111.161 184.413 111.106L184.815 110.966L185.047 111.202L184.672 111.6L185.163 111.816L185.558 111.542C185.777 111.389 185.92 111.288 185.558 110.722C186.96 110.268 188.408 109.888 189.889 109.584C190.312 110.194 190.605 110.626 190.728 110.813C190.653 111.058 190.176 112.061 186.936 113.659ZM191.86 111.466C193.161 112.065 194.154 112.943 194.692 113.97C195.229 114.996 195.284 116.118 194.847 117.168C194.806 117.283 194.759 117.384 194.711 117.49C192.844 116.138 190.685 115.004 188.314 114.13C190.557 112.978 191.492 112.075 191.86 111.466ZM182.387 107.064C182.121 106.771 181.835 106.469 181.528 106.138C180.948 105.521 180.324 104.925 179.659 104.352C180.396 102.662 181.18 100.944 181.957 99.288C183.321 100.819 184.726 102.566 186.002 104.237C184.726 105.168 183.519 106.123 182.387 107.064ZM186.691 105.144C187.679 106.464 188.559 107.688 189.248 108.672C187.754 108.988 186.293 109.377 184.876 109.838C184.488 109.358 183.935 108.744 183.178 107.918C184.276 107.002 185.456 106.08 186.691 105.149V105.144ZM182.258 108.696C182.878 109.382 183.321 109.891 183.622 110.261C181.597 110.988 179.652 111.82 177.804 112.752C179.025 111.586 180.532 110.179 182.258 108.701V108.696ZM184.488 94.08C186.558 96.4665 188.432 98.9345 190.101 101.472C189.043 102.13 188.007 102.816 187.004 103.526C185.593 101.688 184.031 99.7632 182.51 98.1312C183.199 96.6768 183.874 95.304 184.488 94.08ZM177.32 88.584C178.411 89.1242 179.454 89.7109 180.443 90.3408C181.623 91.158 182.669 92.0661 183.56 93.048C182.946 94.2768 182.264 95.6496 181.562 97.1136C180.731 96.2343 179.768 95.4201 178.691 94.6848C177.769 94.1033 176.771 93.5842 175.71 93.1344C176.235 91.4928 176.788 89.9568 177.32 88.584ZM175.39 94.1328C176.236 94.504 177.035 94.9264 177.777 95.3952C179.008 96.2655 180.095 97.2318 181.016 98.2752C180.212 99.9696 179.393 101.746 178.616 103.507C177.094 102.324 175.465 101.211 173.739 100.176C174.217 98.064 174.783 96.0336 175.383 94.1328H175.39ZM176.072 109.781C174.986 108.918 173.807 108.116 172.546 107.381C172.744 105.341 173.078 103.301 173.501 101.304C175.158 102.32 176.713 103.417 178.152 104.587C177.354 106.387 176.638 108.158 176.058 109.781H176.072ZM177.115 110.794L177.197 110.75L177.149 110.707C177.702 109.099 178.411 107.318 179.195 105.475C179.625 105.864 180.034 106.262 180.409 106.666C180.784 107.069 181.166 107.477 181.487 107.832C179.591 109.45 177.94 110.99 176.651 112.258C176.767 111.792 176.931 111.298 177.102 110.794H177.115ZM177.252 114.274C178.029 113.851 179.025 113.347 180.177 112.834L180.137 112.963C182.008 113.297 183.834 113.746 185.593 114.307C184.57 114.758 183.342 115.243 181.876 115.747C180.417 115.13 178.861 114.635 177.238 114.274H177.252ZM183.151 116.366C184.685 115.8 185.968 115.272 187.025 114.782C189.699 115.702 192.11 116.96 194.138 118.493C192.904 120.082 190.728 120.6 188.273 120.946C187.237 119.097 185.451 117.505 183.137 116.366H183.151ZM189.084 125.798C189.125 125.381 189.153 124.944 189.153 124.478C189.159 123.597 189 122.719 188.682 121.867C191.124 121.507 193.558 120.931 195.065 119.285C195.747 119.919 196.322 120.607 196.777 121.334C195.033 123.413 192.305 124.994 189.071 125.798H189.084ZM197.991 118.982C197.879 119.392 197.719 119.795 197.514 120.187C197.006 119.527 196.41 118.901 195.734 118.32C195.909 118.019 196.052 117.709 196.164 117.394C196.663 116.063 196.519 114.653 195.753 113.386C194.988 112.12 193.644 111.069 191.935 110.4C191.806 110.208 191.567 109.843 191.253 109.363C192.374 109.179 193.515 109.06 194.663 109.008C196.968 113.41 198.462 117.307 197.978 118.982H197.991Z" fill="#CCCCCC"/>
</g>
<path d="M173.228 128.16C173.228 128.16 180.593 130.258 186.186 130.627C191.778 130.997 200.385 128.16 201.79 122.976C203.195 117.792 198.455 108.048 196.88 105.95C195.304 103.853 185.831 89.0448 180.573 85.8384C175.315 82.632 166.722 80.7744 164.969 80.2848C163.216 79.7952 164.444 84.48 164.096 87.4416C163.748 90.4032 163.741 105.456 163.741 105.456L162.514 125.198C162.514 125.198 168.986 126.917 173.228 128.16Z" stroke="#263238" stroke-linecap="round" stroke-linejoin="round"/>
<path d="M182.135 112.234C182.135 112.234 190.38 107.789 196.689 113.837" stroke="#263238" stroke-linecap="round" stroke-linejoin="round"/>
<path d="M123.394 47.2224C123.04 47.6352 123.224 40.5696 126.068 37.1424C127.022 35.9952 135.752 33.8448 144.188 35.2224C152.625 36.6 156.239 39.5712 156.539 40.9488C156.839 42.3264 155.496 51.1488 155.496 51.1488C155.496 51.1488 141.924 45.6336 123.394 47.2224Z" fill="#92E3A9" stroke="#263238" stroke-linecap="round" stroke-linejoin="round"/>
<path d="M167.996 56.1646C168.655 51.65 156.205 47.0505 140.187 45.8915C124.17 44.7325 110.65 47.4527 109.99 51.9674C109.331 56.482 121.781 61.0815 137.799 62.2405C153.817 63.3996 167.336 60.6793 167.996 56.1646Z" fill="#A6A6A6" stroke="#263238" stroke-linecap="round" stroke-linejoin="round"/>
<path d="M106.617 77.9184C106.617 77.9184 95.4799 80.4816 90.249 83.52C85.018 86.5584 65.9288 99.0384 57.513 103.2C49.0971 107.362 45.919 114.24 50.2428 119.362C54.5667 124.483 62.969 125.76 68.425 124.8C73.881 123.84 80.701 118.238 86.839 115.68C92.977 113.122 97.751 108.48 97.751 108.48C97.751 108.48 100.936 92.3184 102.075 87.5184C103.214 82.7184 107.531 78.5616 107.531 78.5616C107.531 78.5616 107.531 77.4384 106.617 77.9184Z" fill="white"/>
<mask id="mask1_79_3711" style="mask-type:luminance" maskUnits="userSpaceOnUse" x="48" y="77" width="60" height="49">
<path d="M106.617 77.9184C106.617 77.9184 95.4799 80.4816 90.249 83.52C85.018 86.5584 65.9288 99.0384 57.513 103.2C49.0971 107.362 45.919 114.24 50.2428 119.362C54.5667 124.483 62.969 125.76 68.425 124.8C73.881 123.84 80.701 118.238 86.839 115.68C92.977 113.122 97.751 108.48 97.751 108.48C97.751 108.48 100.936 92.3184 102.075 87.5184C103.214 82.7184 107.531 78.5616 107.531 78.5616C107.531 78.5616 107.531 77.4384 106.617 77.9184Z" fill="white"/>
</mask>
<g mask="url(#mask1_79_3711)">
<path d="M95.5823 86.9328C95.9233 84.3024 96.2643 82.1664 96.5439 80.8128C96.0529 80.9808 95.5618 81.1584 95.0776 81.3408C94.8048 82.848 94.4502 85.0128 94.1296 87.5808C91.9314 88.6029 89.8618 89.7559 87.9439 91.0272C86.9209 91.7184 85.7615 92.4192 84.5339 93.12C84.3702 90.6144 84.2747 88.5744 84.2202 87.2304L82.8562 88.0608C82.9176 89.5008 83.0199 91.488 83.1835 93.8208C80.2509 95.3904 76.8955 96.9696 73.5264 98.5296C72.9058 97.128 72.3397 95.8992 71.8692 94.8816L70.7507 95.568C71.2144 96.5664 71.7532 97.7472 72.3397 99.0816L71.4941 99.4704C68.8956 100.666 66.3927 101.822 64.1421 102.931C63.4008 102.486 62.599 102.094 61.7483 101.76C61.4277 101.635 61.1208 101.53 60.8208 101.438C60.3911 101.674 59.9751 101.918 59.5727 102.115C60.1273 102.255 60.6636 102.428 61.1754 102.634C61.8162 102.894 62.4252 103.191 62.9963 103.522C61.53 104.266 60.1933 104.986 59.068 105.672C57.689 106.496 56.4631 107.44 55.4193 108.48C53.7365 108.376 52.0408 108.466 50.3998 108.749C50.1134 109.133 49.8542 109.522 49.6223 109.915C51.2177 109.56 52.8877 109.399 54.56 109.44C51.3273 113.41 51.832 118.08 56.1081 123.149C56.1685 123.22 56.2543 123.28 56.3571 123.321C56.46 123.362 56.5763 123.384 56.6947 123.384C56.8173 123.385 56.9381 123.362 57.0425 123.317C57.198 123.252 57.3105 123.146 57.3553 123.023C57.4001 122.899 57.3734 122.769 57.2812 122.659C53.1892 117.768 52.7936 113.304 56.1013 109.541C56.6512 109.597 57.1956 109.677 57.7313 109.781C59.7129 110.177 61.5661 110.84 63.1873 111.734C62.9963 111.965 62.8054 112.214 62.6417 112.43C59.0203 117.504 64.3058 120.672 64.3603 120.706C64.4293 120.746 64.5088 120.776 64.5945 120.795C64.6801 120.814 64.7702 120.821 64.8595 120.815C64.9489 120.809 65.0357 120.791 65.115 120.761C65.1944 120.732 65.2647 120.692 65.322 120.643C65.3794 120.595 65.4226 120.539 65.4493 120.478C65.4759 120.418 65.4854 120.355 65.4771 120.292C65.4689 120.229 65.4431 120.168 65.4013 120.112C65.3594 120.056 65.3024 120.007 65.2333 119.966C65.1856 119.938 60.7185 117.259 63.8693 112.862C63.9852 112.694 64.1285 112.526 64.2649 112.354C66.4407 113.753 68.3114 115.37 69.8163 117.154C69.6462 117.903 69.7447 118.67 70.1028 119.386C70.16 119.465 70.2477 119.533 70.3562 119.579C70.4647 119.626 70.5895 119.65 70.7166 119.65C70.8228 119.651 70.9279 119.634 71.0235 119.602C71.1456 119.557 71.2454 119.487 71.31 119.401C71.3745 119.315 71.4006 119.218 71.3849 119.122C72.0033 119.957 72.608 120.846 73.1991 121.79C73.2523 121.876 73.3401 121.949 73.4516 122C73.5631 122.052 73.6934 122.079 73.8265 122.078C73.9207 122.077 74.0136 122.063 74.0993 122.035C74.2632 121.984 74.3916 121.889 74.4567 121.771C74.5218 121.653 74.5184 121.522 74.4471 121.406C73.5026 119.865 72.4159 118.369 71.194 116.928C71.409 115.937 71.8032 114.969 72.367 114.048C73.7338 116.561 74.9018 119.125 75.8657 121.728C76.2544 121.517 76.6363 121.296 77.0251 121.07C75.9798 118.288 74.6883 115.555 73.1581 112.886C74.0932 111.672 75.2386 110.543 76.5681 109.526C77.7685 112.752 78.9006 116.15 79.8008 119.458L81.0011 118.757C80.06 115.397 78.8938 111.965 77.6798 108.72C78.2527 108.326 78.8665 107.938 79.528 107.558C81.0259 106.717 82.6026 105.947 84.2475 105.254C84.4316 106.79 84.6362 108.36 84.8681 109.934C82.9494 110.729 81.1648 111.674 79.5485 112.752C79.4215 112.842 79.3502 112.964 79.3502 113.09C79.3502 113.217 79.4215 113.339 79.5485 113.429C79.6119 113.474 79.6873 113.51 79.7704 113.534C79.8535 113.558 79.9427 113.571 80.0327 113.571C80.1227 113.571 80.2119 113.558 80.295 113.534C80.3781 113.51 80.4535 113.474 80.5169 113.429C81.8928 112.507 83.4066 111.692 85.0318 111C85.2909 112.718 85.591 114.442 85.9184 116.136C86.2253 115.992 86.539 115.853 86.8459 115.723L87.1801 115.574C86.8595 113.88 86.5731 112.162 86.3139 110.448C88.7045 109.476 91.1628 108.588 93.6795 107.789C93.8227 109.027 94.0137 110.246 94.2524 111.427C94.6821 111.106 95.0844 110.794 95.4527 110.506C95.2686 109.483 95.1117 108.437 94.9958 107.371C96.1552 107.011 97.2396 106.69 98.1739 106.411C98.2421 106.07 98.3171 105.706 98.399 105.307C97.4032 105.586 96.2097 105.931 94.8935 106.334C94.7503 104.736 94.6752 103.114 94.648 101.491C96.4143 100.939 98.058 100.459 99.422 100.051C99.4902 99.6864 99.5652 99.3216 99.6402 98.9472C98.2285 99.3408 96.503 99.8352 94.6139 100.416C94.6139 98.76 94.6616 97.1136 94.7503 95.5152C97.1782 94.4784 99.2446 93.6192 100.888 92.9424C100.977 92.5248 101.066 92.1168 101.147 91.7232C99.5447 92.3808 97.4169 93.2688 94.8321 94.3632C94.9821 92.16 95.1867 90.0432 95.4186 88.176C97.8365 87.0767 100.341 86.0751 102.921 85.176C103.118 84.7248 103.337 84.2928 103.569 83.8704C100.826 84.7832 98.1592 85.8056 95.5823 86.9328ZM83.2654 95.04C83.3609 96.3504 83.4768 97.7568 83.6132 99.2304C80.6124 100.57 77.898 101.842 75.4292 103.07C74.9109 101.818 74.4062 100.627 73.922 99.528C77.1683 98.0352 80.3873 96.5232 83.2654 95.04ZM72.2374 100.32C72.4148 100.243 72.5853 100.162 72.7558 100.08C73.2468 101.203 73.7583 102.408 74.2834 103.68C72.379 104.673 70.5573 105.742 68.8274 106.882C67.7823 105.713 66.5588 104.628 65.1787 103.646C67.3339 102.571 69.7481 101.458 72.2374 100.32ZM63.8966 110.88C62.1691 109.938 60.2013 109.237 58.0996 108.816C57.7177 108.744 57.3426 108.686 56.9743 108.634C57.8507 107.812 58.8524 107.06 59.9614 106.392C61.114 105.691 62.5053 104.952 64.0534 104.174C65.5026 105.183 66.7735 106.311 67.8385 107.534C66.3649 108.551 65.0439 109.673 63.8966 110.88ZM70.1505 115.738C68.7028 114.164 66.9593 112.735 64.9673 111.49C66.0152 110.371 67.2217 109.331 68.5683 108.384C69.7403 109.81 70.7747 111.29 71.6646 112.814C71.0075 113.753 70.4997 114.74 70.1505 115.757V115.738ZM72.483 111.749C71.6245 110.364 70.6498 109.016 69.564 107.712C71.1944 106.633 72.9089 105.619 74.6995 104.674C75.1837 105.869 75.6747 107.112 76.1589 108.394C74.746 109.411 73.5119 110.544 72.483 111.768V111.749ZM78.6619 106.752C78.1708 107.03 77.7139 107.314 77.2979 107.602C76.8273 106.378 76.3567 105.202 75.8861 104.035C78.2527 102.811 80.8784 101.568 83.7428 100.282C83.8564 101.526 83.9906 102.806 84.1452 104.122C82.2289 104.911 80.3964 105.796 78.6619 106.771V106.752ZM85.0249 99.696L86.6004 99C89.0692 97.9216 91.3289 96.944 93.3794 96.0672C93.3044 97.6176 93.2635 99.2064 93.2771 100.805C90.7469 101.611 88.0257 102.552 85.4205 103.589C85.25 102.274 85.1409 100.973 85.0249 99.7152V99.696ZM86.1571 109.334C85.9252 107.755 85.7274 106.186 85.5433 104.65C88.0735 103.627 90.7674 102.682 93.2908 101.87C93.2908 103.488 93.4067 105.106 93.5636 106.699C91.2039 107.467 88.5918 108.365 86.1571 109.354V109.334ZM93.4408 94.9344C91.197 95.8944 88.6668 96.9792 85.8843 98.1984L84.9226 98.6208C84.7862 97.0944 84.6771 95.6496 84.5816 94.3008C86.0799 93.4939 87.5185 92.6336 88.8919 91.7232C90.4826 90.6746 92.1833 89.7119 93.9796 88.8432C93.7614 90.72 93.5704 92.784 93.434 94.9392L93.4408 94.9344Z" fill="#CCCCCC"/>
</g>
<path d="M106.617 77.9184C106.617 77.9184 95.4799 80.4816 90.249 83.52C85.018 86.5584 65.9288 99.0384 57.513 103.2C49.0971 107.362 45.919 114.24 50.2428 119.362C54.5667 124.483 62.969 125.76 68.425 124.8C73.881 123.84 80.701 118.238 86.839 115.68C92.977 113.122 97.751 108.48 97.751 108.48C97.751 108.48 100.936 92.3184 102.075 87.5184C103.214 82.7184 107.531 78.5616 107.531 78.5616C107.531 78.5616 107.531 77.4384 106.617 77.9184Z" stroke="#263238" stroke-linecap="round" stroke-linejoin="round"/>
<path d="M56.3808 114.562C54.8828 114.483 53.3852 114.718 52.076 115.236C50.7669 115.754 49.7044 116.533 49.022 117.475C49.3327 118.133 49.742 118.765 50.2428 119.362C52.2262 121.715 55.3353 123.495 59.0133 124.382C62.3346 123.48 64.7898 121.805 64.7898 120.322C64.7898 118.402 63.6509 114.72 56.3808 114.562Z" fill="white" stroke="#263238" stroke-linecap="round" stroke-linejoin="round"/>
<path d="M102.3 205.07L94.2387 210.35C91.6198 212.064 89.1782 213.648 89.1782 214.834C89.1782 216.019 88.2439 217.603 89.5533 218.395C90.8628 219.187 96.8644 220.114 102.675 220.114C107.22 220.06 111.597 218.894 115.053 216.816C117.297 215.496 117.488 213.778 119.923 212.976C122.358 212.174 126.675 212.318 127.425 210.341C128.175 208.363 127.05 205.325 127.05 205.325L102.3 205.07Z" fill="#878787" stroke="#263238" stroke-linecap="round" stroke-linejoin="round"/>
<path d="M127.411 210.35C127.584 209.846 127.669 209.328 127.663 208.81C124.833 210.432 118.907 212.122 117.079 213.259C114.951 214.584 113.069 217.925 102.504 218.328C93.6385 218.669 89.9352 216.83 88.9531 216.216C88.7826 217.061 88.7008 217.891 89.5397 218.395C90.8559 219.187 96.8507 220.114 102.661 220.114C107.207 220.06 111.583 218.894 115.04 216.816C117.283 215.496 117.474 213.778 119.909 212.976C122.344 212.174 126.661 212.328 127.411 210.35Z" fill="#263238" stroke="#263238" stroke-linecap="round" stroke-linejoin="round"/>
<path d="M162.316 205.07L170.377 210.35C173.003 212.064 175.437 213.648 175.437 214.834C175.437 216.019 176.372 217.603 175.062 218.395C173.753 219.187 167.751 220.114 161.941 220.114C157.398 220.06 153.023 218.894 149.569 216.816C147.319 215.496 147.134 213.778 144.693 212.976C142.251 212.174 137.948 212.318 137.191 210.341C136.434 208.363 137.566 205.325 137.566 205.325L162.316 205.07Z" fill="#878787" stroke="#263238" stroke-linecap="round" stroke-linejoin="round"/>
<path d="M137.191 210.35C137.016 209.846 136.929 209.329 136.932 208.81C139.769 210.432 145.689 212.122 147.517 213.259C149.651 214.584 151.534 217.925 162.091 218.328C170.957 218.669 174.66 216.83 175.649 216.216C175.813 217.061 175.895 217.891 175.056 218.395C173.746 219.187 167.745 220.114 161.934 220.114C157.391 220.06 153.016 218.894 149.563 216.816C147.312 215.496 147.128 213.778 144.686 212.976C142.245 212.174 137.941 212.328 137.191 210.35Z" fill="#263238" stroke="#263238" stroke-linecap="round" stroke-linejoin="round"/>
<path d="M129.921 73.44C129.921 73.44 112.332 76.8864 107.558 77.8464C102.784 78.8064 100.254 85.92 99.5719 94.08C98.8899 102.24 95.4799 131.04 95.1389 132.24C94.7979 133.44 90.9173 144.48 91.9403 148.32C92.9633 152.16 102.641 198.24 102.641 198.24C102.641 198.24 99.9129 201.12 100.595 201.84C101.277 202.56 101.618 206.16 101.618 206.16C101.618 206.16 110.143 208.32 115.599 208.32C121.055 208.32 127.875 206.88 127.875 206.88C127.875 206.88 126.17 198 126.852 192.72C127.534 187.44 127.534 152.88 127.534 152.88L134.354 207.6C134.354 207.6 142.538 209.28 149.699 209.04C156.86 208.8 164.362 205.92 164.362 205.92C164.362 205.92 165.385 201.84 164.703 199.92C164.021 198 159.929 194.64 159.929 193.44C159.929 192.24 163.339 152.16 163.339 152.16C163.339 152.16 165.385 140.88 165.044 135.12C164.703 129.36 165.385 115.92 165.385 115.92C165.385 115.92 166.749 103.68 167.772 96.72C168.795 89.76 169.081 83.52 168.74 82.08C168.399 80.64 151.745 75.84 147.653 74.88C143.561 73.92 135.036 73.68 129.921 73.44Z" fill="white"/>
<mask id="mask2_79_3711" style="mask-type:luminance" maskUnits="userSpaceOnUse" x="91" y="73" width="78" height="137">
<path d="M129.921 73.44C129.921 73.44 112.332 76.8864 107.558 77.8464C102.784 78.8064 100.254 85.92 99.5719 94.08C98.8899 102.24 95.4799 131.04 95.1389 132.24C94.7979 133.44 90.9173 144.48 91.9403 148.32C92.9633 152.16 102.641 198.24 102.641 198.24C102.641 198.24 99.9129 201.12 100.595 201.84C101.277 202.56 101.618 206.16 101.618 206.16C101.618 206.16 110.143 208.32 115.599 208.32C121.055 208.32 127.875 206.88 127.875 206.88C127.875 206.88 126.17 198 126.852 192.72C127.534 187.44 127.534 152.88 127.534 152.88L134.354 207.6C134.354 207.6 142.538 209.28 149.699 209.04C156.86 208.8 164.362 205.92 164.362 205.92C164.362 205.92 165.385 201.84 164.703 199.92C164.021 198 159.929 194.64 159.929 193.44C159.929 192.24 163.339 152.16 163.339 152.16C163.339 152.16 165.385 140.88 165.044 135.12C164.703 129.36 165.385 115.92 165.385 115.92C165.385 115.92 166.749 103.68 167.772 96.72C168.795 89.76 169.081 83.52 168.74 82.08C168.399 80.64 151.745 75.84 147.653 74.88C143.561 73.92 135.036 73.68 129.921 73.44Z" fill="white"/>
</mask>
<g mask="url(#mask2_79_3711)">
<path d="M167.499 98.6352C166.203 98.232 164.873 97.8576 163.496 97.512L163.98 91.9776C165.112 92.3376 166.94 92.8464 168.072 93.2544L168.004 92.2944C166.713 91.8176 165.408 91.376 164.089 90.9696L164.642 84.6864C166.006 85.1376 167.301 85.6176 168.59 86.1264L168.863 85.7904C168.863 85.5696 168.863 85.3536 168.863 85.1472C167.499 84.6096 166.117 84.1104 164.717 83.6496L165.044 80.16C164.621 80.0016 164.185 79.8432 163.721 79.68L163.407 83.2416C161.511 82.656 159.581 82.1376 157.624 81.6768L158.415 77.9376L157.126 77.5392L156.307 81.3792C152.808 80.6075 149.241 79.9998 145.627 79.56L146.487 74.6736C146.071 74.6016 145.621 74.5296 145.123 74.4672L144.257 79.3968C140.468 78.9727 136.65 78.6907 132.819 78.552L133.501 73.6272L132.137 73.5696L131.455 78.504C127.738 78.3984 124.138 78.4128 120.741 78.504C120.864 77.256 120.973 76.1424 121.069 75.2016L119.67 75.4752C119.582 76.3728 119.479 77.3952 119.37 78.5472C115.722 78.6768 112.325 78.8976 109.29 79.152C109.44 78.5472 109.584 77.976 109.72 77.4384L108.261 77.7264C108.138 78.2064 108.008 78.7296 107.879 79.272C106.658 79.3824 105.512 79.4976 104.435 79.6176C104.1 79.9436 103.797 80.2852 103.527 80.64C104.789 80.5008 106.167 80.352 107.619 80.2176C107.149 82.224 106.671 84.5376 106.255 87.1056C104.025 87.3456 102.102 87.5856 100.533 87.8016C100.452 88.1216 100.377 88.4576 100.308 88.8096C101.85 88.5936 103.8 88.3296 106.085 88.0944C105.812 89.736 105.553 91.4784 105.321 93.312C103.118 93.3888 101.229 93.4752 99.6196 93.552C99.6196 93.7248 99.6196 93.8928 99.5719 94.0608C99.5241 94.2288 99.5719 94.3632 99.531 94.5408C101.093 94.4592 103.002 94.3728 105.198 94.296C104.07 103.599 103.947 112.949 104.83 122.266L106.194 122.198C105.313 112.888 105.443 103.544 106.583 94.248C109.877 94.1472 113.717 94.0752 117.89 94.08C117.147 102.13 116.404 110.621 116.022 116.304L117.386 116.352C117.768 110.659 118.511 102.149 119.261 94.08C122.433 94.08 125.781 94.1568 129.218 94.2864L126.586 112.8L127.95 112.896L130.582 94.3584C134.17 94.5072 137.839 94.7328 141.494 95.0496L139.019 109.07L140.383 109.19L142.858 95.1744C146.323 95.5008 149.767 95.9136 153.088 96.4368L149.583 112.997L150.947 113.136L154.446 96.6528C157.078 97.0944 159.636 97.6128 162.084 98.1936L160.474 116.534L161.838 116.597L163.428 98.5248C164.792 98.8736 166.11 99.2528 167.383 99.6624C167.41 99.2976 167.451 98.9616 167.499 98.6352ZM145.436 80.4768C149.041 80.9211 152.6 81.5336 156.089 82.3104L154.725 88.5792C151.288 87.888 147.794 87.3446 144.263 86.952L145.436 80.4768ZM117.986 93.12C113.832 93.12 110.006 93.1872 106.706 93.288C106.944 91.416 107.217 89.64 107.497 87.9648C110.688 87.6432 114.433 87.3456 118.552 87.1632C118.354 89.0784 118.163 91.08 117.986 93.12ZM118.668 86.2032C114.576 86.3808 110.879 86.6832 107.694 86.9808C108.151 84.408 108.636 82.104 109.106 80.1072C112.162 79.848 115.606 79.6272 119.336 79.4832C119.084 81.4752 118.866 83.7552 118.627 86.2032H118.668ZM166.19 108.96C142.872 101.194 110.552 101.592 98.7739 102.048C98.7376 102.368 98.7035 102.688 98.6716 103.008C110.266 102.528 142.886 102.096 166.067 109.973C166.108 109.661 166.149 109.32 166.19 108.96ZM129.362 93.3216C125.904 93.192 122.542 93.1296 119.357 93.1104C119.548 91.0464 119.739 89.0256 119.923 87.0912C123.183 86.9712 126.654 86.9232 130.262 86.9952L129.362 93.3216ZM130.398 86.04C126.777 85.968 123.292 86.016 120.018 86.1312C120.25 83.688 120.468 81.408 120.666 79.4112C124.076 79.3152 127.636 79.296 131.339 79.4112L130.398 86.04ZM141.658 94.08C137.989 93.7584 134.306 93.5328 130.712 93.384L131.626 87.0384C135.363 87.1388 139.089 87.3775 142.79 87.7536L141.658 94.08ZM131.749 86.0832L132.69 79.464C136.509 79.6024 140.316 79.8844 144.093 80.3088L142.947 86.8032C139.234 86.4295 135.496 86.1908 131.749 86.088V86.0832ZM153.293 95.4672C149.944 94.944 146.473 94.5072 143.015 94.2048L144.127 87.8976C147.648 88.2884 151.131 88.8351 154.555 89.5344L153.293 95.4672ZM162.159 97.1808C159.738 96.6096 157.221 96.1104 154.657 95.6832L155.905 89.8128C158.203 90.3138 160.464 90.8969 162.677 91.56L162.159 97.1808ZM162.739 90.5472C160.552 89.9072 158.331 89.3424 156.076 88.8528L157.399 82.6128C159.399 83.0896 161.366 83.632 163.298 84.24L162.739 90.5472Z" fill="#CCCCCC"/>
</g>
<path d="M129.921 73.44C129.921 73.44 112.332 76.8864 107.558 77.8464C102.784 78.8064 100.254 85.92 99.5719 94.08C98.8899 102.24 95.4799 131.04 95.1389 132.24C94.7979 133.44 90.9173 144.48 91.9403 148.32C92.9633 152.16 102.641 198.24 102.641 198.24C102.641 198.24 99.9129 201.12 100.595 201.84C101.277 202.56 101.618 206.16 101.618 206.16C101.618 206.16 110.143 208.32 115.599 208.32C121.055 208.32 127.875 206.88 127.875 206.88C127.875 206.88 126.17 198 126.852 192.72C127.534 187.44 127.534 152.88 127.534 152.88L134.354 207.6C134.354 207.6 142.538 209.28 149.699 209.04C156.86 208.8 164.362 205.92 164.362 205.92C164.362 205.92 165.385 201.84 164.703 199.92C164.021 198 159.929 194.64 159.929 193.44C159.929 192.24 163.339 152.16 163.339 152.16C163.339 152.16 165.385 140.88 165.044 135.12C164.703 129.36 165.385 115.92 165.385 115.92C165.385 115.92 166.749 103.68 167.772 96.72C168.795 89.76 169.081 83.52 168.74 82.08C168.399 80.64 151.745 75.84 147.653 74.88C143.561 73.92 135.036 73.68 129.921 73.44Z" stroke="#263238" stroke-linecap="round" stroke-linejoin="round"/>
<path d="M131.544 81.6528L128.666 101.122" stroke="#263238" stroke-linecap="round" stroke-linejoin="round"/>
<path d="M127.534 152.88L134.354 207.6C134.354 207.6 142.538 209.28 149.699 209.04C156.86 208.8 164.362 205.92 164.362 205.92C164.362 205.92 165.385 201.84 164.703 199.92C164.021 198 159.929 194.64 159.929 193.44C159.929 192.24 163.339 152.16 163.339 152.16C163.339 152.16 165.385 140.88 165.044 135.12C165.003 134.482 164.982 133.742 164.969 132.946C164.287 131.405 161.15 124.306 158.688 116.846C155.905 108.413 152.972 100.291 152.972 100.291L111.37 97.8912C109.447 97.5888 109.236 99.096 109.236 99.096L96.4961 121.656C95.8141 127.416 95.2344 131.827 95.1321 132.283C94.7979 133.44 90.9173 144.48 91.9403 148.32C92.9633 152.16 102.641 198.24 102.641 198.24C102.641 198.24 99.9129 201.12 100.595 201.84C101.277 202.56 101.618 206.16 101.618 206.16C101.618 206.16 110.143 208.32 115.599 208.32C121.055 208.32 127.875 206.88 127.875 206.88C127.875 206.88 126.17 198 126.852 192.72C127.534 187.44 127.534 152.88 127.534 152.88Z" fill="#92E3A9" stroke="#263238" stroke-linecap="round" stroke-linejoin="round"/>
<path d="M115.687 103.594L143.902 105.552L143.52 117.888C143.504 118.411 143.326 118.924 142.997 119.393C142.668 119.862 142.197 120.274 141.617 120.6L129.191 127.594C128.428 128.023 127.459 128.229 126.486 128.169C125.513 128.108 124.61 127.785 123.967 127.267L113.437 118.766C112.93 118.356 112.563 117.869 112.363 117.343C112.163 116.818 112.136 116.267 112.284 115.733L115.687 103.594Z" stroke="#263238" stroke-linecap="round" stroke-linejoin="round"/>
<path d="M118.041 134.765C118.041 134.765 126.17 136.57 137.082 135.062" stroke="#263238" stroke-linecap="round" stroke-linejoin="round"/>
<path d="M125.099 137.021L124.888 149.218L125.365 148.925C126.296 148.351 127.052 147.651 127.589 146.867C128.125 146.082 128.432 145.23 128.489 144.36L128.952 137.472" stroke="#263238" stroke-linecap="round" stroke-linejoin="round"/>
<path d="M118.893 151.027L131.087 153.283" stroke="#263238" stroke-linecap="round" stroke-linejoin="round"/>
<path d="M124.601 71.4C124.601 71.4 121.437 74.5824 121.287 77.7648C121.137 80.9472 119.329 84.9648 121.287 85.1856C123.244 85.4064 130.153 81.048 132.287 81.3696C134.422 81.6912 140.267 86.7744 141.624 86.6496C142.981 86.5248 145.546 82.5168 145.546 77.9568C145.546 73.3968 145.089 72.4416 141.454 70.9584C137.818 69.4752 129.423 67.9008 124.601 71.4Z" fill="white" stroke="#263238" stroke-linecap="round" stroke-linejoin="round"/>
<path d="M127.009 73.3104C127.009 73.3104 128.066 79.992 131.38 81.1536C134.695 82.3152 141.174 75.0048 141.924 74.688C142.674 74.3712 133.672 75.3264 127.009 73.3104Z" fill="#CCCCCC" stroke="#263238" stroke-linecap="round" stroke-linejoin="round"/>
<path d="M153.17 62.616C153.17 62.616 155.939 60.2688 157.262 61.656C158.585 63.0432 157.112 65.6832 155.455 67.0608C154.556 67.8593 153.263 68.3905 151.833 68.5488L153.17 62.616Z" fill="white" stroke="#263238" stroke-linecap="round" stroke-linejoin="round"/>
<path d="M122.037 60.2688C122.037 60.2688 119.029 57.72 117.945 59.9472C116.861 62.1744 120.509 66.1008 120.959 66.1008H121.41L122.037 60.2688Z" fill="white" stroke="#263238" stroke-linecap="round" stroke-linejoin="round"/>
<path d="M123.033 52.6272C123.033 52.6272 120.605 66.504 122.269 69.9072C123.933 73.3104 130.453 76.5264 136.53 76.3104C142.606 76.0944 148.212 73.9632 150.17 72.4704C152.127 70.9776 154.718 53.5728 154.718 53.5728C154.718 53.5728 148.199 51.1152 137.88 50.3712C127.561 49.6272 123.033 52.6272 123.033 52.6272Z" fill="white" stroke="#263238" stroke-linecap="round" stroke-linejoin="round"/>
<path d="M144.12 59.5776C144.121 59.6274 144.102 59.6763 144.063 59.7181C144.025 59.7598 143.969 59.7926 143.904 59.812C143.839 59.8315 143.767 59.8369 143.698 59.8274C143.629 59.8179 143.565 59.7941 143.515 59.7589C143.465 59.7237 143.431 59.6788 143.417 59.6299C143.404 59.581 143.412 59.5305 143.439 59.4847C143.467 59.4389 143.513 59.3999 143.573 59.3729C143.632 59.3458 143.702 59.3319 143.772 59.3328C143.865 59.3328 143.953 59.3586 144.018 59.4045C144.083 59.4504 144.12 59.5127 144.12 59.5776Z" fill="white" stroke="#263238" stroke-width="0.5" stroke-linecap="round" stroke-linejoin="round"/>
<path d="M148.301 59.1648C148.302 59.2146 148.282 59.2635 148.244 59.3053C148.205 59.347 148.15 59.3798 148.085 59.3993C148.02 59.4187 147.948 59.4241 147.879 59.4146C147.809 59.4051 147.745 59.3813 147.695 59.3461C147.645 59.3109 147.612 59.266 147.598 59.2171C147.585 59.1682 147.592 59.1177 147.62 59.0719C147.648 59.0261 147.694 58.9871 147.753 58.9601C147.813 58.933 147.882 58.9191 147.953 58.92C148.045 58.92 148.134 58.9458 148.199 58.9917C148.264 59.0376 148.301 59.0999 148.301 59.1648Z" fill="white" stroke="#263238" stroke-width="0.5" stroke-linecap="round" stroke-linejoin="round"/>
<path d="M147.871 60.816C147.886 60.8532 147.889 60.8923 147.879 60.9302C147.869 60.9682 147.846 61.0041 147.813 61.0349C147.78 61.0657 147.737 61.0908 147.688 61.108C147.639 61.1252 147.585 61.1342 147.53 61.1342C147.475 61.1342 147.421 61.1252 147.372 61.108C147.323 61.0908 147.28 61.0657 147.247 61.0349C147.214 61.0041 147.192 60.9682 147.182 60.9302C147.171 60.8923 147.174 60.8532 147.189 60.816C147.174 60.7789 147.171 60.7398 147.182 60.7018C147.192 60.6638 147.214 60.628 147.247 60.5972C147.28 60.5663 147.323 60.5413 147.372 60.5241C147.421 60.5068 147.475 60.4979 147.53 60.4979C147.585 60.4979 147.639 60.5068 147.688 60.5241C147.737 60.5413 147.78 60.5663 147.813 60.5972C147.846 60.628 147.869 60.6638 147.879 60.7018C147.889 60.7398 147.886 60.7789 147.871 60.816Z" fill="white" stroke="#263238" stroke-width="0.5" stroke-linecap="round" stroke-linejoin="round"/>
<path d="M130.364 58.2288C130.363 58.2786 130.383 58.3275 130.421 58.3692C130.459 58.411 130.515 58.4437 130.58 58.4632C130.645 58.4827 130.717 58.4881 130.786 58.4786C130.856 58.4691 130.919 58.4452 130.969 58.41C131.019 58.3748 131.053 58.3299 131.067 58.2811C131.08 58.2322 131.073 58.1816 131.045 58.1358C131.017 58.09 130.971 58.0511 130.911 58.0241C130.852 57.997 130.783 57.983 130.712 57.984C130.62 57.984 130.531 58.0098 130.466 58.0557C130.401 58.1016 130.364 58.1639 130.364 58.2288Z" fill="white" stroke="#263238" stroke-width="0.5" stroke-linecap="round" stroke-linejoin="round"/>
<path d="M126.17 57.816C126.169 57.8658 126.188 57.9147 126.227 57.9565C126.265 57.9982 126.321 58.031 126.386 58.0504C126.451 58.0699 126.523 58.0753 126.592 58.0658C126.662 58.0563 126.725 58.0325 126.775 57.9973C126.825 57.9621 126.859 57.9172 126.873 57.8683C126.886 57.8194 126.879 57.7689 126.851 57.7231C126.823 57.6773 126.777 57.6383 126.717 57.6113C126.658 57.5842 126.589 57.5703 126.518 57.5712C126.426 57.5712 126.337 57.597 126.272 57.6429C126.207 57.6888 126.17 57.7511 126.17 57.816Z" fill="white" stroke="#263238" stroke-width="0.5" stroke-linecap="round" stroke-linejoin="round"/>
<path d="M126.613 59.4672C126.612 59.517 126.632 59.5659 126.67 59.6076C126.708 59.6494 126.764 59.6821 126.829 59.7016C126.894 59.7211 126.966 59.7265 127.035 59.717C127.105 59.7075 127.168 59.6836 127.218 59.6484C127.268 59.6133 127.302 59.5683 127.316 59.5195C127.329 59.4706 127.322 59.42 127.294 59.3742C127.266 59.3284 127.22 59.2895 127.16 59.2625C127.101 59.2354 127.032 59.2214 126.961 59.2224C126.869 59.2224 126.78 59.2482 126.715 59.2941C126.65 59.34 126.613 59.4023 126.613 59.4672Z" fill="white" stroke="#263238" stroke-width="0.5" stroke-linecap="round" stroke-linejoin="round"/>
<path d="M153.736 53.3328C152.813 54.5041 152.381 55.8355 152.488 57.1728C152.728 58.5447 153.092 59.9043 153.58 61.2432L153.17 62.6016L154.732 53.5728L153.736 53.3328Z" fill="#263238" stroke="#263238" stroke-linecap="round" stroke-linejoin="round"/>
<path d="M124.342 52.2336C124.511 53.4772 124.511 54.7292 124.342 55.9728C123.992 56.972 123.354 57.9098 122.467 58.728L122.037 60.2688L123.033 52.6272L124.342 52.2336Z" fill="#263238" stroke="#263238" stroke-linecap="round" stroke-linejoin="round"/>
<path d="M134.995 56.5536C134.995 56.5536 133.038 61.6464 133.338 62.1744C133.638 62.7024 136.202 63.1344 138.309 62.9184C140.417 62.7024 139.81 56.448 139.81 56.448" stroke="#263238" stroke-linecap="round" stroke-linejoin="round"/>
<path d="M143.581 57.192C143.581 57.192 145.696 56.1312 148.553 57.5088" stroke="#263238" stroke-linecap="round" stroke-linejoin="round"/>
<path d="M127.616 56.2368C128.226 55.9306 128.969 55.7841 129.716 55.8226C130.463 55.8612 131.168 56.0824 131.708 56.448" stroke="#263238" stroke-linecap="round" stroke-linejoin="round"/>
<path d="M133.945 52.32C133.945 52.32 128.666 51.8928 126.108 53.4864" stroke="#263238" stroke-width="3" stroke-linecap="round" stroke-linejoin="round"/>
<path d="M142.538 53.4816C142.538 53.4816 147.51 52.632 150.374 55.4016" stroke="#263238" stroke-width="3" stroke-linecap="round" stroke-linejoin="round"/>
<path d="M151.404 64.5072C150.354 65.8848 147.639 67.3872 147.639 67.3872C147.639 67.3872 147.789 63.5472 145.832 63.3552C143.875 63.1632 136.789 63.4608 133.324 62.616C133.324 62.616 126.395 61.872 126.095 62.9328C125.795 63.9936 125.038 66.5376 125.038 66.5376C125.038 66.5376 124.438 66.7488 123.38 64.8432C122.702 63.5314 122.217 62.1738 121.935 60.792C121.594 64.4688 121.478 68.3424 122.255 69.912C123.926 73.3296 130.439 76.5312 136.516 76.3152C142.592 76.0992 148.198 73.968 150.156 72.4752C151.131 71.736 152.256 67.0992 153.143 62.6064C152.492 63.2062 151.91 63.8419 151.404 64.5072ZM142.817 69.2784C141.631 69.7584 139.51 69.8784 137.232 69.7872C136.488 68.0112 136.182 68.2176 134.231 68.2176C132.928 68.2176 132.826 68.9184 132.867 69.3888C131.462 69.2141 130.09 68.9291 128.775 68.5392C125.911 67.5792 128.318 65.04 128.318 65.04C132.69 66.2064 143.384 65.7792 143.384 65.7792C143.384 65.7792 145.695 68.112 142.831 69.2784H142.817Z" fill="#263238" stroke="#263238" stroke-linecap="round" stroke-linejoin="round"/>
<path d="M109.27 99.0768C109.27 99.0768 109.911 102.84 111.193 102.994C112.475 103.147 113.764 98.7744 113.764 98.7744C113.764 98.7744 110.341 99.0768 109.27 99.0768Z" stroke="#263238" stroke-linecap="round" stroke-linejoin="round"/>
<path d="M148.478 100.032C148.478 100.032 148.171 103.819 149.399 104.126C150.626 104.434 152.973 100.286 152.973 100.286C152.973 100.286 149.528 100.166 148.478 100.032Z" stroke="#263238" stroke-linecap="round" stroke-linejoin="round"/>
<path d="M111.166 76.4928C111.166 76.4928 108.438 95.4624 108.438 97.7232C108.438 99.984 113.144 101.184 114.433 97.4208C115.722 93.6576 118.279 75.7392 118.279 75.7392C118.279 75.7392 114.187 75.4368 111.166 76.4928Z" fill="#92E3A9" stroke="#263238" stroke-linecap="round" stroke-linejoin="round"/>
<path d="M152.911 76.1904C152.911 76.1904 146.705 99.2304 147.994 100.282C149.283 101.333 151.84 102.84 154.193 99.6816C156.546 96.5232 160.829 77.9952 160.829 77.9952C160.829 77.9952 156.546 76.32 152.911 76.1904Z" fill="#92E3A9" stroke="#263238" stroke-linecap="round" stroke-linejoin="round"/>
<path d="M112.905 101.712C112.905 101.902 112.825 102.087 112.675 102.245C112.525 102.403 112.312 102.526 112.063 102.599C111.814 102.672 111.539 102.691 111.275 102.654C111.01 102.617 110.767 102.525 110.577 102.391C110.386 102.257 110.256 102.086 110.203 101.899C110.151 101.713 110.178 101.52 110.281 101.345C110.384 101.169 110.559 101.019 110.783 100.914C111.008 100.808 111.271 100.752 111.541 100.752C111.903 100.752 112.25 100.853 112.506 101.033C112.761 101.213 112.905 101.457 112.905 101.712Z" fill="white" stroke="#263238" stroke-linecap="round" stroke-linejoin="round"/>
<path d="M151.199 103.2C151.199 103.39 151.119 103.575 150.969 103.733C150.819 103.891 150.606 104.014 150.357 104.087C150.108 104.16 149.834 104.179 149.569 104.142C149.304 104.104 149.061 104.013 148.871 103.879C148.68 103.745 148.55 103.573 148.497 103.387C148.445 103.201 148.472 103.008 148.575 102.833C148.678 102.657 148.853 102.507 149.077 102.402C149.302 102.296 149.565 102.24 149.835 102.24C150.197 102.24 150.544 102.341 150.8 102.521C151.055 102.701 151.199 102.945 151.199 103.2Z" fill="white" stroke="#263238" stroke-linecap="round" stroke-linejoin="round"/>
<path d="M178.807 119.146C178.807 119.146 184.065 120.379 183.015 124.694C181.964 129.01 177.927 129.014 176.877 128.89C175.644 128.69 174.426 128.446 173.228 128.16C173.228 128.16 175.861 125.818 174.633 123.226C173.405 120.634 173.549 118.896 178.807 119.146Z" fill="white" stroke="#263238" stroke-linecap="round" stroke-linejoin="round"/>
<path d="M152.686 125.808C153.22 127.325 154.378 128.697 156.014 129.754C158.647 131.362 163.55 131.606 163.55 131.606C162.683 133.204 161.304 134.64 159.52 135.802C156.717 137.53 153.559 139.997 152.7 141.6C151.84 143.203 153.382 142.714 154.453 141.725C155.523 140.736 156.908 139.133 156.908 139.133C156.908 139.133 155.503 142.464 156.908 141.85C158.313 141.235 159.186 138.638 159.186 138.638C159.186 138.638 159.186 141.85 160.236 141.11C161.286 140.371 161.116 138.024 161.116 137.654C161.116 137.285 163.039 136.91 164.096 136.171C165.153 135.432 160.761 136.171 160.761 136.171C160.761 136.171 167.076 133.09 168.127 131.976C169.177 130.862 166.544 128.89 165.849 128.275C165.153 127.661 152.686 125.808 152.686 125.808Z" fill="#CFCFCF" stroke="#263238" stroke-linecap="round" stroke-linejoin="round"/>
<path d="M163.55 131.606C162.683 133.204 161.304 134.64 159.52 135.802C156.717 137.53 153.559 139.997 152.7 141.6C151.84 143.203 153.382 142.714 154.453 141.725C155.523 140.736 156.908 139.133 156.908 139.133C156.908 139.133 155.503 142.464 156.908 141.85C158.313 141.235 159.186 138.638 159.186 138.638C159.186 138.638 159.186 141.85 160.236 141.11C161.286 140.371 161.116 138.024 161.116 137.654C161.116 137.285 163.039 136.91 164.096 136.171C165.153 135.432 160.761 136.171 160.761 136.171C160.761 136.171 167.076 133.09 168.127 131.976C168.563 131.496 168.359 130.896 167.922 130.291C165.228 129.806 163.55 131.606 163.55 131.606Z" fill="white" stroke="#263238" stroke-linecap="round" stroke-linejoin="round"/>
<path d="M152.011 121.325C152.549 122.842 153.709 124.214 155.346 125.27C157.972 126.874 162.882 127.123 162.882 127.123C162.012 128.72 160.633 130.155 158.851 131.318C156.048 133.046 152.891 135.514 152.031 137.117C151.172 138.72 152.713 138.23 153.784 137.242C154.855 136.253 156.239 134.65 156.239 134.65C156.239 134.65 154.841 137.981 156.239 137.366C157.637 136.752 158.517 134.155 158.517 134.155C158.517 134.155 158.517 137.366 159.574 136.622C160.631 135.878 160.447 133.541 160.447 133.171C160.447 132.802 162.377 132.427 163.428 131.688C164.478 130.949 160.099 131.688 160.099 131.688C160.099 131.688 166.408 128.602 167.465 127.493C168.522 126.384 165.883 124.406 165.18 123.792C164.478 123.178 152.011 121.325 152.011 121.325Z" fill="white" stroke="#263238" stroke-linecap="round" stroke-linejoin="round"/>
<path d="M162.882 127.123C162.012 128.72 160.633 130.155 158.851 131.318C156.048 133.046 152.891 135.514 152.031 137.117C151.172 138.72 152.713 138.23 153.784 137.242C154.855 136.253 156.239 134.65 156.239 134.65C156.239 134.65 154.841 137.981 156.239 137.366C157.637 136.752 158.517 134.155 158.517 134.155C158.517 134.155 158.517 137.366 159.574 136.622C160.631 135.878 160.447 133.541 160.447 133.171C160.447 132.802 162.377 132.427 163.428 131.688C164.478 130.949 160.099 131.688 160.099 131.688C160.099 131.688 166.408 128.602 167.465 127.493C167.901 127.013 167.697 126.413 167.254 125.808C164.553 125.323 162.882 127.123 162.882 127.123Z" fill="white" stroke="#263238" stroke-linecap="round" stroke-linejoin="round"/>
<path d="M153.225 106.08C153.225 106.08 147.769 103.2 143.677 106.238C139.585 109.277 141.856 116.002 144.584 118.718C147.312 121.435 160.495 124.642 168.454 124.162C176.413 123.682 182.319 117.6 182.319 114.398C182.319 111.197 178.459 108.96 175.499 108.802C172.539 108.643 166.865 108 166.865 108C166.865 108 155.721 107.52 153.225 106.08Z" fill="#CFCFCF" stroke="#263238" stroke-linecap="round" stroke-linejoin="round"/>
<path d="M173.91 100.733C173.91 100.733 174.885 99.4512 173.842 97.1424C172.798 94.8336 170.561 94.7424 170.561 95.3568V96.3168C170.561 96.3168 168.331 94.6368 167.731 94.9536C167.131 95.2704 167.581 97.0512 167.581 97.0512C167.581 97.0512 172.307 97.8192 173.91 100.733Z" fill="#263238" stroke="#263238" stroke-linecap="round" stroke-linejoin="round"/>
<path d="M173.91 100.733C173.91 100.733 172.416 97.5696 168.563 96.816C164.71 96.0624 160.434 97.296 158.933 98.4768C156.931 100.257 155.075 102.116 153.375 104.045C151.874 105.701 144.175 108.264 145.675 109.166C147.175 110.069 151.233 108.715 151.233 108.715C151.233 108.715 148.451 111.725 151.874 111.274C155.298 110.822 155.516 109.766 155.516 109.766C155.516 109.766 154.657 113.534 157.01 112.93C159.363 112.325 159.151 110.971 159.151 110.971C159.151 110.971 158.081 114.437 160.434 114.437C162.786 114.437 163.216 112.037 163.216 112.037C163.216 112.037 163.857 115.2 166.626 114.744C169.395 114.288 167.908 112.488 167.908 112.488C167.908 112.488 171.318 114.595 172 113.39C172.682 112.186 170.718 109.93 170.718 109.93C170.718 109.93 168.365 106.315 170.5 104.808C172.634 103.301 177.136 102.408 177.136 102.408L173.91 100.733Z" fill="#878787" stroke="#263238" stroke-linecap="round" stroke-linejoin="round"/>
<path d="M172.594 103.291C172.737 103.382 172.88 103.464 173.023 103.546C174.335 103.074 175.704 102.687 177.115 102.389L173.91 100.733C173.91 100.733 170.241 101.789 172.594 103.291Z" fill="#92E3A9" stroke="#263238" stroke-linecap="round" stroke-linejoin="round"/>
<path d="M170.084 100.027C170.085 100.142 170.038 100.255 169.948 100.352C169.857 100.448 169.729 100.523 169.578 100.568C169.426 100.612 169.26 100.624 169.099 100.602C168.939 100.58 168.791 100.524 168.675 100.443C168.559 100.361 168.481 100.257 168.449 100.144C168.417 100.031 168.434 99.9138 168.497 99.8075C168.561 99.7012 168.668 99.6105 168.804 99.5471C168.941 99.4836 169.102 99.4502 169.265 99.4512C169.482 99.4512 169.691 99.5119 169.844 99.6199C169.998 99.7279 170.084 99.8744 170.084 100.027Z" fill="white" stroke="#263238" stroke-linecap="round" stroke-linejoin="round"/>
<path d="M177.579 121.858C177.579 121.858 173.371 123.091 170.916 121.733C168.461 120.374 164.778 118.282 161.45 118.282C158.122 118.282 157.767 120.254 159.342 120.994C160.918 121.733 164.607 123.71 164.607 123.71C164.607 123.71 159.697 123.83 156.894 122.227C154.091 120.624 152.12 117.787 150.231 117.907C148.342 118.027 150.401 120.749 150.401 120.749C150.401 120.749 147.598 118.526 146.548 119.39C145.498 120.254 148.478 123.091 149.876 124.574C151.274 126.058 158.995 128.16 161.102 128.64C162.059 128.897 163.062 129.058 164.082 129.12C164.082 129.12 171.271 128.4 173.228 128.16C175.185 127.92 177.088 127.546 177.791 125.568C178.493 123.59 178.104 122.227 177.579 121.858Z" fill="white" stroke="#263238" stroke-linecap="round" stroke-linejoin="round"/>
<path d="M150.401 120.749C150.401 120.749 152.857 124.45 156.717 125.928Z" fill="white"/>
<path d="M150.401 120.749C150.401 120.749 152.857 124.45 156.717 125.928" stroke="#263238" stroke-linecap="round" stroke-linejoin="round"/>
<path d="M98.89 113.16L61.2095 111.96L62.744 124.8H62.9349C64.0261 127.714 71.0644 130.147 79.7462 130.43C83.6814 130.56 88.0052 130.378 91.7562 129.37C95.6641 128.323 97.069 125.688 97.5805 122.976C97.792 121.886 98.5694 113.15 98.89 113.16Z" fill="#878787" stroke="#263238" stroke-linecap="round" stroke-linejoin="round"/>
<path d="M82.2628 117.758C81.4126 117.758 80.5532 117.744 79.6848 117.715C75.0259 117.616 70.4202 116.988 66.0448 115.858C60.8207 114.384 59.8182 112.666 59.9068 111.48C59.9955 110.294 61.2094 108.653 66.6109 107.52C71.1229 106.68 75.7973 106.356 80.4555 106.56C85.1144 106.66 89.7201 107.287 94.0955 108.418C99.3196 109.891 100.322 111.61 100.233 112.795C100.152 113.976 98.9309 115.622 93.5294 116.755C89.8589 117.458 86.0665 117.796 82.2628 117.758ZM77.823 108.442C74.287 108.402 70.7606 108.712 67.3474 109.363C63.8965 110.083 62.628 111 62.5734 111.571C62.5189 112.142 63.6783 113.136 67.0133 114.077C71.1146 115.129 75.4302 115.709 79.7939 115.795C84.1522 115.993 88.5274 115.696 92.7519 114.917C96.2029 114.197 97.4714 113.28 97.5259 112.709C97.5669 112.142 96.4211 111.144 93.0861 110.203C88.9808 109.148 84.6605 108.566 80.2918 108.48C79.4598 108.48 78.6345 108.442 77.823 108.442Z" fill="#878787" stroke="#263238" stroke-linecap="round" stroke-linejoin="round"/>
<mask id="mask3_79_3711" style="mask-type:luminance" maskUnits="userSpaceOnUse" x="62" y="100" width="36" height="16">
<path d="M88.2233 101.712C82.1876 100.57 74.0513 100.579 70.3481 101.486C67.9953 102.099 65.8743 103.085 64.1487 104.366L63.0575 111.019C62.8868 111.164 62.7822 111.341 62.7574 111.528C62.7165 112.094 63.8486 113.078 67.1563 114.014C71.2112 115.058 75.4781 115.637 79.7938 115.728C84.1065 115.921 88.4353 115.626 92.6154 114.854C96.0254 114.139 97.2871 113.232 97.328 112.67L97.4576 106.018C96.039 105.859 94.1158 102.83 88.2233 101.712Z" fill="white"/>
</mask>
<g mask="url(#mask3_79_3711)">
<path d="M98.7031 112.721C98.8698 110.195 90.6568 107.874 80.3588 107.537C70.0608 107.2 61.5774 108.975 61.4106 111.502C61.2438 114.028 69.4569 116.349 79.7549 116.686C90.0529 117.022 98.5363 115.247 98.7031 112.721Z" fill="white" stroke="#263238" stroke-linecap="round" stroke-linejoin="round"/>
<path d="M82.2829 112.531C80.2369 113.789 77.2974 113.774 75.6947 112.493C74.092 111.211 74.4467 109.133 76.479 107.89C78.5114 106.646 83.981 105.086 85.5837 106.368C87.1864 107.65 84.3152 111.269 82.2829 112.531Z" fill="white" stroke="#263238" stroke-miterlimit="10"/>
<path d="M78.4297 110.256C78.4297 112.176 76.4655 113.707 74.0376 113.707C71.6097 113.707 69.6455 112.162 69.6455 110.256C69.6455 108.35 71.6165 104.438 74.0376 104.438C76.4587 104.438 78.4297 108.346 78.4297 110.256Z" fill="white" stroke="#263238" stroke-miterlimit="10"/>
<path d="M91.2854 112.277C91.2854 114.197 89.3144 115.733 86.8933 115.733C84.4722 115.733 82.5012 114.182 82.5012 112.277C82.5012 110.371 84.4654 106.459 86.8933 106.459C89.3212 106.459 91.2854 110.366 91.2854 112.277Z" fill="white" stroke="#263238" stroke-miterlimit="10"/>
<path d="M85.5429 114.773C85.5429 116.693 83.572 118.229 81.1509 118.229C78.7298 118.229 76.7588 116.678 76.7588 114.773C76.7588 112.867 78.7229 108.96 81.1577 108.96C83.5924 108.96 85.5429 112.862 85.5429 114.773Z" fill="white" stroke="#263238" stroke-miterlimit="10"/>
<path d="M72.0256 112.632C72.0256 114.552 70.0615 116.088 67.6335 116.088C65.2056 116.088 63.2415 114.542 63.2415 112.632C63.2415 110.722 65.2056 106.814 67.6335 106.814C70.0615 106.814 72.0256 110.726 72.0256 112.632Z" fill="white" stroke="#263238" stroke-miterlimit="10"/>
<path d="M96.3525 112.632C96.3525 114.552 94.3815 116.088 91.9604 116.088C89.5393 116.088 87.5684 114.542 87.5684 112.632C87.5684 110.722 89.5325 106.814 91.9604 106.814C94.3884 106.814 96.3525 110.726 96.3525 112.632Z" fill="white" stroke="#263238" stroke-miterlimit="10"/>
<path d="M76.5406 116.573C74.4946 117.835 71.5552 117.816 69.9525 116.534C68.3498 115.253 68.6976 113.174 70.7368 111.931C72.776 110.688 78.2388 109.128 79.8415 110.41C81.4442 111.691 78.573 115.31 76.5406 116.573Z" fill="white" stroke="#263238" stroke-miterlimit="10"/>
<path d="M93.2905 112.958C95.1728 114.331 95.2819 116.41 93.536 117.59C91.7901 118.771 88.8439 118.622 86.9684 117.25C85.0929 115.877 82.6445 112.099 84.3972 110.914C86.15 109.728 91.3877 111.586 93.2905 112.958Z" fill="white" stroke="#263238" stroke-miterlimit="10"/>
</g>
<path d="M98.5557 113.246C98.2142 113.247 97.8847 113.158 97.6322 112.996C97.3796 112.835 97.2224 112.612 97.1917 112.373L96.4347 102.874C96.2168 101.127 95.3878 99.4448 94.0216 97.9783C92.6555 96.5117 90.7947 95.306 88.6053 94.4688L87.1254 93.9024C85 93.086 82.6275 92.6403 80.2068 92.6026C77.7861 92.565 75.3879 92.9365 73.2134 93.6859C71.0389 94.4354 69.1515 95.541 67.7095 96.91C66.2676 98.279 65.3131 99.8714 64.9263 101.554L62.7166 111.154C62.6391 111.391 62.4359 111.599 62.1484 111.735C61.8609 111.871 61.5105 111.925 61.1685 111.886C60.8265 111.847 60.5184 111.718 60.3069 111.525C60.0954 111.332 59.9962 111.089 60.0295 110.846L62.2392 101.246C62.6952 99.2611 63.821 97.3816 65.5223 95.7658C67.2235 94.15 69.4506 92.8449 72.0166 91.96C74.5825 91.0751 77.4126 90.6363 80.2694 90.6803C83.1262 90.7242 85.9263 91.2498 88.4348 92.2128L89.9148 92.784C92.5016 93.7744 94.6999 95.2 96.3136 96.9337C97.9272 98.6674 98.906 100.655 99.1627 102.72L99.9129 112.219C99.9451 112.472 99.8332 112.724 99.6018 112.92C99.3703 113.115 99.0383 113.238 98.6785 113.261L98.5557 113.246Z" fill="#878787" stroke="#263238" stroke-linecap="round" stroke-linejoin="round"/>
<path d="M67.5178 130.882C67.5178 130.882 68.1112 130.944 71.5212 131.266C74.9312 131.587 80.3872 130.229 81.1578 128.318C81.5602 127.358 78.6549 127.358 76.6089 128.002C74.5629 128.645 67.5178 130.882 67.5178 130.882Z" fill="white" stroke="#263238" stroke-linecap="round" stroke-linejoin="round"/>
<path d="M59.7908 118.56C59.7908 118.56 63.6509 117.442 67.2928 118.882C69.7631 119.915 72.0521 121.149 74.1128 122.558C74.1128 122.558 75.2449 123.518 72.9739 124.478C70.7028 125.438 70.2459 124.8 68.4249 123.84C67.136 123.226 65.6544 122.843 64.1079 122.722C64.1079 122.722 68.6568 125.76 70.2459 126.72C71.8349 127.68 76.3839 125.918 77.7479 127.2C79.1119 128.482 78.4299 128.962 74.5629 129.758C70.696 130.555 67.0609 132 63.8828 130.56C60.7047 129.12 53.1959 123.202 52.2888 121.282C51.3817 119.362 56.6059 117.278 59.7908 118.56Z" fill="white" stroke="#263238" stroke-linecap="round" stroke-linejoin="round"/>
</svg>
