<svg width="295" height="340" viewBox="0 0 295 340" fill="none" xmlns="http://www.w3.org/2000/svg">
<path d="M122.195 270.259C128.71 263.643 138.15 259.849 148.096 259.849L148.48 259.85C155.031 259.852 161.465 258.141 167.124 254.892L167.713 254.554L167.239 254.072C164.671 251.456 162.527 248.467 160.881 245.209C162.05 246.282 163.444 247.089 164.964 247.572C166.484 248.056 168.094 248.205 169.679 248.008C171.352 247.811 172.959 247.244 174.378 246.349C175.797 245.454 176.992 244.254 177.873 242.84C181.349 237.285 185.493 229.405 185.493 223.401C185.488 218.327 184.409 213.309 182.325 208.668C180.241 204.027 177.198 199.864 173.39 196.445C170.979 194.304 169.053 191.687 167.739 188.765C166.424 185.842 165.749 182.679 165.759 179.483L165.761 179.028C165.761 174.82 165.239 170.627 164.205 166.543C163.172 162.46 164.101 166.131 164.101 166.131C164.101 166.131 166.448 166.053 163.67 166.146C160.891 166.239 158.111 166.009 155.387 165.462C157.943 165.154 160.442 164.499 162.815 163.517C162.815 163.517 163.138 163.467 163.279 163.332C163.627 162.998 162.815 162.185 162.815 162.185C151.972 155.574 127.802 159.677 113.595 127.669C102.075 101.716 61.4295 150.709 61.4295 179.028C61.4295 181.918 64.3336 185.736 62.1596 187.646C38.6583 208.292 54.8739 221.55 59.9864 234.891C61.1994 238.056 58.5692 241.531 58.5692 244.955C58.5692 245.536 58.5843 246.136 58.614 246.738L58.6593 247.663L59.4429 247.149C60.993 246.149 62.4299 244.989 63.729 243.688C62.3813 246.742 61.7461 250.054 61.8703 253.382C61.9944 256.71 62.8748 259.968 64.4464 262.916C66.9093 267.494 69.2921 270.771 71.5283 272.656C78.692 278.693 87.927 281.807 97.3448 281.361C106.763 280.916 115.652 276.944 122.195 270.259Z" fill="#E6E6E6"/>
<path d="M80.82 339.124C80.6599 339.124 80.5052 339.067 80.3843 338.963C80.2634 338.86 80.1844 338.717 80.1619 338.561C80.1336 338.365 77.3636 318.692 79.8514 292.547C82.1489 268.4 89.5271 233.621 111.629 205.058C111.682 204.989 111.748 204.931 111.824 204.888C111.9 204.845 111.983 204.816 112.07 204.805C112.157 204.793 112.245 204.798 112.329 204.82C112.414 204.842 112.493 204.881 112.563 204.933C112.632 204.985 112.691 205.05 112.735 205.125C112.779 205.199 112.807 205.282 112.819 205.367C112.831 205.452 112.825 205.539 112.803 205.622C112.78 205.706 112.741 205.784 112.688 205.852C90.7769 234.169 83.4582 268.693 81.1769 292.669C78.7035 318.663 81.4518 338.182 81.4799 338.376C81.4933 338.469 81.4862 338.564 81.4592 338.654C81.4321 338.744 81.3857 338.827 81.3232 338.898C81.2606 338.969 81.1833 339.026 81.0965 339.065C81.0097 339.104 80.9154 339.124 80.82 339.124Z" fill="#323232"/>
<path d="M98.8568 245.348C98.7162 245.348 98.5792 245.304 98.4654 245.223C98.3516 245.141 98.2669 245.027 98.2234 244.895C98.1798 244.763 98.1798 244.622 98.2232 244.49C98.2666 244.358 98.3512 244.243 98.465 244.162C104.763 239.964 111.566 236.554 118.719 234.009C129.893 229.981 146.885 226.329 164.379 231.811C164.462 231.837 164.54 231.879 164.607 231.934C164.674 231.99 164.729 232.058 164.769 232.134C164.809 232.211 164.834 232.294 164.841 232.38C164.849 232.466 164.839 232.553 164.813 232.635C164.786 232.717 164.743 232.793 164.687 232.859C164.63 232.925 164.561 232.979 164.483 233.019C164.406 233.058 164.321 233.082 164.233 233.089C164.146 233.096 164.058 233.086 163.975 233.06C146.84 227.69 130.156 231.282 119.176 235.24C112.139 237.741 105.445 241.094 99.2476 245.223C99.1341 245.304 98.9973 245.348 98.8568 245.348Z" fill="#323232"/>
<path d="M68.3911 170.628C68.3808 170.49 68.4153 170.352 68.4894 170.235C68.5636 170.117 68.6737 170.026 68.8039 169.973C68.9341 169.921 69.0778 169.911 69.2143 169.944C69.3508 169.977 69.4732 170.052 69.5638 170.158C74.2692 176.041 78.2135 182.478 81.3059 189.319C86.191 200.004 91.1139 216.431 86.8206 234.007C86.8002 234.091 86.7633 234.17 86.712 234.239C86.6606 234.309 86.5958 234.368 86.5212 234.413C86.4466 234.458 86.3637 234.488 86.2773 234.502C86.1909 234.515 86.1027 234.512 86.0176 234.492C85.9326 234.471 85.8524 234.435 85.7816 234.384C85.7109 234.334 85.651 234.27 85.6054 234.196C85.5598 234.123 85.5293 234.041 85.5157 233.956C85.5022 233.871 85.5058 233.784 85.5263 233.7C89.7313 216.484 84.8918 200.356 80.0919 189.858C77.0519 183.126 73.1735 176.792 68.5461 171.003C68.4554 170.897 68.4011 170.766 68.3911 170.628Z" fill="#323232"/>
<path d="M293.236 338.43H240.246L240.018 338.023C239.34 336.813 238.686 335.531 238.075 334.214C232.617 322.707 230.31 309.546 228.274 297.934L226.741 289.182C226.556 288.122 226.695 287.032 227.143 286.05C227.59 285.069 228.325 284.242 229.252 283.674C230.18 283.106 231.259 282.824 232.35 282.863C233.442 282.903 234.497 283.262 235.38 283.895C243.433 289.666 251.489 295.43 259.548 301.19C262.6 303.376 266.085 305.907 269.423 308.641C269.745 307.101 270.082 305.557 270.418 304.033C270.651 302.982 271.196 302.022 271.986 301.278C272.775 300.533 273.772 300.037 274.849 299.854C275.926 299.671 277.034 299.808 278.031 300.248C279.029 300.689 279.87 301.412 280.447 302.326L286.647 312.135C291.169 319.298 295.16 326.356 294.347 333.969C294.351 334.062 294.344 334.155 294.326 334.246C294.163 335.496 293.861 336.725 293.426 337.911L293.236 338.43Z" fill="#F0F0F0"/>
<path d="M268.548 133.287L258.321 96.0132C257.883 94.4353 256.833 93.0902 255.397 92.2683C253.96 91.4463 252.254 91.2134 250.644 91.6197C249.812 91.83 249.032 92.2049 248.351 92.7217C247.671 93.2386 247.104 93.8865 246.687 94.6259C246.269 95.3654 246.008 96.1808 245.921 97.0227C245.833 97.8646 245.921 98.7151 246.178 99.5225L258.007 137.92L264.195 161.551C263.294 162.228 262.626 163.163 262.283 164.227C261.94 165.292 261.938 166.434 262.277 167.5C262.616 168.565 263.28 169.502 264.179 170.183C265.078 170.864 266.168 171.256 267.301 171.306C268.434 171.356 269.555 171.061 270.512 170.462C271.468 169.862 272.215 168.987 272.649 167.955C273.083 166.924 273.184 165.786 272.939 164.695C272.693 163.605 272.113 162.616 271.276 161.862L268.548 133.287Z" fill="#BC8418"/>
<path d="M182.492 125.259L213.565 101.711C214.879 100.71 215.74 99.2398 215.962 97.6187C216.185 95.9977 215.751 94.3555 214.755 93.0464C214.24 92.3692 213.59 91.8024 212.845 91.3807C212.1 90.9589 211.275 90.691 210.422 90.5932C209.568 90.4955 208.703 90.5699 207.88 90.8121C207.056 91.0542 206.291 91.4589 205.632 92.0016L174.117 117.437L154.305 132.097C153.325 131.536 152.192 131.285 151.062 131.38C149.932 131.474 148.859 131.909 147.989 132.625C147.119 133.34 146.493 134.303 146.197 135.381C145.902 136.459 145.95 137.601 146.336 138.651C146.723 139.701 147.428 140.608 148.356 141.25C149.284 141.891 150.39 142.236 151.524 142.237C152.658 142.238 153.765 141.895 154.694 141.255C155.624 140.615 156.33 139.709 156.718 138.66L182.492 125.259Z" fill="#BC8418"/>
<path d="M207.818 130.673L206.448 160.795L249.454 151.591C245.794 139.487 243.305 137.423 246.055 128.999L207.818 130.673Z" fill="#BC8418"/>
<path d="M234.261 75.45H219.932L213.778 85.8196L210.845 85.6602C209.411 85.5822 207.976 85.793 206.627 86.2798C205.279 86.7666 204.045 87.519 203.002 88.4912C201.959 89.4634 201.128 90.6349 200.56 91.934C199.992 93.2332 199.699 94.6327 199.699 96.0471L203.312 101.561C203.312 101.561 196.851 112.65 206.158 118.105C206.158 118.105 204.498 128.383 206.158 128.273C207.818 128.162 211.642 126.071 207.818 128.162C203.994 130.254 204.28 130.535 204.774 131.022L205.269 131.509L245.475 138.157C245.475 138.157 246.651 130.482 246.778 129.113C246.905 127.744 246.055 131.091 246.905 127.744C247.755 124.397 249.029 125.652 247.755 124.397C246.48 123.142 256.013 107.593 252.096 101.561L258.376 95.5299C258.376 89.7443 248.94 85.0541 243.064 85.0541H242.312L234.261 75.45Z" fill="#E6E6E6"/>
<path d="M199.736 326.817H193.935L191.176 304.788L199.736 304.788L199.736 326.817Z" fill="#BC8418"/>
<path d="M182.23 335.244C182.233 335.884 182.492 336.497 182.951 336.949C183.409 337.402 184.031 337.659 184.681 337.663H195.599L195.937 336.972L197.482 333.834L198.08 336.972L198.212 337.663H202.33L202.272 336.967L201.173 324L199.737 323.913L193.53 323.551L192.006 323.459V327.331C190.849 328.543 181.769 333.125 182.23 335.244Z" fill="#323232"/>
<path d="M241.144 338.767L79.084 339.124C78.9223 339.122 78.7674 338.976 78.6533 338.716C78.5393 338.457 78.4752 338.106 78.4752 337.741C78.4752 337.375 78.5393 337.024 78.6533 336.765C78.7674 336.506 78.9223 336.359 79.084 336.357L241.144 336C241.306 336.002 241.461 336.149 241.575 336.408C241.689 336.667 241.753 337.018 241.753 337.384C241.753 337.749 241.689 338.1 241.575 338.359C241.461 338.619 241.306 338.765 241.144 338.767Z" fill="#CACACA"/>
<path d="M248.78 148.188C248.78 148.188 221.29 162.507 206.75 152.738C206.75 152.738 203.57 167.907 202.295 169.162C201.02 170.417 198.99 170.964 200.43 172.364C201.87 173.764 202.672 175.655 199.934 178.057C197.197 180.458 194.467 179.696 197.106 182.169C199.746 184.642 189.124 245.305 189.124 245.305C189.124 245.305 190.824 301.719 189.124 303.425C187.425 305.131 186.775 306.325 187.351 307.623C189.549 309.733 189.549 308.097 189.549 311.007V313.917L190.555 316.809H204.349C204.349 316.809 207.679 313.001 204.349 309.694C204.349 309.694 205.363 305.481 206.378 302.378C206.875 300.859 207.393 301.64 207.393 299.274C205.694 295.927 204.878 296.564 204.861 294.363C204.844 292.162 229.911 205.979 229.911 205.979L232.947 253.68L269.465 305.921L280.214 297.982C280.214 297.982 272.388 287.134 274.218 285.642C276.048 284.151 268.824 282.28 271.102 280.598C273.38 278.915 267.897 277.22 269.963 274.99C272.03 272.76 267.116 267.139 264.269 267.139C261.421 267.139 257.425 257.769 257.425 257.769L263.391 183.749L248.78 148.188Z" fill="#323232"/>
<path d="M219.643 45.0022C219.449 45.2537 217.899 45.1183 216.035 44.8503C212.35 44.3204 211.848 44.95 209.093 47.4177C205.102 50.9923 207.371 72.795 205.41 77.5191L204.776 77.9788C206.033 77.7425 207.267 77.4024 208.466 76.9621C209.143 74.8583 209.822 72.7477 210.505 70.6456C211.151 72.2812 211.556 73.9988 211.71 75.7469C212.659 75.3786 213.602 74.478 217.566 73.2702C219.562 71.9368 234.002 70.5961 235.859 70.0095C240.57 54.224 232.977 47.8404 219.643 45.0022Z" fill="#323232"/>
<path d="M224.519 69.3437C232.14 69.3437 238.318 63.2599 238.318 55.7551C238.318 48.2503 232.14 42.1665 224.519 42.1665C216.898 42.1665 210.719 48.2503 210.719 55.7551C210.719 63.2599 216.898 69.3437 224.519 69.3437Z" fill="#BC8418"/>
<path d="M233.207 43.8046C232.429 43.6916 231.681 43.4332 231.001 43.0433C230.665 42.843 230.392 42.5537 230.215 42.2081C230.037 41.8626 229.962 41.4749 229.997 41.0892C230.167 40.1237 231.276 39.5472 232.269 39.6059C233.258 39.7463 234.198 40.1208 235.008 40.6972C234.919 39.7641 234.514 38.8876 233.858 38.2083C233.202 37.529 232.334 37.0865 231.392 36.9517C232.699 36.8824 234.057 36.8213 235.265 37.3161C236.473 37.8109 237.479 39.036 237.262 40.3064C239.293 40.0488 241.295 41.4423 242.134 43.282C242.973 45.1217 242.806 47.2822 242.136 49.1877C242.07 49.4795 241.941 49.754 241.758 49.9924C241.575 50.2308 241.342 50.4277 241.075 50.5696C240.391 50.8251 239.656 50.3967 239.063 49.9745C235.969 47.7687 233.154 45.2078 230.675 42.346" fill="#323232"/>
<path d="M239.224 70.202C238.639 70.4732 238.943 71.4822 238.489 71.934C238.291 72.1254 238.053 72.2711 237.792 72.3608C237.723 71.5186 237.524 70.6918 237.201 69.9092C237.142 69.7669 237.044 69.6079 236.891 69.6205C236.713 69.6414 236.666 69.8715 236.662 70.043C236.626 70.8939 236.434 71.7315 236.097 72.5156C236.092 72.524 236.088 72.5365 236.084 72.5449C235.952 72.5407 235.816 72.5365 235.689 72.5323C234.703 72.4947 232.519 70.0012 232.035 70.8463C233.743 67.8634 235.825 63.3785 236.143 59.9688C236.254 59.2549 236.2 58.5258 235.986 57.8351C235.874 57.4915 235.665 57.1866 235.383 56.9568C235.1 56.7269 234.757 56.5816 234.393 56.5382C234.213 56.5301 234.034 56.5612 233.869 56.6292C233.703 56.6973 233.554 56.8005 233.434 56.9316C233.313 57.0627 233.224 57.2185 233.171 57.3877C233.119 57.5569 233.105 57.7354 233.131 57.9104L232.885 57.877C230.599 56.0445 232.57 52.8607 229.911 51.6015C229.01 51.1747 223.495 52.6014 222.522 52.3503C222.502 51.3411 222.293 50.3442 221.906 49.4092C221.847 49.267 221.749 49.108 221.596 49.1206C221.418 49.1415 221.371 49.3716 221.367 49.5431C221.331 50.394 221.139 51.2316 220.802 52.0157C219.454 51.8274 218.082 51.8984 216.761 52.2248C215.597 52.526 214.493 53.0449 213.324 53.321C212.747 53.4952 212.139 53.5517 211.539 53.487C210.938 53.4222 210.358 53.2376 209.832 52.9444C208.349 51.9654 208.09 49.7983 208.829 48.2001C209.364 47.1746 210.087 46.2555 210.962 45.4891C211.629 44.8532 212.322 44.2424 213.014 43.6316C213.634 43.0835 214.255 42.5355 214.875 41.9874C215.656 41.2637 216.488 40.5954 217.365 39.9876C218.765 39.084 220.337 38.4717 221.986 38.1882C223.635 37.9047 225.326 37.9561 226.954 38.3392C228.908 38.7994 231.521 38.151 233.31 39.0505C234.244 39.5232 236.313 41.3348 237.133 41.979C239.232 43.6232 237.812 42.2835 240.107 43.2341C245.581 45.5009 243.16 68.3769 239.224 70.202Z" fill="#323232"/>
<path d="M86.4327 169.384C133.696 169.384 172.011 131.654 172.011 85.1125C172.011 38.5708 133.696 0.841248 86.4327 0.841248C39.169 0.841248 0.854187 38.5708 0.854187 85.1125C0.854187 131.654 39.169 169.384 86.4327 169.384Z" fill="white"/>
<path d="M86.4328 170.225C38.7736 170.225 0 132.043 0 85.1124C0 38.1814 38.7737 0 86.4328 0C134.092 0 172.866 38.1814 172.866 85.1124C172.866 132.043 134.092 170.225 86.4328 170.225ZM86.4328 1.68237C39.7157 1.68237 1.70847 39.109 1.70847 85.1124C1.70847 131.116 39.7157 168.542 86.4328 168.542C133.15 168.542 171.157 131.116 171.157 85.1124C171.157 39.109 133.15 1.68237 86.4328 1.68237Z" fill="#0D986A"/>
<rect width="10.4955" height="18.7984" transform="matrix(0.863877 -0.503703 0.483458 0.875368 134.074 126.228)" fill="white"/>
<path d="M89.2484 129.119C92.5059 127.053 95.7731 124.997 99.0306 122.931C100.505 121.999 101.999 121.076 103.435 120.077C106.847 117.704 110.047 115.003 112.89 111.967C118.518 105.942 122.797 98.8028 125.505 91.0292C127.713 84.6777 128.657 77.9803 128.657 71.2733V58.4839C128.657 56.7639 127.452 55.2649 125.824 54.7748C124.648 54.4193 123.482 54.0542 122.354 53.5833C122.662 53.7082 122.971 53.8428 123.279 53.9677C121.265 53.1125 119.376 52.0171 117.641 50.691L118.422 51.2964C116.706 49.9704 115.164 48.4426 113.834 46.7322L114.441 47.5105C113.111 45.7809 112.003 43.8879 111.145 41.8797C111.271 42.1872 111.405 42.4946 111.531 42.8021C111.242 42.1103 110.972 41.3992 110.74 40.6882C110.22 39.0643 108.765 37.8632 107.02 37.8632H72.4305C70.8403 37.8632 69.2404 37.8151 67.6502 37.8632H67.5827C65.8287 37.8632 64.383 39.0643 63.8626 40.6882C63.6313 41.4088 63.3711 42.1103 63.0723 42.8021C63.1976 42.4946 63.3325 42.1872 63.4578 41.8797C62.6 43.8879 61.4917 45.7713 60.1617 47.5105L60.7689 46.7322C59.4389 48.4426 57.8968 49.9704 56.1813 51.2964L56.962 50.691C55.2272 52.0171 53.3285 53.1125 51.3239 53.9677C51.6323 53.8428 51.9407 53.7082 52.2491 53.5833C51.1119 54.0542 49.9553 54.4193 48.7795 54.7748C47.1508 55.2649 45.946 56.7639 45.946 58.4839V70.0722C45.946 72.1093 45.946 74.1464 46.0906 76.1835C46.399 80.3249 47.1026 84.4567 48.2687 88.4444C50.5818 96.3622 54.5911 103.655 59.9111 109.949C64.0457 114.84 69.0284 118.799 74.4255 122.21L85.0945 128.956C85.1812 129.013 85.2776 129.071 85.3643 129.129C87.0702 130.205 89.6917 129.542 90.6362 127.745C91.6385 125.842 91.0699 123.642 89.2484 122.489C87.5136 121.393 85.7788 120.298 84.0536 119.203C81.8369 117.8 79.6299 116.406 77.4132 115.003C75.8615 114.023 74.3484 112.976 72.8835 111.861L73.6641 112.467C70.0211 109.651 66.7443 106.384 63.9204 102.752L64.5276 103.53C61.6555 99.8118 59.2654 95.7376 57.4246 91.4136C57.5499 91.7211 57.6848 92.0286 57.8101 92.336C55.9307 87.8871 54.6489 83.2172 54.0032 78.432C54.0514 78.7683 54.0996 79.1142 54.1381 79.4505C53.7237 76.3372 53.6562 73.2239 53.6562 70.101V58.5223C52.7117 59.7619 51.7672 60.9918 50.8227 62.2313C54.1477 61.232 57.3667 59.906 60.1906 57.8785C63.5349 55.4763 66.3877 52.5167 68.508 48.9807C69.6741 47.0397 70.609 44.9257 71.3029 42.7733C70.0596 43.715 68.826 44.6566 67.5827 45.5983H102.173C103.763 45.5983 105.363 45.6368 106.953 45.5983H107.02C105.777 44.6566 104.543 43.715 103.3 42.7733C105.719 50.2971 111.213 56.8407 118.422 60.2231C120.157 61.0398 121.94 61.674 123.78 62.2313C122.836 60.9918 121.891 59.7619 120.947 58.5223V72.1477C120.947 74.5884 120.783 77.0291 120.465 79.4505C120.513 79.1142 120.561 78.7683 120.6 78.432C119.945 83.2076 118.663 87.8871 116.793 92.336C116.918 92.0286 117.053 91.7211 117.178 91.4136C115.338 95.7376 112.948 99.8118 110.075 103.53L110.683 102.752C107.859 106.384 104.582 109.651 100.939 112.467L101.72 111.861C99.5607 113.524 97.2669 114.955 94.9732 116.416C92.4288 118.03 89.8844 119.635 87.3401 121.249C86.6847 121.662 86.0197 122.085 85.3643 122.498C84.5259 123.027 83.8609 123.824 83.591 124.795C83.3404 125.717 83.4561 126.938 83.9765 127.754C85.0752 129.446 87.4268 130.272 89.2484 129.119Z" fill="#0D986A"/>
<path d="M67.6599 83.5631L77.5579 93.4315L78.965 94.8344C80.4395 96.3045 82.9454 96.3045 84.4199 94.8344L92.0626 87.2145L104.158 75.1553L106.943 72.3784C108.37 70.9562 108.476 68.3426 106.943 66.9397C105.401 65.5272 103.011 65.4215 101.488 66.9397L93.8456 74.5596L81.7503 86.6188L78.965 89.3957H84.4199L74.522 79.5274L73.1149 78.1245C71.6885 76.7024 69.067 76.5967 67.6599 78.1245C66.2432 79.6619 66.1372 82.0353 67.6599 83.5631Z" fill="#0D986A"/>
<rect x="45.7477" y="37.1566" width="85.7047" height="18.1254" fill="white"/>
<rect width="47.0904" height="7.77144" rx="3.88572" transform="matrix(0.924793 -0.380471 0.382423 0.923987 45.1212 56.3677)" fill="#0D986A"/>
<rect width="47.9867" height="7.77144" rx="3.88572" transform="matrix(-0.924793 -0.380471 -0.382423 0.923987 129.785 56.3093)" fill="#0D986A"/>
<path d="M104.369 144.251C104.386 143.262 105.201 142.475 106.19 142.492L107.364 142.513L107.125 156.553L104.161 156.5L104.369 144.251Z" fill="white"/>
<rect width="5.66753" height="10.431" transform="matrix(1 -0.000179331 0.000169864 1 90.3184 143.542)" fill="white"/>
</svg>
