<svg width="373" height="381" viewBox="0 0 373 381" fill="none" xmlns="http://www.w3.org/2000/svg">
<path d="M334.79 86.5099C332.316 82.4394 329.593 78.5327 326.636 74.8132C302.496 44.4933 270.932 31.6612 234.878 23.0658C197.638 14.1885 154.034 11.4301 118.278 27.4321C109.864 31.2421 101.866 36.2713 95.5403 43.1293C71.6161 68.9687 63.4101 112.243 36.7704 146.449C10.1308 180.655 -2.86455 223.266 21.0522 263.713C31.1754 280.843 44.0812 294.955 59.3519 307.376C78.1511 322.616 94.3691 343.235 116.1 355.161C138.935 367.688 169.35 372.054 194.624 366.316C223.457 359.771 240.369 333.741 262.376 316.024C279.728 302.034 300.489 292.875 317.49 278.443C343.541 256.344 363.295 220.79 360.012 185.562C356.79 151.364 352.642 115.824 334.79 86.5099Z" fill="#92E3A9"/>
<path opacity="0.7" d="M334.79 86.5099C332.316 82.4394 329.593 78.5327 326.636 74.8132C302.496 44.4933 270.932 31.6612 234.878 23.0658C197.638 14.1885 154.034 11.4301 118.278 27.4321C109.864 31.2421 101.866 36.2713 95.5403 43.1293C71.6161 68.9687 63.4101 112.243 36.7704 146.449C10.1308 180.655 -2.86455 223.266 21.0522 263.713C31.1754 280.843 44.0812 294.955 59.3519 307.376C78.1511 322.616 94.3691 343.235 116.1 355.161C138.935 367.688 169.35 372.054 194.624 366.316C223.457 359.771 240.369 333.741 262.376 316.024C279.728 302.034 300.489 292.875 317.49 278.443C343.541 256.344 363.295 220.79 360.012 185.562C356.79 151.364 352.642 115.824 334.79 86.5099Z" fill="white"/>
<path opacity="0.2" d="M339.243 23.6982C338.525 23.6989 337.825 23.9304 337.243 24.3598C336.661 24.7892 336.225 25.3948 335.998 26.0908H167.768C167.507 25.2996 166.979 24.6288 166.279 24.1983C165.578 23.7678 164.751 23.6056 163.944 23.7407C163.138 23.8758 162.404 24.2993 161.875 24.9357C161.346 25.572 161.055 26.3798 161.055 27.2148C161.055 28.0497 161.346 28.8575 161.875 29.4939C162.404 30.1303 163.138 30.5538 163.944 30.6889C164.751 30.8239 165.578 30.6617 166.279 30.2312C166.979 29.8008 167.507 29.13 167.768 28.3387H335.998C336.203 28.9482 336.567 29.4883 337.052 29.8999C337.538 30.3114 338.124 30.5785 338.748 30.6717C339.372 30.7649 340.009 30.6806 340.59 30.4282C341.17 30.1758 341.671 29.7649 342.037 29.2407C342.404 28.7165 342.622 28.0993 342.668 27.4568C342.713 26.8144 342.585 26.1715 342.296 25.5988C342.007 25.0261 341.57 24.5457 341.031 24.2104C340.493 23.8751 339.874 23.6979 339.243 23.6982Z" fill="black"/>
<g opacity="0.2">
<path d="M207.552 28.9559C209.954 88.5291 212.028 148.674 214.557 208.026L214.311 219.662C214.311 219.662 203.531 219.662 197.854 220.241C192.177 220.82 183.382 220.82 177.138 220.82C170.894 220.82 167.492 218.496 167.492 218.496L167.902 208.011C169.156 148.681 170.521 88.5291 171.401 28.9407" stroke="black" stroke-linejoin="round"/>
<path d="M180.673 198.204L180.644 205.214" stroke="black" stroke-linejoin="round"/>
<path d="M181.263 61.5312L180.704 191.97" stroke="black" stroke-linejoin="round"/>
<path d="M181.405 27.6528L181.278 57.6375" stroke="black" stroke-linejoin="round"/>
<path d="M191.08 96.1719L189.79 183.017" stroke="black" stroke-linejoin="round"/>
<path d="M192.08 28.4302L191.155 90.7389" stroke="black" stroke-linejoin="round"/>
<path d="M200.107 120.327L200.466 200.932" stroke="black" stroke-linejoin="round"/>
<path d="M199.854 63.0859L200.078 113.706" stroke="black" stroke-linejoin="round"/>
<path d="M199.704 29.2073L199.824 56.8603" stroke="black" stroke-linejoin="round"/>
</g>
<g opacity="0.2">
<path d="M294.588 28.9558C292.283 92.0342 289.366 155.745 287.128 218.488C291.126 219.107 295.157 219.486 299.198 219.623H323.301C327.044 219.54 330.774 219.147 334.454 218.45C333.372 155.745 332.634 92.0342 330.724 28.9558" stroke="black" stroke-linejoin="round"/>
<path d="M321.466 198.204L321.496 205.214" stroke="black" stroke-linejoin="round"/>
<path d="M320.885 61.5312L321.444 191.97" stroke="black" stroke-linejoin="round"/>
<path d="M320.735 27.6528L320.862 57.6375" stroke="black" stroke-linejoin="round"/>
<path d="M311.067 96.1719L312.35 183.017" stroke="black" stroke-linejoin="round"/>
<path d="M310.06 28.4302L310.985 90.7389" stroke="black" stroke-linejoin="round"/>
<path d="M302.034 120.327L301.675 200.932" stroke="black" stroke-linejoin="round"/>
<path d="M302.287 63.0859L302.063 113.706" stroke="black" stroke-linejoin="round"/>
<path d="M302.436 29.2073L302.316 56.8603" stroke="black" stroke-linejoin="round"/>
</g>
<g opacity="0.2">
<path d="M208.626 45.9028H225.553V66.0806H209.753" stroke="black" stroke-linejoin="round"/>
<path d="M246.202 45.9485H228.507V66.1872H246.202V45.9485Z" stroke="black" stroke-linejoin="round"/>
</g>
<g opacity="0.2">
<path d="M293.745 45.9028H276.818V66.0806H292.618" stroke="black" stroke-linejoin="round"/>
<path d="M256.169 66.1873H273.864V45.9485H256.169V66.1873Z" stroke="black" stroke-linejoin="round"/>
</g>
<path opacity="0.2" d="M211.416 137.579H246.657V77.0916H209.872" stroke="black" stroke-linejoin="round"/>
<path opacity="0.2" d="M291.962 76.5811H255.953V137.579H289.254" stroke="black" stroke-linejoin="round"/>
<path opacity="0.2" d="M212.58 151.935H246.657V212.743H215.161" stroke="black" stroke-linejoin="round"/>
<path opacity="0.2" d="M289.642 151.425H255.953V213.307H286.665" stroke="black" stroke-linejoin="round"/>
<path opacity="0.2" d="M215.005 217.17H287.135" stroke="black" stroke-linejoin="round"/>
<path opacity="0.2" d="M208.485 38.9001H293.708" stroke="black" stroke-linejoin="round"/>
<path opacity="0.2" d="M251.297 39.3191V216.332" stroke="black" stroke-linejoin="round"/>
<path opacity="0.2" d="M209.566 72.4128H292.462" stroke="black" stroke-linejoin="round"/>
<g opacity="0.2">
<path d="M264.755 293.515V234.696C264.755 233.586 264.541 232.486 264.125 231.46C263.709 230.435 263.099 229.503 262.33 228.718C261.561 227.933 260.648 227.311 259.643 226.886C258.638 226.462 257.562 226.244 256.475 226.245H180.815V294.132" stroke="black" stroke-linejoin="round"/>
<path d="M181.45 226.23H104.38C103.292 226.229 102.215 226.448 101.21 226.873C100.205 227.298 99.2915 227.922 98.5229 228.708C97.7543 229.495 97.1452 230.429 96.7307 231.456C96.3161 232.484 96.1043 233.585 96.1072 234.696V293.53" stroke="black" stroke-linejoin="round"/>
<path d="M272.23 299.131V318.943H180.853V293.515H266.732C268.19 293.515 269.589 294.107 270.62 295.16C271.651 296.213 272.23 297.641 272.23 299.131Z" stroke="black" stroke-linejoin="round"/>
<path d="M181.547 293.515H94.1378C93.4152 293.514 92.6994 293.658 92.0315 293.94C91.3636 294.222 90.7566 294.635 90.2453 295.157C89.734 295.679 89.3283 296.298 89.0516 296.98C88.7748 297.662 88.6323 298.393 88.6323 299.131V318.943H181.547" stroke="black" stroke-linejoin="round"/>
<path d="M272.387 318.92H88.6323V350.794H272.387V318.92Z" stroke="black" stroke-linejoin="round"/>
<path d="M96.1072 259.758C95.5892 259.206 94.9672 258.767 94.2788 258.468C93.5903 258.168 92.8496 258.013 92.1012 258.013H75.458C73.9905 258.011 72.5821 258.604 71.5417 259.661C70.5012 260.718 69.9136 262.153 69.9077 263.652V345.11C69.9097 346.612 70.4953 348.052 71.536 349.114C72.5766 350.175 73.9872 350.771 75.458 350.771H92.1012" stroke="black" stroke-linejoin="round"/>
<path d="M266.837 350.794H283.48C284.95 350.794 286.36 350.198 287.399 349.136C288.439 348.074 289.023 346.634 289.023 345.133V263.652C289.017 262.154 288.43 260.72 287.391 259.663C286.353 258.607 284.946 258.013 283.48 258.013H266.837C266.123 258.011 265.417 258.151 264.755 258.425" stroke="black" stroke-linejoin="round"/>
</g>
<path d="M185.657 112.182V85.5726H183.3V51.5112C183.305 48.7511 182.777 46.0172 181.746 43.4658C180.715 40.9144 179.202 38.5956 177.293 36.6422C175.384 34.6888 173.117 33.139 170.621 32.0816C168.125 31.0242 165.45 30.48 162.747 30.48H52.3395C49.6364 30.479 46.9596 31.0224 44.4624 32.0793C41.9652 33.1361 39.6965 34.6856 37.7861 36.639C35.8758 38.5925 34.3613 40.9115 33.3294 43.4634C32.2975 46.0154 31.7683 48.7501 31.7722 51.5112V280.675C31.7722 286.245 33.9383 291.586 37.7941 295.525C41.6498 299.463 46.8792 301.676 52.332 301.676H162.74C165.44 301.676 168.113 301.133 170.607 300.077C173.101 299.022 175.367 297.475 177.275 295.524C179.184 293.574 180.698 291.259 181.73 288.711C182.762 286.163 183.293 283.433 183.292 280.675V134.874H185.65V119.139H183.292V112.182H185.657Z" fill="#707070" stroke="#263238" stroke-linejoin="round"/>
<path d="M158.152 33.406H56.92C44.3456 33.406 34.1521 43.8182 34.1521 56.6622V275.524C34.1521 288.368 44.3456 298.78 56.92 298.78H158.152C170.727 298.78 180.92 288.368 180.92 275.524V56.6622C180.92 43.8182 170.727 33.406 158.152 33.406Z" fill="#263238" stroke="#263238" stroke-linejoin="round"/>
<path d="M156.287 35.311H115.526L115.481 35.4634C114.28 39.8983 111.497 42.7786 108.424 42.7786H106.678C103.597 42.7786 100.822 39.8983 99.6135 35.4634L99.5762 35.311H58.7924C53.3396 35.311 48.1102 37.5236 44.2545 41.462C40.3988 45.4004 38.2327 50.742 38.2327 56.3118V265.679C38.2327 268.436 38.7645 271.167 39.7978 273.714C40.8311 276.262 42.3457 278.576 44.2549 280.526C46.1642 282.475 48.4307 284.022 50.9251 285.076C53.4195 286.131 56.0928 286.673 58.7924 286.672H156.287C158.986 286.673 161.659 286.131 164.153 285.076C166.647 284.021 168.913 282.475 170.822 280.525C172.731 278.576 174.245 276.261 175.277 273.714C176.31 271.166 176.84 268.436 176.839 265.679V56.3118C176.84 53.5543 176.31 50.8236 175.277 48.2757C174.245 45.7278 172.731 43.4127 170.822 41.4625C168.914 39.5123 166.648 37.9652 164.154 36.9098C161.66 35.8543 158.987 35.311 156.287 35.311Z" fill="white" stroke="#263238" stroke-linejoin="round"/>
<path d="M156.287 35.311H115.526L115.481 35.4634C114.28 39.8983 111.497 42.7786 108.424 42.7786H106.678C103.597 42.7786 100.822 39.8983 99.6135 35.4634L99.5762 35.311H58.7924C53.3396 35.311 48.1102 37.5236 44.2545 41.462C40.3988 45.4004 38.2327 50.742 38.2327 56.3118V58.674H176.839V56.3118C176.84 53.5543 176.31 50.8236 175.277 48.2757C174.245 45.7278 172.731 43.4127 170.822 41.4625C168.914 39.5123 166.648 37.9652 164.154 36.9098C161.66 35.8543 158.987 35.311 156.287 35.311Z" fill="#92E3A9"/>
<path d="M153.519 153.924C153.519 149.352 159.622 143.972 158.518 139.736C157.369 135.354 149.424 133.838 147.253 129.997C145.082 126.157 147.708 118.331 144.612 115.169C141.516 112.006 133.914 114.734 130.095 112.479C126.275 110.223 124.873 102.146 120.569 100.973C116.421 99.8449 111.176 106.078 106.678 106.078C102.18 106.078 96.9353 99.8449 92.7875 100.973C88.498 102.146 87.0135 110.261 83.2536 112.479C79.4938 114.696 71.8324 112.014 68.7365 115.176C65.6406 118.339 68.3113 126.103 66.1031 130.005C63.8949 133.906 55.9873 135.339 54.8385 139.736C53.712 143.972 59.8367 149.352 59.8367 153.924C59.8367 158.496 53.7344 163.876 54.8385 168.112C55.9873 172.494 63.9322 174.01 66.1031 177.851C68.274 181.691 65.648 189.517 68.7439 192.679C71.8398 195.842 79.4416 193.114 83.2611 195.369C87.0806 197.625 88.4831 205.702 92.7875 206.875C96.9353 208.003 102.18 201.77 106.678 201.77C111.176 201.77 116.421 208.003 120.569 206.875C124.858 205.702 126.343 197.587 130.102 195.369C133.862 193.152 141.524 195.834 144.62 192.672C147.715 189.509 145.045 181.745 147.253 177.843C149.461 173.942 157.369 172.509 158.518 168.112C159.644 163.876 153.519 158.496 153.519 153.924Z" fill="#92E3A9"/>
<path d="M106.029 173.096L85.7901 151.211C85.3251 150.706 85.0757 150.033 85.0967 149.34C85.1177 148.647 85.4073 147.99 85.902 147.516C86.3966 147.041 87.0557 146.786 87.7342 146.807C88.4127 146.829 89.0551 147.125 89.5201 147.63L105.41 164.821L125.477 135.103C125.66 134.801 125.9 134.541 126.184 134.337C126.468 134.134 126.789 133.992 127.129 133.919C127.468 133.846 127.818 133.845 128.158 133.915C128.498 133.985 128.821 134.124 129.106 134.325C129.392 134.527 129.634 134.785 129.819 135.085C130.004 135.384 130.127 135.719 130.181 136.069C130.235 136.419 130.219 136.777 130.134 137.12C130.048 137.463 129.896 137.786 129.685 138.067L106.029 173.096Z" fill="white"/>
<path d="M53.8239 231.557L53.2122 232.189L49.0048 236.487L44.1707 231.557C43.6149 230.985 43.303 230.213 43.303 229.408C43.303 228.602 43.6149 227.83 44.1707 227.259C44.7298 226.691 45.4861 226.373 46.2744 226.373C47.0628 226.373 47.8191 226.691 48.3781 227.259L49.0048 227.891L49.6165 227.259C50.1756 226.691 50.9319 226.373 51.7202 226.373C52.5086 226.373 53.2649 226.691 53.8239 227.259C54.3797 227.83 54.6917 228.602 54.6917 229.408C54.6917 230.213 54.3797 230.985 53.8239 231.557Z" stroke="#263238" stroke-linejoin="round"/>
<path d="M65.5586 237.919C68.9576 237.919 71.7131 235.105 71.7131 231.633C71.7131 228.161 68.9576 225.346 65.5586 225.346C62.1595 225.346 59.4041 228.161 59.4041 231.633C59.4041 235.105 62.1595 237.919 65.5586 237.919Z" stroke="#263238" stroke-linecap="round" stroke-linejoin="round"/>
<path d="M61.9629 232.783C62.116 233.635 62.563 234.403 63.2227 234.947C63.8824 235.49 64.7112 235.775 65.5586 235.748C66.4144 235.812 67.2622 235.542 67.9299 234.991C68.5977 234.441 69.0354 233.652 69.1543 232.783H61.9629Z" stroke="#263238" stroke-linecap="round" stroke-linejoin="round"/>
<path d="M64.0964 230.474C64.0964 231.191 63.8875 231.77 63.6339 231.77C63.3803 231.77 63.1714 231.191 63.1714 230.474C63.1714 229.758 63.3803 229.171 63.6339 229.171C63.8875 229.171 64.0964 229.751 64.0964 230.474Z" fill="#263238"/>
<path d="M67.5654 230.474C67.5654 231.191 67.3565 231.77 67.1029 231.77C66.8493 231.77 66.6404 231.191 66.6404 230.474C66.6404 229.758 66.8493 229.171 67.1029 229.171C67.3565 229.171 67.5654 229.751 67.5654 230.474Z" fill="#263238"/>
<path d="M44.2976 244.221H86.9091" stroke="#263238" stroke-linejoin="round"/>
<path d="M121.098 249.936H135.526" stroke="#263238" stroke-linejoin="round"/>
<path d="M109.162 249.936H118.114" stroke="#263238" stroke-linejoin="round"/>
<path d="M73.3542 249.936H105.686" stroke="#263238" stroke-linejoin="round"/>
<path d="M44.2976 249.936H69.3781" stroke="#263238" stroke-linejoin="round"/>
<path d="M98.7183 256.032H126.82" stroke="#263238" stroke-linejoin="round"/>
<path d="M73.854 256.032H95.2418" stroke="#263238" stroke-linejoin="round"/>
<path d="M44.2976 256.032H70.3703" stroke="#263238" stroke-linejoin="round"/>
<path d="M163.874 262.128H167.35" stroke="#263238" stroke-linejoin="round"/>
<path d="M138.01 262.128H161.382" stroke="#263238" stroke-linejoin="round"/>
<path d="M92.2578 262.128H132.042" stroke="#263238" stroke-linejoin="round"/>
<path d="M54.458 262.128H88.2742" stroke="#263238" stroke-linejoin="round"/>
<path d="M44.2976 262.128H50.4819" stroke="#263238" stroke-linejoin="round"/>
<path d="M52.869 86.5861C57.3846 86.5861 61.0452 82.847 61.0452 78.2346C61.0452 73.6222 57.3846 69.8831 52.869 69.8831C48.3535 69.8831 44.6929 73.6222 44.6929 78.2346C44.6929 82.847 48.3535 86.5861 52.869 86.5861Z" fill="#595959"/>
<path d="M65.1333 78.6155H93.3843" stroke="#263238" stroke-linejoin="round"/>
<path d="M107.118 38.2904C108.185 38.2904 109.05 37.4068 109.05 36.3168C109.05 35.2269 108.185 34.3433 107.118 34.3433C106.051 34.3433 105.186 35.2269 105.186 36.3168C105.186 37.4068 106.051 38.2904 107.118 38.2904Z" fill="#707070"/>
<path d="M50.549 43.8759C50.549 45.8647 48.3633 46.5886 48.311 48.105V48.2116H50.4446V48.8822H47.6396V48.3183C47.6396 46.1771 49.8329 45.7656 49.8329 43.8987C49.8329 43.2205 49.6091 42.8624 49.0869 42.8624C48.5647 42.8624 48.3409 43.251 48.3409 43.8378V44.4245H47.6695V43.8835C47.6695 42.87 48.1245 42.1995 49.1615 42.1995C50.1984 42.1995 50.549 42.8624 50.549 43.8759Z" fill="white"/>
<path d="M54.1 43.8607V44.0359C54.1304 44.3191 54.0697 44.6046 53.927 44.8494C53.7843 45.0941 53.5675 45.2847 53.3093 45.3923C53.5687 45.5027 53.786 45.6961 53.9286 45.9434C54.0712 46.1907 54.1313 46.4786 54.1 46.7639V47.2439C54.1 48.2574 53.6375 48.9203 52.608 48.9203C51.5785 48.9203 51.116 48.2574 51.116 47.2439V46.7944H51.7949V47.2897C51.7949 47.884 52.0336 48.2498 52.5409 48.2498C53.0482 48.2498 53.2869 47.8993 53.2869 47.2287V46.7182C53.2869 46.0628 53.0183 45.7504 52.4737 45.7352H52.0858V45.0722H52.511C52.6222 45.0743 52.7323 45.051 52.8335 45.004C52.9347 44.957 53.0243 44.8875 53.0958 44.8006C53.1673 44.7137 53.2189 44.6116 53.2468 44.5017C53.2747 44.3918 53.2782 44.2769 53.257 44.1655V43.8607C53.257 43.1825 53.0258 42.832 52.511 42.832C51.9963 42.832 51.765 43.1977 51.765 43.7921V44.1959H51.0862V43.8911C51.0862 42.8853 51.5487 42.23 52.5782 42.23C53.6077 42.23 54.1 42.8548 54.1 43.8607Z" fill="white"/>
<path d="M55.495 44.3635V45.2779H54.8013V44.3635H55.495ZM55.495 47.9678V48.8822H54.8013V48.0059L55.495 47.9678Z" fill="white"/>
<path d="M56.9571 44.9579C57.0515 44.7839 57.1916 44.6403 57.3617 44.5434C57.5317 44.4464 57.7249 44.4 57.9195 44.4093C58.755 44.4093 59.1205 45.0341 59.1205 45.979V47.2439C59.1205 48.2574 58.6505 48.9203 57.6285 48.9203C56.6065 48.9203 56.1813 48.2574 56.1813 47.2439V46.802H56.8527V47.2896C56.8527 47.884 57.0914 48.2498 57.5987 48.2498C58.106 48.2498 58.3447 47.884 58.3447 47.2896V46.04C58.3447 45.4456 58.0985 45.0798 57.5987 45.0798C57.5035 45.0736 57.4081 45.0873 57.3183 45.12C57.2285 45.1527 57.1462 45.2038 57.0763 45.2702C57.0065 45.3365 56.9507 45.4167 56.9122 45.5058C56.8738 45.5949 56.8535 45.6911 56.8527 45.7885V45.9409H56.1738L56.3529 42.2681H58.934V42.931H57.0616L56.9571 44.9579Z" fill="white"/>
<path d="M62.7237 43.853V43.9749H62.0448V43.8073C62.0448 43.2129 61.8061 42.8624 61.2988 42.8624C60.7915 42.8624 60.5081 43.2205 60.5081 43.9292V45.4532C60.5836 45.2355 60.7262 45.0488 60.9146 44.921C61.1029 44.7932 61.3267 44.7313 61.5525 44.7445C62.388 44.7445 62.7535 45.3541 62.7535 46.3143V47.2439C62.7535 48.2574 62.2686 48.9203 61.2615 48.9203C60.2544 48.9203 59.7695 48.2574 59.7695 47.2439V43.8987C59.7695 42.8548 60.2321 42.1995 61.2615 42.1995C62.291 42.1995 62.7237 42.8395 62.7237 43.853ZM60.4857 46.3295V47.3201C60.4857 47.9145 60.7244 48.2802 61.2317 48.2802C61.739 48.2802 61.9777 47.9145 61.9777 47.3201V46.3295C61.9777 45.7351 61.7241 45.377 61.2317 45.377C60.7393 45.377 60.4931 45.7199 60.4931 46.3295H60.4857Z" fill="white"/>
<path d="M133.43 44.1426H131.602V48.8136H133.43V44.1426Z" fill="white"/>
<path d="M135.869 43.2053H134.042V48.8136H135.869V43.2053Z" fill="white"/>
<path d="M138.308 42.5425H136.481V48.8137H138.308V42.5425Z" fill="white"/>
<path d="M140.748 41.3918H138.92V48.8137H140.748V41.3918Z" fill="white"/>
<path d="M163.374 48.6842H152.408V41.8262H163.374V48.6842ZM153.005 48.067H162.762V42.4586H153.012L153.005 48.067Z" fill="white"/>
<path d="M159.719 43.1367H153.93V47.3887H159.719V43.1367Z" fill="white"/>
<path d="M164.381 44.4551H163.001V46.0705H164.381V44.4551Z" fill="white"/>
<path d="M148.379 47.1983C148.306 47.1958 148.234 47.1749 148.171 47.1373C145.933 45.781 144.441 47.0383 144.403 47.0916C144.365 47.1362 144.317 47.1719 144.264 47.1963C144.211 47.2207 144.153 47.2332 144.095 47.2331C144.037 47.233 143.979 47.2203 143.926 47.1957C143.873 47.1711 143.826 47.1353 143.788 47.0906C143.749 47.0458 143.72 46.9933 143.703 46.9364C143.686 46.8795 143.681 46.8195 143.689 46.7605C143.696 46.7015 143.716 46.6448 143.747 46.5942C143.777 46.5435 143.818 46.5001 143.866 46.4668C143.941 46.3906 145.828 44.7447 148.596 46.4211C148.688 46.4781 148.755 46.57 148.782 46.677C148.808 46.7841 148.792 46.8974 148.738 46.9926C148.7 47.055 148.647 47.1066 148.584 47.1425C148.522 47.1785 148.451 47.1977 148.379 47.1983Z" fill="white"/>
<path d="M149.2 45.7885C149.126 45.7898 149.053 45.7686 148.991 45.7276C145.761 43.7692 143.59 45.6666 143.568 45.6819C143.528 45.7194 143.482 45.7483 143.431 45.7669C143.38 45.7854 143.326 45.7931 143.272 45.7895C143.219 45.7859 143.166 45.7712 143.118 45.7461C143.07 45.721 143.028 45.6862 142.993 45.6438C142.958 45.603 142.93 45.5553 142.913 45.5036C142.895 45.4518 142.888 45.397 142.891 45.3424C142.895 45.2877 142.909 45.2344 142.933 45.1854C142.957 45.1364 142.99 45.0927 143.031 45.057C143.031 45.057 145.671 42.771 149.409 45.0113C149.455 45.0388 149.496 45.0756 149.529 45.1194C149.561 45.1632 149.585 45.2132 149.598 45.2665C149.611 45.3198 149.614 45.3752 149.606 45.4295C149.597 45.4839 149.579 45.536 149.551 45.5828C149.516 45.6462 149.465 45.6987 149.403 45.7349C149.341 45.7711 149.271 45.7897 149.2 45.7885Z" fill="white"/>
<path d="M149.946 44.1959C149.873 44.1982 149.801 44.1797 149.737 44.1425C145.642 41.6584 142.926 43.9901 142.814 44.0968C142.732 44.1706 142.625 44.208 142.516 44.2009C142.407 44.1937 142.305 44.1426 142.233 44.0587C142.16 43.9748 142.124 43.8651 142.131 43.7536C142.138 43.6422 142.188 43.5381 142.27 43.4644C142.307 43.4644 145.537 40.6145 150.155 43.4186C150.248 43.4756 150.314 43.5676 150.341 43.6746C150.368 43.7816 150.352 43.895 150.297 43.9901C150.261 44.0529 150.21 44.1051 150.149 44.1412C150.087 44.1773 150.017 44.1962 149.946 44.1959Z" fill="white"/>
<path d="M147.149 47.8992C147.149 48.1072 147.088 48.3105 146.975 48.4834C146.862 48.6564 146.701 48.7911 146.513 48.8707C146.325 48.9503 146.118 48.9711 145.918 48.9306C145.719 48.89 145.535 48.7898 145.391 48.6428C145.247 48.4957 145.149 48.3083 145.109 48.1044C145.07 47.9004 145.09 47.689 145.168 47.4968C145.246 47.3047 145.378 47.1404 145.547 47.0249C145.716 46.9093 145.915 46.8477 146.119 46.8477C146.392 46.8477 146.654 46.9584 146.847 47.1557C147.04 47.3529 147.149 47.6203 147.149 47.8992Z" fill="white"/>
<path d="M336.856 208.392C336.856 208.392 327.942 203.332 327.285 214.8C326.629 226.268 324.973 321.396 324.973 321.396" stroke="#263238" stroke-width="2" stroke-linecap="round" stroke-linejoin="round"/>
<path d="M322.653 215.806C322.653 215.806 329.926 252.923 326.621 320.383" stroke="#263238" stroke-width="2" stroke-linecap="round" stroke-linejoin="round"/>
<path d="M329.799 210.701C329.799 210.701 326.39 212.933 324.45 210.373C322.511 207.813 325.763 203.142 322.891 201.138C320.019 199.134 315.073 202.197 315.073 202.197C315.073 202.197 318.885 203.34 318.766 205.466C318.646 207.592 316.804 208.392 316.528 207.462C316.252 206.533 314.469 201.854 311.373 203.797C310.481 204.336 309.705 205.054 309.092 205.908C308.479 206.762 308.042 207.734 307.807 208.765C307.807 208.765 315.006 208.003 315.446 210.746C315.886 213.49 312.462 210.266 309.515 210.091C306.569 209.916 303.838 210.358 304.025 212.194C304.095 213.82 304.002 215.449 303.749 217.056C305.372 215.675 307.426 214.934 309.538 214.968C312.805 215.158 312.678 217.254 309.709 217.109C306.74 216.964 304.181 219.822 304.181 219.822C304.181 219.822 306.889 224.554 310.336 226.893C313.782 229.233 315.021 228.417 315.424 226.596C315.827 224.775 314.901 220.165 316.983 220.287C319.064 220.409 313.536 228.311 316.192 228.775C318.848 229.24 320.989 228.455 321.683 226.665L322.384 224.882C322.384 224.882 321.459 220.256 321.862 218.45C322.264 216.644 322.757 218.504 323.227 220.668C323.697 222.832 323.973 228.021 324.905 227.777C325.838 227.533 328.717 223.739 329.381 222.253C330.045 220.767 325.554 216.233 325.607 215.326C325.659 214.419 329.143 216.149 329.68 217.094C330.074 217.805 330.43 218.538 330.746 219.288C330.746 219.288 332.917 217.894 332.865 213.627C332.813 209.36 329.799 210.701 329.799 210.701Z" fill="#92E3A9"/>
<path opacity="0.3" d="M329.799 210.701C329.799 210.701 326.39 212.933 324.45 210.373C322.511 207.813 325.763 203.142 322.891 201.138C320.019 199.134 315.073 202.197 315.073 202.197C315.073 202.197 318.885 203.34 318.766 205.466C318.646 207.592 316.804 208.392 316.528 207.462C316.252 206.533 314.469 201.854 311.373 203.797C310.481 204.336 309.705 205.054 309.092 205.908C308.479 206.762 308.042 207.734 307.807 208.765C307.807 208.765 315.006 208.003 315.446 210.746C315.886 213.49 312.462 210.266 309.515 210.091C306.569 209.916 303.838 210.358 304.025 212.194C304.095 213.82 304.002 215.449 303.749 217.056C305.372 215.675 307.426 214.934 309.538 214.968C312.805 215.158 312.678 217.254 309.709 217.109C306.74 216.964 304.181 219.822 304.181 219.822C304.181 219.822 306.889 224.554 310.336 226.893C313.782 229.233 315.021 228.417 315.424 226.596C315.827 224.775 314.901 220.165 316.983 220.287C319.064 220.409 313.536 228.311 316.192 228.775C318.848 229.24 320.989 228.455 321.683 226.665L322.384 224.882C322.384 224.882 321.459 220.256 321.862 218.45C322.264 216.644 322.757 218.504 323.227 220.668C323.697 222.832 323.973 228.021 324.905 227.777C325.838 227.533 328.717 223.739 329.381 222.253C330.045 220.767 325.554 216.233 325.607 215.326C325.659 214.419 329.143 216.149 329.68 217.094C330.074 217.805 330.43 218.538 330.746 219.288C330.746 219.288 332.917 217.894 332.865 213.627C332.813 209.36 329.799 210.701 329.799 210.701Z" fill="#263238"/>
<path d="M312.507 220.706C314.745 217.902 318.012 214.099 320.758 212.286" stroke="#263238" stroke-linecap="round" stroke-linejoin="round"/>
<path d="M309.933 224.127C309.933 224.127 310.5 223.319 311.425 222.1" stroke="#263238" stroke-linecap="round" stroke-linejoin="round"/>
<path d="M322.205 212.987C322.205 212.987 325.51 217.757 326.121 222.664" stroke="#263238" stroke-linecap="round" stroke-linejoin="round"/>
<path d="M318.468 215.806C318.468 215.806 319.393 215.25 319.042 221.323" stroke="#263238" stroke-linecap="round" stroke-linejoin="round"/>
<path d="M320.877 210.159C320.877 210.159 322.772 208.445 321.772 205.031" stroke="#263238" stroke-linecap="round" stroke-linejoin="round"/>
<path d="M318.326 213.055L316.983 210.533" stroke="#263238" stroke-linecap="round" stroke-linejoin="round"/>
<path d="M315.491 215.646C315.491 215.646 311.209 212.347 308.531 212.179" stroke="#263238" stroke-linecap="round" stroke-linejoin="round"/>
<path d="M341.951 201.701C341.951 201.701 341.817 206.708 337.99 206.952C334.163 207.195 331.791 200.68 327.874 202.25C323.958 203.82 323.585 210.96 323.585 210.96C323.585 210.96 327.315 207.843 329.299 209.436C331.284 211.028 330.836 213.436 329.762 213.055C328.688 212.674 322.854 211.341 322.652 215.829C322.571 217.108 322.745 218.391 323.163 219.6C323.581 220.809 324.235 221.918 325.084 222.862C325.084 222.862 329.232 214.96 332.238 216.4C335.245 217.841 329.754 219.098 327.554 222.016C325.353 224.935 323.943 228.006 325.875 229.065C327.523 230.095 329.065 231.292 330.478 232.639C330.229 230.04 330.901 227.436 332.373 225.301C334.797 222.085 336.797 223.662 334.611 226.581C332.425 229.499 333.499 234.079 333.499 234.079C333.499 234.079 339.989 234.536 344.63 232.608C349.27 230.68 349.299 228.844 347.8 227.198C346.301 225.552 341.146 223.35 342.682 221.308C344.219 219.265 348.195 230.299 350.463 227.899C352.731 225.499 353.447 222.778 352.142 220.85L350.866 218.915C350.866 218.915 345.704 216.705 344.204 215.067C342.705 213.429 344.868 214.191 347.308 215.181C349.747 216.172 355.044 219.41 355.417 218.313C355.79 217.216 354.059 211.661 353.074 209.931C352.09 208.201 344.562 209.74 343.704 209.07C342.847 208.399 346.92 206.022 348.218 206.106C349.184 206.191 350.145 206.328 351.097 206.517C351.097 206.517 351.209 203.347 346.994 200.49C342.779 197.632 341.951 201.701 341.951 201.701Z" fill="#92E3A9"/>
<path opacity="0.2" d="M341.951 201.701C341.951 201.701 341.817 206.708 337.99 206.952C334.163 207.195 331.791 200.68 327.874 202.25C323.958 203.82 323.585 210.96 323.585 210.96C323.585 210.96 327.315 207.843 329.299 209.436C331.284 211.028 330.836 213.436 329.762 213.055C328.688 212.674 322.854 211.341 322.652 215.829C322.571 217.108 322.745 218.391 323.163 219.6C323.581 220.809 324.235 221.918 325.084 222.862C325.084 222.862 329.232 214.96 332.238 216.4C335.245 217.841 329.754 219.098 327.554 222.016C325.353 224.935 323.943 228.006 325.875 229.065C327.523 230.095 329.065 231.292 330.478 232.639C330.229 230.04 330.901 227.436 332.373 225.301C334.797 222.085 336.797 223.662 334.611 226.581C332.425 229.499 333.499 234.079 333.499 234.079C333.499 234.079 339.989 234.536 344.63 232.608C349.27 230.68 349.299 228.844 347.8 227.198C346.301 225.552 341.146 223.35 342.682 221.308C344.219 219.265 348.195 230.299 350.463 227.899C352.731 225.499 353.447 222.778 352.142 220.85L350.866 218.915C350.866 218.915 345.704 216.705 344.204 215.067C342.705 213.429 344.868 214.191 347.308 215.181C349.747 216.172 355.044 219.41 355.417 218.313C355.79 217.216 354.059 211.661 353.074 209.931C352.09 208.201 344.562 209.74 343.704 209.07C342.847 208.399 346.92 206.022 348.218 206.106C349.184 206.191 350.145 206.328 351.097 206.517C351.097 206.517 351.209 203.347 346.994 200.49C342.779 197.632 341.951 201.701 341.951 201.701Z" fill="#263238"/>
<path d="M339.982 226.2C338.744 222.016 337.252 216.073 337.349 212.027" stroke="#263238" stroke-linecap="round" stroke-linejoin="round"/>
<path d="M341.571 231.168C341.571 231.168 341.168 230.033 340.609 228.257" stroke="#263238" stroke-linecap="round" stroke-linejoin="round"/>
<path d="M339.02 211.021C339.02 211.021 345.95 210.891 351.18 213.612" stroke="#263238" stroke-linecap="round" stroke-linejoin="round"/>
<path d="M339.236 216.766C339.236 216.766 339.326 215.44 345.04 219.944" stroke="#263238" stroke-linecap="round" stroke-linejoin="round"/>
<path d="M335.349 210.457C335.349 210.457 334.954 207.356 330.933 206.045" stroke="#263238" stroke-linecap="round" stroke-linejoin="round"/>
<path d="M336.446 215.037L333.059 214.694" stroke="#263238" stroke-linecap="round" stroke-linejoin="round"/>
<path d="M337.035 219.685C337.035 219.685 330.874 221.818 328.889 224.439" stroke="#263238" stroke-linecap="round" stroke-linejoin="round"/>
<path d="M300.869 235.039C300.869 235.039 320.347 268.78 320.034 319.712" stroke="#263238" stroke-width="2" stroke-linecap="round" stroke-linejoin="round"/>
<path d="M324.89 231.564C324.89 231.564 324.271 237.325 319.833 237.241C315.394 237.157 313.26 229.408 308.598 230.833C303.935 232.258 302.831 240.472 302.831 240.472C302.831 240.472 307.412 237.233 309.545 239.245C311.679 241.257 310.948 244.008 309.739 243.459C308.531 242.91 301.936 240.815 301.287 245.981C301.071 247.455 301.151 248.958 301.522 250.399C301.892 251.839 302.546 253.188 303.443 254.363C303.443 254.363 308.956 245.646 312.298 247.597C315.64 249.547 309.172 250.462 306.367 253.616C303.562 256.771 301.645 260.185 303.779 261.595C305.572 262.944 307.226 264.476 308.717 266.167C308.717 266.167 308.493 261.343 311.589 257.876C314.685 254.409 316.811 256.413 314.029 259.568C311.246 262.722 312.059 268.117 312.059 268.117C312.059 268.117 319.519 269.268 325.04 267.493C330.56 265.717 330.769 263.591 329.202 261.557C327.636 259.522 321.869 256.474 323.839 254.264C325.808 252.054 329.366 265.168 332.201 262.646C335.036 260.124 336.08 257.023 334.79 254.676L333.499 252.321C333.499 252.321 327.74 249.273 326.174 247.239C324.607 245.204 327.017 246.294 329.739 247.673C332.462 249.052 338.274 253.296 338.811 252.062C339.348 250.828 337.856 244.259 336.879 242.194C335.901 240.129 327.076 241.158 326.144 240.297C325.211 239.436 330.135 237.081 331.627 237.31C333.119 237.538 334.909 238.072 334.909 238.072C334.909 238.072 335.334 234.429 330.732 230.726C326.129 227.023 324.89 231.564 324.89 231.564Z" fill="#92E3A9"/>
<path opacity="0.3" d="M324.89 231.564C324.89 231.564 324.271 237.325 319.833 237.241C315.394 237.157 313.26 229.408 308.598 230.833C303.935 232.258 302.831 240.472 302.831 240.472C302.831 240.472 307.412 237.233 309.545 239.245C311.679 241.257 310.948 244.008 309.739 243.459C308.531 242.91 301.936 240.815 301.287 245.981C301.071 247.455 301.151 248.958 301.522 250.399C301.892 251.839 302.546 253.188 303.443 254.363C303.443 254.363 308.956 245.646 312.298 247.597C315.64 249.547 309.172 250.462 306.367 253.616C303.562 256.771 301.645 260.185 303.779 261.595C305.572 262.944 307.226 264.476 308.717 266.167C308.717 266.167 308.493 261.343 311.589 257.876C314.685 254.409 316.811 256.413 314.029 259.568C311.246 262.722 312.059 268.117 312.059 268.117C312.059 268.117 319.519 269.268 325.04 267.493C330.56 265.717 330.769 263.591 329.202 261.557C327.636 259.522 321.869 256.474 323.839 254.264C325.808 252.054 329.366 265.168 332.201 262.646C335.036 260.124 336.08 257.023 334.79 254.676L333.499 252.321C333.499 252.321 327.74 249.273 326.174 247.239C324.607 245.204 327.017 246.294 329.739 247.673C332.462 249.052 338.274 253.296 338.811 252.062C339.348 250.828 337.856 244.259 336.879 242.194C335.901 240.129 327.076 241.158 326.144 240.297C325.211 239.436 330.135 237.081 331.627 237.31C333.119 237.538 334.909 238.072 334.909 238.072C334.909 238.072 335.334 234.429 330.732 230.726C326.129 227.023 324.89 231.564 324.89 231.564Z" fill="#263238"/>
<path d="M320.347 259.644C319.31 254.698 318.109 247.696 318.617 243.032" stroke="#263238" stroke-linecap="round" stroke-linejoin="round"/>
<path d="M321.727 265.534C321.727 265.534 321.362 264.178 320.885 262.082" stroke="#263238" stroke-linecap="round" stroke-linejoin="round"/>
<path d="M320.646 242.034C320.646 242.034 328.65 242.552 334.432 246.202" stroke="#263238" stroke-linecap="round" stroke-linejoin="round"/>
<path d="M320.355 248.686C320.355 248.686 320.586 247.162 326.763 252.908" stroke="#263238" stroke-linecap="round" stroke-linejoin="round"/>
<path d="M316.453 241.028C316.453 241.028 316.289 237.409 311.768 235.511" stroke="#263238" stroke-linecap="round" stroke-linejoin="round"/>
<path d="M317.296 246.423L313.425 245.699" stroke="#263238" stroke-linecap="round" stroke-linejoin="round"/>
<path d="M317.55 251.841C317.55 251.841 310.246 253.708 307.718 256.543" stroke="#263238" stroke-linecap="round" stroke-linejoin="round"/>
<path d="M324.89 279.776C324.89 279.776 324.271 285.544 319.833 285.46C315.394 285.377 313.26 277.619 308.598 279.052C303.935 280.485 302.831 288.691 302.831 288.691C302.831 288.691 307.412 285.453 309.545 287.465C311.679 289.476 310.948 292.227 309.739 291.678C308.531 291.13 301.936 289.034 301.287 294.201C301.071 295.674 301.151 297.177 301.522 298.618C301.892 300.059 302.546 301.408 303.443 302.583C303.443 302.583 308.956 293.865 312.298 295.816C315.64 297.767 309.172 298.681 306.367 301.836C303.562 304.99 301.645 308.404 303.779 309.814C305.574 311.161 307.228 312.693 308.717 314.386C308.717 314.386 308.493 309.563 311.589 306.095C314.685 302.628 316.811 304.632 314.029 307.787C311.246 310.942 312.059 316.337 312.059 316.337C312.059 316.337 319.519 317.487 325.04 315.712C330.56 313.936 330.769 311.81 329.202 309.776C327.636 307.741 321.869 304.693 323.839 302.484C325.808 300.274 329.366 313.388 332.201 310.866C335.036 308.343 336.08 305.242 334.79 302.887L333.499 300.54C333.499 300.54 327.74 297.492 326.174 295.458C324.607 293.423 327.017 294.505 329.739 295.885C332.462 297.264 338.274 301.516 338.811 300.281C339.348 299.047 337.856 292.478 336.879 290.413C335.901 288.348 327.076 289.369 326.144 288.508C325.211 287.647 330.135 285.3 331.627 285.529C332.733 285.724 333.829 285.979 334.909 286.291C334.909 286.291 335.334 282.649 330.732 278.945C326.129 275.242 324.89 279.776 324.89 279.776Z" fill="#92E3A9"/>
<path opacity="0.3" d="M324.89 279.776C324.89 279.776 324.271 285.544 319.833 285.46C315.394 285.377 313.26 277.619 308.598 279.052C303.935 280.485 302.831 288.691 302.831 288.691C302.831 288.691 307.412 285.453 309.545 287.465C311.679 289.476 310.948 292.227 309.739 291.678C308.531 291.13 301.936 289.034 301.287 294.201C301.071 295.674 301.151 297.177 301.522 298.618C301.892 300.059 302.546 301.408 303.443 302.583C303.443 302.583 308.956 293.865 312.298 295.816C315.64 297.767 309.172 298.681 306.367 301.836C303.562 304.99 301.645 308.404 303.779 309.814C305.574 311.161 307.228 312.693 308.717 314.386C308.717 314.386 308.493 309.563 311.589 306.095C314.685 302.628 316.811 304.632 314.029 307.787C311.246 310.942 312.059 316.337 312.059 316.337C312.059 316.337 319.519 317.487 325.04 315.712C330.56 313.936 330.769 311.81 329.202 309.776C327.636 307.741 321.869 304.693 323.839 302.484C325.808 300.274 329.366 313.388 332.201 310.866C335.036 308.343 336.08 305.242 334.79 302.887L333.499 300.54C333.499 300.54 327.74 297.492 326.174 295.458C324.607 293.423 327.017 294.505 329.739 295.885C332.462 297.264 338.274 301.516 338.811 300.281C339.348 299.047 337.856 292.478 336.879 290.413C335.901 288.348 327.076 289.369 326.144 288.508C325.211 287.647 330.135 285.3 331.627 285.529C332.733 285.724 333.829 285.979 334.909 286.291C334.909 286.291 335.334 282.649 330.732 278.945C326.129 275.242 324.89 279.776 324.89 279.776Z" fill="#263238"/>
<path d="M320.347 307.848C319.31 302.895 318.109 295.9 318.617 291.236" stroke="#263238" stroke-linecap="round" stroke-linejoin="round"/>
<path d="M321.727 313.753C321.727 313.753 321.362 312.397 320.885 310.294" stroke="#263238" stroke-linecap="round" stroke-linejoin="round"/>
<path d="M320.646 290.253C320.646 290.253 328.65 290.772 334.432 294.414" stroke="#263238" stroke-linecap="round" stroke-linejoin="round"/>
<path d="M320.355 296.906C320.355 296.906 320.586 295.382 326.763 301.127" stroke="#263238" stroke-linecap="round" stroke-linejoin="round"/>
<path d="M316.453 289.24C316.453 289.24 316.289 285.628 311.768 283.731" stroke="#263238" stroke-linecap="round" stroke-linejoin="round"/>
<path d="M317.296 294.635L313.425 293.919" stroke="#263238" stroke-linecap="round" stroke-linejoin="round"/>
<path d="M317.55 300.06C317.55 300.06 310.246 301.92 307.718 304.762" stroke="#263238" stroke-linecap="round" stroke-linejoin="round"/>
<path d="M308.464 275.173C308.464 275.173 321.011 305.562 322.332 320.04L319.691 250.881" stroke="#263238" stroke-width="2" stroke-linecap="round" stroke-linejoin="round"/>
<path d="M338.841 268.095C322.332 265.047 322.332 320.048 322.332 320.048" stroke="#263238" stroke-width="2" stroke-linecap="round" stroke-linejoin="round"/>
<path d="M324.309 319.712C324.309 319.712 314.737 227.952 342.474 227.952" stroke="#263238" stroke-width="2" stroke-linecap="round" stroke-linejoin="round"/>
<path d="M332.552 266.045C330.314 263.454 325.502 263.454 322.682 270.076C319.862 276.697 322.399 275.547 322.399 275.547C322.399 275.547 327.755 273.817 331.142 272.666C334.529 271.516 339.035 268.635 339.348 270.38C339.661 272.125 337.11 273.832 333.992 274.411C330.873 274.99 322.712 277.292 323.548 278.983C324.383 280.675 326.368 285.887 326.368 285.887C328.779 283.799 331.324 281.877 333.984 280.134C337.647 277.848 339.9 278.694 337.931 281.285C335.961 283.875 330.314 286.756 331.448 290.208C332.582 293.659 339.341 297.988 339.341 297.988C339.341 297.988 340.183 290.787 342.16 288.485C344.137 286.184 344.13 288.767 343.57 292.798C343.287 294.516 343.097 296.248 343.003 297.988L350.896 300.868C352.187 298.859 353.599 296.935 355.126 295.107L356.536 293.667C356.536 293.667 350.329 288.196 350.053 284.736C349.777 281.277 354.283 284.736 355.685 285.316C357.088 285.895 359.356 289.926 359.356 289.926C359.356 289.926 360.766 283.296 361.042 280.995L361.325 278.709C361.325 278.709 355.409 276.423 353.119 276.423C350.829 276.423 349.74 278.153 349.74 275.852C349.74 273.55 351.978 272.11 354.529 272.392C356.826 272.785 359.088 273.364 361.295 274.122C361.295 274.122 362.989 272.682 362.422 268.361C361.855 264.041 360.452 264.048 357.065 265.199C353.679 266.349 351.433 268.94 348.897 268.94C346.36 268.94 347.763 265.77 349.456 264.909C351.15 264.048 355.38 262.318 356.222 262.029C357.065 261.739 351.746 257.708 348.897 257.137C346.047 256.565 342.421 258.585 342.69 261.45C343.264 267.462 334.805 268.635 332.552 266.045Z" fill="#92E3A9"/>
<path d="M350.695 295.694C350.784 296.563 350.844 297.431 350.874 298.293" stroke="#263238" stroke-linecap="round" stroke-linejoin="round"/>
<path d="M345.032 275.021C347.513 280.724 349.297 286.718 350.344 292.867" stroke="#263238" stroke-linecap="round" stroke-linejoin="round"/>
<path d="M344.018 272.712C342.623 269.664 341.571 267.774 341.571 267.774C343.11 267.031 344.388 265.824 345.234 264.315C345.892 262.952 346.859 261.769 348.054 260.863" stroke="#263238" stroke-linecap="round" stroke-linejoin="round"/>
<path d="M331.701 277.566C331.701 277.566 341.854 273.246 341.854 274.107" stroke="#263238" stroke-linecap="round" stroke-linejoin="round"/>
<path d="M347.494 272.095C347.494 272.095 351.97 269.809 355.947 269.809" stroke="#263238" stroke-linecap="round" stroke-linejoin="round"/>
<path d="M345.801 279.006C343.845 280.647 342.051 282.48 340.445 284.478C338.796 286.459 337.464 288.694 336.498 291.099" stroke="#263238" stroke-linecap="round" stroke-linejoin="round"/>
<path d="M348.904 280.157C348.904 280.157 354.82 278.427 357.923 281.308" stroke="#263238" stroke-linecap="round" stroke-linejoin="round"/>
<path d="M359.624 241.249C356.558 239.39 353.164 239.352 351.5 237.393C349.837 235.435 353.097 234.445 354.85 235.184C356.603 235.923 360.646 238.056 361.415 238.514C362.183 238.971 361.646 232.204 360.229 229.652C358.811 227.099 354.91 225.621 352.97 227.701C348.867 232.105 342.466 226.337 342.906 222.893C343.347 219.448 340.176 215.76 333.462 217.932C326.748 220.104 329.232 221.308 329.232 221.308C329.232 221.308 334.014 224.302 337.088 226.154C340.161 228.006 345.241 229.606 344.152 230.955C343.063 232.303 340.116 231.48 337.655 229.431C335.193 227.381 328.136 222.626 327.412 224.409C326.688 226.192 324.152 231.115 324.152 231.115C327.277 231.604 330.368 232.304 333.402 233.21C337.505 234.528 338.348 236.83 335.133 237.02C331.918 237.211 326.099 234.734 324.286 237.874C322.474 241.013 323.712 249.06 323.712 249.06C323.712 249.06 329.59 244.991 332.589 245.006C335.588 245.021 333.664 246.713 330.314 248.923C328.861 249.83 327.459 250.82 326.114 251.887L329.165 259.842C331.495 259.518 333.842 259.345 336.192 259.324L338.177 259.469C338.177 259.469 338.177 251.087 340.527 248.618C342.877 246.149 343.302 251.879 343.802 253.342C344.302 254.805 342.795 259.187 342.795 259.187C342.795 259.187 348.613 255.933 350.501 254.615L352.388 253.319C352.388 253.319 350.21 247.223 348.733 245.501C347.256 243.779 345.241 244.023 346.942 242.514C348.643 241.005 351.187 241.805 352.642 243.947C353.855 245.977 354.91 248.102 355.797 250.302C355.797 250.302 357.968 250.66 360.796 247.391C363.623 244.122 362.69 243.078 359.624 241.249ZM332.947 250.462C330.709 249.311 336.043 247.01 336.043 247.01C338.02 246.72 335.2 251.612 332.947 250.462ZM336.745 239.71C335.782 239.222 338.669 238.239 338.669 238.239C342.832 239.055 337.707 240.205 336.745 239.71Z" fill="#92E3A9"/>
<path d="M332.888 256.329C332.298 256.962 331.694 257.579 331.075 258.173" stroke="#263238" stroke-linecap="round" stroke-linejoin="round"/>
<path d="M344.458 238.407C341.866 244.056 338.609 249.36 334.76 254.203" stroke="#263238" stroke-linecap="round" stroke-linejoin="round"/>
<path d="M345.495 236.113C346.853 233.02 347.547 230.985 347.547 230.985C349.103 231.685 350.831 231.882 352.5 231.549C353.939 231.163 355.448 231.131 356.901 231.458" stroke="#263238" stroke-linecap="round" stroke-linejoin="round"/>
<path d="M333.835 229.796C333.835 229.796 343.682 234.787 343.048 235.359" stroke="#263238" stroke-linecap="round" stroke-linejoin="round"/>
<path d="M348.233 238.384C348.233 238.384 352.888 240.35 355.477 243.398" stroke="#263238" stroke-linecap="round" stroke-linejoin="round"/>
<path d="M342.011 241.607C339.515 241.178 336.984 240.997 334.454 241.066C331.917 241.098 329.399 241.535 326.994 242.362" stroke="#263238" stroke-linecap="round" stroke-linejoin="round"/>
<path d="M343.197 244.754C343.197 244.754 348.352 248.191 348.255 252.473" stroke="#263238" stroke-linecap="round" stroke-linejoin="round"/>
<path d="M315.819 281.178C313.35 279.654 310.597 279.654 309.277 278.077C307.956 276.499 310.567 275.707 311.977 276.301C313.387 276.896 316.64 278.587 317.259 278.984C317.878 279.38 317.445 273.901 316.304 271.851C315.163 269.801 312.022 268.597 310.463 270.274C307.158 273.817 302.011 269.177 302.369 266.411C302.727 263.644 300.19 260.665 294.76 262.41C289.329 264.155 291.358 265.123 291.358 265.123C291.358 265.123 295.215 267.538 297.684 269.024C300.153 270.51 304.241 271.798 303.368 272.888C302.496 273.977 300.123 273.307 298.146 271.691C296.169 270.076 290.485 266.205 289.94 267.645C289.396 269.085 287.314 273.04 287.314 273.04C289.835 273.432 292.327 273.995 294.774 274.724C298.079 275.783 298.751 277.642 296.169 277.772C293.588 277.901 288.903 275.928 287.441 278.458C285.979 280.988 286.979 287.457 286.979 287.457C286.979 287.457 291.708 284.18 294.118 284.196C296.528 284.211 294.991 285.567 292.29 287.343C291.124 288.077 289.996 288.873 288.911 289.728L291.365 296.151C293.24 295.891 295.128 295.751 297.02 295.732L298.624 295.854C298.624 295.854 298.624 289.118 300.511 287.114C302.399 285.11 302.749 289.743 303.145 290.924C303.54 292.105 302.331 295.626 302.331 295.626C302.331 295.626 307.016 293.004 308.538 291.968L310.03 290.924C310.03 290.924 308.277 286.04 307.083 284.638C305.89 283.235 304.271 283.449 305.644 282.23C307.016 281.01 309.06 281.658 310.224 283.388C311.205 285.017 312.056 286.724 312.768 288.493C312.768 288.493 314.521 288.783 316.789 286.154C319.057 283.525 318.288 282.641 315.819 281.178ZM294.349 288.592C292.536 287.67 296.841 285.811 296.841 285.811C298.4 285.552 296.162 289.492 294.349 288.562V288.592ZM297.408 279.944C296.662 279.547 298.952 278.755 298.952 278.755C302.302 279.387 298.176 280.309 297.408 279.913V279.944Z" fill="#92E3A9"/>
<path d="M294.297 293.286C293.827 293.797 293.342 294.292 292.842 294.764" stroke="#263238" stroke-linecap="round" stroke-linejoin="round"/>
<path d="M303.622 278.892C301.534 283.439 298.908 287.708 295.804 291.602" stroke="#263238" stroke-linecap="round" stroke-linejoin="round"/>
<path d="M304.45 277.01C305.539 274.526 306.099 272.887 306.099 272.887C307.353 273.45 308.746 273.607 310.09 273.337C311.247 273.029 312.459 273.006 313.626 273.268" stroke="#263238" stroke-linecap="round" stroke-linejoin="round"/>
<path d="M295.065 271.927C295.065 271.927 302.988 275.951 302.473 276.408" stroke="#263238" stroke-linecap="round" stroke-linejoin="round"/>
<path d="M306.651 278.839C306.651 278.839 310.381 280.424 312.485 282.877" stroke="#263238" stroke-linecap="round" stroke-linejoin="round"/>
<path d="M301.645 281.437C299.637 281.091 297.601 280.945 295.565 281.003C293.517 281.024 291.485 281.376 289.545 282.047" stroke="#263238" stroke-linecap="round" stroke-linejoin="round"/>
<path d="M302.6 283.975C302.6 283.975 306.748 286.733 306.673 290.177" stroke="#263238" stroke-linecap="round" stroke-linejoin="round"/>
<path d="M305.748 233.599C305.748 233.599 302.645 235.885 300.675 233.599C298.706 231.313 301.518 226.687 298.698 224.958C295.879 223.228 291.373 226.398 291.373 226.398C291.373 226.398 295.036 227.259 295.036 229.278C295.036 231.297 293.342 232.158 293.059 231.29C292.775 230.421 290.821 226.108 287.986 228.128C287.172 228.686 286.477 229.408 285.943 230.249C285.41 231.089 285.049 232.032 284.883 233.02C284.883 233.02 291.649 231.869 292.216 234.46C292.783 237.051 289.396 234.17 286.576 234.17C283.756 234.17 281.22 234.749 281.503 236.456C281.657 237.989 281.657 239.534 281.503 241.066C282.964 239.676 284.864 238.865 286.859 238.78C289.963 238.78 289.963 240.792 287.143 240.792C284.323 240.792 282.07 243.672 282.07 243.672C282.07 243.672 284.883 247.993 288.269 250.012C291.656 252.031 292.783 251.163 293.059 249.433C293.335 247.703 292.216 243.383 294.193 243.383C296.169 243.383 291.373 251.163 293.924 251.46C296.475 251.757 298.4 250.881 298.997 249.174L299.564 247.444C299.564 247.444 298.4 243.078 298.698 241.371C298.997 239.664 299.549 241.371 300.108 243.383C300.668 245.394 301.235 250.294 302.085 250.012C302.936 249.73 305.465 245.981 306.032 244.541C306.599 243.101 302.085 239.07 302.085 238.201C302.085 237.332 305.465 238.78 306.032 239.641C306.599 240.502 307.158 241.661 307.158 241.661C307.158 241.661 309.128 240.22 308.852 236.189C308.575 232.158 305.748 233.599 305.748 233.599Z" fill="#92E3A9"/>
<path d="M289.955 244.038C291.902 241.257 294.797 237.485 297.289 235.61" stroke="#263238" stroke-linecap="round" stroke-linejoin="round"/>
<path d="M287.702 247.414C287.702 247.414 288.202 246.652 289.008 245.417" stroke="#263238" stroke-linecap="round" stroke-linejoin="round"/>
<path d="M298.698 236.22C298.698 236.22 302.085 240.541 302.928 245.143" stroke="#263238" stroke-linecap="round" stroke-linejoin="round"/>
<path d="M295.319 239.07C295.319 239.07 296.162 238.491 296.162 244.252" stroke="#263238" stroke-linecap="round" stroke-linejoin="round"/>
<path d="M297.289 233.599C297.289 233.599 298.982 231.869 297.856 228.699" stroke="#263238" stroke-linecap="round" stroke-linejoin="round"/>
<path d="M295.036 236.471L293.626 234.17" stroke="#263238" stroke-linecap="round" stroke-linejoin="round"/>
<path d="M292.499 239.07C292.499 239.07 288.269 236.22 285.718 236.22" stroke="#263238" stroke-linecap="round" stroke-linejoin="round"/>
<path d="M333.223 294.795C333.223 294.795 330.12 297.081 328.143 294.795C326.166 292.509 328.993 287.884 326.174 286.154C323.354 284.424 318.84 287.594 318.84 287.594C318.84 287.594 322.511 288.455 322.511 290.474C322.511 292.494 320.817 293.355 320.534 292.486C320.25 291.617 318.296 287.304 315.461 289.324C314.647 289.882 313.952 290.604 313.418 291.445C312.885 292.286 312.524 293.228 312.358 294.216C312.358 294.216 319.124 293.065 319.691 295.656C320.258 298.247 316.871 295.366 314.051 295.366C311.231 295.366 308.695 295.946 308.978 297.652C309.13 299.173 309.13 300.704 308.978 302.224C310.44 300.834 312.339 300.023 314.335 299.938C317.43 299.938 317.43 301.95 314.618 301.95C311.806 301.95 309.538 304.831 309.538 304.831C309.538 304.831 312.358 309.151 315.744 311.17C319.131 313.19 320.22 312.321 320.534 310.591C320.847 308.861 319.691 304.549 321.66 304.549C323.63 304.549 318.84 312.321 321.377 312.611C323.913 312.9 325.89 312.031 326.457 310.325L327.017 308.602C327.017 308.602 325.89 304.282 326.174 302.552C326.457 300.822 327.017 302.552 327.583 304.571C328.15 306.591 328.71 311.475 329.553 311.193C330.396 310.911 332.94 307.162 333.499 305.722C334.059 304.282 329.553 300.251 329.553 299.382C329.553 298.514 332.94 299.961 333.499 300.822C333.911 301.475 334.289 302.149 334.633 302.842C334.633 302.842 336.603 301.401 336.319 297.371C336.036 293.34 333.223 294.795 333.223 294.795Z" fill="#92E3A9"/>
<path d="M317.43 305.234C319.377 302.453 322.264 298.681 324.764 296.807" stroke="#263238" stroke-linecap="round" stroke-linejoin="round"/>
<path d="M315.177 308.61C315.177 308.61 315.67 307.81 316.483 306.606" stroke="#263238" stroke-linecap="round" stroke-linejoin="round"/>
<path d="M326.174 297.386C326.174 297.386 329.553 301.706 330.403 306.309" stroke="#263238" stroke-linecap="round" stroke-linejoin="round"/>
<path d="M322.787 300.266C322.787 300.266 323.637 299.687 323.637 305.448" stroke="#263238" stroke-linecap="round" stroke-linejoin="round"/>
<path d="M324.764 294.795C324.764 294.795 326.457 293.065 325.323 289.895" stroke="#263238" stroke-linecap="round" stroke-linejoin="round"/>
<path d="M322.511 297.675L321.101 295.366" stroke="#263238" stroke-linecap="round" stroke-linejoin="round"/>
<path d="M319.974 300.266C319.974 300.266 315.745 297.386 313.208 297.386" stroke="#263238" stroke-linecap="round" stroke-linejoin="round"/>
<path d="M334.215 318.752H312.425V350.794H334.215V318.752Z" fill="#263238"/>
<path d="M63.4101 350.794H19.4707" stroke="#263238" stroke-linejoin="round"/>
<path d="M349.874 350.794H71.6162" stroke="#263238" stroke-linejoin="round"/>
<path d="M213.513 225.552C213.513 225.552 210.745 242.369 212.767 252.016C214.788 261.663 219.018 274.343 219.481 276.347C219.943 278.351 217.922 287.236 218.735 293.812C219.548 300.388 221.405 321.061 221.405 321.061C221.405 321.061 221.062 326.212 221.831 327.469C222.535 328.676 222.899 330.058 222.883 331.462C222.942 332.933 221.92 334.442 222.883 335.501C223.845 336.56 224.576 337.452 224.621 338.549C224.665 339.646 224.703 340.743 224.733 341.475C224.762 342.207 219.16 350.695 219.257 353.263C219.354 355.831 221.495 355.93 224.531 354.886C227.567 353.842 230.238 349.148 230.238 349.148L230.507 351.343C230.626 351.388 230.753 351.409 230.88 351.403C231.008 351.397 231.132 351.365 231.247 351.309C231.362 351.253 231.465 351.174 231.549 351.076C231.633 350.978 231.697 350.864 231.738 350.741C231.975 349.407 232.042 348.047 231.939 346.695C231.939 345.933 232.573 344.47 232.484 342.085C232.371 340.302 232.122 338.531 231.738 336.789C231.738 336.789 232.372 334.564 232.484 333.642C232.595 332.72 231.738 332.019 232.334 329.611C232.931 327.203 233.826 327.157 233.826 325.694C233.839 324.214 233.661 322.738 233.297 321.305C232.894 320.04 234.639 309.509 234.587 308.038C234.535 306.568 234.729 302.529 234.729 302.529C234.729 302.529 236.639 296.022 236.542 293.461C236.445 290.901 236.325 274.008 236.325 274.008L236.087 267.774C236.087 267.774 236.624 276.918 237.706 281.848C238.787 286.779 240.779 300.815 241.973 303.886C243.166 306.956 244.89 314.233 245.539 317.144C246.188 320.055 247.128 325.709 247.128 325.709C246.789 326.904 246.715 328.162 246.911 329.39C246.98 330.375 247.137 331.352 247.381 332.308C247.381 332.308 246.225 334.922 246.434 335.646C246.626 336.858 246.733 338.083 246.755 339.311C246.755 339.86 245.598 341.925 244.636 345.087C243.674 348.249 240.414 352.044 243.226 355.054C246.038 358.064 250.843 352.173 251.618 349.026C252.394 345.879 254.155 340.111 254.311 339.555C254.986 338.35 255.422 337.022 255.595 335.646C255.751 334.243 255.751 332.827 255.595 331.424C255.938 330.398 256.187 329.342 256.341 328.27C256.467 326.982 256.341 324.231 256.341 324.231C256.341 324.231 259.101 312.039 259.325 307.962C259.548 303.886 258.124 295.526 257.885 294.063C257.646 292.6 257.885 289.11 257.295 288.036C256.706 286.962 255.498 283.334 255.498 283.334C255.498 283.334 264.45 262.966 265.785 251.894C267.12 240.822 266.628 231.671 266.016 229.857C265.405 228.044 264.808 226.421 264.808 226.421C264.808 226.421 257.288 231.861 241.025 229.575C224.762 227.289 218.436 226.451 216.803 225.963C215.731 225.663 214.623 225.525 213.513 225.552Z" fill="#263238" stroke="#263238" stroke-linejoin="round"/>
<path d="M228.776 113.538C228.776 113.538 224.472 113.904 220.354 119.055C216.236 124.206 214.244 130.995 215.445 132.862C216.646 134.729 218.078 137.937 218.108 138.699C218.138 139.461 212.536 145.062 214.132 147.485C215.728 149.908 216.161 151.432 214.878 151.676C213.595 151.92 211.402 153.924 211.827 155.25C212.252 156.576 214.542 157.635 213.669 159.205C212.797 160.774 212.036 160.607 212.103 162.527C212.17 164.447 214.028 165.91 213.05 166.23C212.073 166.55 210.215 166.992 210.812 168.326C211.374 169.389 212.042 170.389 212.804 171.313C212.804 171.313 220.033 178.689 234.341 179.84C248.649 180.99 261.846 167.808 263.83 165.811C265.815 163.815 266.173 163.22 266.128 162.077C266.083 160.934 265.285 159.616 264.853 158.267C264.42 156.919 264.89 154.244 264.853 153.695C264.815 153.147 263.457 151.646 262.488 150.922C261.518 150.198 261.257 148.095 261.555 146.159C261.854 144.224 259.929 142.966 259.161 142.425C258.392 141.884 257.758 140.177 258.258 138.432C258.758 136.687 256.438 135.057 255.468 134.333C254.498 133.609 254.252 131.887 254.55 129.959C254.849 128.031 252.26 124.107 250.88 122.438C249.5 120.769 247.605 115.283 240.391 113.294C233.177 111.305 228.776 113.538 228.776 113.538Z" fill="#263238" stroke="#263238" stroke-linejoin="round"/>
<path d="M237.914 154.594C237.914 154.594 229.835 159.319 224.337 161.193C218.839 163.068 218.6 175.565 218.72 178.674C218.839 181.783 215.81 201.191 217.705 203.683C219.6 206.174 236.833 205.664 242.748 205.245C248.664 204.826 252.842 206.121 256.736 204.483C260.63 202.844 261.115 201.557 261.04 199.537C260.966 197.518 261.369 175.481 261.204 171.259C261.04 167.038 259.914 161.033 258.429 159.829C256.945 158.625 253.849 157.627 249.306 156.347C244.763 155.067 237.914 154.594 237.914 154.594Z" fill="white" stroke="#263238" stroke-linejoin="round"/>
<path d="M215.997 210.731C215.997 210.731 213.013 226.634 213.072 228.097C213.09 229.146 213.01 230.195 212.834 231.229C212.834 231.229 219.384 233.172 222.084 233.431C224.785 233.69 230.73 233.812 233.274 234.444C235.818 235.077 246.396 234.444 250.134 233.583C253.871 232.722 256.542 231.861 258.668 231.221C260.417 230.644 262.131 229.962 263.8 229.179L265.904 227.655L261.495 211.318C261.495 211.318 253.819 212.545 246.292 213.207C238.765 213.87 224.501 212.064 222.517 211.783C220.532 211.501 215.997 210.731 215.997 210.731Z" fill="white" stroke="#263238" stroke-linejoin="round"/>
<path d="M222.734 223.571L222.517 225.643" stroke="#263238" stroke-linejoin="round"/>
<path d="M223.673 214.48L222.92 221.78" stroke="#263238" stroke-linejoin="round"/>
<path d="M222.502 214.937L220.756 221.064" stroke="#263238" stroke-linejoin="round"/>
<path d="M247.039 215.158L246.777 223.86" stroke="#263238" stroke-linejoin="round"/>
<path d="M253.036 224.043L253.409 226.421" stroke="#263238" stroke-linejoin="round"/>
<path d="M251.566 214.572L252.663 221.62" stroke="#263238" stroke-linejoin="round"/>
<path d="M261.04 199.553C260.958 197.541 261.369 175.496 261.205 171.275C261.123 169.149 260.929 169.995 260.459 167.8C257.848 170.299 252.066 174.429 240.69 175.771C233.23 176.612 225.699 175.056 219.145 171.32C218.814 173.756 218.681 176.216 218.75 178.674C218.869 181.79 215.84 201.191 217.735 203.683C219.63 206.174 236.863 205.664 242.778 205.245C248.694 204.826 252.872 206.121 256.766 204.483C260.66 202.844 261.1 201.572 261.04 199.553Z" fill="white" stroke="#263238" stroke-linejoin="round"/>
<path d="M241.704 198.92C243.603 198.753 245.491 198.476 247.359 198.089" stroke="#263238" stroke-linejoin="round"/>
<path d="M223.412 197.945C228.702 198.956 234.09 199.337 239.466 199.08" stroke="#263238" stroke-linejoin="round"/>
<path d="M225.657 195.468C226.475 196.598 227.557 197.5 228.804 198.091C230.052 198.682 231.424 198.944 232.797 198.852" stroke="#263238" stroke-linejoin="round"/>
<path d="M233.983 196.969C234.927 197.757 235.98 198.396 237.109 198.867" stroke="#263238" stroke-linejoin="round"/>
<path d="M244.099 198.402C245.404 197.138 246.5 195.666 247.344 194.043" stroke="#263238" stroke-linejoin="round"/>
<path d="M216.228 202.639C216.228 202.639 232.513 205.473 240.585 205.146C248.657 204.818 260.899 200.657 260.899 200.657L261.488 211.287C261.488 211.287 254.274 215.242 239.19 215.486C224.106 215.73 215.549 212.949 215.549 212.949L216.228 202.639Z" fill="#263238" stroke="#263238" stroke-linejoin="round"/>
<path d="M231.887 166.032C231.887 166.032 231.715 161.46 231.551 157.231C231.558 155.2 231.307 153.176 230.805 151.211C232.685 151.813 234.633 152.167 236.601 152.263C239.481 152.324 243.793 147.752 244.121 146.997C244.449 146.243 244.942 144.948 244.942 144.948C244.942 144.948 245.397 152.087 246.046 154.815C246.695 157.543 247.112 159.182 247.112 159.182" fill="white"/>
<path d="M231.887 166.032C231.887 166.032 231.715 161.46 231.551 157.231C231.558 155.2 231.307 153.176 230.805 151.211C232.685 151.813 234.633 152.167 236.601 152.263C239.481 152.324 243.793 147.752 244.121 146.997C244.449 146.243 244.942 144.948 244.942 144.948C244.942 144.948 245.397 152.087 246.046 154.815C246.695 157.543 247.112 159.182 247.112 159.182" stroke="#263238" stroke-miterlimit="10"/>
<path d="M234.528 158.496C238.899 156.042 242.666 150.35 242.666 150.35L242.92 148.422C241.368 150.023 238.608 152.309 236.572 152.232C234.603 152.136 232.655 151.783 230.775 151.181C231.277 153.146 231.528 155.17 231.521 157.201C231.558 158.153 231.596 159.121 231.626 160.05C232.364 159.7 233.289 159.189 234.528 158.496Z" fill="#263238" stroke="#263238" stroke-linejoin="round"/>
<path d="M247.672 132.169L244.807 132.474C244.807 132.474 244.748 132.055 244.576 131.376L244.211 131.026C243.651 130.5 243.465 130.691 242.577 130.538C241.689 130.386 241.257 128.946 241.197 127.49C241.137 126.035 239.332 125.73 237.303 124.343C235.639 123.208 234.893 120.807 234.677 119.969C234.009 119.888 233.335 119.863 232.663 119.893C232.366 121.427 231.805 122.895 231.006 124.229C229.649 126.301 228.388 126.172 228.075 127.277C227.761 128.382 226.911 129.708 226.195 129.921C225.479 130.134 223.696 130.211 223.726 131.125C223.755 132.039 223.285 133.525 222.756 133.914L222.36 134.211C222.681 136.276 223.106 137.945 223.106 138.311C223.106 139.073 223.315 143.805 225.397 146.479C227.478 149.154 231.476 155.044 236.146 154.861C240.816 154.678 244.509 148.102 245.166 146.426C245.822 144.75 245.994 139.964 245.994 139.964C246.945 138.991 247.705 137.84 248.232 136.573C249.007 134.501 247.672 132.169 247.672 132.169Z" fill="white" stroke="#263238" stroke-linejoin="round"/>
<path d="M222.472 131.536C222.42 130.249 223.591 128.001 224.128 127.978C225.231 127.628 226.165 126.87 226.747 125.852C227.068 124.922 226.851 124.015 227.739 123.612C228.627 123.208 228.567 121.927 228.567 121.927C228.567 121.927 226.157 124.594 224.748 125.387C223.75 125.912 222.863 126.632 222.137 127.505C221.9 129.15 221.9 130.821 222.137 132.466C222.264 132.352 222.362 132.207 222.42 132.045C222.479 131.882 222.497 131.708 222.472 131.536Z" fill="white" stroke="#263238" stroke-linejoin="round"/>
<path d="M232.528 145.26C232.528 145.26 233.662 146.868 235.773 145.496" stroke="#263238" stroke-linejoin="round"/>
<path d="M232.633 148.011C232.633 148.011 236.281 149.337 237.608 146.487" stroke="#263238" stroke-linejoin="round"/>
<path d="M228.843 138.455C228.948 139.217 228.709 139.865 228.313 139.918C227.918 139.972 227.53 139.446 227.426 138.684C227.321 137.922 227.56 137.282 227.948 137.221C228.336 137.16 228.746 137.701 228.843 138.455Z" fill="#263238"/>
<path d="M237.787 137.274C237.884 138.036 237.653 138.676 237.258 138.73C236.862 138.783 236.46 138.219 236.363 137.472C236.266 136.726 236.497 136.063 236.892 136.009C237.288 135.956 237.683 136.52 237.787 137.274Z" fill="#263238"/>
<path d="M224.964 135.636C224.964 135.636 225.799 133.952 228.694 134.203" stroke="#263238" stroke-linejoin="round"/>
<path d="M234.99 133.601C234.99 133.601 237.81 132.199 240.033 133.952" stroke="#263238" stroke-linejoin="round"/>
<path d="M229.238 134.562C229.238 134.562 231.67 137.038 231.767 139.606" stroke="#263238" stroke-linejoin="round"/>
<path d="M239.779 235.458C239.779 235.458 236.833 238.331 236.206 245.364C235.579 252.397 235.579 266.502 235.579 266.502C235.579 266.502 236.027 271.158 236.228 274" stroke="#808080" stroke-linejoin="round"/>
<path d="M236.743 239.535C235.755 238.826 234.865 237.985 234.095 237.035" stroke="#808080" stroke-linejoin="round"/>
<path d="M243.099 307.688C244.039 311.033 244.994 315.11 245.441 317.114C246.091 320.025 247.03 325.679 247.03 325.679C246.692 326.874 246.618 328.131 246.814 329.359C246.883 330.345 247.04 331.322 247.284 332.278C247.284 332.278 246.128 334.891 246.337 335.615C246.529 336.828 246.636 338.052 246.657 339.28C246.657 339.829 245.501 341.894 244.539 345.056C243.576 348.219 240.316 352.013 243.129 355.023C245.941 358.033 250.746 352.143 251.521 348.996C252.297 345.849 254.058 340.081 254.214 339.524C254.889 338.32 255.325 336.992 255.498 335.615C255.654 334.213 255.654 332.796 255.498 331.394C255.841 330.368 256.09 329.312 256.244 328.239C256.37 326.951 256.244 324.2 256.244 324.2C256.244 324.2 259.004 312.008 259.228 307.932C259.259 307.025 259.244 306.117 259.183 305.211C254.203 307.723 248.582 308.589 243.099 307.688Z" fill="#595959" stroke="#263238" stroke-linejoin="round"/>
<path d="M230.141 349.118L230.41 351.312C230.529 351.358 230.656 351.378 230.783 351.373C230.911 351.367 231.035 351.335 231.15 351.279C231.265 351.223 231.368 351.143 231.452 351.046C231.536 350.948 231.6 350.834 231.641 350.71C231.878 349.376 231.945 348.016 231.842 346.664C231.842 345.902 232.476 344.439 232.387 342.054C232.274 340.272 232.025 338.501 231.641 336.758C231.641 336.758 232.275 334.533 232.387 333.611C232.498 332.689 231.64 331.988 232.237 329.58C232.834 327.172 233.729 327.127 233.729 325.663C233.742 324.183 233.564 322.707 233.2 321.274C232.797 320.009 234.542 309.479 234.49 308.008C234.49 307.551 234.49 306.842 234.49 306.08C229.723 307.932 223.74 307.139 219.943 306.286C220.689 313.632 221.323 321.023 221.323 321.023C221.323 321.023 220.98 326.174 221.749 327.431C222.453 328.638 222.817 330.02 222.8 331.424C222.86 332.895 221.838 334.404 222.8 335.463C223.763 336.522 224.494 337.414 224.539 338.511C224.583 339.608 224.621 340.705 224.65 341.437C224.68 342.168 219.078 350.657 219.175 353.225C219.272 355.793 221.413 355.892 224.449 354.848C227.485 353.804 230.141 349.118 230.141 349.118Z" fill="#595959" stroke="#263238" stroke-linejoin="round"/>
<path d="M231.402 158.161C231.402 158.161 227.47 168.067 226.336 175.801C225.203 183.535 223.352 197.03 222.606 199.629C221.86 202.227 219.764 205.252 217.265 219.669C214.766 234.086 216.519 250.911 216.519 250.911C216.519 250.911 215.825 251.673 212.752 251.247C210.633 250.898 208.561 250.302 206.575 249.471C206.575 249.471 207.746 233.271 209.134 227.373C210.521 221.475 213.759 207.363 213.759 207.363L213.677 200.574C212.658 203.405 211.426 206.151 209.992 208.788C207.977 212.362 205.874 213.726 202.464 213.863C199.055 214 196.646 207.493 198.943 201.892C201.241 196.291 203.479 189.044 204.77 185.128C206.06 181.211 210.066 168.76 213.028 166.253C215.989 163.746 229.955 157.848 231.402 158.161Z" fill="#92E3A9" stroke="#263238" stroke-linejoin="round"/>
<path d="M247.672 155.669C247.672 155.669 246.926 177.912 248.112 185.753C249.298 193.594 253.468 203.53 254.707 207.706C255.945 211.882 257.422 226.87 258.541 232.517C259.66 238.163 259.287 251.757 259.287 251.757C259.287 251.757 262.159 251.643 263.965 251.757C265.77 251.871 272.976 247.901 272.976 247.901C272.976 247.901 272.044 237.66 270.156 230.581C268.269 223.502 264.636 208.59 264.151 205.306C263.666 202.021 262.801 198.379 262.764 197.282C262.726 196.184 264.256 189.662 264.256 189.662C264.256 189.662 269.754 173.66 269.194 168.539C268.635 163.418 262.234 160.561 259.123 159.029C256.012 157.498 247.672 155.669 247.672 155.669Z" fill="#92E3A9" stroke="#263238" stroke-linejoin="round"/>
<path d="M263.278 187.719L267.545 205.169C267.545 205.169 266.568 207.775 267.314 208.483C267.749 208.91 268.014 209.485 268.06 210.099C268.06 210.099 267.441 212.697 268.209 213.909C268.978 215.12 272.484 240.906 272.484 240.906C272.484 240.906 269.552 243.954 269.597 245.242C269.617 246.499 269.422 247.749 269.023 248.938C268.702 249.875 267.531 251.757 268.06 251.917C268.59 252.077 270.723 251.071 270.873 250.332C271.024 249.748 271.244 249.185 271.529 248.656L272.014 247.353C272.172 249.057 272.239 250.769 272.215 252.481C272.118 253.452 271.85 254.397 271.425 255.27C270.917 256.207 269.724 257.724 270.634 258.051C271.544 258.379 274.274 254.607 274.274 254.607C275.088 254.396 275.864 254.054 276.572 253.594C277.795 252.832 278.81 250.203 278.922 249.273C279.034 248.343 278.922 244.701 278.922 244.137C278.922 243.573 278.176 239.39 278.176 239.39C278.176 239.39 280.295 219.852 280.086 214.351C279.943 210.923 279.629 207.505 279.146 204.109L278.444 199.918C278.444 199.918 276.826 176.487 274.297 171.442C271.768 166.398 267.657 162.535 264.397 161.75" fill="white"/>
<path d="M263.278 187.719L267.545 205.169C267.545 205.169 266.568 207.775 267.314 208.483C267.749 208.91 268.014 209.485 268.06 210.099C268.06 210.099 267.441 212.697 268.209 213.909C268.978 215.12 272.484 240.906 272.484 240.906C272.484 240.906 269.552 243.954 269.597 245.242C269.617 246.499 269.422 247.749 269.023 248.938C268.702 249.875 267.531 251.757 268.06 251.917C268.59 252.077 270.723 251.071 270.873 250.332C271.024 249.748 271.244 249.185 271.529 248.656L272.014 247.353C272.172 249.057 272.239 250.769 272.215 252.481C272.118 253.452 271.85 254.397 271.425 255.27C270.917 256.207 269.724 257.724 270.634 258.051C271.544 258.379 274.274 254.607 274.274 254.607C275.088 254.396 275.864 254.054 276.572 253.594C277.795 252.832 278.81 250.203 278.922 249.273C279.034 248.343 278.922 244.701 278.922 244.137C278.922 243.573 278.176 239.39 278.176 239.39C278.176 239.39 280.295 219.852 280.086 214.351C279.943 210.923 279.629 207.505 279.146 204.109L278.444 199.918C278.444 199.918 276.826 176.487 274.297 171.442C271.768 166.398 267.657 162.535 264.397 161.75" stroke="#263238" stroke-linejoin="round"/>
<path d="M262.972 187.155L267.545 205.169C267.545 205.169 266.568 207.775 267.314 208.483C267.749 208.91 268.014 209.485 268.06 210.099C268.06 210.099 267.441 212.697 268.209 213.909C268.428 214.491 268.583 215.097 268.672 215.715C270.813 214.29 275.722 211.813 279.429 215.844C279.609 216.055 279.834 216.222 280.086 216.332C280.086 215.57 280.086 214.884 280.086 214.351C279.942 210.923 279.629 207.505 279.146 204.109L278.444 199.918C278.444 199.918 276.826 176.487 274.297 171.442C271.768 166.398 266.777 162.573 263.51 161.78" fill="#92E3A9"/>
<path d="M262.972 187.155L267.545 205.169C267.545 205.169 266.568 207.775 267.314 208.483C267.749 208.91 268.014 209.485 268.06 210.099C268.06 210.099 267.441 212.697 268.209 213.909C268.428 214.491 268.583 215.097 268.672 215.715C270.813 214.29 275.722 211.813 279.429 215.844C279.609 216.055 279.834 216.222 280.086 216.332C280.086 215.57 280.086 214.884 280.086 214.351C279.942 210.923 279.629 207.505 279.146 204.109L278.444 199.918C278.444 199.918 276.826 176.487 274.297 171.442C271.768 166.398 266.777 162.573 263.51 161.78" stroke="#263238" stroke-linejoin="round"/>
<path d="M206.261 180.815L212.461 200.033L222.584 199.636L217.414 179.367L206.261 180.815Z" fill="#263238" stroke="#263238" stroke-linejoin="round"/>
<path d="M212.662 203.629C212.931 203.438 213.143 203.174 213.274 202.867C213.654 201.846 214.303 200.536 214.303 200.536C214.303 200.536 217.474 199.118 217.884 198.813C218.295 198.509 221.062 197.686 221.45 196.954C221.838 196.223 221.831 195.796 220.443 196.276C219.055 196.756 214.773 198.082 214.773 198.082C214.773 198.082 215.46 197.769 216.004 197.457C216.549 197.145 220.249 194.851 220.667 194.691C221.085 194.531 221.189 193.67 220.883 193.114C220.577 192.557 220.339 193.418 219.093 193.876C217.847 194.333 213.281 195.834 213.281 195.834L215.736 194.02C216.146 193.716 219.861 191.994 219.861 191.994C219.861 191.994 220.958 191.376 220.928 190.66C220.898 189.944 220.48 189.822 220.063 189.982C219.645 190.142 216.855 190.393 215.892 190.866C214.93 191.338 211.774 193.03 211.774 193.03L213.192 189.829C213.192 189.829 217.011 187.094 217.563 186.934C218.115 186.774 219.212 186.004 219.055 185.41C218.899 184.815 217.772 184.747 217.772 184.747C217.772 184.747 212.931 186.37 211.983 187.414C211.036 188.458 209.171 190.675 209.171 190.675C208.8 189.766 208.528 188.818 208.358 187.848C208.358 186.987 208.268 185.417 207.671 184.579C207.075 183.741 206.925 184.038 206.925 184.038C206.925 184.038 206.925 188.61 206.694 189.052C206.463 189.494 208.671 196.672 208.671 196.672L209.626 199.644C207.775 199.923 205.909 200.094 204.038 200.155C202.636 200.063 200.778 202.715 200.487 206.022C200.425 206.734 200.506 207.451 200.727 208.13C200.948 208.808 201.303 209.433 201.771 209.965C202.239 210.496 202.808 210.924 203.445 211.221C204.081 211.518 204.771 211.678 205.471 211.691C207.985 211.585 209.865 209.512 210.797 208.186C211.453 207.107 211.929 205.926 212.207 204.688L212.662 203.629Z" fill="white" stroke="#263238" stroke-linejoin="round"/>
</svg>
