<svg width="26" height="26" viewBox="0 0 26 26" fill="none" xmlns="http://www.w3.org/2000/svg">
<rect x="26" y="26" width="26" height="26" rx="13" transform="rotate(-180 26 26)" fill="#2ED6A3" fill-opacity="0.15"/>
<g clip-path="url(#clip0_1110_219)">
<path d="M9.78274 12.7759C9.92615 12.9192 10.1206 12.9998 10.3234 12.9998C10.5262 12.9998 10.7206 12.9192 10.864 12.7759L12.2352 11.4048L12.2352 16.4411C12.2352 16.6439 12.3157 16.8384 12.4591 16.9818C12.6025 17.1252 12.797 17.2058 12.9999 17.2058C13.2027 17.2058 13.3972 17.1252 13.5406 16.9818C13.684 16.8384 13.7646 16.6439 13.7646 16.4411L13.7646 11.4048L15.1357 12.7759C15.2799 12.9152 15.4731 12.9922 15.6736 12.9905C15.8741 12.9888 16.0659 12.9083 16.2077 12.7666C16.3494 12.6248 16.4299 12.433 16.4316 12.2325C16.4334 12.032 16.3563 11.8388 16.217 11.6946L13.5405 9.0181C13.3971 8.87474 13.2026 8.79421 12.9999 8.79421C12.7971 8.79421 12.6026 8.87474 12.4592 9.0181L9.78274 11.6946C9.63938 11.838 9.55885 12.0324 9.55885 12.2352C9.55885 12.438 9.63938 12.6325 9.78274 12.7759Z" fill="#00A389"/>
</g>
<defs>
<clipPath id="clip0_1110_219">
<rect width="9.17647" height="9.17647" fill="white" transform="translate(17.5883 17.5881) rotate(-180)"/>
</clipPath>
</defs>
</svg>
