<svg width="98" height="23" viewBox="0 0 98 23" fill="none" xmlns="http://www.w3.org/2000/svg">
<path d="M7.968 4.968L2.784 17.16C2.672 17.464 2.496 17.704 2.256 17.88C2.032 18.04 1.784 18.12 1.512 18.12C1.08 18.12 0.76 18 0.552 17.76C0.344 17.52 0.24 17.224 0.24 16.872C0.24 16.728 0.264 16.576 0.312 16.416L6.288 2.064C6.416 1.744 6.608 1.496 6.864 1.32C7.136 1.144 7.424 1.072 7.728 1.104C8.016 1.104 8.28 1.192 8.52 1.368C8.776 1.528 8.96 1.76 9.072 2.064L14.976 16.128C15.056 16.336 15.096 16.528 15.096 16.704C15.096 17.136 14.952 17.48 14.664 17.736C14.392 17.992 14.088 18.12 13.752 18.12C13.464 18.12 13.2 18.032 12.96 17.856C12.736 17.68 12.56 17.44 12.432 17.136L7.272 5.112L7.968 4.968ZM3.528 14.232L4.848 11.472H11.328L11.784 14.232H3.528ZM22.2161 4.92C22.8881 4.92 23.5041 5.024 24.0641 5.232C24.6241 5.44 25.1041 5.704 25.5041 6.024C25.9201 6.344 26.2401 6.672 26.4641 7.008C26.7041 7.328 26.8241 7.6 26.8241 7.824L26.2001 8.136V6.384C26.2001 5.968 26.3361 5.624 26.6081 5.352C26.8801 5.064 27.2241 4.92 27.6401 4.92C28.0561 4.92 28.4001 5.056 28.6721 5.328C28.9441 5.6 29.0801 5.952 29.0801 6.384V17.064C29.0801 18.456 28.7761 19.568 28.1681 20.4C27.5761 21.248 26.7921 21.856 25.8161 22.224C24.8401 22.608 23.7921 22.8 22.6721 22.8C22.3521 22.8 21.9361 22.76 21.4241 22.68C20.9121 22.6 20.4241 22.504 19.9601 22.392C19.4961 22.28 19.1441 22.176 18.9041 22.08C18.4241 21.872 18.0881 21.608 17.8961 21.288C17.7201 20.984 17.6881 20.656 17.8001 20.304C17.9441 19.84 18.1761 19.52 18.4961 19.344C18.8161 19.184 19.1521 19.168 19.5041 19.296C19.6641 19.344 19.9281 19.44 20.2961 19.584C20.6641 19.728 21.0641 19.856 21.4961 19.968C21.9441 20.096 22.3361 20.16 22.6721 20.16C23.8721 20.16 24.7601 19.92 25.3361 19.44C25.9121 18.96 26.2001 18.296 26.2001 17.448V15.36L26.4881 15.576C26.4881 15.784 26.3761 16.04 26.1521 16.344C25.9441 16.632 25.6481 16.92 25.2641 17.208C24.8961 17.496 24.4561 17.744 23.9441 17.952C23.4321 18.144 22.8881 18.24 22.3121 18.24C21.1761 18.24 20.1521 17.96 19.2401 17.4C18.3281 16.824 17.6081 16.04 17.0801 15.048C16.5521 14.04 16.2881 12.888 16.2881 11.592C16.2881 10.28 16.5521 9.128 17.0801 8.136C17.6081 7.128 18.3201 6.344 19.2161 5.784C20.1121 5.208 21.1121 4.92 22.2161 4.92ZM22.6721 7.56C21.9521 7.56 21.3201 7.736 20.7761 8.088C20.2321 8.44 19.8081 8.92 19.5041 9.528C19.2001 10.136 19.0481 10.824 19.0481 11.592C19.0481 12.344 19.2001 13.024 19.5041 13.632C19.8081 14.24 20.2321 14.72 20.7761 15.072C21.3201 15.424 21.9521 15.6 22.6721 15.6C23.4081 15.6 24.0481 15.424 24.5921 15.072C25.1361 14.72 25.5601 14.24 25.8641 13.632C26.1681 13.024 26.3201 12.344 26.3201 11.592C26.3201 10.824 26.1681 10.136 25.8641 9.528C25.5601 8.92 25.1361 8.44 24.5921 8.088C24.0481 7.736 23.4081 7.56 22.6721 7.56ZM33.6328 18C33.2168 18 32.8728 17.864 32.6008 17.592C32.3288 17.304 32.1928 16.952 32.1928 16.536V6.624C32.1928 6.208 32.3288 5.864 32.6008 5.592C32.8728 5.304 33.2168 5.16 33.6328 5.16C34.0488 5.16 34.3928 5.304 34.6648 5.592C34.9368 5.864 35.0728 6.208 35.0728 6.624V8.88L34.9048 7.272C35.0808 6.888 35.3048 6.552 35.5768 6.264C35.8648 5.96 36.1848 5.712 36.5368 5.52C36.8888 5.312 37.2648 5.16 37.6648 5.064C38.0648 4.968 38.4648 4.92 38.8648 4.92C39.3448 4.92 39.7448 5.056 40.0648 5.328C40.4008 5.6 40.5688 5.92 40.5688 6.288C40.5688 6.816 40.4328 7.2 40.1608 7.44C39.8888 7.664 39.5928 7.776 39.2728 7.776C38.9688 7.776 38.6888 7.72 38.4328 7.608C38.1928 7.496 37.9128 7.44 37.5928 7.44C37.3048 7.44 37.0088 7.512 36.7048 7.656C36.4168 7.784 36.1448 7.992 35.8888 8.28C35.6488 8.568 35.4488 8.928 35.2888 9.36C35.1448 9.776 35.0728 10.272 35.0728 10.848V16.536C35.0728 16.952 34.9368 17.304 34.6648 17.592C34.3928 17.864 34.0488 18 33.6328 18ZM45.3111 16.536C45.3111 16.952 45.1751 17.304 44.9031 17.592C44.6311 17.864 44.2871 18 43.8711 18C43.4551 18 43.1111 17.864 42.8391 17.592C42.5671 17.304 42.4311 16.952 42.4311 16.536V6.624C42.4311 6.208 42.5671 5.864 42.8391 5.592C43.1111 5.304 43.4551 5.16 43.8711 5.16C44.2871 5.16 44.6311 5.304 44.9031 5.592C45.1751 5.864 45.3111 6.208 45.3111 6.624V16.536ZM43.8471 3.6C43.3031 3.6 42.9191 3.512 42.6951 3.336C42.4711 3.16 42.3591 2.848 42.3591 2.4V1.944C42.3591 1.48 42.4791 1.168 42.7191 1.008C42.9751 0.831999 43.3591 0.743999 43.8711 0.743999C44.4311 0.743999 44.8231 0.831999 45.0471 1.008C45.2711 1.184 45.3831 1.496 45.3831 1.944V2.4C45.3831 2.864 45.2631 3.184 45.0231 3.36C44.7831 3.52 44.3911 3.6 43.8471 3.6Z" fill="#98C13F"/>
<path d="M53.4724 18C53.0244 18 52.6564 17.864 52.3684 17.592C52.0804 17.304 51.9364 16.952 51.9364 16.536V2.616H55.0564V16.536C55.0564 16.952 54.9044 17.304 54.6004 17.592C54.3124 17.864 53.9364 18 53.4724 18ZM48.1684 3.96C47.7524 3.96 47.4004 3.832 47.1124 3.576C46.8404 3.32 46.7044 2.984 46.7044 2.568C46.7044 2.152 46.8404 1.824 47.1124 1.584C47.4004 1.328 47.7524 1.2 48.1684 1.2H58.8244C59.2404 1.2 59.5844 1.328 59.8564 1.584C60.1444 1.84 60.2884 2.176 60.2884 2.592C60.2884 3.008 60.1444 3.344 59.8564 3.6C59.5844 3.84 59.2404 3.96 58.8244 3.96H48.1684ZM65.733 18.24C64.373 18.24 63.189 17.96 62.181 17.4C61.189 16.824 60.421 16.048 59.877 15.072C59.349 14.096 59.085 12.992 59.085 11.76C59.085 10.32 59.373 9.096 59.949 8.088C60.541 7.064 61.309 6.28 62.253 5.736C63.197 5.192 64.197 4.92 65.253 4.92C66.069 4.92 66.837 5.088 67.557 5.424C68.293 5.76 68.941 6.224 69.501 6.816C70.061 7.392 70.501 8.064 70.821 8.832C71.157 9.6 71.325 10.416 71.325 11.28C71.309 11.664 71.157 11.976 70.869 12.216C70.581 12.456 70.245 12.576 69.861 12.576H60.693L59.973 10.176H68.781L68.253 10.656V10.008C68.221 9.544 68.053 9.128 67.749 8.76C67.461 8.392 67.093 8.104 66.645 7.896C66.213 7.672 65.749 7.56 65.253 7.56C64.773 7.56 64.325 7.624 63.909 7.752C63.493 7.88 63.133 8.096 62.829 8.4C62.525 8.704 62.285 9.112 62.109 9.624C61.933 10.136 61.845 10.784 61.845 11.568C61.845 12.432 62.021 13.168 62.373 13.776C62.741 14.368 63.205 14.824 63.765 15.144C64.341 15.448 64.949 15.6 65.589 15.6C66.181 15.6 66.653 15.552 67.005 15.456C67.357 15.36 67.637 15.248 67.845 15.12C68.069 14.976 68.269 14.856 68.445 14.76C68.733 14.616 69.005 14.544 69.261 14.544C69.613 14.544 69.901 14.664 70.125 14.904C70.365 15.144 70.485 15.424 70.485 15.744C70.485 16.176 70.261 16.568 69.813 16.92C69.397 17.272 68.813 17.584 68.061 17.856C67.309 18.112 66.533 18.24 65.733 18.24ZM79.5533 4.92C80.4653 4.92 81.2573 5.016 81.9293 5.208C82.6173 5.4 83.1453 5.672 83.5133 6.024C83.8973 6.36 84.0893 6.768 84.0893 7.248C84.0893 7.568 83.9933 7.872 83.8013 8.16C83.6093 8.432 83.3293 8.568 82.9613 8.568C82.7053 8.568 82.4893 8.536 82.3133 8.472C82.1533 8.392 82.0093 8.296 81.8813 8.184C81.7533 8.072 81.6013 7.968 81.4253 7.872C81.2653 7.776 81.0173 7.704 80.6813 7.656C80.3613 7.592 80.1213 7.56 79.9613 7.56C79.1453 7.56 78.4493 7.736 77.8733 8.088C77.3133 8.44 76.8813 8.92 76.5773 9.528C76.2733 10.12 76.1213 10.808 76.1213 11.592C76.1213 12.36 76.2733 13.048 76.5773 13.656C76.8973 14.248 77.3293 14.72 77.8733 15.072C78.4333 15.424 79.0733 15.6 79.7933 15.6C80.1933 15.6 80.5373 15.576 80.8253 15.528C81.1133 15.48 81.3533 15.408 81.5453 15.312C81.7693 15.184 81.9693 15.048 82.1453 14.904C82.3213 14.76 82.5853 14.688 82.9373 14.688C83.3533 14.688 83.6733 14.824 83.8973 15.096C84.1213 15.352 84.2333 15.672 84.2333 16.056C84.2333 16.456 84.0093 16.824 83.5613 17.16C83.1133 17.48 82.5213 17.744 81.7853 17.952C81.0653 18.144 80.2813 18.24 79.4333 18.24C78.1693 18.24 77.0733 17.952 76.1453 17.376C75.2173 16.784 74.4973 15.984 73.9853 14.976C73.4893 13.968 73.2413 12.84 73.2413 11.592C73.2413 10.28 73.5053 9.128 74.0333 8.136C74.5773 7.128 75.3213 6.344 76.2653 5.784C77.2253 5.208 78.3213 4.92 79.5533 4.92ZM93.054 4.92C94.206 4.92 95.078 5.168 95.67 5.664C96.278 6.16 96.694 6.824 96.918 7.656C97.142 8.472 97.254 9.384 97.254 10.392V16.536C97.254 16.952 97.118 17.304 96.846 17.592C96.574 17.864 96.23 18 95.814 18C95.398 18 95.054 17.864 94.782 17.592C94.51 17.304 94.374 16.952 94.374 16.536V10.392C94.374 9.864 94.31 9.392 94.182 8.976C94.054 8.544 93.822 8.2 93.486 7.944C93.15 7.688 92.67 7.56 92.046 7.56C91.438 7.56 90.918 7.688 90.486 7.944C90.054 8.2 89.726 8.544 89.502 8.976C89.294 9.392 89.19 9.864 89.19 10.392V16.536C89.19 16.952 89.054 17.304 88.782 17.592C88.51 17.864 88.166 18 87.75 18C87.334 18 86.99 17.864 86.718 17.592C86.446 17.304 86.31 16.952 86.31 16.536V1.704C86.31 1.288 86.446 0.943999 86.718 0.671999C86.99 0.383999 87.334 0.24 87.75 0.24C88.166 0.24 88.51 0.383999 88.782 0.671999C89.054 0.943999 89.19 1.288 89.19 1.704V7.656L88.83 7.584C88.974 7.312 89.174 7.024 89.43 6.72C89.686 6.4 89.998 6.104 90.366 5.832C90.734 5.56 91.142 5.344 91.59 5.184C92.038 5.008 92.526 4.92 93.054 4.92Z" fill="#159148"/>
</svg>
