<svg width="24" height="25" viewBox="0 0 24 25" fill="none" xmlns="http://www.w3.org/2000/svg">
<path d="M16.75 3.80156V2.21569C16.75 1.79889 16.41 1.45325 16 1.45325C15.59 1.45325 15.25 1.79889 15.25 2.21569V3.74057H8.74998V2.21569C8.74998 1.79889 8.40998 1.45325 7.99998 1.45325C7.58998 1.45325 7.24998 1.79889 7.24998 2.21569V3.80156C4.54998 4.05571 3.23999 5.69242 3.03999 8.12206C3.01999 8.41687 3.25999 8.66085 3.53999 8.66085H20.46C20.75 8.66085 20.99 8.4067 20.96 8.12206C20.76 5.69242 19.45 4.05571 16.75 3.80156Z" fill="#0D986A"/>
<path opacity="0.4" d="M20 10.1857C20.55 10.1857 21 10.6431 21 11.2023V17.4644C21 20.5142 19.5 22.5474 16 22.5474H8C4.5 22.5474 3 20.5142 3 17.4644V11.2023C3 10.6431 3.45 10.1857 4 10.1857H20Z" fill="#0D986A"/>
<path d="M8.5 15.4313C8.24 15.4313 7.98 15.3195 7.79 15.1365C7.61 14.9434 7.5 14.6791 7.5 14.4148C7.5 14.1504 7.61 13.8861 7.79 13.693C8.07 13.4083 8.51 13.3168 8.88 13.4795C9.01 13.5303 9.12 13.6015 9.21 13.693C9.39 13.8861 9.5 14.1504 9.5 14.4148C9.5 14.6791 9.39 14.9434 9.21 15.1365C9.02 15.3195 8.76 15.4313 8.5 15.4313Z" fill="#0D986A"/>
<path d="M12 15.4313C11.74 15.4313 11.48 15.3195 11.29 15.1365C11.11 14.9434 11 14.6791 11 14.4148C11 14.1504 11.11 13.8861 11.29 13.693C11.38 13.6015 11.49 13.5303 11.62 13.4795C11.99 13.3168 12.43 13.4083 12.71 13.693C12.89 13.8861 13 14.1504 13 14.4148C13 14.6791 12.89 14.9434 12.71 15.1365C12.66 15.1772 12.61 15.2178 12.56 15.2585C12.5 15.2992 12.44 15.3297 12.38 15.35C12.32 15.3805 12.26 15.4009 12.2 15.411C12.13 15.4212 12.07 15.4313 12 15.4313Z" fill="#0D986A"/>
<path d="M15.5 15.4313C15.24 15.4313 14.98 15.3194 14.79 15.1364C14.61 14.9433 14.5 14.679 14.5 14.4147C14.5 14.1504 14.61 13.8861 14.79 13.6929C14.89 13.6014 14.99 13.5302 15.12 13.4794C15.3 13.3981 15.5 13.3777 15.7 13.4184C15.76 13.4286 15.82 13.4489 15.88 13.4794C15.94 13.4997 16 13.5303 16.06 13.5709C16.11 13.6116 16.16 13.6522 16.21 13.6929C16.39 13.8861 16.5 14.1504 16.5 14.4147C16.5 14.679 16.39 14.9433 16.21 15.1364C16.16 15.1771 16.11 15.2178 16.06 15.2584C16 15.2991 15.94 15.3296 15.88 15.3499C15.82 15.3804 15.76 15.4008 15.7 15.4109C15.63 15.4211 15.56 15.4313 15.5 15.4313Z" fill="#0D986A"/>
<path d="M8.5 18.9894C8.37 18.9894 8.24 18.9589 8.12 18.9081C7.99 18.8572 7.89 18.786 7.79 18.6945C7.61 18.5014 7.5 18.2371 7.5 17.9728C7.5 17.7085 7.61 17.4442 7.79 17.251C7.89 17.1595 7.99 17.0883 8.12 17.0375C8.3 16.9562 8.5 16.9358 8.7 16.9765C8.76 16.9867 8.82 17.007 8.88 17.0375C8.94 17.0578 9 17.0884 9.06 17.129C9.11 17.1697 9.16 17.2103 9.21 17.251C9.39 17.4442 9.5 17.7085 9.5 17.9728C9.5 18.2371 9.39 18.5014 9.21 18.6945C9.16 18.7352 9.11 18.786 9.06 18.8165C9 18.8572 8.94 18.8877 8.88 18.9081C8.82 18.9385 8.76 18.9589 8.7 18.969C8.63 18.9792 8.57 18.9894 8.5 18.9894Z" fill="#0D986A"/>
<path d="M12 18.9893C11.74 18.9893 11.48 18.8775 11.29 18.6945C11.11 18.5014 11 18.2371 11 17.9727C11 17.7084 11.11 17.4441 11.29 17.251C11.66 16.8748 12.34 16.8748 12.71 17.251C12.89 17.4441 13 17.7084 13 17.9727C13 18.2371 12.89 18.5014 12.71 18.6945C12.52 18.8775 12.26 18.9893 12 18.9893Z" fill="#0D986A"/>
<path d="M15.5 18.9893C15.24 18.9893 14.98 18.8775 14.79 18.6945C14.61 18.5014 14.5 18.2371 14.5 17.9727C14.5 17.7084 14.61 17.4441 14.79 17.251C15.16 16.8748 15.84 16.8748 16.21 17.251C16.39 17.4441 16.5 17.7084 16.5 17.9727C16.5 18.2371 16.39 18.5014 16.21 18.6945C16.02 18.8775 15.76 18.9893 15.5 18.9893Z" fill="#0D986A"/>
</svg>
