<svg width="12" height="12" viewBox="0 0 12 12" fill="none" xmlns="http://www.w3.org/2000/svg">
<path d="M5.99984 11.8333C2.77809 11.8333 0.166504 9.22171 0.166504 5.99996C0.166504 2.77821 2.77809 0.166626 5.99984 0.166626C9.22159 0.166626 11.8332 2.77821 11.8332 5.99996C11.8332 9.22171 9.22159 11.8333 5.99984 11.8333ZM5.99984 10.6666C7.23751 10.6666 8.4245 10.175 9.29967 9.29979C10.1748 8.42462 10.6665 7.23764 10.6665 5.99996C10.6665 4.76228 10.1748 3.5753 9.29967 2.70013C8.4245 1.82496 7.23751 1.33329 5.99984 1.33329C4.76216 1.33329 3.57518 1.82496 2.70001 2.70013C1.82484 3.5753 1.33317 4.76228 1.33317 5.99996C1.33317 7.23764 1.82484 8.42462 2.70001 9.29979C3.57518 10.175 4.76216 10.6666 5.99984 10.6666ZM6.58317 5.99996H8.9165V7.16663H5.4165V3.08329H6.58317V5.99996Z" fill="#4E4B66"/>
</svg>
