<svg width="30" height="30" viewBox="0 0 30 30" fill="none" xmlns="http://www.w3.org/2000/svg">
<path d="M28.5752 8.92851C28.3637 8.74411 28.1022 8.62673 27.8238 8.59125C27.5455 8.55578 27.2629 8.60383 27.0119 8.72929L21.1279 11.659L16.2154 3.49921C16.0891 3.28983 15.9109 3.11663 15.698 2.9964C15.4851 2.87617 15.2447 2.81299 15.0002 2.81299C14.7557 2.81299 14.5153 2.87617 14.3024 2.9964C14.0895 3.11663 13.9112 3.28983 13.7849 3.49921L8.87244 11.6625L2.9908 8.73281C2.74042 8.60846 2.45889 8.56083 2.18154 8.5959C1.90419 8.63097 1.64338 8.74718 1.43183 8.92994C1.22028 9.11269 1.06742 9.35386 0.992434 9.62318C0.917448 9.89249 0.923675 10.178 1.01033 10.4437L5.34627 23.7281C5.38987 23.8616 5.46288 23.9835 5.55992 24.085C5.65696 24.1865 5.77555 24.2648 5.90694 24.3143C6.03832 24.3638 6.17914 24.3832 6.31901 24.371C6.45887 24.3587 6.59421 24.3153 6.71502 24.2437C6.74432 24.2262 9.7408 22.5 15.0002 22.5C20.2596 22.5 23.256 24.2262 23.283 24.2426C23.4038 24.3148 23.5394 24.3588 23.6796 24.3715C23.8198 24.3841 23.9611 24.365 24.0929 24.3156C24.2248 24.2662 24.3438 24.1877 24.4411 24.086C24.5385 23.9843 24.6117 23.862 24.6553 23.7281L28.9912 10.4473C29.0803 10.1814 29.0884 9.89502 29.0143 9.62458C28.9402 9.35413 28.7874 9.11183 28.5752 8.92851ZM23.2033 22.1285C21.7971 21.532 18.9939 20.625 15.0002 20.625C11.0064 20.625 8.2033 21.532 6.79705 22.1285L3.13026 10.8984L8.4119 13.5316C8.73159 13.6893 9.09874 13.7215 9.44101 13.622C9.78328 13.5224 10.0759 13.2983 10.2611 12.9937L15.0002 5.1164L19.7392 12.9914C19.9245 13.2956 20.2168 13.5196 20.5588 13.6191C20.9008 13.7186 21.2677 13.6866 21.5873 13.5293L26.8701 10.8984L23.2033 22.1285Z" fill="#F0D64D"/>
</svg>
