<svg width="20" height="28" viewBox="0 0 20 28" fill="none" xmlns="http://www.w3.org/2000/svg">
<path d="M17.037 15.0486V12.5517H15.5556V15.4483C15.5556 15.7043 15.6337 15.9499 15.7726 16.1309L17.7778 18.7446V20.2759H1.48148V18.7446L3.48667 16.1309C3.62559 15.9499 3.70366 15.7043 3.7037 15.4483V11.5862C3.70164 10.2295 3.9743 8.89602 4.49414 7.72058C5.01398 6.54514 5.76259 5.56933 6.66437 4.8917C7.56614 4.21408 8.58914 3.85863 9.63003 3.86128C10.6709 3.86392 11.6929 4.22456 12.5926 4.90676V2.74883C11.8875 2.34188 11.1375 2.08251 10.3704 1.98028V0H8.88889V1.97931C7.06265 2.22159 5.37019 3.3379 4.13879 5.1124C2.90739 6.88689 2.22452 9.1935 2.22222 11.5862V15.0486L0.217037 17.6622C0.0781116 17.8432 4.19536e-05 18.0888 0 18.3448V21.2414C0 21.4974 0.0780421 21.743 0.216958 21.9241C0.355874 22.1052 0.544284 22.2069 0.740741 22.2069H5.92593V23.1724C5.92593 24.4528 6.31614 25.6807 7.01072 26.586C7.70529 27.4914 8.64735 28 9.62963 28C10.6119 28 11.554 27.4914 12.2485 26.586C12.9431 25.6807 13.3333 24.4528 13.3333 23.1724V22.2069H18.5185C18.715 22.2069 18.9034 22.1052 19.0423 21.9241C19.1812 21.743 19.2593 21.4974 19.2593 21.2414V18.3448C19.2592 18.0888 19.1811 17.8432 19.0422 17.6622L17.037 15.0486ZM11.8519 23.1724C11.8519 23.9406 11.6177 24.6774 11.201 25.2206C10.7842 25.7638 10.219 26.069 9.62963 26.069C9.04026 26.069 8.47503 25.7638 8.05828 25.2206C7.64153 24.6774 7.40741 23.9406 7.40741 23.1724V22.2069H11.8519V23.1724Z" fill="#435B71"/>
<path d="M17.0371 10.6207C18.6735 10.6207 20 8.89158 20 6.75861C20 4.62565 18.6735 2.89655 17.0371 2.89655C15.4007 2.89655 14.0741 4.62565 14.0741 6.75861C14.0741 8.89158 15.4007 10.6207 17.0371 10.6207Z" fill="#0D986A"/>
</svg>
