<svg width="24" height="30" viewBox="0 0 24 30" fill="none" xmlns="http://www.w3.org/2000/svg">
<path d="M20.3462 16.1234V13.4483H18.5769V16.5517C18.577 16.8261 18.6702 17.0891 18.8361 17.2831L21.2308 20.0834V21.7241H1.76923V20.0834L4.16388 17.2831C4.32979 17.0891 4.42303 16.8261 4.42308 16.5517V12.4138C4.42061 10.9601 4.74623 9.53145 5.36704 8.27205C5.98785 7.01265 6.88187 5.96714 7.95879 5.24111C9.03572 4.51508 10.2574 4.13425 11.5005 4.13708C12.7435 4.13992 13.964 4.52631 15.0385 5.25724V2.94517C14.1964 2.50916 13.3008 2.23126 12.3846 2.12172V0H10.6154V2.12069C8.43443 2.38028 6.41325 3.57633 4.94267 5.47757C3.4721 7.37881 2.65659 9.85018 2.65385 12.4138V16.1234L0.259192 18.9238C0.0932832 19.1178 5.01023e-05 19.3808 0 19.6552V22.7586C0 23.033 0.0932002 23.2961 0.259098 23.4901C0.424995 23.6841 0.650001 23.7931 0.884615 23.7931H7.07692V24.8276C7.07692 26.1994 7.54292 27.515 8.37241 28.485C9.2019 29.4551 10.3269 30 11.5 30C12.6731 30 13.7981 29.4551 14.6276 28.485C15.4571 27.515 15.9231 26.1994 15.9231 24.8276V23.7931H22.1154C22.35 23.7931 22.575 23.6841 22.7409 23.4901C22.9068 23.2961 23 23.033 23 22.7586V19.6552C22.9999 19.3808 22.9067 19.1178 22.7408 18.9238L20.3462 16.1234ZM14.1538 24.8276C14.1538 25.6507 13.8742 26.44 13.3766 27.0221C12.8789 27.6041 12.2038 27.931 11.5 27.931C10.7962 27.931 10.1211 27.6041 9.62345 27.0221C9.12575 26.44 8.84615 25.6507 8.84615 24.8276V23.7931H14.1538V24.8276Z" fill="#435B71"/>
<path d="M21.0371 11.3793C22.6735 11.3793 24 9.5267 24 7.24138C24 4.95607 22.6735 3.10345 21.0371 3.10345C19.4007 3.10345 18.0741 4.95607 18.0741 7.24138C18.0741 9.5267 19.4007 11.3793 21.0371 11.3793Z" fill="#0D986A"/>
</svg>
