<svg width="30" height="30" viewBox="0 0 30 30" fill="none" xmlns="http://www.w3.org/2000/svg">
<path d="M1.875 26.25H9.375V28.125H1.875V26.25ZM15.9375 27.1875C15.7971 27.1874 15.6584 27.1558 15.5319 27.0949C15.4053 27.0341 15.294 26.9456 15.2062 26.8359L11.7375 22.5H1.875V20.625H12.1875C12.3279 20.6251 12.4666 20.6567 12.5931 20.7176C12.7197 20.7784 12.831 20.8669 12.9187 20.9766L15.8691 24.6628L20.7825 17.2922C20.8657 17.1675 20.9776 17.0645 21.1088 16.992C21.24 16.9194 21.3867 16.8794 21.5366 16.8753C21.6865 16.8711 21.8351 16.903 21.9701 16.9682C22.1052 17.0334 22.2226 17.13 22.3125 17.25L24.8438 20.625H28.125V22.5H24.375C24.2295 22.5 24.0859 22.4661 23.9557 22.401C23.8256 22.3359 23.7123 22.2414 23.625 22.125L21.6075 19.4344L16.7175 26.7703C16.6357 26.893 16.5261 26.9947 16.3975 27.067C16.269 27.1394 16.1252 27.1803 15.9778 27.1866L15.9375 27.1875ZM10.3125 15V10.3125H11.25C12.2442 10.3113 13.1973 9.91577 13.9003 9.21278C14.6033 8.50979 14.9988 7.55668 15 6.5625V3.75H12.1875C11.2275 3.75157 10.3051 4.1233 9.61219 4.78781C9.12672 3.90635 8.41378 3.17117 7.54763 2.65887C6.68148 2.14657 5.69381 1.87588 4.6875 1.875H1.875V4.6875C1.87674 6.17881 2.46993 7.60854 3.52444 8.66306C4.57896 9.71757 6.00869 10.3108 7.5 10.3125H8.4375V15H1.875V16.875H15V15H10.3125ZM12.1875 5.625H13.125V6.5625C13.1245 7.05963 12.9268 7.53625 12.5753 7.88778C12.2238 8.2393 11.7471 8.437 11.25 8.4375H10.3125V7.5C10.313 7.00287 10.5107 6.52625 10.8622 6.17472C11.2137 5.8232 11.6904 5.6255 12.1875 5.625ZM7.5 8.4375C6.50582 8.43626 5.55271 8.04077 4.84972 7.33778C4.14673 6.63479 3.75124 5.68168 3.75 4.6875V3.75H4.6875C5.68168 3.75124 6.63479 4.14673 7.33778 4.84972C8.04077 5.55271 8.43626 6.50582 8.4375 7.5V8.4375H7.5Z" fill="black"/>
</svg>
