<svg width="30" height="30" viewBox="0 0 30 30" fill="none" xmlns="http://www.w3.org/2000/svg">
<path d="M25.7501 6.57495C25.6554 5.81831 25.2886 5.12199 24.7182 4.61596C24.1477 4.10992 23.4126 3.82876 22.6501 3.82495H7.35635C6.59571 3.82837 5.86217 4.10777 5.29201 4.61126C4.72186 5.11475 4.35384 5.80808 4.25635 6.56245L3.88135 9.64995C3.88184 10.2557 4.01142 10.8545 4.26145 11.4062C4.51147 11.958 4.8762 12.4502 5.33135 12.85V23.05C5.33135 23.8788 5.66059 24.6736 6.24664 25.2597C6.83269 25.8457 7.62755 26.175 8.45635 26.175H21.5438C22.3727 26.175 23.1675 25.8457 23.7536 25.2597C24.3396 24.6736 24.6688 23.8788 24.6688 23.05V12.85C25.1251 12.4508 25.491 11.9588 25.7422 11.407C25.9933 10.8552 26.1238 10.2562 26.1251 9.64995L25.7501 6.57495ZM17.5126 24.925H12.5126V19.825C12.5126 19.3277 12.7101 18.8508 13.0618 18.4991C13.4134 18.1475 13.8903 17.95 14.3876 17.95H15.6376C16.1349 17.95 16.6118 18.1475 16.9634 18.4991C17.3151 18.8508 17.5126 19.3277 17.5126 19.825V24.925ZM23.4251 23.05C23.4251 23.5472 23.2276 24.0241 22.8759 24.3758C22.5243 24.7274 22.0474 24.925 21.5501 24.925H18.7626V19.825C18.7626 18.9961 18.4334 18.2013 17.8473 17.6152C17.2613 17.0292 16.4664 16.7 15.6376 16.7H14.3876C13.5588 16.7 12.7639 17.0292 12.1779 17.6152C11.5918 18.2013 11.2626 18.9961 11.2626 19.825V24.925H8.45635C7.95907 24.925 7.48215 24.7274 7.13052 24.3758C6.77889 24.0241 6.58135 23.5472 6.58135 23.05V13.5875C7.07317 13.7887 7.59995 13.8907 8.13135 13.8875C8.74495 13.8903 9.35172 13.7586 9.90892 13.5016C10.4661 13.2446 10.9602 12.8685 11.3563 12.4C11.4128 12.3438 11.4892 12.3122 11.5688 12.3122C11.6485 12.3122 11.7249 12.3438 11.7813 12.4C12.1775 12.8685 12.6716 13.2446 13.2288 13.5016C13.786 13.7586 14.3927 13.8903 15.0063 13.8875C15.6226 13.8901 16.2321 13.7584 16.7923 13.5015C17.3525 13.2446 17.85 12.8687 18.2501 12.4C18.2757 12.3724 18.3066 12.3505 18.341 12.3354C18.3754 12.3203 18.4125 12.3125 18.4501 12.3125C18.4896 12.3122 18.5287 12.3198 18.5651 12.3349C18.6016 12.3499 18.6347 12.372 18.6626 12.4C19.0588 12.8685 19.5528 13.2446 20.11 13.5016C20.6672 13.7586 21.274 13.8903 21.8876 13.8875C22.4149 13.8907 22.9376 13.7887 23.4251 13.5875V23.05ZM21.8876 12.6375C21.4559 12.6395 21.0289 12.5477 20.6361 12.3686C20.2433 12.1895 19.8941 11.9272 19.6126 11.6C19.4719 11.4317 19.296 11.2964 19.0973 11.2036C18.8986 11.1107 18.6819 11.0625 18.4626 11.0625H18.4501C18.2317 11.0605 18.0155 11.1065 17.8168 11.1972C17.6181 11.2879 17.4417 11.4211 17.3001 11.5875C17.0102 11.9037 16.6576 12.1562 16.2649 12.3289C15.8722 12.5016 15.4479 12.5908 15.0188 12.5908C14.5898 12.5908 14.1655 12.5016 13.7728 12.3289C13.3801 12.1562 13.0275 11.9037 12.7376 11.5875C12.5921 11.4225 12.4133 11.2904 12.2128 11.2C12.0124 11.1095 11.795 11.0627 11.5751 11.0627C11.3552 11.0627 11.1378 11.1095 10.9374 11.2C10.7369 11.2904 10.5581 11.4225 10.4126 11.5875C10.0181 12.0478 9.49358 12.3781 8.90796 12.5351C8.32233 12.692 7.70294 12.6682 7.1311 12.4667C6.55925 12.2653 6.06168 11.8957 5.70368 11.4064C5.34568 10.9171 5.144 10.3309 5.1251 9.72495L5.5001 6.72495C5.55945 6.27159 5.78062 5.85494 6.12287 5.55174C6.46511 5.24855 6.90539 5.07922 7.3626 5.07495H22.6501C23.1086 5.07469 23.5513 5.24244 23.8945 5.54648C24.2377 5.85052 24.4576 6.26977 24.5126 6.72495L24.8751 9.67495C24.8678 10.4638 24.5491 11.2179 23.9884 11.7728C23.4276 12.3277 22.6703 12.6385 21.8813 12.6375H21.8876Z" fill="black"/>
</svg>
