<svg width="26" height="23" viewBox="0 0 26 23" fill="none" xmlns="http://www.w3.org/2000/svg">
<path d="M22.5546 6.44678C21.6455 5.57859 20.1269 5.14449 17.9239 5.14449H17.6672V5.10754C17.6672 3.55588 17.6672 1.63477 13.6461 1.63477H12.0205C7.99943 1.63477 7.99943 3.56511 7.99943 5.10754V5.15372H7.74276C5.52901 5.15372 4.0211 5.58782 3.11207 6.45602C2.05332 7.47199 2.0854 8.83893 2.19235 9.77178L2.20304 9.83643L2.2822 10.5542C2.29966 10.7126 2.39141 10.8532 2.53017 10.9316C2.78749 11.0769 3.21041 11.3121 3.46499 11.4343C3.61471 11.5174 3.77512 11.5913 3.93554 11.6652C5.76429 12.5334 7.77485 13.1153 9.81748 13.4016C9.91373 14.2698 10.3522 15.2857 12.6943 15.2857C15.0364 15.2857 15.4962 14.279 15.5711 13.3831C17.7528 13.0783 19.8596 12.4225 21.7632 11.462C21.8273 11.4343 21.8701 11.4066 21.9236 11.3789C22.3446 11.1733 22.7814 10.9204 23.1801 10.6723C23.306 10.594 23.389 10.4626 23.4079 10.3156L23.4208 10.2151L23.4743 9.78102C23.485 9.7256 23.485 9.67942 23.4957 9.61477C23.5812 8.68192 23.5598 7.40733 22.5546 6.44678ZM13.999 12.7735C13.999 13.7525 13.999 13.9003 12.6836 13.9003C11.3682 13.9003 11.3682 13.7248 11.3682 12.7828V11.619H13.999V12.7735ZM9.52873 5.14449V5.10754C9.52873 3.5374 9.52873 2.95553 12.0205 2.95553H13.6461C16.1379 2.95553 16.1379 3.54664 16.1379 5.10754V5.15372H9.52873V5.14449Z" fill="#0D986A"/>
<path d="M22.3995 12.6535C22.7529 12.5078 23.1362 12.7933 23.0962 13.1735L22.7149 16.8005C22.4904 18.6477 21.6134 20.5319 16.9079 20.5319H8.75869C4.05314 20.5319 3.17619 18.6477 2.95161 16.8097L2.59002 13.3746C2.55043 12.9985 2.92583 12.7138 3.27797 12.8518C4.48397 13.3244 6.8171 14.205 8.23313 14.5214C8.39496 14.5575 8.52846 14.6671 8.60775 14.8128C9.25836 16.0077 10.6649 16.6435 12.6942 16.6435C14.7036 16.6435 16.1278 15.9832 16.7806 14.7852C16.86 14.6395 16.9937 14.5299 17.1556 14.4936C18.6588 14.1564 21.14 13.1727 22.3995 12.6535Z" fill="#0D986A"/>
</svg>
