<svg width="105" height="108" viewBox="0 0 105 108" fill="none" xmlns="http://www.w3.org/2000/svg">
<path d="M99.5194 53.924C99.5194 49.352 105.622 43.9723 104.518 39.7356C103.369 35.3541 95.4238 33.8377 93.253 29.9972C91.0821 26.1567 93.708 18.331 90.6121 15.1687C87.5162 12.0064 79.9145 14.7344 76.095 12.4788C72.2755 10.2233 70.873 2.14612 66.5686 0.972639C62.4208 -0.155122 57.1764 6.07805 52.678 6.07805C48.1797 6.07805 42.9353 -0.155122 38.7875 0.972639C34.498 2.14612 33.0135 10.2614 29.2536 12.4788C25.4938 14.6963 17.8324 12.014 14.7365 15.1763C11.6406 18.3386 14.3113 26.1034 12.1031 30.0048C9.89494 33.9063 1.98734 35.3388 0.8385 39.7356C-0.28796 43.9723 5.8367 49.352 5.8367 53.924C5.8367 58.496 -0.26558 63.8757 0.8385 68.1125C1.98734 72.494 9.93224 74.0103 12.1031 77.8508C14.274 81.6913 11.648 89.517 14.7439 92.6793C17.8398 95.8416 25.4416 93.1137 29.2611 95.3692C33.0806 97.6247 34.4831 105.702 38.7875 106.875C42.9353 108.003 48.1797 101.77 52.678 101.77C57.1764 101.77 62.4208 108.003 66.5686 106.875C70.8581 105.702 72.3426 97.5866 76.1024 95.3692C79.8623 93.1518 87.5237 95.834 90.6196 92.6717C93.7155 89.5094 91.0448 81.7446 93.253 77.8432C95.4611 73.9418 103.369 72.5092 104.518 68.1125C105.644 63.8757 99.5194 58.496 99.5194 53.924Z" fill="#92E3A9"/>
<path d="M52.0293 73.0959L31.7903 51.2112C31.3254 50.706 31.0759 50.0328 31.0969 49.3397C31.1179 48.6466 31.4076 47.9904 31.9022 47.5155C32.3968 47.0406 33.0559 46.7858 33.7344 46.8073C34.413 46.8287 35.0554 47.1246 35.5203 47.6298L51.4101 64.8205L71.4775 35.1025C71.6599 34.8012 71.9003 34.5409 72.1842 34.3375C72.4681 34.134 72.7895 33.9916 73.1289 33.9189C73.4684 33.8462 73.8187 33.8448 74.1587 33.9146C74.4987 33.9845 74.8212 34.1243 75.1067 34.3254C75.3922 34.5265 75.6347 34.7848 75.8194 35.0846C76.0042 35.3844 76.1274 35.7195 76.1814 36.0694C76.2355 36.4193 76.2194 36.7768 76.134 37.1201C76.0487 37.4635 75.8959 37.7855 75.6849 38.0667L52.0293 73.0959Z" fill="white"/>
</svg>
