<svg width="30" height="30" viewBox="0 0 30 30" fill="none" xmlns="http://www.w3.org/2000/svg">
<path d="M0 16.6849C0 17.0532 0.113303 17.3533 0.352497 17.5989C0.591691 17.8445 0.893832 17.9536 1.25892 17.9536H3.38649C3.7264 17.9536 4.01595 17.8308 4.25514 17.5853C4.49433 17.3397 4.62023 17.0396 4.62023 16.6849C4.62023 16.2892 4.50692 15.9618 4.26773 15.7162C4.02854 15.4707 3.73898 15.3342 3.39908 15.3342H1.25892C0.893832 15.3342 0.591691 15.457 0.352497 15.7162C0.113303 15.9482 0 16.2756 0 16.6849ZM2.22828 25.116C2.22828 26.4393 2.66891 27.5853 3.56274 28.5539C4.45657 29.5225 5.50147 30 6.72262 30H15.3588C16.5799 30 17.6248 29.5225 18.4935 28.5675C19.3621 27.6125 19.8028 26.4666 19.8028 25.116C19.8028 24.4611 19.7146 23.9018 19.5384 23.4379C20.5833 22.7149 21.4142 21.7462 22.0185 20.5457C22.6227 19.3452 22.9375 18.0491 22.9375 16.6712C22.9375 15.5662 22.736 14.502 22.3332 13.4925C21.9303 12.4829 21.389 11.6098 20.7218 10.8868C20.0546 10.1637 19.2488 9.57708 18.3172 9.14052C17.3856 8.70396 16.4163 8.48568 15.3966 8.48568C14.0243 8.48568 12.7528 8.85402 11.5946 9.59072C10.4364 10.3274 9.51742 11.3233 8.85019 12.5648C8.18296 13.8199 7.85564 15.1842 7.85564 16.6712V17.1351C6.59673 17.9127 5.76584 19.045 5.36299 20.5321C4.40621 20.8595 3.65086 21.4325 3.08435 22.2647C2.51783 23.0969 2.22828 24.0518 2.22828 25.116ZM4.19219 5.79809C4.19219 6.18008 4.3055 6.49386 4.51951 6.71214L6.54637 9.01774C7.13806 9.50887 7.72975 9.50887 8.32144 9.01774C8.56064 8.75853 8.67394 8.44475 8.67394 8.06276C8.67394 7.69441 8.56064 7.38063 8.32144 7.10778L6.24423 4.85675C5.97986 4.59754 5.67772 4.46112 5.36299 4.46112C5.01049 4.46112 4.72094 4.5839 4.50692 4.84311C4.29291 5.10232 4.19219 5.4161 4.19219 5.79809ZM4.72094 25.116C4.72094 24.543 4.8846 24.0518 5.22451 23.6426C5.56441 23.2333 5.99245 23.0014 6.5086 22.9468L7.28913 22.8377C7.45279 22.8377 7.54091 22.7285 7.54091 22.5239L7.65422 21.7599C7.74234 20.9686 8.04448 20.3138 8.57323 19.7954C9.10197 19.2633 9.71884 19.0041 10.4364 19.0041C11.1666 19.0041 11.8086 19.2633 12.3374 19.7954C12.8787 20.3274 13.1935 20.9823 13.2816 21.7599L13.3823 22.6467C13.4578 22.8513 13.5585 22.9604 13.6844 22.9604H15.3462C15.8875 22.9604 16.3533 23.1787 16.7562 23.6016C17.159 24.0246 17.3479 24.5293 17.3479 25.1296C17.3479 25.7435 17.1465 26.2619 16.7562 26.6985C16.3659 27.1351 15.8875 27.3533 15.3462 27.3533H6.72262C6.15611 27.3533 5.67772 27.1351 5.30004 26.6985C4.90978 26.2619 4.72094 25.7299 4.72094 25.116ZM10.2854 16.3984C10.3735 14.9113 10.9022 13.6562 11.8842 12.633C12.8535 11.6235 14.0369 11.105 15.3966 11.105C16.794 11.105 17.9899 11.6508 18.9719 12.7285C19.9538 13.8063 20.4448 15.1296 20.4448 16.6712C20.4448 17.6262 20.2308 18.513 19.8028 19.3315C19.3747 20.1501 18.7956 20.8049 18.0655 21.3097C17.3227 20.6412 16.4666 20.3138 15.5099 20.3138C15.1448 19.1132 14.4901 18.1719 13.5711 17.4625C12.6521 16.7531 11.6072 16.3984 10.449 16.3984H10.2854ZM14.1754 4.46112C14.1754 4.82947 14.3013 5.15689 14.5405 5.4161C14.7797 5.67531 15.0692 5.81173 15.4091 5.81173C15.7616 5.81173 16.0512 5.67531 16.2904 5.4161C16.5296 5.15689 16.6555 4.84311 16.6555 4.46112V1.26876C16.6555 0.914052 16.5296 0.613915 16.2904 0.368349C16.0512 0.122783 15.7616 0 15.4091 0C15.0692 0 14.7797 0.122783 14.5405 0.368349C14.3013 0.613915 14.1754 0.914052 14.1754 1.26876V4.46112ZM22.1318 25.2387C22.1318 25.6071 22.2451 25.9209 22.4717 26.1937L24.5363 28.4038C25.065 28.9768 25.6567 28.9768 26.3114 28.4038C26.538 28.1719 26.6387 27.8718 26.6387 27.4761C26.6387 27.1078 26.5254 26.8076 26.3114 26.5621L24.1838 24.2838C23.9572 24.0518 23.6676 23.9427 23.3277 23.9427C22.9752 23.9427 22.6983 24.0655 22.4717 24.3111C22.2451 24.5566 22.1318 24.8704 22.1318 25.2387ZM22.1318 8.03547C22.1318 8.41746 22.2451 8.74488 22.4717 9.01774C22.6983 9.2633 22.9878 9.38608 23.3277 9.38608C23.6676 9.38608 23.9572 9.2633 24.1838 9.01774L26.3114 6.71214C26.538 6.48022 26.6387 6.18008 26.6387 5.79809C26.6387 5.4161 26.5128 5.10232 26.2736 4.85675C26.0344 4.61119 25.7449 4.47476 25.3924 4.47476C25.065 4.47476 24.7755 4.61119 24.5363 4.8704L22.4717 7.09413C22.2451 7.3397 22.1318 7.65348 22.1318 8.03547ZM25.3798 16.6849C25.3798 17.0532 25.4931 17.3533 25.7323 17.5989C25.9715 17.8445 26.2736 17.9536 26.6387 17.9536H28.7663C29.1062 17.9536 29.3957 17.8308 29.6349 17.5853C29.8741 17.3397 30 17.0396 30 16.6849C30 16.2892 29.8867 15.9618 29.6475 15.7162C29.4083 15.4707 29.1188 15.3342 28.7789 15.3342H26.6513C26.2862 15.3342 25.9841 15.457 25.7449 15.7162C25.5057 15.9482 25.3798 16.2756 25.3798 16.6849Z" fill="black" fill-opacity="0.89"/>
</svg>
