<svg width="34" height="33" viewBox="0 0 34 33" fill="none" xmlns="http://www.w3.org/2000/svg">
<path d="M12.9344 0H1.58368C0.686096 0 0 0.718639 0 1.65819V4.53256C0 4.80892 0.211205 5.08529 0.527897 5.08529H12.9339L12.9344 0Z" fill="black"/>
<path d="M16.6302 9.01011V0.000244141H13.9905V9.01011C14.9935 8.29147 15.0463 8.1258 15.3102 8.1258C15.5744 8.12555 15.6799 8.29122 16.6302 9.00985V9.01011Z" fill="black"/>
<path d="M26.7135 17.08C27.6638 17.08 28.5611 17.2459 29.3532 17.5223V6.24595H17.6858V10.1154C17.6858 10.3365 17.5803 10.5022 17.3691 10.6129C17.2107 10.7233 16.9997 10.6681 16.8412 10.5577L15.3103 9.34123L13.7794 10.5019C13.6209 10.6123 13.41 10.6678 13.2515 10.5571C13.093 10.4467 12.9875 10.2807 12.9875 10.0596V6.19019L1.21497 6.19044V26.145C1.21497 27.0849 1.90131 27.8032 2.79864 27.8032H18.7947C18.6362 27.0846 18.5307 26.366 18.5307 25.5923C18.531 20.949 22.2263 17.0795 26.7139 17.0795L26.7135 17.08ZM9.292 24.9843H6.07163C5.75495 24.9843 5.54374 24.7079 5.54374 24.4316C5.54374 24.1 5.75494 23.8788 6.07163 23.8788H9.292C9.60868 23.8788 9.81989 24.1 9.81989 24.4316C9.82014 24.7079 9.55619 24.9843 9.292 24.9843ZM9.292 22.2206H6.07163C5.75495 22.2206 5.54374 21.9443 5.54374 21.6679C5.54374 21.3363 5.75494 21.1152 6.07163 21.1152H9.292C9.60868 21.1152 9.81989 21.3363 9.81989 21.6679C9.82014 21.9443 9.55619 22.2206 9.292 22.2206Z" fill="black"/>
<path d="M26.7135 18.1855C22.8068 18.1855 19.6392 21.5022 19.6392 25.5928C19.6392 29.6833 22.8068 33 26.7135 33C30.6202 33 33.7879 29.6834 33.7879 25.5928C33.7882 21.5577 30.6206 18.1855 26.7135 18.1855ZM30.3035 23.5475L25.2883 28.5223C25.0771 28.7435 24.7604 28.7435 24.5492 28.5223L23.071 26.9746C22.8598 26.7534 22.8598 26.4218 23.071 26.2007C23.2822 25.9795 23.5989 25.9795 23.8101 26.2007L24.8659 27.3613L29.5117 22.7733C29.7229 22.5521 30.0396 22.5521 30.2508 22.7733C30.5148 22.9947 30.5148 23.3263 30.3036 23.5474L30.3035 23.5475Z" fill="black"/>
<path d="M30.5674 4.5878V1.65819C30.5674 0.718379 29.8811 0 28.9838 0H17.6859V5.14077H30.0919C30.3558 5.14052 30.567 4.86415 30.567 4.58778L30.5674 4.5878Z" fill="black"/>
</svg>
